<svg width="25" height="22" viewBox="0 0 25 22" fill="none" xmlns="http://www.w3.org/2000/svg">
<path d="M23 4H3C2.73478 4 2.48043 3.89464 2.29289 3.70711C2.10536 3.51957 2 3.26522 2 3C2 2.73478 2.10536 2.48043 2.29289 2.29289C2.48043 2.10536 2.73478 2 3 2H20C20.2652 2 20.5196 1.89464 20.7071 1.70711C20.8946 1.51957 21 1.26522 21 1C21 0.734784 20.8946 0.48043 20.7071 0.292893C20.5196 0.105357 20.2652 0 20 0H3C2.20462 0.000893291 1.44208 0.317251 0.879666 0.879666C0.317251 1.44208 0.000893291 2.20462 0 3V19C0.000893291 19.7954 0.317251 20.5579 0.879666 21.1203C1.44208 21.6828 2.20462 21.9991 3 22H23C23.5303 21.9994 24.0386 21.7885 24.4136 21.4136C24.7885 21.0386 24.9994 20.5303 25 20V6C24.9994 5.46975 24.7885 4.96139 24.4136 4.58644C24.0386 4.2115 23.5303 4.0006 23 4ZM23 20H3C2.73488 19.9997 2.48072 19.8942 2.29326 19.7067C2.10579 19.5193 2.00033 19.2651 2 19V5.82862C2.32112 5.94237 2.65933 6.00033 3 6H23V20ZM17 13C17 12.7033 17.088 12.4133 17.2528 12.1666C17.4176 11.92 17.6519 11.7277 17.926 11.6142C18.2001 11.5007 18.5017 11.4709 18.7926 11.5288C19.0836 11.5867 19.3509 11.7296 19.5607 11.9393C19.7704 12.1491 19.9133 12.4164 19.9712 12.7074C20.0291 12.9983 19.9993 13.2999 19.8858 13.574C19.7723 13.8481 19.58 14.0824 19.3334 14.2472C19.0867 14.412 18.7967 14.5 18.5 14.5C18.1022 14.5 17.7206 14.342 17.4393 14.0607C17.158 13.7794 17 13.3978 17 13Z" fill="white"/>
</svg>
