<svg width="24" height="25" viewBox="0 0 24 25" fill="none" xmlns="http://www.w3.org/2000/svg">
<path d="M12.0273 1.01269C12.0576 1.30998 11.9685 1.6071 11.7797 1.83872C11.5909 2.07035 11.3179 2.21751 11.0206 2.24785C9.18312 2.43866 7.43732 3.14618 5.98547 4.28845C4.53361 5.43072 3.43511 6.96098 2.81725 8.70193C2.19938 10.4429 2.08744 12.3233 2.4944 14.1252C2.90135 15.9272 3.81053 17.577 5.11662 18.8834C6.4227 20.1899 8.07223 21.0995 9.87407 21.507C11.6759 21.9144 13.5563 21.803 15.2975 21.1856C17.0386 20.5683 18.5691 19.4702 19.7118 18.0187C20.8545 16.5671 21.5625 14.8215 21.7538 12.9841C21.7885 12.6902 21.9374 12.4218 22.1683 12.2368C22.3992 12.0517 22.6936 11.9649 22.988 11.9951C23.2824 12.0253 23.553 12.1701 23.7416 12.3981C23.9301 12.6262 24.0214 12.9192 23.9957 13.214C23.761 15.4754 22.8902 17.624 21.4844 19.4108C20.0785 21.1976 18.1951 22.5494 16.0524 23.3096C13.9097 24.0698 11.5954 24.2072 9.3778 23.706C7.16019 23.2047 5.13001 22.0853 3.52255 20.4775C1.91508 18.8697 0.796142 16.8392 0.295403 14.6215C-0.205336 12.4038 -0.0673737 10.0895 0.693301 7.947C1.45398 5.80447 2.80622 3.92136 4.59332 2.51589C6.38042 1.11043 8.52922 0.240159 10.7907 0.00593436C10.938 -0.00924399 11.0869 0.00476363 11.2288 0.0471561C11.3707 0.0895486 11.5028 0.159495 11.6177 0.252995C11.7325 0.346496 11.8278 0.461717 11.8981 0.592072C11.9684 0.722426 12.0123 0.865358 12.0273 1.01269Z" fill="white"/>
<path d="M13.56 0.912073C13.6299 0.621613 13.8122 0.370768 14.0669 0.214671C14.3216 0.0585739 14.6279 0.00999769 14.9184 0.0796186C15.4879 0.214855 16.0409 0.392165 16.5758 0.605538C16.717 0.65757 16.8463 0.737347 16.9562 0.840164C17.066 0.942981 17.1542 1.06676 17.2154 1.20419C17.2767 1.34162 17.3098 1.48993 17.3128 1.64037C17.3158 1.7908 17.2887 1.94032 17.233 2.0801C17.1773 2.21988 17.0942 2.34709 16.9886 2.45423C16.8829 2.56138 16.7569 2.64628 16.6179 2.70393C16.4789 2.76159 16.3298 2.79083 16.1793 2.78993C16.0289 2.78903 15.8801 2.75801 15.7418 2.69869C15.3061 2.52589 14.8553 2.38314 14.394 2.27195C14.25 2.23753 14.1142 2.17509 13.9944 2.08819C13.8746 2.0013 13.7731 1.89165 13.6956 1.76551C13.6182 1.63937 13.5663 1.49921 13.5431 1.35303C13.5198 1.20685 13.5256 1.05753 13.56 0.913576V0.912073Z" fill="white"/>
<path d="M23.3962 7.42442C23.2856 7.14665 23.0692 6.92419 22.7946 6.80597C22.52 6.68776 22.2097 6.68348 21.9319 6.79407C21.6541 6.90466 21.4317 7.12106 21.3135 7.39567C21.1952 7.67028 21.191 7.98061 21.3015 8.25837C21.4758 8.69414 21.6186 9.14492 21.7298 9.60773C21.7995 9.89845 21.9819 10.1496 22.2368 10.3058C22.363 10.3832 22.5032 10.4349 22.6494 10.4581C22.7956 10.4813 22.945 10.4755 23.0889 10.4409C23.2329 10.4064 23.3686 10.3439 23.4884 10.2569C23.6082 10.1699 23.7096 10.0601 23.787 9.93394C23.8644 9.80773 23.9161 9.66752 23.9393 9.52131C23.9625 9.37511 23.9567 9.22576 23.9221 9.08181C23.7868 8.51745 23.611 7.96355 23.3962 7.42442Z" fill="white"/>
<path d="M18.4766 2.84448C18.6729 2.61915 18.9506 2.48101 19.2488 2.46044C19.5469 2.43987 19.841 2.53855 20.0664 2.73478C20.5277 3.13598 20.9589 3.57175 21.3556 4.03756C21.5417 4.26603 21.6309 4.5583 21.6041 4.85175C21.5773 5.1452 21.4367 5.41649 21.2123 5.60748C20.9879 5.79847 20.6976 5.89398 20.4037 5.87353C20.1097 5.85309 19.8354 5.71832 19.6396 5.49811C19.3161 5.11773 18.9645 4.76211 18.5878 4.43425C18.3622 4.23817 18.2238 3.96053 18.203 3.66239C18.1821 3.36426 18.2805 3.07005 18.4766 2.84448Z" fill="white"/>
<path d="M12.0303 5.5851C12.0303 5.28621 11.9116 4.99956 11.7003 4.78821C11.4889 4.57686 11.2023 4.45813 10.9034 4.45813C10.6045 4.45813 10.3178 4.57686 10.1065 4.78821C9.89513 4.99956 9.7764 5.28621 9.7764 5.5851V13.0982C9.7764 13.7218 10.2813 14.2252 10.9034 14.2252H15.4112C15.7101 14.2252 15.9968 14.1065 16.2081 13.8951C16.4195 13.6838 16.5382 13.3971 16.5382 13.0982C16.5382 12.7993 16.4195 12.5127 16.2081 12.3013C15.9968 12.09 15.7101 11.9713 15.4112 11.9713H12.0303V5.5851Z" fill="white"/>
</svg>
