<svg width="32" height="32" viewBox="0 0 32 32" fill="none" xmlns="http://www.w3.org/2000/svg">
<g clip-path="url(#clip0_2_12)">
<path d="M28.3284 32.0011H27.33C27.314 31.9883 27.3001 31.9659 27.283 31.9637C25.2339 31.7045 23.5027 29.5498 24.2227 27.106C24.2315 27.0695 24.2324 27.0316 24.2252 26.9947C24.218 26.9579 24.203 26.9231 24.1811 26.8926C23.6477 26.3497 23.1144 25.8153 22.6013 25.3011C18.2107 28.05 13.8618 28.0479 9.46912 25.3011C8.99337 25.779 8.50162 26.2846 7.99387 26.7753C7.92716 26.8284 7.87917 26.9015 7.85691 26.9838C7.83465 27.0661 7.83928 27.1534 7.87013 27.2329C8.12558 28.1431 8.02728 29.1162 7.59496 29.9569C7.16264 30.7976 6.42831 31.4436 5.53939 31.7653C5.27911 31.8592 5.00603 31.9253 4.74149 32.0043H3.74306C3.67778 31.9783 3.61077 31.9569 3.54252 31.9403C2.57703 31.7542 1.72147 31.2005 1.15616 30.396C0.590837 29.5915 0.359903 28.599 0.512017 27.6276C0.846962 25.6008 2.76169 24.1629 4.77243 24.5267C5.38151 24.6333 5.75059 24.5096 6.11967 24.0637C6.42688 23.6925 6.79809 23.3746 7.13944 23.0354C5.53939 20.9394 4.71802 18.6214 4.71909 16.0251C4.72016 13.4287 5.55325 11.0937 7.13944 9.02216C6.62529 8.51121 6.13674 8.0152 5.63005 7.53625C5.57998 7.50096 5.52307 7.47656 5.463 7.46462C5.40292 7.45268 5.341 7.45346 5.28124 7.46691C4.73618 7.60483 4.16931 7.63419 3.61292 7.55331C1.76219 7.2653 0.362679 5.52658 0.476816 3.64172C0.594153 1.68859 2.15367 0.128001 4.05347 0.0597324C6.66476 -0.0341374 8.54215 2.33714 7.868 4.87269C7.84453 4.96123 7.83173 5.10097 7.8808 5.15217C8.41415 5.70365 8.9571 6.2434 9.47125 6.75755C13.8714 4.0108 18.2182 4.0108 22.6013 6.75755C23.1154 6.24234 23.6477 5.71645 24.1672 5.17884C24.2162 5.09719 24.233 5.00018 24.2141 4.90683C24.1725 4.56762 24.0744 4.23054 24.0733 3.89239C24.0659 2.37554 24.74 1.2171 26.0681 0.508814C27.4356 -0.22081 28.8127 -0.118407 30.0629 0.80109C31.2928 1.70459 31.7984 2.97076 31.5435 4.47055C31.1669 6.69249 29.0047 8.03866 26.8276 7.47224C26.7209 7.44451 26.5556 7.42958 26.4926 7.48931C25.9667 7.98853 25.459 8.50588 24.9747 8.98909C28.1748 13.7018 28.1748 18.3622 24.9747 23.0696C25.3928 23.4834 25.8473 23.9091 26.2707 24.3656C26.4777 24.5896 26.6622 24.6451 26.9673 24.5693C27.8386 24.3573 28.757 24.464 29.5564 24.8703C30.3559 25.2765 30.9835 25.9555 31.3258 26.7843C31.6681 27.6131 31.7025 28.5371 31.4227 29.3891C31.1429 30.2411 30.5675 30.9648 29.8005 31.4293C29.346 31.6906 28.8191 31.8133 28.3284 32.0011ZM23.1016 21.7959C26.0062 18.3825 26.035 12.6564 22.0765 9.17363C18.1521 5.71859 12.1391 6.25087 8.9091 10.2947C5.76233 14.2415 6.71596 19.3478 8.99657 21.781C9.01363 21.654 9.02217 21.5399 9.0467 21.43C9.18751 20.8146 9.31125 20.1948 9.48298 19.5878C9.58965 19.1996 9.87126 18.9478 10.2691 18.8102C10.7886 18.631 11.2996 18.423 11.8041 18.2043C12.5786 17.8683 13.4202 17.671 14.0517 17.0416C14.4613 16.6299 14.6714 16.664 15.081 17.0672C15.401 17.3776 15.7115 17.6902 16.0571 18.0337C16.4048 17.6752 16.7184 17.3435 17.0406 17.0192C17.3627 16.695 17.6123 16.6608 17.9558 16.984C18.4089 17.396 18.9414 17.7111 19.5207 17.9099C20.31 18.2001 21.0812 18.535 21.8674 18.8369C22.0151 18.8871 22.1507 18.9679 22.2651 19.0739C22.3796 19.18 22.4705 19.3089 22.532 19.4524C22.6328 19.6686 22.7138 19.8935 22.7741 20.1244C22.8946 20.6695 22.9917 21.2199 23.1026 21.7949L23.1016 21.7959Z" fill="white"/>
<path d="M19.4044 11.9695C19.4161 12.8922 19.2913 13.7925 18.9052 14.6362C18.2171 16.1456 16.7216 16.9104 15.2101 16.5253C14.3567 16.312 13.7583 15.7712 13.3594 15.0138C12.6863 13.7338 12.5156 12.362 12.7194 10.9604C12.9231 9.55872 13.8277 8.72029 15.2357 8.56028C15.8226 8.48979 16.4164 8.50164 17 8.59548C18.4881 8.85363 19.3073 9.81366 19.4022 11.3145C19.414 11.5321 19.4044 11.7508 19.4044 11.9695Z" fill="white"/>
</g>
<defs>
<clipPath id="clip0_2_12">
<rect width="32" height="32" fill="white"/>
</clipPath>
</defs>
</svg>
