<svg width="23" height="23" viewBox="0 0 23 23" fill="none" xmlns="http://www.w3.org/2000/svg">
<path fill-rule="evenodd" clip-rule="evenodd" d="M12.5248 16.4434C12.7186 16.4434 12.8758 16.6005 12.8758 16.7943V18.1982C12.8758 18.3921 12.7186 18.5492 12.5248 18.5492C12.331 18.5492 12.1738 18.3921 12.1738 18.1982V16.7943C12.1738 16.6005 12.331 16.4434 12.5248 16.4434Z" fill="white"/>
<path fill-rule="evenodd" clip-rule="evenodd" d="M12.0723 16.7947C12.0723 16.5457 12.2742 16.3438 12.5232 16.3438C12.7723 16.3438 12.9742 16.5457 12.9742 16.7947V18.1986C12.9742 18.4477 12.7723 18.6496 12.5232 18.6496C12.2742 18.6496 12.0723 18.4477 12.0723 18.1986V16.7947ZM12.5232 16.5438C12.3846 16.5438 12.2723 16.6561 12.2723 16.7947V18.1986C12.2723 18.3372 12.3846 18.4496 12.5232 18.4496C12.6619 18.4496 12.7742 18.3372 12.7742 18.1986V16.7947C12.7742 16.6561 12.6619 16.5438 12.5232 16.5438Z" fill="white"/>
<path fill-rule="evenodd" clip-rule="evenodd" d="M12.5248 10.126C12.7186 10.126 12.8758 10.2831 12.8758 10.477V13.2848C12.8758 13.4786 12.7186 13.6357 12.5248 13.6357C12.331 13.6357 12.1738 13.4786 12.1738 13.2848V10.477C12.1738 10.2831 12.331 10.126 12.5248 10.126Z" fill="white"/>
<path fill-rule="evenodd" clip-rule="evenodd" d="M12.0723 10.4764C12.0723 10.2273 12.2742 10.0254 12.5232 10.0254C12.7723 10.0254 12.9742 10.2273 12.9742 10.4764V13.2842C12.9742 13.5332 12.7723 13.7351 12.5232 13.7351C12.2742 13.7351 12.0723 13.5332 12.0723 13.2842V10.4764ZM12.5232 10.2254C12.3846 10.2254 12.2723 10.3378 12.2723 10.4764V13.2842C12.2723 13.4228 12.3846 13.5351 12.5232 13.5351C12.6619 13.5351 12.7742 13.4228 12.7742 13.2842V10.4764C12.7742 10.3378 12.6619 10.2254 12.5232 10.2254Z" fill="white"/>
<path fill-rule="evenodd" clip-rule="evenodd" d="M11.4707 13.2846C11.4707 13.0907 11.6278 12.9336 11.8217 12.9336H13.2256C13.4194 12.9336 13.5766 13.0907 13.5766 13.2846V16.7943C13.5766 16.9882 13.4194 17.1453 13.2256 17.1453H11.8217C11.6278 17.1453 11.4707 16.9882 11.4707 16.7943V13.2846ZM12.1727 13.6355V16.4433H12.8746V13.6355H12.1727Z" fill="white"/>
<path fill-rule="evenodd" clip-rule="evenodd" d="M11.3711 13.285C11.3711 13.0359 11.573 12.834 11.8221 12.834H13.226C13.475 12.834 13.6769 13.0359 13.6769 13.285V16.7947C13.6769 17.0438 13.475 17.2457 13.226 17.2457H11.8221C11.573 17.2457 11.3711 17.0438 11.3711 16.7947V13.285ZM11.8221 13.034C11.6835 13.034 11.5711 13.1463 11.5711 13.285V16.7947C11.5711 16.9333 11.6835 17.0457 11.8221 17.0457H13.226C13.3646 17.0457 13.4769 16.9333 13.4769 16.7947V13.285C13.4769 13.1463 13.3646 13.034 13.226 13.034H11.8221ZM12.073 13.6359C12.073 13.5807 12.1178 13.5359 12.173 13.5359H12.875C12.9302 13.5359 12.975 13.5807 12.975 13.6359V16.4437C12.975 16.499 12.9302 16.5437 12.875 16.5437H12.173C12.1178 16.5437 12.073 16.499 12.073 16.4437V13.6359ZM12.273 13.7359V16.3437H12.775V13.7359H12.273Z" fill="white"/>
<path fill-rule="evenodd" clip-rule="evenodd" d="M9.71621 13.6357C9.91005 13.6357 10.0672 13.7929 10.0672 13.9867V15.3906C10.0672 15.5845 9.91005 15.7416 9.71621 15.7416C9.52237 15.7416 9.36523 15.5845 9.36523 15.3906V13.9867C9.36523 13.7929 9.52237 13.6357 9.71621 13.6357Z" fill="white"/>
<path fill-rule="evenodd" clip-rule="evenodd" d="M9.26562 13.9861C9.26562 13.7371 9.46753 13.5352 9.7166 13.5352C9.96567 13.5352 10.1676 13.7371 10.1676 13.9861V15.39C10.1676 15.6391 9.96567 15.841 9.7166 15.841C9.46753 15.841 9.26562 15.6391 9.26562 15.39V13.9861ZM9.7166 13.7352C9.57799 13.7352 9.46563 13.8475 9.46563 13.9861V15.39C9.46563 15.5286 9.57799 15.641 9.7166 15.641C9.85521 15.641 9.96757 15.5286 9.96757 15.39V13.9861C9.96757 13.8475 9.85521 13.7352 9.7166 13.7352Z" fill="white"/>
<path fill-rule="evenodd" clip-rule="evenodd" d="M9.71621 3.80762C9.91005 3.80762 10.0672 3.96475 10.0672 4.15859V6.26444C10.0672 6.45828 9.91005 6.61542 9.71621 6.61542C9.52237 6.61542 9.36523 6.45828 9.36523 6.26444V4.15859C9.36523 3.96475 9.52237 3.80762 9.71621 3.80762Z" fill="white"/>
<path fill-rule="evenodd" clip-rule="evenodd" d="M9.26562 4.15898C9.26562 3.90992 9.46753 3.70801 9.7166 3.70801C9.96567 3.70801 10.1676 3.90992 10.1676 4.15898V6.26483C10.1676 6.5139 9.96567 6.71581 9.7166 6.71581C9.46753 6.71581 9.26562 6.5139 9.26562 6.26483V4.15898ZM9.7166 3.90801C9.57799 3.90801 9.46563 4.02037 9.46563 4.15898V6.26483C9.46563 6.40344 9.57799 6.51581 9.7166 6.51581C9.85521 6.51581 9.96757 6.40344 9.96757 6.26483V4.15898C9.96757 4.02037 9.85521 3.90801 9.7166 3.90801Z" fill="white"/>
<path fill-rule="evenodd" clip-rule="evenodd" d="M8.66406 6.26504C8.66406 6.0712 8.8212 5.91406 9.01504 5.91406H10.4189C10.6128 5.91406 10.7699 6.0712 10.7699 6.26504V13.9865C10.7699 14.1803 10.6128 14.3375 10.4189 14.3375H9.01504C8.8212 14.3375 8.66406 14.1803 8.66406 13.9865V6.26504ZM9.36601 6.61601V13.6355H10.068V6.61601H9.36601Z" fill="white"/>
<path fill-rule="evenodd" clip-rule="evenodd" d="M8.5625 6.26543C8.5625 6.01636 8.76441 5.81445 9.01347 5.81445H10.4174C10.6664 5.81445 10.8683 6.01636 10.8683 6.26543V13.9869C10.8683 14.2359 10.6664 14.4379 10.4174 14.4379H9.01347C8.76441 14.4379 8.5625 14.2359 8.5625 13.9869V6.26543ZM9.01347 6.01445C8.87487 6.01445 8.7625 6.12682 8.7625 6.26543V13.9869C8.7625 14.1255 8.87487 14.2379 9.01347 14.2379H10.4174C10.556 14.2379 10.6683 14.1255 10.6683 13.9869V6.26543C10.6683 6.12682 10.556 6.01445 10.4174 6.01445H9.01347ZM9.26445 6.6164C9.26445 6.56117 9.30922 6.5164 9.36445 6.5164H10.0664C10.1216 6.5164 10.1664 6.56117 10.1664 6.6164V13.6359C10.1664 13.6911 10.1216 13.7359 10.0664 13.7359H9.36445C9.30922 13.7359 9.26445 13.6911 9.26445 13.6359V6.6164ZM9.46445 6.7164V13.5359H9.9664V6.7164H9.46445Z" fill="white"/>
<path fill-rule="evenodd" clip-rule="evenodd" d="M15.3314 15.0391C15.5253 15.0391 15.6824 15.1962 15.6824 15.39V16.7939C15.6824 16.9878 15.5253 17.1449 15.3314 17.1449C15.1376 17.1449 14.9805 16.9878 14.9805 16.7939V15.39C14.9805 15.1962 15.1376 15.0391 15.3314 15.0391Z" fill="white"/>
<path fill-rule="evenodd" clip-rule="evenodd" d="M14.8809 15.3904C14.8809 15.1414 15.0828 14.9395 15.3318 14.9395C15.5809 14.9395 15.7828 15.1414 15.7828 15.3904V16.7943C15.7828 17.0434 15.5809 17.2453 15.3318 17.2453C15.0828 17.2453 14.8809 17.0434 14.8809 16.7943V15.3904ZM15.3318 15.1395C15.1932 15.1395 15.0809 15.2518 15.0809 15.3904V16.7943C15.0809 16.9329 15.1932 17.0453 15.3318 17.0453C15.4704 17.0453 15.5828 16.9329 15.5828 16.7943V15.3904C15.5828 15.2518 15.4704 15.1395 15.3318 15.1395Z" fill="white"/>
<path fill-rule="evenodd" clip-rule="evenodd" d="M15.3314 5.91406C15.5253 5.91406 15.6824 6.0712 15.6824 6.26504V7.66894C15.6824 7.86278 15.5253 8.01991 15.3314 8.01991C15.1376 8.01991 14.9805 7.86278 14.9805 7.66894V6.26504C14.9805 6.0712 15.1376 5.91406 15.3314 5.91406Z" fill="white"/>
<path fill-rule="evenodd" clip-rule="evenodd" d="M14.8809 6.26543C14.8809 6.01636 15.0828 5.81445 15.3318 5.81445C15.5809 5.81445 15.7828 6.01636 15.7828 6.26543V7.66933C15.7828 7.91839 15.5809 8.1203 15.3318 8.1203C15.0828 8.1203 14.8809 7.91839 14.8809 7.66933V6.26543ZM15.3318 6.01445C15.1932 6.01445 15.0809 6.12682 15.0809 6.26543V7.66933C15.0809 7.80794 15.1932 7.9203 15.3318 7.9203C15.4704 7.9203 15.5828 7.80794 15.5828 7.66933V6.26543C15.5828 6.12682 15.4704 6.01445 15.3318 6.01445Z" fill="white"/>
<path fill-rule="evenodd" clip-rule="evenodd" d="M14.2793 7.66836C14.2793 7.47452 14.4364 7.31738 14.6303 7.31738H16.0342C16.228 7.31738 16.3851 7.47452 16.3851 7.66836V15.3898C16.3851 15.5836 16.228 15.7408 16.0342 15.7408H14.6303C14.4364 15.7408 14.2793 15.5836 14.2793 15.3898V7.66836ZM14.9812 8.01933V15.0388H15.6832V8.01933H14.9812Z" fill="white"/>
<path fill-rule="evenodd" clip-rule="evenodd" d="M14.1777 7.66875C14.1777 7.41968 14.3796 7.21777 14.6287 7.21777H16.0326C16.2817 7.21777 16.4836 7.41968 16.4836 7.66875V15.3902C16.4836 15.6393 16.2817 15.8412 16.0326 15.8412H14.6287C14.3796 15.8412 14.1777 15.6393 14.1777 15.3902V7.66875ZM14.6287 7.41777C14.4901 7.41777 14.3777 7.53014 14.3777 7.66875V15.3902C14.3777 15.5288 14.4901 15.6412 14.6287 15.6412H16.0326C16.1712 15.6412 16.2836 15.5288 16.2836 15.3902V7.66875C16.2836 7.53014 16.1712 7.41777 16.0326 7.41777H14.6287ZM14.8797 8.01972C14.8797 7.96449 14.9245 7.91972 14.9797 7.91972H15.6816C15.7369 7.91972 15.7816 7.96449 15.7816 8.01972V15.0392C15.7816 15.0945 15.7369 15.1392 15.6816 15.1392H14.9797C14.9245 15.1392 14.8797 15.0945 14.8797 15.0392V8.01972ZM15.0797 8.11972V14.9392H15.5816V8.11972H15.0797Z" fill="white"/>
<path fill-rule="evenodd" clip-rule="evenodd" d="M6.90762 8.01953C7.10145 8.01953 7.25859 8.17667 7.25859 8.37051V10.4764C7.25859 10.6702 7.10145 10.8273 6.90762 10.8273C6.71378 10.8273 6.55664 10.6702 6.55664 10.4764V8.37051C6.55664 8.17667 6.71378 8.01953 6.90762 8.01953Z" fill="white"/>
<path fill-rule="evenodd" clip-rule="evenodd" d="M6.45703 8.3709C6.45703 8.12183 6.65894 7.91992 6.90801 7.91992C7.15707 7.91992 7.35898 8.12183 7.35898 8.3709V10.4767C7.35898 10.7258 7.15707 10.9277 6.90801 10.9277C6.65894 10.9277 6.45703 10.7258 6.45703 10.4767V8.3709ZM6.90801 8.11992C6.7694 8.11992 6.65703 8.23229 6.65703 8.3709V10.4767C6.65703 10.6154 6.7694 10.7277 6.90801 10.7277C7.04662 10.7277 7.15898 10.6154 7.15898 10.4767V8.3709C7.15898 8.23229 7.04662 8.11992 6.90801 8.11992Z" fill="white"/>
<path fill-rule="evenodd" clip-rule="evenodd" d="M6.90762 1C7.10145 1 7.25859 1.15714 7.25859 1.35097V2.75487C7.25859 2.94871 7.10145 3.10585 6.90762 3.10585C6.71378 3.10585 6.55664 2.94871 6.55664 2.75487V1.35097C6.55664 1.15714 6.71378 1 6.90762 1Z" fill="white"/>
<path fill-rule="evenodd" clip-rule="evenodd" d="M6.45703 1.35137C6.45703 1.1023 6.65894 0.900391 6.90801 0.900391C7.15707 0.900391 7.35898 1.1023 7.35898 1.35137V2.75527C7.35898 3.00433 7.15707 3.20624 6.90801 3.20624C6.65894 3.20624 6.45703 3.00433 6.45703 2.75527V1.35137ZM6.90801 1.10039C6.7694 1.10039 6.65703 1.21276 6.65703 1.35137V2.75527C6.65703 2.89388 6.7694 3.00624 6.90801 3.00624C7.04662 3.00624 7.15898 2.89388 7.15898 2.75527V1.35137C7.15898 1.21276 7.04662 1.10039 6.90801 1.10039Z" fill="white"/>
<path fill-rule="evenodd" clip-rule="evenodd" d="M5.85547 2.75527C5.85547 2.56143 6.01261 2.4043 6.20644 2.4043H7.61034C7.80418 2.4043 7.96132 2.56143 7.96132 2.75527V8.37087C7.96132 8.56471 7.80418 8.72185 7.61034 8.72185H6.20644C6.01261 8.72185 5.85547 8.56471 5.85547 8.37087V2.75527ZM6.55742 3.10625V8.0199H7.25937V3.10625H6.55742Z" fill="white"/>
<path fill-rule="evenodd" clip-rule="evenodd" d="M5.75586 2.75566C5.75586 2.5066 5.95777 2.30469 6.20683 2.30469H7.61073C7.8598 2.30469 8.06171 2.5066 8.06171 2.75566V8.37126C8.06171 8.62033 7.8598 8.82224 7.61073 8.82224H6.20683C5.95777 8.82224 5.75586 8.62033 5.75586 8.37126V2.75566ZM6.20683 2.50469C6.06822 2.50469 5.95586 2.61705 5.95586 2.75566V8.37126C5.95586 8.50987 6.06822 8.62224 6.20683 8.62224H7.61073C7.74934 8.62224 7.86171 8.50987 7.86171 8.37126V2.75566C7.86171 2.61705 7.74934 2.50469 7.61073 2.50469H6.20683ZM6.45781 3.10664C6.45781 3.05141 6.50258 3.00664 6.55781 3.00664H7.25976C7.31499 3.00664 7.35976 3.05141 7.35976 3.10664V8.02029C7.35976 8.07552 7.31499 8.12029 7.25976 8.12029H6.55781C6.50258 8.12029 6.45781 8.07552 6.45781 8.02029V3.10664ZM6.65781 3.20664V7.92029H7.15976V3.20664H6.65781Z" fill="white"/>
<path fill-rule="evenodd" clip-rule="evenodd" d="M4.10083 11.4414C4.34313 11.4414 4.53955 11.6378 4.53955 11.8801V13.986C4.53955 14.2283 4.34313 14.4247 4.10083 14.4247C3.85853 14.4247 3.66211 14.2283 3.66211 13.986V11.8801C3.66211 11.6378 3.85853 11.4414 4.10083 11.4414Z" fill="white"/>
<path fill-rule="evenodd" clip-rule="evenodd" d="M3.5625 11.8805C3.5625 11.583 3.80369 11.3418 4.10122 11.3418C4.39874 11.3418 4.63994 11.583 4.63994 11.8805V13.9864C4.63994 14.2839 4.39874 14.5251 4.10122 14.5251C3.80369 14.5251 3.5625 14.2839 3.5625 13.9864V11.8805ZM4.10122 11.5418C3.91415 11.5418 3.7625 11.6934 3.7625 11.8805V13.9864C3.7625 14.1734 3.91415 14.3251 4.10122 14.3251C4.28829 14.3251 4.43994 14.1734 4.43994 13.9864V11.8805C4.43994 11.6934 4.28829 11.5418 4.10122 11.5418Z" fill="white"/>
<path fill-rule="evenodd" clip-rule="evenodd" d="M4.10083 5.12402C4.34313 5.12402 4.53955 5.32044 4.53955 5.56274V6.96664C4.53955 7.20894 4.34313 7.40536 4.10083 7.40536C3.85853 7.40536 3.66211 7.20894 3.66211 6.96664V5.56274C3.66211 5.32044 3.85853 5.12402 4.10083 5.12402Z" fill="white"/>
<path fill-rule="evenodd" clip-rule="evenodd" d="M3.5625 5.56313C3.5625 5.26561 3.80369 5.02441 4.10122 5.02441C4.39874 5.02441 4.63994 5.26561 4.63994 5.56313V6.96703C4.63994 7.26456 4.39874 7.50575 4.10122 7.50575C3.80369 7.50575 3.5625 7.26456 3.5625 6.96703V5.56313ZM4.10122 5.22441C3.91415 5.22441 3.7625 5.37606 3.7625 5.56313V6.96703C3.7625 7.1541 3.91415 7.30575 4.10122 7.30575C4.28829 7.30575 4.43994 7.1541 4.43994 6.96703V5.56313C4.43994 5.37606 4.28829 5.22441 4.10122 5.22441Z" fill="white"/>
<path fill-rule="evenodd" clip-rule="evenodd" d="M2.95898 6.96704C2.95898 6.72474 3.15541 6.52832 3.3977 6.52832H4.8016C5.0439 6.52832 5.24032 6.72474 5.24032 6.96704V11.8807C5.24032 12.123 5.0439 12.3194 4.8016 12.3194H3.3977C3.15541 12.3194 2.95898 12.123 2.95898 11.8807V6.96704ZM3.83642 7.40576V11.442H4.36288V7.40576H3.83642Z" fill="white"/>
<path fill-rule="evenodd" clip-rule="evenodd" d="M2.85938 6.96743C2.85938 6.6699 3.10057 6.42871 3.39809 6.42871H4.80199C5.09952 6.42871 5.34071 6.6699 5.34071 6.96743V11.8811C5.34071 12.1786 5.09952 12.4198 4.80199 12.4198H3.39809C3.10057 12.4198 2.85938 12.1786 2.85938 11.8811V6.96743ZM3.39809 6.62871C3.21102 6.62871 3.05938 6.78036 3.05938 6.96743V11.8811C3.05938 12.0681 3.21102 12.2198 3.39809 12.2198H4.80199C4.98906 12.2198 5.14071 12.0681 5.14071 11.8811V6.96743C5.14071 6.78036 4.98906 6.62871 4.80199 6.62871H3.39809ZM3.73681 7.40615C3.73681 7.35092 3.78158 7.30615 3.83681 7.30615H4.36327C4.4185 7.30615 4.46327 7.35092 4.46327 7.40615V11.4424C4.46327 11.4976 4.4185 11.5424 4.36327 11.5424H3.83681C3.78158 11.5424 3.73681 11.4976 3.73681 11.4424V7.40615ZM3.93681 7.50615V11.3424H4.26327V7.50615H3.93681Z" fill="white"/>
<path fill-rule="evenodd" clip-rule="evenodd" d="M20.9467 14.3369C21.1405 14.3369 21.2977 14.4941 21.2977 14.6879V16.0918C21.2977 16.2856 21.1405 16.4428 20.9467 16.4428C20.7528 16.4428 20.5957 16.2856 20.5957 16.0918V14.6879C20.5957 14.4941 20.7528 14.3369 20.9467 14.3369Z" fill="white"/>
<path fill-rule="evenodd" clip-rule="evenodd" d="M20.4961 14.6883C20.4961 14.4392 20.698 14.2373 20.9471 14.2373C21.1961 14.2373 21.398 14.4392 21.398 14.6883V16.0922C21.398 16.3412 21.1961 16.5432 20.9471 16.5432C20.698 16.5432 20.4961 16.3412 20.4961 16.0922V14.6883ZM20.9471 14.4373C20.8085 14.4373 20.6961 14.5497 20.6961 14.6883V16.0922C20.6961 16.2308 20.8085 16.3432 20.9471 16.3432C21.0857 16.3432 21.198 16.2308 21.198 16.0922V14.6883C21.198 14.5497 21.0857 14.4373 20.9471 14.4373Z" fill="white"/>
<path fill-rule="evenodd" clip-rule="evenodd" d="M20.9467 6.61621C21.1405 6.61621 21.2977 6.77335 21.2977 6.96719V8.37109C21.2977 8.56492 21.1405 8.72206 20.9467 8.72206C20.7528 8.72206 20.5957 8.56492 20.5957 8.37109V6.96719C20.5957 6.77335 20.7528 6.61621 20.9467 6.61621Z" fill="white"/>
<path fill-rule="evenodd" clip-rule="evenodd" d="M20.4961 6.9666C20.4961 6.71753 20.698 6.51562 20.9471 6.51562C21.1961 6.51562 21.398 6.71753 21.398 6.9666V8.3705C21.398 8.61957 21.1961 8.82147 20.9471 8.82147C20.698 8.82147 20.4961 8.61957 20.4961 8.3705V6.9666ZM20.9471 6.71563C20.8085 6.71563 20.6961 6.82799 20.6961 6.9666V8.3705C20.6961 8.50911 20.8085 8.62147 20.9471 8.62147C21.0857 8.62147 21.198 8.50911 21.198 8.3705V6.9666C21.198 6.82799 21.0857 6.71563 20.9471 6.71563Z" fill="white"/>
<path fill-rule="evenodd" clip-rule="evenodd" d="M19.8945 8.37051C19.8945 8.17667 20.0517 8.01953 20.2455 8.01953H21.6494C21.8432 8.01953 22.0004 8.17667 22.0004 8.37051V14.6881C22.0004 14.8819 21.8432 15.039 21.6494 15.039H20.2455C20.0517 15.039 19.8945 14.8819 19.8945 14.6881V8.37051ZM20.5965 8.72148V14.3371H21.2984V8.72148H20.5965Z" fill="white"/>
<path fill-rule="evenodd" clip-rule="evenodd" d="M19.7949 8.3709C19.7949 8.12183 19.9968 7.91992 20.2459 7.91992H21.6498C21.8989 7.91992 22.1008 8.12183 22.1008 8.3709V14.6884C22.1008 14.9375 21.8989 15.1394 21.6498 15.1394H20.2459C19.9968 15.1394 19.7949 14.9375 19.7949 14.6884V8.3709ZM20.2459 8.11992C20.1073 8.11992 19.9949 8.23229 19.9949 8.3709V14.6884C19.9949 14.8271 20.1073 14.9394 20.2459 14.9394H21.6498C21.7884 14.9394 21.9008 14.8271 21.9008 14.6884V8.3709C21.9008 8.23229 21.7884 8.11992 21.6498 8.11992H20.2459ZM20.4969 8.72187C20.4969 8.66664 20.5416 8.62187 20.5969 8.62187H21.2988C21.3541 8.62187 21.3988 8.66664 21.3988 8.72187V14.3375C21.3988 14.3927 21.3541 14.4375 21.2988 14.4375H20.5969C20.5416 14.4375 20.4969 14.3927 20.4969 14.3375V8.72187ZM20.6969 8.82187V14.2375H21.1988V8.82187H20.6969Z" fill="white"/>
<path fill-rule="evenodd" clip-rule="evenodd" d="M18.14 8.72168C18.3339 8.72168 18.491 8.87882 18.491 9.07265V12.5824C18.491 12.7762 18.3339 12.9334 18.14 12.9334C17.9462 12.9334 17.7891 12.7762 17.7891 12.5824V9.07265C17.7891 8.87882 17.9462 8.72168 18.14 8.72168Z" fill="white"/>
<path fill-rule="evenodd" clip-rule="evenodd" d="M17.6875 9.07305C17.6875 8.82398 17.8894 8.62207 18.1385 8.62207C18.3875 8.62207 18.5894 8.82398 18.5894 9.07305V12.5828C18.5894 12.8319 18.3875 13.0338 18.1385 13.0338C17.8894 13.0338 17.6875 12.8319 17.6875 12.5828V9.07305ZM18.1385 8.82207C17.9999 8.82207 17.8875 8.93444 17.8875 9.07305V12.5828C17.8875 12.7214 17.9999 12.8338 18.1385 12.8338C18.2771 12.8338 18.3894 12.7214 18.3894 12.5828V9.07305C18.3894 8.93444 18.2771 8.82207 18.1385 8.82207Z" fill="white"/>
<path fill-rule="evenodd" clip-rule="evenodd" d="M18.14 3.10645C18.3339 3.10645 18.491 3.26358 18.491 3.45742V4.86132C18.491 5.05516 18.3339 5.2123 18.14 5.2123C17.9462 5.2123 17.7891 5.05516 17.7891 4.86132V3.45742C17.7891 3.26358 17.9462 3.10645 18.14 3.10645Z" fill="white"/>
<path fill-rule="evenodd" clip-rule="evenodd" d="M17.6875 3.45683C17.6875 3.20777 17.8894 3.00586 18.1385 3.00586C18.3875 3.00586 18.5894 3.20777 18.5894 3.45683V4.86073C18.5894 5.1098 18.3875 5.31171 18.1385 5.31171C17.8894 5.31171 17.6875 5.1098 17.6875 4.86073V3.45683ZM18.1385 3.20586C17.9999 3.20586 17.8875 3.31822 17.8875 3.45683V4.86073C17.8875 4.99934 17.9999 5.11171 18.1385 5.11171C18.2771 5.11171 18.3894 4.99934 18.3894 4.86073V3.45683C18.3894 3.31822 18.2771 3.20586 18.1385 3.20586Z" fill="white"/>
<path fill-rule="evenodd" clip-rule="evenodd" d="M17.0859 4.86074C17.0859 4.6669 17.2431 4.50977 17.4369 4.50977H18.8408C19.0347 4.50977 19.1918 4.6669 19.1918 4.86074V9.07244C19.1918 9.26628 19.0347 9.42341 18.8408 9.42341H17.4369C17.2431 9.42341 17.0859 9.26628 17.0859 9.07244V4.86074ZM17.7879 5.21172V8.72146H18.4898V5.21172H17.7879Z" fill="white"/>
<path fill-rule="evenodd" clip-rule="evenodd" d="M16.9863 4.86113C16.9863 4.61206 17.1882 4.41016 17.4373 4.41016H18.8412C19.0903 4.41016 19.2922 4.61206 19.2922 4.86113V9.07283C19.2922 9.3219 19.0903 9.52381 18.8412 9.52381H17.4373C17.1882 9.52381 16.9863 9.3219 16.9863 9.07283V4.86113ZM17.4373 4.61016C17.2987 4.61016 17.1863 4.72252 17.1863 4.86113V9.07283C17.1863 9.21144 17.2987 9.32381 17.4373 9.32381H18.8412C18.9798 9.32381 19.0922 9.21144 19.0922 9.07283V4.86113C19.0922 4.72252 18.9798 4.61016 18.8412 4.61016H17.4373ZM17.6883 5.21211C17.6883 5.15688 17.733 5.11211 17.7883 5.11211H18.4902C18.5455 5.11211 18.5902 5.15688 18.5902 5.21211V8.72186C18.5902 8.77708 18.5455 8.82186 18.4902 8.82186H17.7883C17.733 8.82186 17.6883 8.77708 17.6883 8.72186V5.21211ZM17.8883 5.31211V8.62186H18.3902V5.31211H17.8883Z" fill="white"/>
<path fill-rule="evenodd" clip-rule="evenodd" d="M1.99365 1.05859C2.15518 1.05859 2.28613 1.18954 2.28613 1.35107V21.7076C2.28613 21.8692 2.15518 22.0001 1.99365 22.0001C1.83212 22.0001 1.70117 21.8692 1.70117 21.7076V1.35107C1.70117 1.18954 1.83212 1.05859 1.99365 1.05859Z" fill="white"/>
<path fill-rule="evenodd" clip-rule="evenodd" d="M1.60156 1.35146C1.60156 1.1347 1.77728 0.958984 1.99404 0.958984C2.2108 0.958984 2.38652 1.1347 2.38652 1.35146V21.708C2.38652 21.9248 2.2108 22.1005 1.99404 22.1005C1.77728 22.1005 1.60156 21.9248 1.60156 21.708V1.35146ZM1.99404 1.15898C1.88774 1.15898 1.80156 1.24516 1.80156 1.35146V21.708C1.80156 21.8143 1.88774 21.9005 1.99404 21.9005C2.10034 21.9005 2.18652 21.8143 2.18652 21.708V1.35146C2.18652 1.24516 2.10034 1.15898 1.99404 1.15898Z" fill="white"/>
<path fill-rule="evenodd" clip-rule="evenodd" d="M1 20.3042C1 20.1427 1.13095 20.0117 1.29248 20.0117H21.649C21.8106 20.0117 21.9415 20.1427 21.9415 20.3042C21.9415 20.4657 21.8106 20.5967 21.649 20.5967H1.29248C1.13095 20.5967 1 20.4657 1 20.3042Z" fill="white"/>
<path fill-rule="evenodd" clip-rule="evenodd" d="M0.900391 20.3036C0.900391 20.0869 1.07611 19.9111 1.29287 19.9111H21.6494C21.8662 19.9111 22.0419 20.0869 22.0419 20.3036C22.0419 20.5204 21.8662 20.6961 21.6494 20.6961H1.29287C1.07611 20.6961 0.900391 20.5204 0.900391 20.3036ZM1.29287 20.1111C1.18657 20.1111 1.10039 20.1973 1.10039 20.3036C1.10039 20.4099 1.18657 20.4961 1.29287 20.4961H21.6494C21.7557 20.4961 21.8419 20.4099 21.8419 20.3036C21.8419 20.1973 21.7557 20.1111 21.6494 20.1111H1.29287Z" fill="white"/>
</svg>
