<svg width="40" height="40" viewBox="0 0 40 40" fill="none" xmlns="http://www.w3.org/2000/svg">
<path d="M10.6252 7.8125C8.04056 7.8125 5.93774 9.91531 5.93774 12.5V21.875C5.93774 22.738 6.63728 23.4375 7.50024 23.4375C8.36321 23.4375 9.06274 22.738 9.06274 21.875V17.1875H12.1877V21.875C12.1877 22.738 12.8873 23.4375 13.7502 23.4375C14.6132 23.4375 15.3127 22.738 15.3127 21.875V12.5C15.3127 9.91531 13.2099 7.8125 10.6252 7.8125ZM9.06274 14.0625V12.5C9.06274 11.6384 9.76368 10.9375 10.6252 10.9375C11.4868 10.9375 12.1877 11.6384 12.1877 12.5V14.0625H9.06274Z" fill="#4DBF9D"/>
<path d="M23.1252 7.8125H20.0002C19.1373 7.8125 18.4377 8.51203 18.4377 9.375V21.875C18.4377 22.738 19.1373 23.4375 20.0002 23.4375C20.8632 23.4375 21.5627 22.738 21.5627 21.875V17.1875H23.1252C25.7099 17.1875 27.8127 15.0847 27.8127 12.5C27.8127 9.91531 25.7099 7.8125 23.1252 7.8125ZM23.1252 14.0625H21.5627V10.9375H23.1252C23.9868 10.9375 24.6877 11.6384 24.6877 12.5C24.6877 13.3616 23.9868 14.0625 23.1252 14.0625Z" fill="#4DBF9D"/>
<path d="M32.5002 7.8125C31.6373 7.8125 30.9377 8.51203 30.9377 9.375V21.875C30.9377 22.738 31.6373 23.4375 32.5002 23.4375C33.3632 23.4375 34.0627 22.738 34.0627 21.875V9.375C34.0627 8.51203 33.3632 7.8125 32.5002 7.8125Z" fill="#4DBF9D"/>
<path d="M35.3125 0H4.6875C2.10281 0 0 2.10281 0 4.6875V26.5625C0 29.1472 2.10281 31.25 4.6875 31.25H15.3125V36.875H10.625C9.76203 36.875 9.0625 37.5745 9.0625 38.4375C9.0625 39.3005 9.76203 40 10.625 40H29.375C30.238 40 30.9375 39.3005 30.9375 38.4375C30.9375 37.5745 30.238 36.875 29.375 36.875H24.6875V31.25H35.3125C37.8972 31.25 40 29.1472 40 26.5625V4.6875C40 2.10281 37.8972 0 35.3125 0ZM21.5625 36.875H18.4375V31.25H21.5625V36.875ZM36.875 26.5625C36.875 27.4241 36.1741 28.125 35.3125 28.125H4.6875C3.82594 28.125 3.125 27.4241 3.125 26.5625V4.6875C3.125 3.82594 3.82594 3.125 4.6875 3.125H35.3125C36.1741 3.125 36.875 3.82594 36.875 4.6875V26.5625Z" fill="#4DBF9D"/>
</svg>
