<svg width="23" height="25" viewBox="0 0 23 25" fill="none" xmlns="http://www.w3.org/2000/svg">
<path fill-rule="evenodd" clip-rule="evenodd" d="M10.0254 3.04249C10.0254 2.85975 10.1735 2.71161 10.3563 2.71161H12.6445C12.8273 2.71161 12.9754 2.85975 12.9754 3.04249C12.9754 3.22524 12.8273 3.37338 12.6445 3.37338H10.3563C10.1735 3.37338 10.0254 3.22524 10.0254 3.04249Z" fill="white"/>
<path fill-rule="evenodd" clip-rule="evenodd" d="M9.9165 3.04249C9.9165 2.79983 10.1132 2.60312 10.3559 2.60312H12.6441C12.8868 2.60312 13.0835 2.79983 13.0835 3.04249C13.0835 3.28515 12.8868 3.48186 12.6441 3.48186H10.3559C10.1132 3.48186 9.9165 3.28515 9.9165 3.04249ZM10.3559 2.82009C10.233 2.82009 10.1335 2.91966 10.1335 3.04249C10.1335 3.16532 10.233 3.26489 10.3559 3.26489H12.6441C12.7669 3.26489 12.8665 3.16532 12.8665 3.04249C12.8665 2.91966 12.7669 2.82009 12.6441 2.82009H10.3559Z" fill="white"/>
<path fill-rule="evenodd" clip-rule="evenodd" d="M5.77933 8.73044C6.00776 8.73044 6.19293 8.91562 6.19293 9.14404V22.1107C6.19293 22.7213 6.69423 23.2226 7.30482 23.2226H15.695C16.3056 23.2226 16.8069 22.7213 16.8069 22.1107V9.14404C16.8069 8.91562 16.9921 8.73044 17.2205 8.73044C17.4489 8.73044 17.6341 8.91562 17.6341 9.14404V22.1107C17.6341 23.1782 16.7625 24.0498 15.695 24.0498H7.30482C6.23737 24.0498 5.36572 23.1782 5.36572 22.1107V9.14404C5.36572 8.91562 5.5509 8.73044 5.77933 8.73044Z" fill="white"/>
<path fill-rule="evenodd" clip-rule="evenodd" d="M5.25732 9.14407C5.25732 8.85573 5.49107 8.62198 5.77942 8.62198C6.06776 8.62198 6.30151 8.85573 6.30151 9.14407V22.1107C6.30151 22.6614 6.75423 23.1141 7.30491 23.1141H15.6951C16.2458 23.1141 16.6985 22.6614 16.6985 22.1107V9.14407C16.6985 8.85573 16.9322 8.62198 17.2206 8.62198C17.5089 8.62198 17.7427 8.85573 17.7427 9.14407V22.1107C17.7427 23.2381 16.8225 24.1583 15.6951 24.1583H7.30491C6.17754 24.1583 5.25732 23.2381 5.25732 22.1107V9.14407ZM5.77942 8.83895C5.6109 8.83895 5.4743 8.97556 5.4743 9.14407V22.1107C5.4743 23.1183 6.29737 23.9413 7.30491 23.9413H15.6951C16.7026 23.9413 17.5257 23.1183 17.5257 22.1107V9.14407C17.5257 8.97556 17.3891 8.83895 17.2206 8.83895C17.0521 8.83895 16.9155 8.97556 16.9155 9.14407V22.1107C16.9155 22.7812 16.3656 23.3311 15.6951 23.3311H7.30491C6.6344 23.3311 6.08454 22.7812 6.08454 22.1107V9.14407C6.08454 8.97556 5.94793 8.83895 5.77942 8.83895Z" fill="white"/>
<path fill-rule="evenodd" clip-rule="evenodd" d="M7.30482 1.93018C6.69423 1.93018 6.19293 2.43147 6.19293 3.04206V11.4323C6.19293 11.6607 6.00776 11.8459 5.77933 11.8459C5.5509 11.8459 5.36572 11.6607 5.36572 11.4323V3.04206C5.36572 1.97461 6.23737 1.10297 7.30482 1.10297H15.695C16.7625 1.10297 17.6341 1.97461 17.6341 3.04206V11.4323C17.6341 11.6607 17.4489 11.8459 17.2205 11.8459C16.9921 11.8459 16.8069 11.6607 16.8069 11.4323V3.04206C16.8069 2.43147 16.3056 1.93018 15.695 1.93018H7.30482Z" fill="white"/>
<path fill-rule="evenodd" clip-rule="evenodd" d="M5.25732 3.04206C5.25732 1.91469 6.17754 0.994476 7.30491 0.994476H15.6951C16.8225 0.994476 17.7427 1.91469 17.7427 3.04206V11.4322C17.7427 11.7206 17.5089 11.9543 17.2206 11.9543C16.9322 11.9543 16.6985 11.7206 16.6985 11.4322V3.04206C16.6985 2.49138 16.2458 2.03866 15.6951 2.03866H7.30491C6.75423 2.03866 6.30151 2.49138 6.30151 3.04206V11.4322C6.30151 11.7206 6.06776 11.9543 5.77942 11.9543C5.49107 11.9543 5.25732 11.7206 5.25732 11.4322V3.04206ZM7.30491 1.21145C6.29737 1.21145 5.4743 2.03452 5.4743 3.04206V11.4322C5.4743 11.6008 5.6109 11.7374 5.77942 11.7374C5.94793 11.7374 6.08454 11.6008 6.08454 11.4322V3.04206C6.08454 2.37155 6.6344 1.82169 7.30491 1.82169H15.6951C16.3656 1.82169 16.9155 2.37155 16.9155 3.04206V11.4322C16.9155 11.6008 17.0521 11.7374 17.2206 11.7374C17.3891 11.7374 17.5257 11.6008 17.5257 11.4322V3.04206C17.5257 2.03452 16.7026 1.21145 15.6951 1.21145H7.30491Z" fill="white"/>
<path fill-rule="evenodd" clip-rule="evenodd" d="M19.5106 4.23683C19.6933 4.23683 19.8415 4.38497 19.8415 4.56772V4.64399C19.8415 4.82673 19.6933 4.97488 19.5106 4.97488C19.3278 4.97488 19.1797 4.82673 19.1797 4.64399V4.56772C19.1797 4.38497 19.3278 4.23683 19.5106 4.23683Z" fill="white"/>
<path fill-rule="evenodd" clip-rule="evenodd" d="M19.0713 4.5677C19.0713 4.32504 19.268 4.12833 19.5107 4.12833C19.7533 4.12833 19.95 4.32504 19.95 4.5677V4.64397C19.95 4.88663 19.7533 5.08334 19.5107 5.08334C19.268 5.08334 19.0713 4.88663 19.0713 4.64397V4.5677ZM19.5107 4.3453C19.3878 4.3453 19.2883 4.44487 19.2883 4.5677V4.64397C19.2883 4.7668 19.3878 4.86637 19.5107 4.86637C19.6335 4.86637 19.7331 4.7668 19.7331 4.64397V4.5677C19.7331 4.44487 19.6335 4.3453 19.5107 4.3453Z" fill="white"/>
<path fill-rule="evenodd" clip-rule="evenodd" d="M19.5106 5.76254C19.6933 5.76254 19.8415 5.91068 19.8415 6.09343V6.1697C19.8415 6.35244 19.6933 6.50059 19.5106 6.50059C19.3278 6.50059 19.1797 6.35244 19.1797 6.1697V6.09343C19.1797 5.91068 19.3278 5.76254 19.5106 5.76254Z" fill="white"/>
<path fill-rule="evenodd" clip-rule="evenodd" d="M19.0713 6.09342C19.0713 5.85077 19.268 5.65405 19.5107 5.65405C19.7533 5.65405 19.95 5.85077 19.95 6.09342V6.1697C19.95 6.41236 19.7533 6.60907 19.5107 6.60907C19.268 6.60907 19.0713 6.41236 19.0713 6.1697V6.09342ZM19.5107 5.87102C19.3878 5.87102 19.2883 5.9706 19.2883 6.09342V6.1697C19.2883 6.29253 19.3878 6.3921 19.5107 6.3921C19.6335 6.3921 19.7331 6.29253 19.7331 6.1697V6.09342C19.7331 5.9706 19.6335 5.87102 19.5107 5.87102Z" fill="white"/>
<path fill-rule="evenodd" clip-rule="evenodd" d="M19.5106 7.28772C19.6933 7.28772 19.8415 7.43586 19.8415 7.6186V7.69488C19.8415 7.87762 19.6933 8.02576 19.5106 8.02576C19.3278 8.02576 19.1797 7.87762 19.1797 7.69488V7.6186C19.1797 7.43586 19.3278 7.28772 19.5106 7.28772Z" fill="white"/>
<path fill-rule="evenodd" clip-rule="evenodd" d="M19.0713 7.6186C19.0713 7.37594 19.268 7.17923 19.5107 7.17923C19.7533 7.17923 19.95 7.37594 19.95 7.6186V7.69487C19.95 7.93753 19.7533 8.13425 19.5107 8.13425C19.268 8.13425 19.0713 7.93753 19.0713 7.69487V7.6186ZM19.5107 7.3962C19.3878 7.3962 19.2883 7.49577 19.2883 7.6186V7.69487C19.2883 7.8177 19.3878 7.91727 19.5107 7.91727C19.6335 7.91727 19.7331 7.8177 19.7331 7.69487V7.6186C19.7331 7.49577 19.6335 7.3962 19.5107 7.3962Z" fill="white"/>
<path fill-rule="evenodd" clip-rule="evenodd" d="M3.49202 17.1271C3.67476 17.1271 3.8229 17.2753 3.8229 17.458V17.5343C3.8229 17.717 3.67476 17.8652 3.49202 17.8652C3.30928 17.8652 3.16113 17.717 3.16113 17.5343V17.458C3.16113 17.2753 3.30928 17.1271 3.49202 17.1271Z" fill="white"/>
<path fill-rule="evenodd" clip-rule="evenodd" d="M3.05273 17.458C3.05273 17.2154 3.24945 17.0186 3.4921 17.0186C3.73476 17.0186 3.93148 17.2154 3.93148 17.458V17.5343C3.93148 17.7769 3.73476 17.9737 3.4921 17.9737C3.24945 17.9737 3.05273 17.7769 3.05273 17.5343V17.458ZM3.4921 17.2356C3.36928 17.2356 3.26971 17.3352 3.26971 17.458V17.5343C3.26971 17.6571 3.36928 17.7567 3.4921 17.7567C3.61493 17.7567 3.7145 17.6571 3.7145 17.5343V17.458C3.7145 17.3352 3.61493 17.2356 3.4921 17.2356Z" fill="white"/>
<path fill-rule="evenodd" clip-rule="evenodd" d="M3.49202 18.6528C3.67476 18.6528 3.8229 18.801 3.8229 18.9837V19.06C3.8229 19.2427 3.67476 19.3909 3.49202 19.3909C3.30928 19.3909 3.16113 19.2427 3.16113 19.06V18.9837C3.16113 18.801 3.30928 18.6528 3.49202 18.6528Z" fill="white"/>
<path fill-rule="evenodd" clip-rule="evenodd" d="M3.05273 18.9837C3.05273 18.7411 3.24945 18.5443 3.4921 18.5443C3.73476 18.5443 3.93148 18.7411 3.93148 18.9837V19.06C3.93148 19.3026 3.73476 19.4994 3.4921 19.4994C3.24945 19.4994 3.05273 19.3026 3.05273 19.06V18.9837ZM3.4921 18.7613C3.36928 18.7613 3.26971 18.8609 3.26971 18.9837V19.06C3.26971 19.1828 3.36928 19.2824 3.4921 19.2824C3.61493 19.2824 3.7145 19.1828 3.7145 19.06V18.9837C3.7145 18.8609 3.61493 18.7613 3.4921 18.7613Z" fill="white"/>
<path fill-rule="evenodd" clip-rule="evenodd" d="M3.49202 20.178C3.67476 20.178 3.8229 20.3262 3.8229 20.5089V20.5852C3.8229 20.7679 3.67476 20.9161 3.49202 20.9161C3.30928 20.9161 3.16113 20.7679 3.16113 20.5852V20.5089C3.16113 20.3262 3.30928 20.178 3.49202 20.178Z" fill="white"/>
<path fill-rule="evenodd" clip-rule="evenodd" d="M3.05273 20.5089C3.05273 20.2662 3.24945 20.0695 3.4921 20.0695C3.73476 20.0695 3.93148 20.2662 3.93148 20.5089V20.5852C3.93148 20.8278 3.73476 21.0245 3.4921 21.0245C3.24945 21.0245 3.05273 20.8278 3.05273 20.5852V20.5089ZM3.4921 20.2865C3.36928 20.2865 3.26971 20.3861 3.26971 20.5089V20.5852C3.26971 20.708 3.36928 20.8076 3.4921 20.8076C3.61493 20.8076 3.7145 20.708 3.7145 20.5852V20.5089C3.7145 20.3861 3.61493 20.2865 3.4921 20.2865Z" fill="white"/>
<path fill-rule="evenodd" clip-rule="evenodd" d="M17.272 10.6694C17.272 10.4867 17.4201 10.3385 17.6029 10.3385H18.2436C18.3994 10.3385 18.5341 10.4473 18.567 10.5997L18.7761 11.5693C19.0795 11.6589 19.3686 11.782 19.6383 11.9298L20.4833 11.3898C20.6142 11.3062 20.7856 11.3248 20.8954 11.4346L21.7955 12.3347C21.9053 12.4445 21.924 12.616 21.8403 12.7468L21.3003 13.5918C21.4484 13.8619 21.5716 14.1515 21.6613 14.4553L22.6325 14.6712C22.7839 14.7048 22.8916 14.8391 22.8916 14.9942V16.2603C22.8916 16.4154 22.7839 16.5497 22.6325 16.5833L21.6613 16.7992C21.5716 17.1027 21.4486 17.3921 21.3007 17.662L21.8397 18.4991C21.9237 18.6296 21.9058 18.801 21.7965 18.9112L20.8964 19.8189C20.7867 19.9296 20.6146 19.9486 20.4833 19.8647L19.6383 19.3247C19.3686 19.4725 19.0795 19.5956 18.7761 19.6853L18.567 20.6549C18.5285 20.8335 18.3524 20.9471 18.1738 20.9085C17.9952 20.87 17.8816 20.694 17.9201 20.5153L18.1718 19.3483C18.1986 19.2241 18.2942 19.1262 18.4178 19.0964C18.7935 19.006 19.1508 18.8523 19.475 18.6549C19.5829 18.5892 19.7188 18.5907 19.8252 18.6588L20.6146 19.1633L21.1394 18.634L20.635 17.8506C20.5664 17.744 20.5646 17.6076 20.6305 17.4994C20.8279 17.1752 20.9816 16.8179 21.072 16.4422C21.1016 16.3194 21.1986 16.2241 21.3219 16.1967L22.2298 15.9949V15.2596L21.3219 15.0579C21.1986 15.0304 21.1016 14.9352 21.072 14.8123C20.9816 14.4367 20.8279 14.0793 20.6305 13.7551C20.5648 13.6472 20.5663 13.5114 20.6344 13.4049L21.1395 12.6146L20.6156 12.0906L19.8252 12.5958C19.7188 12.6638 19.5829 12.6653 19.475 12.5996C19.1508 12.4023 18.7935 12.2485 18.4178 12.1581C18.2942 12.1284 18.1986 12.0304 18.1718 11.9062L17.9764 11.0003H17.6029C17.4201 11.0003 17.272 10.8522 17.272 10.6694Z" fill="white"/>
<path fill-rule="evenodd" clip-rule="evenodd" d="M17.1636 10.6694C17.1636 10.4268 17.3603 10.23 17.6029 10.23H18.2437C18.4506 10.23 18.6295 10.3745 18.6731 10.5768L18.8688 11.484C19.1364 11.5675 19.3925 11.6761 19.6337 11.8041L20.4249 11.2984C20.5987 11.1873 20.8264 11.2121 20.9722 11.3579L21.8723 12.258C22.0181 12.4038 22.0429 12.6315 21.9318 12.8053L21.4261 13.5965C21.5544 13.8383 21.6632 14.095 21.7468 14.3632L22.6561 14.5653C22.8571 14.6099 23.0002 14.7882 23.0002 14.9942V16.2603C23.0002 16.4663 22.8571 16.6446 22.6561 16.6892L21.7468 16.8913C21.6633 17.1592 21.5546 17.4156 21.4266 17.6571L21.931 18.4404C22.0426 18.6137 22.0187 18.8412 21.8736 18.9876L20.9735 19.8953C20.8278 20.0422 20.5993 20.0676 20.4249 19.9561L19.6337 19.4505C19.3925 19.5784 19.1364 19.687 18.8688 19.7705L18.6731 20.6777C18.622 20.9149 18.3882 21.0657 18.151 21.0146C17.9138 20.9634 17.763 20.7297 17.8142 20.4925L18.0659 19.3255C18.1015 19.1605 18.2284 19.0304 18.3925 18.9909C18.7563 18.9034 19.1032 18.7543 19.4187 18.5623C19.5619 18.475 19.7424 18.477 19.8837 18.5673L20.5993 19.0247L21.0011 18.6194L20.5438 17.9093C20.4527 17.7678 20.4504 17.5867 20.5379 17.443C20.73 17.1275 20.879 16.7806 20.9666 16.4168C21.0059 16.2537 21.1347 16.1272 21.2985 16.0908L22.1214 15.9079V15.3466L21.2985 15.1637C21.1347 15.1273 21.0059 15.0008 20.9666 14.8377C20.879 14.4739 20.73 14.127 20.5379 13.8115C20.4507 13.6683 20.4527 13.4878 20.543 13.3465L21.0012 12.6296L20.6006 12.229L19.8837 12.6872C19.7424 12.7775 19.5619 12.7795 19.4187 12.6922C19.1032 12.5002 18.7563 12.3511 18.3925 12.2636C18.2284 12.2241 18.1015 12.094 18.0659 11.929L17.8889 11.1088H17.6029C17.3603 11.1088 17.1636 10.9121 17.1636 10.6694ZM17.6029 10.447C17.4801 10.447 17.3805 10.5466 17.3805 10.6694C17.3805 10.7922 17.4801 10.8918 17.6029 10.8918H17.9765C18.0276 10.8918 18.0718 10.9275 18.0826 10.9774L18.278 11.8833C18.296 11.9668 18.3602 12.0326 18.4433 12.0526C18.8308 12.1459 19.1985 12.3043 19.5315 12.5069C19.604 12.5511 19.6953 12.5501 19.7669 12.5043L20.5572 11.9992C20.6001 11.9718 20.6563 11.9779 20.6923 12.0139L21.2163 12.5378C21.2523 12.5739 21.2584 12.6301 21.231 12.673L20.7259 13.4633C20.6801 13.5349 20.6791 13.6262 20.7233 13.6987C20.9259 14.0317 21.0843 14.3994 21.1776 14.7869C21.1974 14.8695 21.2626 14.9335 21.3455 14.9519L22.2534 15.1537C22.3031 15.1647 22.3384 15.2088 22.3384 15.2596V15.9949C22.3384 16.0458 22.3031 16.0898 22.2534 16.1008L21.3455 16.3026C21.2626 16.321 21.1974 16.385 21.1776 16.4676C21.0843 16.8551 20.9259 17.2228 20.7233 17.5558C20.679 17.6285 20.6802 17.7202 20.7263 17.7918L21.2307 18.5752C21.2583 18.618 21.2524 18.6742 21.2166 18.7103L20.6917 19.2396C20.6557 19.2759 20.5993 19.2822 20.5562 19.2547L19.7669 18.7502C19.6953 18.7044 19.604 18.7034 19.5315 18.7476C19.1985 18.9502 18.8308 19.1086 18.4433 19.2019C18.3602 19.2219 18.296 19.2877 18.278 19.3712L18.0263 20.5382C18.0004 20.6583 18.0767 20.7766 18.1968 20.8025C18.3168 20.8284 18.4352 20.752 18.4611 20.632L18.6702 19.6624C18.6785 19.6236 18.7074 19.5925 18.7455 19.5812C19.0409 19.4939 19.3229 19.3739 19.5863 19.2296C19.621 19.2105 19.6634 19.2119 19.6968 19.2333L20.5418 19.7733C20.6301 19.8297 20.7457 19.8169 20.8195 19.7425L21.7195 18.8348C21.793 18.7607 21.8051 18.6455 21.7486 18.5578L21.2095 17.7207C21.188 17.6873 21.1865 17.6448 21.2056 17.6099C21.35 17.3463 21.47 17.0641 21.5573 16.7684C21.5685 16.7306 21.5993 16.7018 21.6378 16.6933L22.609 16.4774C22.7108 16.4548 22.7832 16.3646 22.7832 16.2603V14.9942C22.7832 14.8899 22.7108 14.7997 22.609 14.7771L21.6378 14.5612C21.5993 14.5527 21.5685 14.5239 21.5573 14.4861C21.4699 14.1901 21.3498 13.9077 21.2052 13.6439C21.1862 13.6092 21.1876 13.5668 21.209 13.5334L21.749 12.6884C21.8052 12.6004 21.7927 12.4852 21.7189 12.4114L20.8188 11.5113C20.745 11.4375 20.6298 11.425 20.5418 11.4812L19.6968 12.0212C19.6634 12.0426 19.621 12.044 19.5863 12.0249C19.3229 11.8806 19.0409 11.7606 18.7455 11.6733C18.7074 11.662 18.6785 11.6309 18.6702 11.5921L18.4611 10.6225C18.439 10.5201 18.3484 10.447 18.2437 10.447H17.6029Z" fill="white"/>
<path fill-rule="evenodd" clip-rule="evenodd" d="M17.1591 13.4332C17.296 13.4076 17.4466 13.3894 17.6015 13.3894C18.8368 13.3894 19.8392 14.3919 19.8392 15.6272C19.8392 16.4059 19.4446 17.0865 18.8462 17.4884C18.6945 17.5903 18.4889 17.5499 18.387 17.3982C18.2851 17.2465 18.3255 17.0409 18.4772 16.939C18.9009 16.6544 19.1775 16.1756 19.1775 15.6272C19.1775 14.7573 18.4713 14.0512 17.6015 14.0512C17.497 14.0512 17.3883 14.0636 17.2811 14.0837C17.1015 14.1174 16.9286 13.999 16.8949 13.8194C16.8612 13.6398 16.9795 13.4669 17.1591 13.4332Z" fill="white"/>
<path fill-rule="evenodd" clip-rule="evenodd" d="M17.1397 13.3266C17.2815 13.3 17.4389 13.2809 17.6021 13.2809C18.8973 13.2809 19.9483 14.3319 19.9483 15.6272C19.9483 16.4437 19.5343 17.1573 18.9073 17.5784C18.7058 17.7137 18.4328 17.6601 18.2975 17.4587C18.1623 17.2572 18.2159 16.9842 18.4173 16.8489C18.8123 16.5836 19.0696 16.1379 19.0696 15.6272C19.0696 14.8172 18.412 14.1597 17.6021 14.1597C17.5059 14.1597 17.404 14.1711 17.3017 14.1903C17.0632 14.235 16.8336 14.0779 16.7889 13.8394C16.7441 13.6009 16.9012 13.3713 17.1397 13.3266ZM17.6021 13.4979C17.4555 13.4979 17.3117 13.5151 17.1797 13.5399C17.059 13.5625 16.9795 13.6787 17.0021 13.7994C17.0247 13.9202 17.141 13.9997 17.2617 13.977C17.3738 13.956 17.4893 13.9427 17.6021 13.9427C18.5318 13.9427 19.2865 14.6974 19.2865 15.6272C19.2865 16.2133 18.9906 16.7252 18.5383 17.0291C18.4363 17.0975 18.4092 17.2357 18.4777 17.3377C18.5461 17.4397 18.6843 17.4668 18.7863 17.3983C19.3561 17.0156 19.7313 16.3681 19.7313 15.6272C19.7313 14.4518 18.7775 13.4979 17.6021 13.4979Z" fill="white"/>
<path fill-rule="evenodd" clip-rule="evenodd" d="M4.62076 7.75641C4.72161 7.9088 4.67983 8.1141 4.52743 8.21495C4.09748 8.49948 3.82144 8.97754 3.82144 9.52552C3.82144 10.3954 4.52757 11.1015 5.39741 11.1015C5.50066 11.1015 5.60139 11.0894 5.71018 11.069C5.88979 11.0354 6.0627 11.1537 6.09638 11.3333C6.13005 11.5129 6.01175 11.6858 5.83214 11.7195C5.69685 11.7448 5.5535 11.7633 5.39741 11.7633C4.16208 11.7633 3.15967 10.7609 3.15967 9.52552C3.15967 8.74633 3.55484 8.06502 4.16222 7.66308C4.31462 7.56223 4.51991 7.60401 4.62076 7.75641Z" fill="white"/>
<path fill-rule="evenodd" clip-rule="evenodd" d="M4.10195 7.57262C4.30431 7.4387 4.57692 7.49419 4.71083 7.69655C4.84475 7.89891 4.78926 8.17151 4.5869 8.30543C4.18606 8.57069 3.92952 9.01542 3.92952 9.52553C3.92952 10.3355 4.58708 10.993 5.39701 10.993C5.49159 10.993 5.58533 10.982 5.68979 10.9624C5.92829 10.9177 6.15788 11.0748 6.2026 11.3133C6.24732 11.5518 6.09023 11.7814 5.85173 11.8261C5.7121 11.8523 5.56176 11.8718 5.39701 11.8718C4.10177 11.8718 3.05078 10.8208 3.05078 9.52553C3.05078 8.70842 3.4655 7.9938 4.10195 7.57262ZM4.52989 7.81629C4.46211 7.71386 4.32412 7.68577 4.22169 7.75356C3.64338 8.13626 3.26775 8.78426 3.26775 9.52553C3.26775 10.7009 4.2216 11.6548 5.39701 11.6548C5.54444 11.6548 5.6808 11.6374 5.81174 11.6128C5.93247 11.5902 6.01198 11.474 5.98935 11.3533C5.96671 11.2325 5.8505 11.153 5.72977 11.1757C5.61664 11.1969 5.50893 11.21 5.39701 11.21C4.46725 11.21 3.71255 10.4553 3.71255 9.52553C3.71255 8.93967 4.0081 8.42828 4.46716 8.12449C4.56959 8.0567 4.59768 7.91872 4.52989 7.81629Z" fill="white"/>
<path fill-rule="evenodd" clip-rule="evenodd" d="M4.82716 4.24428C5.00579 4.28281 5.11937 4.45885 5.08084 4.63749L4.82914 5.80449C4.80234 5.92875 4.70672 6.02667 4.58313 6.05642C4.2075 6.14685 3.85018 6.30056 3.52599 6.49789C3.41808 6.56357 3.2822 6.56209 3.17576 6.49406L2.38638 5.98957L1.86152 6.51887L2.36598 7.30227C2.4346 7.40882 2.43632 7.5452 2.37043 7.65345C2.1731 7.97764 2.01938 8.33497 1.92895 8.7106C1.89938 8.83346 1.8024 8.92875 1.67904 8.95616L0.771145 9.15791V9.89322L1.67904 10.095C1.8024 10.1224 1.89938 10.2177 1.92895 10.3405C2.01938 10.7162 2.1731 11.0735 2.37043 11.3977C2.43611 11.5056 2.43462 11.6415 2.3666 11.7479L1.86149 12.5383L2.38541 13.0622L3.17576 12.5571C3.2822 12.489 3.41808 12.4876 3.52599 12.5532C3.85018 12.7506 4.2075 12.9043 4.58313 12.9947C4.70672 13.0245 4.80234 13.1224 4.82914 13.2466L5.02452 14.1525H5.3981C5.58084 14.1525 5.72899 14.3007 5.72899 14.4834C5.72899 14.6661 5.58084 14.8143 5.3981 14.8143H4.75739C4.60154 14.8143 4.46681 14.7055 4.43395 14.5532L4.22482 13.5836C3.92148 13.4939 3.63237 13.3708 3.36265 13.223L2.51768 13.763C2.3868 13.8467 2.21536 13.828 2.10552 13.7182L1.20548 12.8181C1.09565 12.7083 1.077 12.5369 1.16065 12.406L1.70066 11.561C1.55261 11.2909 1.42941 11.0013 1.3397 10.6975L0.368481 10.4816C0.217089 10.448 0.109375 10.3137 0.109375 10.1586V8.89249C0.109375 8.7374 0.217089 8.60312 0.368481 8.56948L1.3397 8.35366C1.42933 8.05008 1.5524 7.76073 1.70029 7.4908L1.16126 6.65373C1.07722 6.52322 1.0952 6.35183 1.2045 6.2416L2.10454 5.33394C2.21427 5.22327 2.38636 5.20418 2.51768 5.28811L3.36265 5.82813C3.63237 5.68029 3.92148 5.55724 4.22482 5.46757L4.43395 4.49796C4.47248 4.31933 4.64852 4.20575 4.82716 4.24428Z" fill="white"/>
<path fill-rule="evenodd" clip-rule="evenodd" d="M4.32799 4.47509C4.37915 4.23789 4.61291 4.08707 4.85012 4.13823C5.08732 4.18939 5.23814 4.42316 5.18698 4.66036L4.93527 5.82736C4.89968 5.99236 4.77272 6.12239 4.60861 6.16189C4.24486 6.24946 3.89793 6.39856 3.58248 6.59057C3.4392 6.67778 3.25876 6.67581 3.11742 6.58548L2.40183 6.12814L1.99999 6.53339L2.45728 7.24354C2.54839 7.38502 2.55068 7.56612 2.46319 7.70986C2.27118 8.02531 2.12208 8.37224 2.03451 8.73599C1.99524 8.89914 1.86647 9.02566 1.70266 9.06206L0.879717 9.24494V9.8062L1.70266 9.98907C1.86647 10.0255 1.99524 10.152 2.03451 10.3151C2.12208 10.6789 2.27118 11.0258 2.46319 11.3413C2.5504 11.4846 2.54843 11.665 2.4581 11.8063L1.99994 12.5232L2.40055 12.9238L3.11742 12.4657C3.25876 12.3753 3.4392 12.3734 3.58248 12.4606C3.89793 12.6526 4.24486 12.8017 4.60861 12.8892C4.77272 12.9287 4.89968 13.0588 4.93527 13.2238L5.11219 14.044H5.39819C5.64084 14.044 5.83756 14.2407 5.83756 14.4834C5.83756 14.7261 5.64084 14.9228 5.39819 14.9228H4.75748C4.55052 14.9228 4.37162 14.7783 4.32799 14.576L4.13231 13.6688C3.86476 13.5853 3.60867 13.4767 3.36741 13.3488L2.57619 13.8544C2.4024 13.9655 2.17474 13.9407 2.0289 13.7949L1.12886 12.8949C0.983018 12.749 0.958252 12.5214 1.06932 12.3476L1.57499 11.5563C1.44677 11.3145 1.33796 11.0578 1.25438 10.7896L0.345034 10.5876C0.144006 10.5429 0.000976562 10.3646 0.000976562 10.1586V8.89249C0.000976562 8.68656 0.144006 8.50825 0.345034 8.46358L1.25438 8.2615C1.33785 7.99364 1.44649 7.73724 1.5745 7.49571L1.07014 6.71246C0.958541 6.53916 0.982418 6.31158 1.12755 6.16522L2.02759 5.25755C2.17331 5.1106 2.40181 5.08526 2.57619 5.1967L3.36741 5.70237C3.60867 5.57444 3.86476 5.46583 4.13231 5.38233L4.32799 4.47509ZM4.80437 4.35033C4.68431 4.32443 4.56598 4.40077 4.54008 4.52084L4.33095 5.49045C4.32258 5.52923 4.29371 5.56036 4.25566 5.57161C3.9602 5.65895 3.67823 5.77892 3.41488 5.92326C3.38011 5.94232 3.33772 5.94089 3.30431 5.91954L2.45935 5.37953C2.37108 5.32311 2.25542 5.33594 2.18166 5.41033L1.28162 6.31799C1.20816 6.39208 1.19607 6.50728 1.25256 6.595L1.79158 7.43207C1.81312 7.46551 1.81462 7.50805 1.79551 7.54293C1.65112 7.80649 1.53114 8.08868 1.44383 8.38438C1.43266 8.42221 1.40183 8.451 1.36332 8.45956L0.392102 8.67539C0.290346 8.698 0.217948 8.78825 0.217948 8.89249V10.1586C0.217948 10.2629 0.290346 10.3531 0.392102 10.3757L1.36332 10.5916C1.40183 10.6001 1.43266 10.6289 1.44383 10.6668C1.53121 10.9627 1.65132 11.2451 1.79588 11.5089C1.81494 11.5436 1.81351 11.586 1.79216 11.6194L1.25215 12.4644C1.19592 12.5524 1.20846 12.6676 1.28228 12.7414L2.18232 13.6415C2.25614 13.7153 2.37138 13.7278 2.45935 13.6716L3.30431 13.1316C3.33772 13.1102 3.38011 13.1088 3.41488 13.1279C3.67823 13.2722 3.9602 13.3922 4.25566 13.4795C4.29371 13.4908 4.32258 13.5219 4.33095 13.5607L4.54008 14.5303C4.56217 14.6327 4.65272 14.7058 4.75748 14.7058H5.39819C5.52102 14.7058 5.62059 14.6062 5.62059 14.4834C5.62059 14.3606 5.52102 14.261 5.39819 14.261H5.02461C4.97351 14.261 4.92934 14.2253 4.91856 14.1754L4.72318 13.2695C4.70516 13.186 4.6409 13.1202 4.55783 13.1002C4.17031 13.0069 3.8026 12.8486 3.46967 12.6459C3.39714 12.6018 3.30581 12.6028 3.23427 12.6485L2.44391 13.1536C2.401 13.181 2.34479 13.1749 2.30878 13.1389L1.78486 12.615C1.74885 12.579 1.74274 12.5228 1.77016 12.4798L2.27527 11.6895C2.321 11.6179 2.322 11.5266 2.27785 11.4541C2.07519 11.1212 1.91686 10.7534 1.82357 10.3659C1.80369 10.2833 1.73851 10.2193 1.65559 10.2009L0.747698 9.99912C0.698062 9.98809 0.662746 9.94407 0.662746 9.89322V9.15792C0.662746 9.10707 0.698062 9.06304 0.747698 9.05201L1.65559 8.85026C1.73851 8.83183 1.80369 8.76779 1.82357 8.68521C1.91686 8.29769 2.07519 7.92998 2.27785 7.59705C2.32214 7.52429 2.32098 7.43262 2.27486 7.361L1.7704 6.57761C1.74285 6.53482 1.74874 6.47862 1.78458 6.44249L2.30943 5.91319C2.34541 5.8769 2.40183 5.87064 2.44488 5.89816L3.23427 6.40265C3.30581 6.44838 3.39714 6.44937 3.46967 6.40523C3.8026 6.20257 4.17031 6.04424 4.55783 5.95095C4.6409 5.93095 4.70516 5.86514 4.72318 5.78162L4.97488 4.61462C5.00078 4.49455 4.92444 4.37622 4.80437 4.35033Z" fill="white"/>
<path d="M7.95065 13.0629L7.64182 13.7644H7.08594L8.44477 10.6805H9.00066L10.3595 13.7644H9.80361L9.49478 13.0629H7.95065ZM9.28301 12.582L8.72271 11.3114L8.16242 12.582H9.28301Z" fill="white"/>
<path d="M12.3986 10.6805C12.8662 10.6805 13.2074 10.7702 13.4221 10.9497C13.6368 11.1291 13.7442 11.4055 13.7442 11.7791C13.7442 12.1526 13.6339 12.4261 13.4133 12.5997C13.1956 12.7732 12.8603 12.86 12.4074 12.86H11.8603V13.7644H11.3397V10.6805H12.3986ZM12.4647 12.3879C12.753 12.3879 12.9486 12.3335 13.0515 12.2247C13.1574 12.1129 13.2103 11.9511 13.2103 11.7394C13.2103 11.5247 13.1442 11.3732 13.0118 11.285C12.8795 11.1967 12.6721 11.1526 12.3897 11.1526H11.8603V12.3879H12.4647Z" fill="white"/>
<path d="M14.9071 10.6805H15.4277V13.7644H14.9071V10.6805Z" fill="white"/>
<path fill-rule="evenodd" clip-rule="evenodd" d="M8.37387 10.5721H9.07125L10.5257 13.8729H9.73268L9.42385 13.1714H8.02127L7.71244 13.8729H6.91943L8.37387 10.5721ZM8.51537 10.789L7.25214 13.6559H7.5709L7.87973 12.9544H9.5654L9.87423 13.6559H10.193L8.92976 10.789H8.51537ZM11.2311 10.5721H12.3984C12.8758 10.5721 13.2479 10.6629 13.4915 10.8664C13.7385 11.0728 13.8525 11.3849 13.8525 11.7791C13.8525 12.174 13.735 12.4845 13.4802 12.6849C13.2346 12.8805 12.8701 12.9685 12.4072 12.9685H11.9687V13.8729H11.2311V10.5721ZM11.4481 10.789V13.6559H11.7517V12.7515H12.4072C12.8499 12.7515 13.1558 12.6661 13.3455 12.5148C13.5319 12.3682 13.6355 12.1312 13.6355 11.7791C13.6355 11.4262 13.5348 11.1853 13.3524 11.0329C13.1666 10.8776 12.8564 10.789 12.3984 10.789H11.4481ZM14.7985 10.5721H15.536V13.8729H14.7985V10.5721ZM15.0154 10.789V13.6559H15.319V10.789H15.0154ZM8.72256 11.0426L9.44927 12.6905H7.99586L8.72256 11.0426ZM11.7517 11.0441H12.3896C12.6789 11.0441 12.9125 11.0885 13.0718 11.1947C13.2444 11.3097 13.3187 11.5024 13.3187 11.7394C13.3187 11.9683 13.2613 12.1608 13.1301 12.2993C13.1301 12.2993 13.1301 12.2993 13.1301 12.2993C12.9944 12.4427 12.758 12.4964 12.4646 12.4964H11.7517V11.0441ZM11.9687 11.2611V12.2794H12.4646C12.7476 12.2794 12.9024 12.2243 12.9726 12.1501C13.0531 12.065 13.1017 11.9339 13.1017 11.7394C13.1017 11.5469 13.0436 11.4366 12.9515 11.3752C12.8461 11.3049 12.665 11.2611 12.3896 11.2611H11.9687ZM8.32867 12.4735H9.11646L8.72256 11.5803L8.32867 12.4735Z" fill="white"/>
</svg>
