<svg width="25" height="25" viewBox="0 0 25 25" fill="none" xmlns="http://www.w3.org/2000/svg">
<path fill-rule="evenodd" clip-rule="evenodd" d="M15.6479 14.8132C15.6479 13.1477 17.0023 11.7933 18.6678 11.7933H22.908C23.5096 11.7933 24.0005 12.2842 24.0005 12.8858V16.7405C24.0005 17.3421 23.5096 17.833 22.908 17.833H18.6678C17.0023 17.833 15.6479 16.4787 15.6479 14.8132ZM18.6678 12.4365C17.3575 12.4365 16.2911 13.5029 16.2911 14.8132C16.2911 16.1235 17.3575 17.1899 18.6678 17.1899H22.908C23.1544 17.1899 23.3573 16.9869 23.3573 16.7405V12.8858C23.3573 12.6394 23.1544 12.4365 22.908 12.4365H18.6678Z" fill="white" stroke="white" stroke-width="0.2" stroke-miterlimit="10" stroke-linecap="round" stroke-linejoin="round"/>
<path fill-rule="evenodd" clip-rule="evenodd" d="M18.6689 13.9784C18.2078 13.9784 17.8341 14.3522 17.8341 14.8132C17.8341 15.2743 18.2078 15.648 18.6689 15.648C19.13 15.648 19.5037 15.2743 19.5037 14.8132C19.5037 14.3522 19.13 13.9784 18.6689 13.9784ZM17.1909 14.8132C17.1909 13.997 17.8526 13.3352 18.6689 13.3352C19.4852 13.3352 20.1469 13.997 20.1469 14.8132C20.1469 15.6295 19.4852 16.2912 18.6689 16.2912C17.8526 16.2912 17.1909 15.6295 17.1909 14.8132Z" fill="white" stroke="white" stroke-width="0.2" stroke-miterlimit="10" stroke-linecap="round" stroke-linejoin="round"/>
<path fill-rule="evenodd" clip-rule="evenodd" d="M1 7.87483C1 7.05735 1.6605 6.39685 2.47798 6.39685H4.7908C4.9684 6.39685 5.11237 6.54083 5.11237 6.71843C5.11237 6.89603 4.9684 7.04 4.7908 7.04H2.47798C2.01571 7.04 1.64315 7.41256 1.64315 7.87483V22.9081C1.64315 23.0857 1.49918 23.2297 1.32158 23.2297C1.14397 23.2297 1 23.0857 1 22.9081V7.87483Z" fill="white" stroke="white" stroke-width="0.2" stroke-miterlimit="10" stroke-linecap="round" stroke-linejoin="round"/>
<path fill-rule="evenodd" clip-rule="evenodd" d="M17.5762 6.71843C17.5762 6.54083 17.7201 6.39685 17.8977 6.39685H21.7524C22.5699 6.39685 23.2304 7.05735 23.2304 7.87483V10.5731C23.2304 10.7507 23.0864 10.8947 22.9088 10.8947C22.7312 10.8947 22.5873 10.7507 22.5873 10.5731V7.87483C22.5873 7.41256 22.2147 7.04 21.7524 7.04H17.8977C17.7201 7.04 17.5762 6.89603 17.5762 6.71843Z" fill="white" stroke="white" stroke-width="0.2" stroke-miterlimit="10" stroke-linecap="round" stroke-linejoin="round"/>
<path fill-rule="evenodd" clip-rule="evenodd" d="M8.3252 4.40495C8.3252 4.22735 8.46917 4.08337 8.64677 4.08337H11.4992C12.3167 4.08337 12.9772 4.74388 12.9772 5.56136C12.9772 6.37884 12.3167 7.03934 11.4992 7.03934H10.1886C10.011 7.03934 9.86707 6.89536 9.86707 6.71776C9.86707 6.54016 10.011 6.39619 10.1886 6.39619H11.4992C11.9615 6.39619 12.3341 6.02363 12.3341 5.56136C12.3341 5.09908 11.9615 4.72653 11.4992 4.72653H8.64677C8.46917 4.72653 8.3252 4.58255 8.3252 4.40495Z" fill="white"/>
<path fill-rule="evenodd" clip-rule="evenodd" d="M8.21533 4.40498C8.21533 4.16689 8.40834 3.97388 8.64643 3.97388H11.4989C12.3769 3.97388 13.0864 4.68342 13.0864 5.56139C13.0864 6.43935 12.3769 7.14889 11.4989 7.14889H10.1883C9.95022 7.14889 9.75721 6.95588 9.75721 6.71779C9.75721 6.4797 9.95022 6.28669 10.1883 6.28669H11.4989C11.9007 6.28669 12.2242 5.96317 12.2242 5.56139C12.2242 5.1596 11.9007 4.83608 11.4989 4.83608H8.64643C8.40834 4.83608 8.21533 4.64307 8.21533 4.40498ZM8.64643 4.19293C8.52932 4.19293 8.43438 4.28787 8.43438 4.40498C8.43438 4.52209 8.52932 4.61703 8.64643 4.61703H11.4989C12.0217 4.61703 12.4433 5.03862 12.4433 5.56139C12.4433 6.08415 12.0217 6.50574 11.4989 6.50574H10.1883C10.0712 6.50574 9.97626 6.60068 9.97626 6.71779C9.97626 6.8349 10.0712 6.92984 10.1883 6.92984H11.4989C12.2559 6.92984 12.8674 6.31838 12.8674 5.56139C12.8674 4.80439 12.2559 4.19293 11.4989 4.19293H8.64643Z" fill="white"/>
<path fill-rule="evenodd" clip-rule="evenodd" d="M9.86707 6.71815C9.86707 6.54055 10.011 6.39658 10.1886 6.39658H11.5763C12.602 6.39658 13.4398 7.23439 13.4398 8.26003C13.4398 9.28566 12.602 10.1235 11.5763 10.1235H8.64677C8.46917 10.1235 8.3252 9.9795 8.3252 9.8019C8.3252 9.6243 8.46917 9.48033 8.64677 9.48033H11.5763C12.2468 9.48033 12.7966 8.93046 12.7966 8.26003C12.7966 7.5896 12.2468 7.03973 11.5763 7.03973H10.1886C10.011 7.03973 9.86707 6.89575 9.86707 6.71815Z" fill="white"/>
<path fill-rule="evenodd" clip-rule="evenodd" d="M9.75721 6.71818C9.75721 6.48009 9.95022 6.28708 10.1883 6.28708H11.576C12.6621 6.28708 13.549 7.17393 13.549 8.26006C13.549 9.34618 12.6621 10.233 11.576 10.233H8.64643C8.40834 10.233 8.21533 10.04 8.21533 9.80193C8.21533 9.56384 8.40834 9.37083 8.64643 9.37083H11.576C12.1859 9.37083 12.6868 8.87 12.6868 8.26006C12.6868 7.65011 12.1859 7.14928 11.576 7.14928H10.1883C9.95022 7.14928 9.75721 6.95627 9.75721 6.71818ZM10.1883 6.50613C10.0712 6.50613 9.97626 6.60107 9.97626 6.71818C9.97626 6.83529 10.0712 6.93023 10.1883 6.93023H11.576C12.3069 6.93023 12.9058 7.52914 12.9058 8.26006C12.9058 8.99098 12.3069 9.58988 11.576 9.58988H8.64643C8.52932 9.58988 8.43438 9.68482 8.43438 9.80193C8.43438 9.91904 8.52932 10.014 8.64643 10.014H11.576C12.5411 10.014 13.3299 9.2252 13.3299 8.26006C13.3299 7.29491 12.5411 6.50613 11.576 6.50613H10.1883Z" fill="white"/>
<path fill-rule="evenodd" clip-rule="evenodd" d="M11.3445 9.48047C11.5221 9.48047 11.6661 9.62444 11.6661 9.80204V10.573C11.6661 10.7506 11.5221 10.8946 11.3445 10.8946C11.1669 10.8946 11.0229 10.7506 11.0229 10.573V9.80204C11.0229 9.62444 11.1669 9.48047 11.3445 9.48047Z" fill="white"/>
<path fill-rule="evenodd" clip-rule="evenodd" d="M10.9136 9.80201C10.9136 9.56392 11.1066 9.37091 11.3447 9.37091C11.5828 9.37091 11.7758 9.56392 11.7758 9.80201V10.5729C11.7758 10.811 11.5828 11.0041 11.3447 11.0041C11.1066 11.0041 10.9136 10.811 10.9136 10.5729V9.80201ZM11.3447 9.58996C11.2276 9.58996 11.1326 9.6849 11.1326 9.80201V10.5729C11.1326 10.6901 11.2276 10.785 11.3447 10.785C11.4618 10.785 11.5567 10.6901 11.5567 10.5729V9.80201C11.5567 9.6849 11.4618 9.58996 11.3447 9.58996Z" fill="white"/>
<path fill-rule="evenodd" clip-rule="evenodd" d="M11.3445 3.31274C11.5221 3.31274 11.6661 3.45672 11.6661 3.63432V4.40526C11.6661 4.58286 11.5221 4.72683 11.3445 4.72683C11.1669 4.72683 11.0229 4.58286 11.0229 4.40526V3.63432C11.0229 3.45672 11.1669 3.31274 11.3445 3.31274Z" fill="white"/>
<path fill-rule="evenodd" clip-rule="evenodd" d="M10.9136 3.63432C10.9136 3.39623 11.1066 3.20322 11.3447 3.20322C11.5828 3.20322 11.7758 3.39623 11.7758 3.63432V4.40526C11.7758 4.64335 11.5828 4.83636 11.3447 4.83636C11.1066 4.83636 10.9136 4.64335 10.9136 4.40526V3.63432ZM11.3447 3.42227C11.2276 3.42227 11.1326 3.51721 11.1326 3.63432V4.40526C11.1326 4.52237 11.2276 4.61731 11.3447 4.61731C11.4618 4.61731 11.5567 4.52237 11.5567 4.40526V3.63432C11.5567 3.51721 11.4618 3.42227 11.3447 3.42227Z" fill="white"/>
<path fill-rule="evenodd" clip-rule="evenodd" d="M9.80351 9.48047C9.98111 9.48047 10.1251 9.62444 10.1251 9.80204V10.573C10.1251 10.7506 9.98111 10.8946 9.80351 10.8946C9.62591 10.8946 9.48193 10.7506 9.48193 10.573V9.80204C9.48193 9.62444 9.62591 9.48047 9.80351 9.48047Z" fill="white"/>
<path fill-rule="evenodd" clip-rule="evenodd" d="M9.37207 9.80201C9.37207 9.56392 9.56508 9.37091 9.80317 9.37091C10.0413 9.37091 10.2343 9.56392 10.2343 9.80201V10.5729C10.2343 10.811 10.0413 11.0041 9.80317 11.0041C9.56508 11.0041 9.37207 10.811 9.37207 10.5729V9.80201ZM9.80317 9.58996C9.68606 9.58996 9.59112 9.6849 9.59112 9.80201V10.5729C9.59112 10.6901 9.68606 10.785 9.80317 10.785C9.92028 10.785 10.0152 10.6901 10.0152 10.5729V9.80201C10.0152 9.6849 9.92028 9.58996 9.80317 9.58996Z" fill="white"/>
<path fill-rule="evenodd" clip-rule="evenodd" d="M9.80351 3.31274C9.98111 3.31274 10.1251 3.45672 10.1251 3.63432V4.40526C10.1251 4.58286 9.98111 4.72683 9.80351 4.72683C9.62591 4.72683 9.48193 4.58286 9.48193 4.40526V3.63432C9.48193 3.45672 9.62591 3.31274 9.80351 3.31274Z" fill="white"/>
<path fill-rule="evenodd" clip-rule="evenodd" d="M9.37207 3.63432C9.37207 3.39623 9.56508 3.20322 9.80317 3.20322C10.0413 3.20322 10.2343 3.39623 10.2343 3.63432V4.40526C10.2343 4.64335 10.0413 4.83636 9.80317 4.83636C9.56508 4.83636 9.37207 4.64335 9.37207 4.40526V3.63432ZM9.80317 3.42227C9.68606 3.42227 9.59112 3.51721 9.59112 3.63432V4.40526C9.59112 4.52237 9.68606 4.61731 9.80317 4.61731C9.92028 4.61731 10.0152 4.52237 10.0152 4.40526V3.63432C10.0152 3.51721 9.92028 3.42227 9.80317 3.42227Z" fill="white"/>
<path fill-rule="evenodd" clip-rule="evenodd" d="M9.03105 4.08337C9.20865 4.08337 9.35262 4.22735 9.35262 4.40495V9.80152C9.35262 9.97912 9.20865 10.1231 9.03105 10.1231C8.85345 10.1231 8.70947 9.97912 8.70947 9.80152V4.40495C8.70947 4.22735 8.85345 4.08337 9.03105 4.08337Z" fill="white"/>
<path fill-rule="evenodd" clip-rule="evenodd" d="M8.6001 4.40498C8.6001 4.16689 8.79311 3.97388 9.0312 3.97388C9.26929 3.97388 9.4623 4.16689 9.4623 4.40498V9.80154C9.4623 10.0396 9.26929 10.2326 9.0312 10.2326C8.79311 10.2326 8.6001 10.0396 8.6001 9.80154V4.40498ZM9.0312 4.19293C8.91409 4.19293 8.81915 4.28787 8.81915 4.40498V9.80154C8.81915 9.91866 8.91409 10.0136 9.0312 10.0136C9.14831 10.0136 9.24325 9.91866 9.24325 9.80154V4.40498C9.24325 4.28787 9.14831 4.19293 9.0312 4.19293Z" fill="white"/>
<path fill-rule="evenodd" clip-rule="evenodd" d="M10.5733 1.64315C8.2008 1.64315 6.17607 3.16429 5.42595 5.28356C5.36669 5.45099 5.18293 5.53867 5.01551 5.47941C4.84808 5.42015 4.7604 5.23639 4.81966 5.06897C5.65767 2.70138 7.91936 1 10.5733 1C13.9426 1 16.6769 3.73433 16.6769 7.10361C16.6769 10.4729 13.9426 13.2072 10.5733 13.2072C7.20405 13.2072 4.46973 10.4729 4.46973 7.10361C4.46973 6.96966 4.47717 6.84365 4.48435 6.7221C4.4848 6.71447 4.48525 6.70685 4.4857 6.69926C4.49613 6.52196 4.64831 6.38669 4.8256 6.39712C5.0029 6.40755 5.13817 6.55973 5.12774 6.73702L5.12669 6.75487C5.11927 6.88072 5.11288 6.98922 5.11288 7.10361C5.11288 10.1177 7.55926 12.5641 10.5733 12.5641C13.5874 12.5641 16.0338 10.1177 16.0338 7.10361C16.0338 4.08953 13.5874 1.64315 10.5733 1.64315Z" fill="white" stroke="white" stroke-width="0.2" stroke-miterlimit="10" stroke-linecap="round" stroke-linejoin="round"/>
<path fill-rule="evenodd" clip-rule="evenodd" d="M22.9078 17.1893C23.0854 17.1893 23.2294 17.3333 23.2294 17.5109V20.9801C23.2294 21.7976 22.5689 22.4581 21.7514 22.4581H2.09251C1.8461 22.4581 1.64315 22.6611 1.64315 22.9075C1.64315 23.1539 1.8461 23.3568 2.09251 23.3568H22.5224C22.7 23.3568 22.8439 23.5008 22.8439 23.6784C22.8439 23.856 22.7 24 22.5224 24H2.09251C1.4909 24 1 23.5091 1 22.9075C1 22.3059 1.4909 21.815 2.09251 21.815H21.7514C22.2137 21.815 22.5863 21.4424 22.5863 20.9801V17.5109C22.5863 17.3333 22.7302 17.1893 22.9078 17.1893Z" fill="white" stroke="white" stroke-width="0.2" stroke-miterlimit="10" stroke-linecap="round" stroke-linejoin="round"/>
</svg>
