<svg width="34" height="35" viewBox="0 0 34 35" fill="none" xmlns="http://www.w3.org/2000/svg">
<path d="M33.6503 13.5306C33.4594 13.2942 33.2219 13.1117 32.9669 12.9521C32.2958 12.5321 31.5616 12.2557 30.8109 12.0205C29.2559 11.5333 27.6597 11.2384 26.0498 11.0064C24.2321 10.7445 22.4044 10.5935 20.5713 10.5022C20.4367 10.4955 20.4106 10.4532 20.411 10.3283C20.4155 9.06531 20.4137 7.80217 20.4137 6.53914C20.4137 6.33955 20.4139 6.33934 20.6098 6.33934C23.6539 6.33934 26.6981 6.33934 29.7422 6.33924C29.9197 6.33924 29.9199 6.33893 29.9199 6.1633C29.92 4.16869 29.92 2.17419 29.9199 0.179585C29.9199 0.00010416 29.9197 0 29.7349 0C25.4823 0 21.2295 0 16.9769 0C12.7242 0 8.47147 0 4.21881 0C4.03371 0 4.03339 0.000104098 4.03339 0.179169C4.03329 2.17378 4.03329 4.16828 4.03339 6.16288C4.03339 6.33893 4.0336 6.33924 4.21079 6.33924C5.94644 6.33934 7.68198 6.33924 9.41762 6.33934C10.7398 6.33934 12.0619 6.33955 13.3841 6.33903C13.4682 6.33903 13.5404 6.32695 13.54 6.45872C13.5355 7.76717 13.5367 9.07573 13.5384 10.3843C13.5385 10.4619 13.5211 10.4963 13.4341 10.4996C13.121 10.5115 12.8082 10.5313 12.4953 10.5497C11.4841 10.6096 10.4749 10.6944 9.46825 10.8058C8.57032 10.905 7.67489 11.0245 6.78395 11.1763C5.45403 11.4027 4.13569 11.679 2.8538 12.1066C2.14629 12.3426 1.45461 12.6165 0.83169 13.0369C0.574083 13.2108 0.338455 13.4098 0.169703 13.6762C-0.0572788 14.0343 -0.0559246 14.394 0.169911 14.7524C0.265121 14.9035 0.385435 15.0333 0.52002 15.1499C0.944295 15.5173 1.43909 15.7643 1.95097 15.9804C3.00911 16.427 4.11517 16.7138 5.23414 16.9553C6.29946 17.1852 7.37489 17.3572 8.45522 17.4986C9.2071 17.5971 9.96107 17.6776 10.7164 17.7452C11.5941 17.8236 12.4734 17.8801 13.3534 17.9268C13.5375 17.9366 13.5374 17.9407 13.5374 18.1285C13.5374 22.4403 13.5374 26.752 13.5375 31.0637C13.5375 31.2498 13.5377 31.25 13.7192 31.25C15.882 31.2502 18.0446 31.2504 20.2073 31.2496C20.4316 31.2495 20.4104 31.2759 20.4104 31.0444C20.4108 26.7508 20.4107 22.4573 20.4107 18.1638C20.4107 18.1183 20.4134 18.0727 20.4104 18.0275C20.4059 17.9605 20.4293 17.9263 20.5014 17.9256C20.5831 17.9249 20.6645 17.9152 20.7462 17.9118C21.486 17.8805 22.2245 17.8273 22.9622 17.7649C24.0571 17.6722 25.1492 17.552 26.2366 17.3917C27.5575 17.1969 28.869 16.9541 30.1568 16.5973C31.0504 16.3497 31.9288 16.0595 32.7434 15.6053C33.0783 15.4185 33.3921 15.2025 33.6406 14.9049C34.0137 14.4578 34.0162 13.9834 33.6503 13.5306ZM31.9469 14.5299C31.5653 14.8647 31.1062 15.0641 30.638 15.2415C29.5811 15.6417 28.4818 15.8799 27.3738 16.0816C26.1805 16.299 24.9779 16.4495 23.7711 16.5658C22.6769 16.6713 21.58 16.7365 20.4823 16.796C19.0661 16.8728 17.6491 16.8746 16.3434 16.8726C14.6371 16.8547 13.0439 16.7964 11.4535 16.6768C9.86377 16.5571 8.27959 16.3875 6.70895 16.1097C5.47018 15.8905 4.2409 15.6309 3.06849 15.1571C2.7565 15.0309 2.45577 14.882 2.17775 14.6906C2.04629 14.6001 1.9242 14.4986 1.82108 14.3761C1.54868 14.0526 1.54618 13.7276 1.8167 13.4038C2.01879 13.162 2.28202 12.9999 2.55692 12.8567C3.28672 12.4764 4.07037 12.2474 4.86392 12.0501C6.29373 11.6947 7.74719 11.4765 9.20929 11.309C10.5949 11.1501 11.9847 11.0455 13.3778 10.9788C13.5145 10.9722 13.5432 11.0113 13.5429 11.1408C13.5385 12.5764 13.5418 14.0119 13.5374 15.4476C13.5369 15.5792 13.566 15.6199 13.7062 15.6283C15.6808 15.7464 17.6559 15.7512 19.6317 15.6695C19.8449 15.6606 20.0574 15.6329 20.2706 15.6293C20.3906 15.6274 20.4093 15.5781 20.4066 15.4734C20.3998 15.2147 20.4044 14.9556 20.4044 14.6966C20.4044 13.5155 20.4044 12.3342 20.4044 11.153C20.4044 10.9795 20.4047 10.977 20.5836 10.985C21.7907 11.0392 22.9952 11.1276 24.1971 11.2528C25.6337 11.4025 27.0627 11.6016 28.4743 11.9125C29.3747 12.1109 30.2652 12.3449 31.1082 12.7293C31.4064 12.8653 31.6938 13.0208 31.9423 13.2386C32.4249 13.662 32.4296 14.1065 31.9469 14.5299Z" fill="#43C1A9"/>
<path d="M26.7526 35H7.16901C6.8238 35 6.54401 34.7202 6.54401 34.375C6.54401 34.0298 6.8238 33.75 7.16901 33.75H26.7526C27.0978 33.75 27.3776 34.0298 27.3776 34.375C27.3776 34.7202 27.0978 35 26.7526 35Z" fill="#43C1A9"/>
</svg>
