<svg width="19" height="26" viewBox="0 0 19 26" fill="none" xmlns="http://www.w3.org/2000/svg">
<path d="M2.71429 0H16.2857C17.0056 0 17.696 0.273928 18.205 0.761522C18.714 1.24912 19 1.91044 19 2.6V23.4C19 24.0896 18.714 24.7509 18.205 25.2385C17.696 25.7261 17.0056 26 16.2857 26H2.71429C1.99441 26 1.30402 25.7261 0.794996 25.2385C0.285968 24.7509 0 24.0896 0 23.4V2.6C0 1.91044 0.285968 1.24912 0.794996 0.761522C1.30402 0.273928 1.99441 0 2.71429 0ZM2.71429 2.6V7.8H16.2857V2.6H2.71429ZM2.71429 10.4V13H5.42857V10.4H2.71429ZM8.14286 10.4V13H10.8571V10.4H8.14286ZM13.5714 10.4V13H16.2857V10.4H13.5714ZM2.71429 15.6V18.2H5.42857V15.6H2.71429ZM8.14286 15.6V18.2H10.8571V15.6H8.14286ZM13.5714 15.6V18.2H16.2857V15.6H13.5714ZM2.71429 20.8V23.4H5.42857V20.8H2.71429ZM8.14286 20.8V23.4H10.8571V20.8H8.14286ZM13.5714 20.8V23.4H16.2857V20.8H13.5714Z" fill="#43C1A9"/>
</svg>
