<svg width="62" height="54" viewBox="0 0 62 54" fill="none" xmlns="http://www.w3.org/2000/svg">
<path d="M6.50929 54H55.4907C60.4994 54 63.6217 48.6976 61.1174 44.4748L36.6267 3.16713C34.1223 -1.05571 27.8777 -1.05571 25.3733 3.16713L0.882613 44.4748C-1.62175 48.6976 1.50057 54 6.50929 54ZM31 31.7745C29.2112 31.7745 27.7476 30.3457 27.7476 28.5994V22.2493C27.7476 20.503 29.2112 19.0742 31 19.0742C32.7888 19.0742 34.2524 20.503 34.2524 22.2493V28.5994C34.2524 30.3457 32.7888 31.7745 31 31.7745ZM34.2524 44.4748H27.7476V38.1247H34.2524V44.4748Z" fill="white"/>
</svg>
