<svg width="41" height="41" viewBox="0 0 41 41" fill="none" xmlns="http://www.w3.org/2000/svg">
<path d="M18.4444 25.6385C18.4444 28.4751 23.0468 30.7773 28.7222 30.7773C34.3976 30.7773 39 28.4751 39 25.6385M2 15.3607C2 18.1973 6.60239 20.4996 12.2778 20.4996C14.5923 20.4996 16.7281 20.1172 18.4444 19.4718M2 22.5551C2 25.3918 6.60239 27.694 12.2778 27.694C14.5923 27.694 16.726 27.3117 18.4444 26.6662M28.7222 22.5551C23.0468 22.5551 18.4444 20.2529 18.4444 17.4162C18.4444 14.5796 23.0468 12.2773 28.7222 12.2773C34.3976 12.2773 39 14.5796 39 17.4162C39 20.2529 34.3976 22.5551 28.7222 22.5551Z" stroke="#2A2B2E" stroke-width="3" stroke-linecap="round" stroke-linejoin="round"/>
<path d="M2 7.13867V29.7498C2 32.5864 6.60239 34.8887 12.2778 34.8887C14.5923 34.8887 16.726 34.5063 18.4444 33.8609M18.4444 33.8609V17.4164M18.4444 33.8609C18.4444 36.6976 23.0468 38.9998 28.7222 38.9998C34.3976 38.9998 39 36.6976 39 33.8609V17.4164M22.5556 13.3053V7.13867" stroke="#2A2B2E" stroke-width="3" stroke-linecap="round" stroke-linejoin="round"/>
<path d="M12.2778 12.2778C6.60239 12.2778 2 9.97556 2 7.13889C2 4.30222 6.60239 2 12.2778 2C17.9532 2 22.5556 4.30222 22.5556 7.13889C22.5556 9.97556 17.9532 12.2778 12.2778 12.2778Z" stroke="#2A2B2E" stroke-width="3" stroke-linecap="round" stroke-linejoin="round"/>
</svg>
