<svg width="87" height="87" viewBox="0 0 87 87" fill="none" xmlns="http://www.w3.org/2000/svg">
<path d="M47.764 18.7633C47.2029 19.6999 47.5052 20.913 48.4417 21.4741C48.7598 21.6658 50.0737 22.2921 51.1525 20.7964L53.0137 17.6944C55.8568 12.9545 57.3604 7.52708 57.3604 1.99885C57.3604 0.90822 56.4772 0.0230713 55.3846 0.0230713C54.292 0.0230713 53.4088 0.90822 53.4088 1.99885C53.4088 6.81185 52.1009 11.5379 49.6252 15.6633L47.764 18.7633Z" fill="url(#paint0_linear_37_6013)"/>
<path d="M41.347 2.88205C41.835 1.90601 41.4398 0.720543 40.4638 0.232525C39.4878 -0.255493 38.2983 0.141639 37.8123 1.11767L37.0872 2.5679C35.959 4.82621 36.3976 7.54093 38.1837 9.32506C38.7626 9.90397 38.9049 10.7852 38.5394 11.5202L37.8143 12.9724C37.3263 13.9484 37.7214 15.1339 38.6974 15.6219C38.982 15.7641 40.444 16.2917 41.3489 14.7367L42.074 13.2865C43.2022 11.0282 42.7636 8.31346 40.9775 6.52934C40.3966 5.95043 40.2544 5.06726 40.6199 4.33424L41.347 2.88205Z" fill="url(#paint1_linear_37_6013)"/>
<path d="M61.3515 11.8777H61.3317C60.2411 11.8777 59.3658 12.7628 59.3658 13.8535C59.3658 14.9441 60.2609 15.8292 61.3515 15.8292C62.4441 15.8292 63.3273 14.9441 63.3273 13.8535C63.3273 12.7628 62.4421 11.8777 61.3515 11.8777V11.8777Z" fill="url(#paint2_linear_37_6013)"/>
<path d="M29.7195 3.97461C28.6289 3.97461 27.7536 4.85976 27.7536 5.95039C27.7536 7.04102 28.6486 7.92617 29.7393 7.92617C30.8319 7.92617 31.715 7.04102 31.715 5.95039C31.715 4.85976 30.8319 3.97461 29.7393 3.97461H29.7195Z" fill="url(#paint3_linear_37_6013)"/>
<path d="M85.021 29.6598C79.4927 29.6598 74.0653 31.1634 69.3254 34.0085L66.2234 35.8697C65.2869 36.4308 64.9846 37.6439 65.5457 38.5804C65.9172 39.1989 66.9248 39.9655 68.2565 39.2581L71.3585 37.3969C75.4839 34.9213 80.208 33.6113 85.021 33.6113C86.1136 33.6113 86.9968 32.7262 86.9968 31.6356C86.9968 30.5449 86.1136 29.6598 85.021 29.6598V29.6598Z" fill="url(#paint4_linear_37_6013)"/>
<path d="M85.9042 49.21C88.3996 47.4437 86.1216 44.6559 84.1359 45.6754L82.6837 46.4025C81.9487 46.768 81.0675 46.6237 80.4906 46.0448C78.7065 44.2647 75.9977 43.8241 73.7354 44.9483L72.2832 45.6754C70.0466 46.683 71.4613 50.3145 74.0515 49.21L75.5037 48.483C76.2367 48.1135 77.1199 48.2617 77.6968 48.8406C78.823 49.9648 80.3167 50.5556 81.8361 50.5556C82.7232 50.5556 83.6183 50.352 84.452 49.9371L85.9042 49.21Z" fill="url(#paint5_linear_37_6013)"/>
<path d="M73.1862 23.7324C72.0956 23.7324 71.2203 24.6176 71.2203 25.7082C71.2203 26.7988 72.1154 27.684 73.206 27.684C74.2986 27.684 75.1818 26.7988 75.1818 25.7082C75.1818 24.6176 74.2986 23.7324 73.206 23.7324H73.1862Z" fill="url(#paint6_linear_37_6013)"/>
<path d="M81.0896 55.3448C79.9989 55.3448 79.1237 56.23 79.1237 57.3206C79.1237 58.4113 80.0187 59.2964 81.1093 59.2964C82.2019 59.2964 83.0851 58.4113 83.0851 57.3206C83.0851 56.23 82.2019 55.3448 81.1093 55.3448H81.0896Z" fill="url(#paint7_linear_37_6013)"/>
<path d="M75.7214 8.50518L63.8667 20.3599C63.0942 21.1324 63.0942 22.3811 63.8667 23.1536C64.252 23.5389 65.4276 24.2739 66.6604 23.1536L78.5151 11.2989C79.2877 10.5264 79.2877 9.27771 78.5151 8.50518C77.7426 7.73265 76.4939 7.73265 75.7214 8.50518V8.50518Z" fill="url(#paint8_linear_37_6013)"/>
<path d="M70.8587 9.02278L74.8103 3.09544C75.4169 2.18856 75.1719 0.959623 74.263 0.355035C73.3502 -0.25153 72.1272 -0.00653299 71.5226 0.902326L67.571 6.82966C66.9645 7.73655 67.2095 8.96548 68.1183 9.57007C68.4562 9.79531 69.8116 10.3821 70.8587 9.02278V9.02278Z" fill="url(#paint9_linear_37_6013)"/>
<path d="M77.4504 18.9016C77.8297 19.4726 78.8749 20.2234 80.1908 19.4489L86.1181 15.4974C87.027 14.8928 87.272 13.6658 86.6654 12.757C86.0588 11.8481 84.8339 11.6011 83.925 12.2097L77.9977 16.1612C77.0888 16.7658 76.8438 17.9928 77.4504 18.9016Z" fill="url(#paint10_linear_37_6013)"/>
<path d="M31.9716 74.581L53.4898 64.1469L22.8731 33.5322L12.441 55.0485L31.9716 74.581Z" fill="url(#paint11_linear_37_6013)"/>
<path d="M34.5874 14.0906C34.1152 13.8357 32.7795 13.5176 31.8746 14.9679L24.6986 29.7684L57.2535 62.3233L72.0521 55.1473C73.5181 54.3037 73.1783 52.9641 72.957 52.4859C60.7763 26.1745 34.5874 14.0906 34.5874 14.0906V14.0906Z" fill="url(#paint12_linear_37_6013)"/>
<path d="M7.51538 86.4377L28.2077 76.4047L10.6154 58.8124L0.584342 79.5027C-1.31438 82.338 1.52284 88.6822 7.51538 86.4377V86.4377Z" fill="url(#paint13_linear_37_6013)"/>
<defs>
<linearGradient id="paint0_linear_37_6013" x1="57.2452" y1="0.0230953" x2="47.2257" y2="0.14191" gradientUnits="userSpaceOnUse">
<stop stop-color="#FCB233"/>
<stop offset="1" stop-color="#FFDD02"/>
</linearGradient>
<linearGradient id="paint1_linear_37_6013" x1="42.6214" y1="0.0238212" x2="36.3054" y2="0.0887972" gradientUnits="userSpaceOnUse">
<stop stop-color="#FCB233"/>
<stop offset="1" stop-color="#FFDD02"/>
</linearGradient>
<linearGradient id="paint2_linear_37_6013" x1="63.2811" y1="11.8777" x2="59.2652" y2="11.9828" gradientUnits="userSpaceOnUse">
<stop stop-color="#FCB233"/>
<stop offset="1" stop-color="#FFDD02"/>
</linearGradient>
<linearGradient id="paint3_linear_37_6013" x1="31.6689" y1="3.97461" x2="27.6529" y2="4.07971" gradientUnits="userSpaceOnUse">
<stop stop-color="#FCB233"/>
<stop offset="1" stop-color="#FFDD02"/>
</linearGradient>
<linearGradient id="paint4_linear_37_6013" x1="86.7434" y1="29.6598" x2="64.7689" y2="30.9214" gradientUnits="userSpaceOnUse">
<stop stop-color="#FCB233"/>
<stop offset="1" stop-color="#FFDD02"/>
</linearGradient>
<linearGradient id="paint5_linear_37_6013" x1="86.8153" y1="44.3317" x2="70.8277" y2="45.3931" gradientUnits="userSpaceOnUse">
<stop stop-color="#FCB233"/>
<stop offset="1" stop-color="#FFDD02"/>
</linearGradient>
<linearGradient id="paint6_linear_37_6013" x1="75.1356" y1="23.7324" x2="71.1197" y2="23.8375" gradientUnits="userSpaceOnUse">
<stop stop-color="#FCB233"/>
<stop offset="1" stop-color="#FFDD02"/>
</linearGradient>
<linearGradient id="paint7_linear_37_6013" x1="83.0389" y1="55.3449" x2="79.023" y2="55.4499" gradientUnits="userSpaceOnUse">
<stop stop-color="#FCB233"/>
<stop offset="1" stop-color="#FFDD02"/>
</linearGradient>
<linearGradient id="paint8_linear_37_6013" x1="78.9102" y1="7.9258" x2="62.8856" y2="8.34369" gradientUnits="userSpaceOnUse">
<stop stop-color="#FCB233"/>
<stop offset="1" stop-color="#FFDD02"/>
</linearGradient>
<linearGradient id="paint9_linear_37_6013" x1="75.0512" y1="0.0219836" x2="67.0351" y2="0.189603" gradientUnits="userSpaceOnUse">
<stop stop-color="#FCB233"/>
<stop offset="1" stop-color="#FFDD02"/>
</linearGradient>
<linearGradient id="paint10_linear_37_6013" x1="86.8833" y1="11.8757" x2="76.87" y2="12.2025" gradientUnits="userSpaceOnUse">
<stop stop-color="#FCB233"/>
<stop offset="1" stop-color="#FFDD02"/>
</linearGradient>
<linearGradient id="paint11_linear_37_6013" x1="53.0112" y1="33.5323" x2="11.3978" y2="34.6185" gradientUnits="userSpaceOnUse">
<stop stop-color="#FCB233"/>
<stop offset="1" stop-color="#FFDD02"/>
</linearGradient>
<linearGradient id="paint12_linear_37_6013" x1="72.5915" y1="13.8715" x2="23.4672" y2="15.154" gradientUnits="userSpaceOnUse">
<stop stop-color="#FCB233"/>
<stop offset="1" stop-color="#FFDD02"/>
</linearGradient>
<linearGradient id="paint13_linear_37_6013" x1="27.8789" y1="58.8124" x2="-0.716684" y2="59.5618" gradientUnits="userSpaceOnUse">
<stop stop-color="#FCB233"/>
<stop offset="1" stop-color="#FFDD02"/>
</linearGradient>
</defs>
</svg>
