<svg width="18" height="20" viewBox="0 0 18 20" fill="none" xmlns="http://www.w3.org/2000/svg">
<path fill-rule="evenodd" clip-rule="evenodd" d="M2.03487 7.28152L2.03323 7.28487C2.00958 7.3328 2 7.37281 2 7.42857V17.7143C2 17.7897 2.01213 17.8216 2.01612 17.8313C2.02011 17.841 2.03385 17.8723 2.0868 17.9261C2.13929 17.9794 2.16616 17.9895 2.16691 17.9899C2.16708 17.9899 2.18724 18 2.25 18H4.75V10H13.25V18H15.75C15.8127 18 15.8332 17.9899 15.8338 17.9897C15.8362 17.9887 15.8633 17.9776 15.9143 17.9261C15.9661 17.8732 15.9797 17.8423 15.9837 17.8324C15.9878 17.8224 16 17.7901 16 17.7143V7.42857C16 7.37191 15.9903 7.331 15.967 7.28316C15.9434 7.23561 15.9249 7.21856 15.9052 7.20386L15.8965 7.19741L9.15345 2.05984C9.10517 2.02522 9.07494 2.01312 9.06166 2.00862C9.04868 2.00423 9.03137 2 9 2C8.96863 2 8.95132 2.00423 8.93834 2.00862C8.92506 2.01312 8.89483 2.02522 8.84655 2.05984L2.1035 7.19741L2.09483 7.20386C2.07566 7.21814 2.05806 7.2343 2.03487 7.28152ZM7.65 0.457143C7.85625 0.304762 8.07187 0.190476 8.29688 0.114286C8.52188 0.0380951 8.75625 0 9 0C9.24375 0 9.47812 0.0380951 9.70312 0.114286C9.92813 0.190476 10.1438 0.304762 10.35 0.457143L17.1 5.6C17.3813 5.80952 17.6017 6.07619 17.7615 6.4C17.9205 6.72381 18 7.06667 18 7.42857V17.7143C18 18.3429 17.7799 18.8811 17.3396 19.3291C16.8986 19.7764 16.3687 20 15.75 20H11.25V12H6.75V20H2.25C1.63125 20 1.10175 19.7764 0.6615 19.3291C0.2205 18.8811 0 18.3429 0 17.7143V7.42857C0 7.06667 0.0798748 6.72381 0.239625 6.4C0.398625 6.07619 0.61875 5.80952 0.9 5.6L7.65 0.457143Z" fill="#43C1A9"/>
</svg>
