<svg width="38" height="51" viewBox="0 0 38 51" fill="none" xmlns="http://www.w3.org/2000/svg">
<path d="M0.333313 32H36.3333V36H0.333313V32ZM6.33331 26C8.53331 26 10.3333 24.2 10.3333 22C10.3333 21 9.93331 20 9.33331 19.4L11.9333 14H12.3333C13.3333 14 14.3333 13.6 14.9333 13L20.3333 15.8V16C20.3333 18.2 22.1333 20 24.3333 20C26.5333 20 28.3333 18.2 28.3333 16C28.3333 15 27.9333 14.2 27.3333 13.4L29.9333 8H30.3333C32.5333 8 34.3333 6.2 34.3333 4C34.3333 1.8 32.5333 0 30.3333 0C28.1333 0 26.3333 1.8 26.3333 4C26.3333 5 26.7333 6 27.3333 6.6L24.7333 12H24.3333C23.3333 12 22.3333 12.4 21.7333 13L16.3333 10.4V10C16.3333 7.8 14.5333 6 12.3333 6C10.1333 6 8.33331 7.8 8.33331 10C8.33331 11 8.73331 12 9.33331 12.6L6.73331 18H6.33331C4.13331 18 2.33331 19.8 2.33331 22C2.33331 24.2 4.13331 26 6.33331 26Z" fill="#4DBF9D"/>
<path d="M0.459961 50.3333C0.163737 50.3333 0.015625 50.1746 0.015625 49.8572V41.7068C0.015625 41.3894 0.163737 41.2307 0.459961 41.2307H2.67529C4.62191 41.2307 5.93799 41.6243 6.62354 42.4114C7.31331 43.1985 7.6582 44.3178 7.6582 45.7693C7.6582 47.2208 7.31331 48.3443 6.62354 49.1399C5.93799 49.9355 4.62191 50.3333 2.67529 50.3333H0.459961ZM1.86914 48.759H2.55469C3.86654 48.759 4.71501 48.5157 5.1001 48.0291C5.48519 47.5382 5.67773 46.7849 5.67773 45.7693C5.67773 44.7537 5.48519 44.0046 5.1001 43.5222C4.71501 43.0356 3.86654 42.7922 2.55469 42.7922H1.86914V48.759Z" fill="#4DBF9D"/>
<path d="M9.66406 50.3333C9.36784 50.3333 9.21973 50.1746 9.21973 49.8572V41.7068C9.21973 41.3894 9.36784 41.2307 9.66406 41.2307H15.1104C15.4277 41.2307 15.5864 41.3682 15.5864 41.6433V42.3923C15.5864 42.6674 15.4277 42.8049 15.1104 42.8049H11.0732V44.8235H14.7739C15.0913 44.8235 15.25 44.961 15.25 45.2361V45.9851C15.25 46.2602 15.0913 46.3977 14.7739 46.3977H11.0732V48.759H15.3135C15.6309 48.759 15.7896 48.8966 15.7896 49.1716V49.9207C15.7896 50.1957 15.6309 50.3333 15.3135 50.3333H9.66406Z" fill="#4DBF9D"/>
<path d="M17.7891 50.3333C17.4928 50.3333 17.3447 50.1746 17.3447 49.8572V41.7068C17.3447 41.3894 17.4928 41.2307 17.7891 41.2307H19.6299C19.8753 41.2307 20.0509 41.4 20.1567 41.7385L21.877 47.3054C21.9531 47.5466 22.006 47.7455 22.0356 47.9021C22.0653 48.0544 22.0907 48.2364 22.1118 48.448H22.1499C22.1711 48.2364 22.1965 48.0544 22.2261 47.9021C22.2557 47.7455 22.3086 47.5466 22.3848 47.3054L24.105 41.7385C24.2108 41.4 24.3864 41.2307 24.6318 41.2307H26.4727C26.7689 41.2307 26.917 41.3894 26.917 41.7068V49.8572C26.917 50.1746 26.7689 50.3333 26.4727 50.3333H25.5078C25.2116 50.3333 25.0635 50.1746 25.0635 49.8572V44.614C25.0635 44.3601 25.0741 44.1062 25.0952 43.8523H25.0508L23.2163 49.8191C23.1105 50.1619 22.9285 50.3333 22.6704 50.3333H21.5913C21.3332 50.3333 21.1512 50.1619 21.0454 49.8191L19.2109 43.8523H19.1665C19.1877 44.1062 19.1982 44.3601 19.1982 44.614V49.8572C19.1982 50.1746 19.0501 50.3333 18.7539 50.3333H17.7891Z" fill="#4DBF9D"/>
<path d="M28.4785 45.782C28.4785 44.322 28.8551 43.1625 29.6084 42.3035C30.3617 41.4444 31.4365 41.0149 32.833 41.0149C34.2295 41.0149 35.3044 41.4444 36.0576 42.3035C36.8109 43.1625 37.1875 44.322 37.1875 45.782C37.1875 47.2419 36.8109 48.4014 36.0576 49.2605C35.3044 50.1195 34.2295 50.5491 32.833 50.5491C31.4365 50.5491 30.3617 50.1195 29.6084 49.2605C28.8551 48.4014 28.4785 47.2419 28.4785 45.782ZM30.459 45.782C30.459 46.8399 30.6473 47.6503 31.0239 48.2131C31.4048 48.7717 32.0078 49.051 32.833 49.051C33.6582 49.051 34.2591 48.7717 34.6357 48.2131C35.0166 47.6503 35.207 46.8399 35.207 45.782C35.207 44.724 35.0166 43.9158 34.6357 43.3572C34.2591 42.7944 33.6582 42.5129 32.833 42.5129C32.0078 42.5129 31.4048 42.7944 31.0239 43.3572C30.6473 43.9158 30.459 44.724 30.459 45.782Z" fill="#4DBF9D"/>
</svg>
