<svg width="23" height="24" viewBox="0 0 23 24" fill="none" xmlns="http://www.w3.org/2000/svg">
<path fill-rule="evenodd" clip-rule="evenodd" d="M12.6112 17.548C12.8215 17.548 12.992 17.7185 12.992 17.9288V19.4518C12.992 19.6621 12.8215 19.8326 12.6112 19.8326C12.4009 19.8326 12.2305 19.6621 12.2305 19.4518V17.9288C12.2305 17.7185 12.4009 17.548 12.6112 17.548Z" fill="white"/>
<path fill-rule="evenodd" clip-rule="evenodd" d="M12.1218 17.9287C12.1218 17.6585 12.3409 17.4395 12.6111 17.4395C12.8813 17.4395 13.1003 17.6585 13.1003 17.9287V19.4518C13.1003 19.722 12.8813 19.9411 12.6111 19.9411C12.3409 19.9411 12.1218 19.722 12.1218 19.4518V17.9287ZM12.6111 17.6565C12.4607 17.6565 12.3388 17.7784 12.3388 17.9287V19.4518C12.3388 19.6022 12.4607 19.7241 12.6111 19.7241C12.7615 19.7241 12.8834 19.6022 12.8834 19.4518V17.9287C12.8834 17.7784 12.7615 17.6565 12.6111 17.6565Z" fill="white"/>
<path fill-rule="evenodd" clip-rule="evenodd" d="M12.6112 10.6937C12.8215 10.6937 12.992 10.8642 12.992 11.0745V14.1206C12.992 14.3309 12.8215 14.5014 12.6112 14.5014C12.4009 14.5014 12.2305 14.3309 12.2305 14.1206V11.0745C12.2305 10.8642 12.4009 10.6937 12.6112 10.6937Z" fill="white"/>
<path fill-rule="evenodd" clip-rule="evenodd" d="M12.1218 11.0745C12.1218 10.8043 12.3409 10.5852 12.6111 10.5852C12.8813 10.5852 13.1003 10.8043 13.1003 11.0745V14.1206C13.1003 14.3908 12.8813 14.6098 12.6111 14.6098C12.3409 14.6098 12.1218 14.3908 12.1218 14.1206V11.0745ZM12.6111 10.8022C12.4607 10.8022 12.3388 10.9241 12.3388 11.0745V14.1206C12.3388 14.271 12.4607 14.3929 12.6111 14.3929C12.7615 14.3929 12.8834 14.271 12.8834 14.1206V11.0745C12.8834 10.9241 12.7615 10.8022 12.6111 10.8022Z" fill="white"/>
<path fill-rule="evenodd" clip-rule="evenodd" d="M11.469 14.1211C11.469 13.9108 11.6395 13.7404 11.8498 13.7404H13.3728C13.5831 13.7404 13.7536 13.9108 13.7536 14.1211V17.9288C13.7536 18.1391 13.5831 18.3096 13.3728 18.3096H11.8498C11.6395 18.3096 11.469 18.1391 11.469 17.9288V14.1211ZM12.2305 14.5019V17.548H12.9921V14.5019H12.2305Z" fill="white"/>
<path fill-rule="evenodd" clip-rule="evenodd" d="M11.3611 14.1211C11.3611 13.8509 11.5801 13.6319 11.8503 13.6319H13.3734C13.6436 13.6319 13.8627 13.8509 13.8627 14.1211V17.9288C13.8627 18.199 13.6436 18.418 13.3734 18.418H11.8503C11.5801 18.418 11.3611 18.199 11.3611 17.9288V14.1211ZM11.8503 13.8488C11.7 13.8488 11.5781 13.9707 11.5781 14.1211V17.9288C11.5781 18.0792 11.7 18.2011 11.8503 18.2011H13.3734C13.5238 18.2011 13.6457 18.0792 13.6457 17.9288V14.1211C13.6457 13.9707 13.5238 13.8488 13.3734 13.8488H11.8503ZM12.1226 14.5019C12.1226 14.442 12.1712 14.3934 12.2311 14.3934H12.9926C13.0526 14.3934 13.1011 14.442 13.1011 14.5019V17.548C13.1011 17.6079 13.0526 17.6565 12.9926 17.6565H12.2311C12.1712 17.6565 12.1226 17.6079 12.1226 17.548V14.5019ZM12.3396 14.6104V17.4395H12.8842V14.6104H12.3396Z" fill="white"/>
<path fill-rule="evenodd" clip-rule="evenodd" d="M9.56583 14.5014C9.77612 14.5014 9.94659 14.6718 9.94659 14.8821V16.4052C9.94659 16.6155 9.77612 16.786 9.56583 16.786C9.35553 16.786 9.18506 16.6155 9.18506 16.4052V14.8821C9.18506 14.6718 9.35553 14.5014 9.56583 14.5014Z" fill="white"/>
<path fill-rule="evenodd" clip-rule="evenodd" d="M9.07642 14.8821C9.07642 14.6119 9.29546 14.3929 9.56567 14.3929C9.83588 14.3929 10.0549 14.6119 10.0549 14.8821V16.4052C10.0549 16.6754 9.83588 16.8945 9.56567 16.8945C9.29546 16.8945 9.07642 16.6754 9.07642 16.4052V14.8821ZM9.56567 14.6099C9.4153 14.6099 9.29339 14.7318 9.29339 14.8821V16.4052C9.29339 16.5556 9.4153 16.6775 9.56567 16.6775C9.71605 16.6775 9.83795 16.5556 9.83795 16.4052V14.8821C9.83795 14.7318 9.71605 14.6099 9.56567 14.6099Z" fill="white"/>
<path fill-rule="evenodd" clip-rule="evenodd" d="M9.56583 3.84003C9.77612 3.84003 9.94659 4.0105 9.94659 4.22079V6.50539C9.94659 6.71568 9.77612 6.88616 9.56583 6.88616C9.35553 6.88616 9.18506 6.71568 9.18506 6.50539V4.22079C9.18506 4.0105 9.35553 3.84003 9.56583 3.84003Z" fill="white"/>
<path fill-rule="evenodd" clip-rule="evenodd" d="M9.07642 4.22079C9.07642 3.95058 9.29546 3.73154 9.56567 3.73154C9.83588 3.73154 10.0549 3.95058 10.0549 4.22079V6.50539C10.0549 6.7756 9.83588 6.99464 9.56567 6.99464C9.29546 6.99464 9.07642 6.7756 9.07642 6.50539V4.22079ZM9.56567 3.94851C9.4153 3.94851 9.29339 4.07042 9.29339 4.22079V6.50539C9.29339 6.65577 9.4153 6.77767 9.56567 6.77767C9.71605 6.77767 9.83795 6.65577 9.83795 6.50539V4.22079C9.83795 4.07042 9.71605 3.94851 9.56567 3.94851Z" fill="white"/>
<path fill-rule="evenodd" clip-rule="evenodd" d="M8.42261 6.50577C8.42261 6.29547 8.59308 6.125 8.80337 6.125H10.3264C10.5367 6.125 10.7072 6.29547 10.7072 6.50577V14.8826C10.7072 15.0929 10.5367 15.2634 10.3264 15.2634H8.80337C8.59308 15.2634 8.42261 15.0929 8.42261 14.8826V6.50577ZM9.18414 6.88653V14.5019H9.94567V6.88653H9.18414Z" fill="white"/>
<path fill-rule="evenodd" clip-rule="evenodd" d="M8.31396 6.50576C8.31396 6.23556 8.53301 6.01651 8.80322 6.01651H10.3263C10.5965 6.01651 10.8155 6.23556 10.8155 6.50576V14.8826C10.8155 15.1528 10.5965 15.3719 10.3263 15.3719H8.80322C8.53301 15.3719 8.31396 15.1528 8.31396 14.8826V6.50576ZM8.80322 6.23349C8.65284 6.23349 8.53094 6.35539 8.53094 6.50576V14.8826C8.53094 15.033 8.65284 15.1549 8.80322 15.1549H10.3263C10.4767 15.1549 10.5986 15.033 10.5986 14.8826V6.50576C10.5986 6.35539 10.4767 6.23349 10.3263 6.23349H8.80322ZM9.0755 6.88653C9.0755 6.82661 9.12407 6.77804 9.18399 6.77804H9.94552C10.0054 6.77804 10.054 6.82661 10.054 6.88653V14.5019C10.054 14.5618 10.0054 14.6103 9.94552 14.6103H9.18399C9.12407 14.6103 9.0755 14.5618 9.0755 14.5019V6.88653ZM9.29247 6.99502V14.3934H9.83703V6.99502H9.29247Z" fill="white"/>
<path fill-rule="evenodd" clip-rule="evenodd" d="M15.6576 16.0247C15.8679 16.0247 16.0384 16.1952 16.0384 16.4055V17.9285C16.0384 18.1388 15.8679 18.3093 15.6576 18.3093C15.4473 18.3093 15.2769 18.1388 15.2769 17.9285V16.4055C15.2769 16.1952 15.4473 16.0247 15.6576 16.0247Z" fill="white"/>
<path fill-rule="evenodd" clip-rule="evenodd" d="M15.1685 16.4055C15.1685 16.1352 15.3875 15.9162 15.6577 15.9162C15.9279 15.9162 16.147 16.1352 16.147 16.4055V17.9285C16.147 18.1987 15.9279 18.4178 15.6577 18.4178C15.3875 18.4178 15.1685 18.1987 15.1685 17.9285V16.4055ZM15.6577 16.1332C15.5073 16.1332 15.3854 16.2551 15.3854 16.4055V17.9285C15.3854 18.0789 15.5073 18.2008 15.6577 18.2008C15.8081 18.2008 15.93 18.0789 15.93 17.9285V16.4055C15.93 16.2551 15.8081 16.1332 15.6577 16.1332Z" fill="white"/>
<path fill-rule="evenodd" clip-rule="evenodd" d="M15.6576 6.125C15.8679 6.125 16.0384 6.29547 16.0384 6.50577V8.02883C16.0384 8.23912 15.8679 8.4096 15.6576 8.4096C15.4473 8.4096 15.2769 8.23912 15.2769 8.02883V6.50577C15.2769 6.29547 15.4473 6.125 15.6576 6.125Z" fill="white"/>
<path fill-rule="evenodd" clip-rule="evenodd" d="M15.1685 6.50576C15.1685 6.23556 15.3875 6.01651 15.6577 6.01651C15.9279 6.01651 16.147 6.23556 16.147 6.50576V8.02883C16.147 8.29904 15.9279 8.51809 15.6577 8.51809C15.3875 8.51809 15.1685 8.29904 15.1685 8.02883V6.50576ZM15.6577 6.23349C15.5073 6.23349 15.3854 6.35539 15.3854 6.50576V8.02883C15.3854 8.17921 15.5073 8.30111 15.6577 8.30111C15.8081 8.30111 15.93 8.17921 15.93 8.02883V6.50576C15.93 6.35539 15.8081 6.23349 15.6577 6.23349Z" fill="white"/>
<path fill-rule="evenodd" clip-rule="evenodd" d="M14.5144 8.02844C14.5144 7.81815 14.6849 7.64767 14.8952 7.64767H16.4182C16.6285 7.64767 16.799 7.81815 16.799 8.02844V16.4053C16.799 16.6156 16.6285 16.7861 16.4182 16.7861H14.8952C14.6849 16.7861 14.5144 16.6156 14.5144 16.4053V8.02844ZM15.2759 8.40921V16.0245H16.0375V8.40921H15.2759Z" fill="white"/>
<path fill-rule="evenodd" clip-rule="evenodd" d="M14.4065 8.02847C14.4065 7.75826 14.6255 7.53922 14.8957 7.53922H16.4188C16.689 7.53922 16.9081 7.75826 16.9081 8.02847V16.4053C16.9081 16.6755 16.689 16.8946 16.4188 16.8946H14.8957C14.6255 16.8946 14.4065 16.6755 14.4065 16.4053V8.02847ZM14.8957 7.75619C14.7454 7.75619 14.6235 7.87809 14.6235 8.02847V16.4053C14.6235 16.5557 14.7454 16.6776 14.8957 16.6776H16.4188C16.5692 16.6776 16.6911 16.5557 16.6911 16.4053V8.02847C16.6911 7.87809 16.5692 7.75619 16.4188 7.75619H14.8957ZM15.168 8.40924C15.168 8.34932 15.2166 8.30075 15.2765 8.30075H16.038C16.098 8.30075 16.1465 8.34932 16.1465 8.40924V16.0246C16.1465 16.0845 16.098 16.1331 16.038 16.1331H15.2765C15.2166 16.1331 15.168 16.0845 15.168 16.0246V8.40924ZM15.385 8.51772V15.9161H15.9296V8.51772H15.385Z" fill="white"/>
<path fill-rule="evenodd" clip-rule="evenodd" d="M6.51895 8.40936C6.72924 8.40936 6.89972 8.57984 6.89972 8.79013V11.0747C6.89972 11.285 6.72924 11.4555 6.51895 11.4555C6.30866 11.4555 6.13818 11.285 6.13818 11.0747V8.79013C6.13818 8.57984 6.30866 8.40936 6.51895 8.40936Z" fill="white"/>
<path fill-rule="evenodd" clip-rule="evenodd" d="M6.03003 8.7901C6.03003 8.51989 6.24908 8.30084 6.51928 8.30084C6.78949 8.30084 7.00854 8.51989 7.00854 8.7901V11.0747C7.00854 11.3449 6.78949 11.564 6.51928 11.564C6.24908 11.564 6.03003 11.3449 6.03003 11.0747V8.7901ZM6.51928 8.51782C6.36891 8.51782 6.24701 8.63972 6.24701 8.7901V11.0747C6.24701 11.2251 6.36891 11.347 6.51928 11.347C6.66966 11.347 6.79156 11.2251 6.79156 11.0747V8.7901C6.79156 8.63972 6.66966 8.51782 6.51928 8.51782Z" fill="white"/>
<path fill-rule="evenodd" clip-rule="evenodd" d="M6.51895 0.794037C6.72924 0.794037 6.89972 0.964512 6.89972 1.1748V2.69787C6.89972 2.90816 6.72924 3.07864 6.51895 3.07864C6.30866 3.07864 6.13818 2.90816 6.13818 2.69787V1.1748C6.13818 0.964512 6.30866 0.794037 6.51895 0.794037Z" fill="white"/>
<path fill-rule="evenodd" clip-rule="evenodd" d="M6.03003 1.1748C6.03003 0.904594 6.24908 0.685547 6.51928 0.685547C6.78949 0.685547 7.00854 0.904594 7.00854 1.1748V2.69787C7.00854 2.96808 6.78949 3.18712 6.51928 3.18712C6.24908 3.18712 6.03003 2.96808 6.03003 2.69787V1.1748ZM6.51928 0.902523C6.36891 0.902523 6.24701 1.02443 6.24701 1.1748V2.69787C6.24701 2.84824 6.36891 2.97015 6.51928 2.97015C6.66966 2.97015 6.79156 2.84824 6.79156 2.69787V1.1748C6.79156 1.02443 6.66966 0.902523 6.51928 0.902523Z" fill="white"/>
<path fill-rule="evenodd" clip-rule="evenodd" d="M5.3772 2.69809C5.3772 2.4878 5.54767 2.31732 5.75796 2.31732H7.28103C7.49132 2.31732 7.6618 2.4878 7.6618 2.69809V8.79035C7.6618 9.00064 7.49132 9.17112 7.28103 9.17112H5.75796C5.54767 9.17112 5.3772 9.00064 5.3772 8.79035V2.69809ZM6.13873 3.07885V8.40959H6.90026V3.07885H6.13873Z" fill="white"/>
<path fill-rule="evenodd" clip-rule="evenodd" d="M5.26855 2.69809C5.26855 2.42788 5.4876 2.20883 5.75781 2.20883H7.28088C7.55108 2.20883 7.77013 2.42788 7.77013 2.69809V8.79035C7.77013 9.06056 7.55108 9.27961 7.28088 9.27961H5.75781C5.4876 9.27961 5.26855 9.06056 5.26855 8.79035V2.69809ZM5.75781 2.42581C5.60743 2.42581 5.48553 2.54771 5.48553 2.69809V8.79035C5.48553 8.94073 5.60743 9.06263 5.75781 9.06263H7.28088C7.43125 9.06263 7.55315 8.94073 7.55315 8.79035V2.69809C7.55315 2.54771 7.43125 2.42581 7.28088 2.42581H5.75781ZM6.03009 3.07885C6.03009 3.01894 6.07866 2.97036 6.13858 2.97036H6.90011C6.96003 2.97036 7.0086 3.01894 7.0086 3.07885V8.40958C7.0086 8.4695 6.96003 8.51807 6.90011 8.51807H6.13858C6.07866 8.51807 6.03009 8.4695 6.03009 8.40958V3.07885ZM6.24706 3.18734V8.3011H6.79162V3.18734H6.24706Z" fill="white"/>
<path fill-rule="evenodd" clip-rule="evenodd" d="M3.47352 12.1216C3.73638 12.1216 3.94947 12.3347 3.94947 12.5975V14.8821C3.94947 15.145 3.73638 15.3581 3.47352 15.3581C3.21065 15.3581 2.99756 15.145 2.99756 14.8821V12.5975C2.99756 12.3347 3.21065 12.1216 3.47352 12.1216Z" fill="white"/>
<path fill-rule="evenodd" clip-rule="evenodd" d="M2.88892 12.5975C2.88892 12.2748 3.15058 12.0131 3.47336 12.0131C3.79614 12.0131 4.05781 12.2748 4.05781 12.5975V14.8821C4.05781 15.2049 3.79614 15.4666 3.47336 15.4666C3.15058 15.4666 2.88892 15.2049 2.88892 14.8821V12.5975ZM3.47336 12.2301C3.27041 12.2301 3.10589 12.3946 3.10589 12.5975V14.8821C3.10589 15.0851 3.27041 15.2496 3.47336 15.2496C3.67631 15.2496 3.84083 15.0851 3.84083 14.8821V12.5975C3.84083 12.3946 3.67631 12.2301 3.47336 12.2301Z" fill="white"/>
<path fill-rule="evenodd" clip-rule="evenodd" d="M3.47352 5.26791C3.73638 5.26791 3.94947 5.48101 3.94947 5.74387V7.26694C3.94947 7.5298 3.73638 7.7429 3.47352 7.7429C3.21065 7.7429 2.99756 7.5298 2.99756 7.26694V5.74387C2.99756 5.48101 3.21065 5.26791 3.47352 5.26791Z" fill="white"/>
<path fill-rule="evenodd" clip-rule="evenodd" d="M2.88892 5.74387C2.88892 5.42109 3.15058 5.15942 3.47336 5.15942C3.79614 5.15942 4.05781 5.42109 4.05781 5.74387V7.26694C4.05781 7.58972 3.79614 7.85138 3.47336 7.85138C3.15058 7.85138 2.88892 7.58972 2.88892 7.26694V5.74387ZM3.47336 5.3764C3.27041 5.3764 3.10589 5.54092 3.10589 5.74387V7.26694C3.10589 7.46988 3.27041 7.63441 3.47336 7.63441C3.67631 7.63441 3.84083 7.46988 3.84083 7.26694V5.74387C3.84083 5.54092 3.67631 5.3764 3.47336 5.3764Z" fill="white"/>
<path fill-rule="evenodd" clip-rule="evenodd" d="M2.23535 7.26716C2.23535 7.00429 2.44845 6.7912 2.71131 6.7912H4.23438C4.49724 6.7912 4.71033 7.00429 4.71033 7.26716V12.5979C4.71033 12.8608 4.49724 13.0738 4.23438 13.0738H2.71131C2.44845 13.0738 2.23535 12.8608 2.23535 12.5979V7.26716ZM3.18727 7.74311V12.1219H3.75842V7.74311H3.18727Z" fill="white"/>
<path fill-rule="evenodd" clip-rule="evenodd" d="M2.12695 7.26719C2.12695 6.9444 2.38862 6.68274 2.7114 6.68274H4.23447C4.55725 6.68274 4.81891 6.9444 4.81891 7.26719V12.5979C4.81891 12.9207 4.55725 13.1824 4.23447 13.1824H2.7114C2.38862 13.1824 2.12695 12.9207 2.12695 12.5979V7.26719ZM2.7114 6.89972C2.50845 6.89972 2.34393 7.06424 2.34393 7.26719V12.5979C2.34393 12.8009 2.50845 12.9654 2.7114 12.9654H4.23447C4.43741 12.9654 4.60194 12.8009 4.60194 12.5979V7.26719C4.60194 7.06424 4.43741 6.89972 4.23447 6.89972H2.7114ZM3.07887 7.74314C3.07887 7.68323 3.12744 7.63466 3.18736 7.63466H3.75851C3.81842 7.63466 3.867 7.68323 3.867 7.74314V12.122C3.867 12.1819 3.81842 12.2304 3.75851 12.2304H3.18736C3.12744 12.2304 3.07887 12.1819 3.07887 12.122V7.74314ZM3.29585 7.85163V12.0135H3.65002V7.85163H3.29585Z" fill="white"/>
<path fill-rule="evenodd" clip-rule="evenodd" d="M21.7502 15.263C21.9604 15.263 22.1309 15.4335 22.1309 15.6438V17.1669C22.1309 17.3772 21.9604 17.5476 21.7502 17.5476C21.5399 17.5476 21.3694 17.3772 21.3694 17.1669V15.6438C21.3694 15.4335 21.5399 15.263 21.7502 15.263Z" fill="white"/>
<path fill-rule="evenodd" clip-rule="evenodd" d="M21.2607 15.6438C21.2607 15.3736 21.4798 15.1546 21.75 15.1546C22.0202 15.1546 22.2393 15.3736 22.2393 15.6438V17.1669C22.2393 17.4371 22.0202 17.6561 21.75 17.6561C21.4798 17.6561 21.2607 17.4371 21.2607 17.1669V15.6438ZM21.75 15.3715C21.5996 15.3715 21.4777 15.4935 21.4777 15.6438V17.1669C21.4777 17.3173 21.5996 17.4392 21.75 17.4392C21.9004 17.4392 22.0223 17.3173 22.0223 17.1669V15.6438C22.0223 15.4935 21.9004 15.3715 21.75 15.3715Z" fill="white"/>
<path fill-rule="evenodd" clip-rule="evenodd" d="M21.7502 6.88602C21.9604 6.88602 22.1309 7.05649 22.1309 7.26678V8.78985C22.1309 9.00014 21.9604 9.17062 21.7502 9.17062C21.5399 9.17062 21.3694 9.00014 21.3694 8.78985V7.26678C21.3694 7.05649 21.5399 6.88602 21.7502 6.88602Z" fill="white"/>
<path fill-rule="evenodd" clip-rule="evenodd" d="M21.2607 7.26678C21.2607 6.99657 21.4798 6.77753 21.75 6.77753C22.0202 6.77753 22.2393 6.99657 22.2393 7.26678V8.78985C22.2393 9.06006 22.0202 9.2791 21.75 9.2791C21.4798 9.2791 21.2607 9.06006 21.2607 8.78985V7.26678ZM21.75 6.9945C21.5996 6.9945 21.4777 7.11641 21.4777 7.26678V8.78985C21.4777 8.94022 21.5996 9.06213 21.75 9.06213C21.9004 9.06213 22.0223 8.94022 22.0223 8.78985V7.26678C22.0223 7.11641 21.9004 6.9945 21.75 6.9945Z" fill="white"/>
<path fill-rule="evenodd" clip-rule="evenodd" d="M20.6079 8.79013C20.6079 8.57984 20.7784 8.40936 20.9887 8.40936H22.5117C22.722 8.40936 22.8925 8.57984 22.8925 8.79013V15.6439C22.8925 15.8542 22.722 16.0247 22.5117 16.0247H20.9887C20.7784 16.0247 20.6079 15.8542 20.6079 15.6439V8.79013ZM21.3694 9.1709V15.2632H22.131V9.1709H21.3694Z" fill="white"/>
<path fill-rule="evenodd" clip-rule="evenodd" d="M20.4993 8.7901C20.4993 8.51989 20.7183 8.30084 20.9885 8.30084H22.5116C22.7818 8.30084 23.0008 8.51989 23.0008 8.7901V15.6439C23.0008 15.9141 22.7818 16.1331 22.5116 16.1331H20.9885C20.7183 16.1331 20.4993 15.9141 20.4993 15.6439V8.7901ZM20.9885 8.51782C20.8381 8.51782 20.7162 8.63972 20.7162 8.7901V15.6439C20.7162 15.7943 20.8381 15.9162 20.9885 15.9162H22.5116C22.662 15.9162 22.7839 15.7943 22.7839 15.6439V8.7901C22.7839 8.63972 22.662 8.51782 22.5116 8.51782H20.9885ZM21.2608 9.17086C21.2608 9.11095 21.3094 9.06238 21.3693 9.06238H22.1308C22.1907 9.06238 22.2393 9.11095 22.2393 9.17086V15.2631C22.2393 15.323 22.1907 15.3716 22.1308 15.3716H21.3693C21.3094 15.3716 21.2608 15.323 21.2608 15.2631V9.17086ZM21.4778 9.27935V15.1546H22.0223V9.27935H21.4778Z" fill="white"/>
<path fill-rule="evenodd" clip-rule="evenodd" d="M18.703 9.17102C18.9133 9.17102 19.0838 9.3415 19.0838 9.55179V13.3595C19.0838 13.5697 18.9133 13.7402 18.703 13.7402C18.4927 13.7402 18.3223 13.5697 18.3223 13.3595V9.55179C18.3223 9.3415 18.4927 9.17102 18.703 9.17102Z" fill="white"/>
<path fill-rule="evenodd" clip-rule="evenodd" d="M18.2139 9.55179C18.2139 9.28158 18.4329 9.06253 18.7031 9.06253C18.9733 9.06253 19.1924 9.28158 19.1924 9.55179V13.3594C19.1924 13.6297 18.9733 13.8487 18.7031 13.8487C18.4329 13.8487 18.2139 13.6297 18.2139 13.3594V9.55179ZM18.7031 9.27951C18.5527 9.27951 18.4308 9.40141 18.4308 9.55179V13.3594C18.4308 13.5098 18.5527 13.6317 18.7031 13.6317C18.8535 13.6317 18.9754 13.5098 18.9754 13.3594V9.55179C18.9754 9.40141 18.8535 9.27951 18.7031 9.27951Z" fill="white"/>
<path fill-rule="evenodd" clip-rule="evenodd" d="M18.703 3.07837C18.9133 3.07837 19.0838 3.24884 19.0838 3.45914V4.9822C19.0838 5.19249 18.9133 5.36297 18.703 5.36297C18.4927 5.36297 18.3223 5.19249 18.3223 4.9822V3.45914C18.3223 3.24884 18.4927 3.07837 18.703 3.07837Z" fill="white"/>
<path fill-rule="evenodd" clip-rule="evenodd" d="M18.2139 3.45913C18.2139 3.18893 18.4329 2.96988 18.7031 2.96988C18.9733 2.96988 19.1924 3.18893 19.1924 3.45913V4.9822C19.1924 5.25241 18.9733 5.47145 18.7031 5.47145C18.4329 5.47145 18.2139 5.25241 18.2139 4.9822V3.45913ZM18.7031 3.18686C18.5527 3.18686 18.4308 3.30876 18.4308 3.45913V4.9822C18.4308 5.13257 18.5527 5.25448 18.7031 5.25448C18.8535 5.25448 18.9754 5.13257 18.9754 4.9822V3.45913C18.9754 3.30876 18.8535 3.18686 18.7031 3.18686Z" fill="white"/>
<path fill-rule="evenodd" clip-rule="evenodd" d="M17.5615 4.98245C17.5615 4.77216 17.732 4.60168 17.9423 4.60168H19.4654C19.6756 4.60168 19.8461 4.77216 19.8461 4.98245V9.55165C19.8461 9.76194 19.6756 9.93242 19.4654 9.93242H17.9423C17.732 9.93242 17.5615 9.76194 17.5615 9.55165V4.98245ZM18.3231 5.36322V9.17088H19.0846V5.36322H18.3231Z" fill="white"/>
<path fill-rule="evenodd" clip-rule="evenodd" d="M17.4529 4.98242C17.4529 4.71221 17.6719 4.49316 17.9421 4.49316H19.4652C19.7354 4.49316 19.9545 4.71221 19.9545 4.98242V9.55162C19.9545 9.82182 19.7354 10.0409 19.4652 10.0409H17.9421C17.6719 10.0409 17.4529 9.82182 17.4529 9.55162V4.98242ZM17.9421 4.71014C17.7918 4.71014 17.6699 4.83204 17.6699 4.98242V9.55162C17.6699 9.70199 17.7918 9.82389 17.9421 9.82389H19.4652C19.6156 9.82389 19.7375 9.70199 19.7375 9.55162V4.98242C19.7375 4.83204 19.6156 4.71014 19.4652 4.71014H17.9421ZM18.2144 5.36319C18.2144 5.30327 18.263 5.2547 18.3229 5.2547H19.0844C19.1444 5.2547 19.1929 5.30327 19.1929 5.36319V9.17085C19.1929 9.23077 19.1444 9.27934 19.0844 9.27934H18.3229C18.263 9.27934 18.2144 9.23077 18.2144 9.17085V5.36319ZM18.4314 5.47167V9.06236H18.9759V5.47167H18.4314Z" fill="white"/>
<path fill-rule="evenodd" clip-rule="evenodd" d="M1.18791 0.857239C1.36315 0.857239 1.50522 0.999301 1.50522 1.17454V23.259C1.50522 23.4342 1.36315 23.5763 1.18791 23.5763C1.01267 23.5763 0.870605 23.4342 0.870605 23.259V1.17454C0.870605 0.999301 1.01267 0.857239 1.18791 0.857239Z" fill="white"/>
<path fill-rule="evenodd" clip-rule="evenodd" d="M0.762207 1.17454C0.762207 0.939383 0.952841 0.748749 1.188 0.748749C1.42316 0.748749 1.61379 0.939383 1.61379 1.17454V23.259C1.61379 23.4942 1.42316 23.6848 1.188 23.6848C0.952841 23.6848 0.762207 23.4942 0.762207 23.259V1.17454ZM1.188 0.965725C1.07267 0.965725 0.979183 1.05922 0.979183 1.17454V23.259C0.979183 23.3743 1.07267 23.4678 1.188 23.4678C1.30333 23.4678 1.39682 23.3743 1.39682 23.259V1.17454C1.39682 1.05922 1.30333 0.965725 1.188 0.965725Z" fill="white"/>
<path fill-rule="evenodd" clip-rule="evenodd" d="M0.109375 21.7362C0.109375 21.5609 0.251437 21.4189 0.42668 21.4189H22.5111C22.6864 21.4189 22.8284 21.5609 22.8284 21.7362C22.8284 21.9114 22.6864 22.0535 22.5111 22.0535H0.42668C0.251437 22.0535 0.109375 21.9114 0.109375 21.7362Z" fill="white"/>
<path fill-rule="evenodd" clip-rule="evenodd" d="M0.0012207 21.7362C0.0012207 21.501 0.191855 21.3104 0.427014 21.3104H22.5115C22.7466 21.3104 22.9373 21.501 22.9373 21.7362C22.9373 21.9713 22.7466 22.162 22.5115 22.162H0.427014C0.191855 22.162 0.0012207 21.9713 0.0012207 21.7362ZM0.427014 21.5273C0.311688 21.5273 0.218197 21.6208 0.218197 21.7362C0.218197 21.8515 0.311688 21.945 0.427014 21.945H22.5115C22.6268 21.945 22.7203 21.8515 22.7203 21.7362C22.7203 21.6208 22.6268 21.5273 22.5115 21.5273H0.427014Z" fill="white"/>
</svg>
