<svg width="38" height="44" viewBox="0 0 38 44" fill="none" xmlns="http://www.w3.org/2000/svg">
<path fill-rule="evenodd" clip-rule="evenodd" d="M4.1 3.5C3.69882 3.5 3.5 3.79198 3.5 4V40C3.5 40.208 3.69882 40.5 4.1 40.5H33.5C33.9012 40.5 34.1 40.208 34.1 40V4C34.1 3.79198 33.9012 3.5 33.5 3.5H4.1ZM0.5 4C0.5 1.99888 2.18158 0.5 4.1 0.5H33.5C35.4184 0.5 37.1 1.99888 37.1 4V40C37.1 42.0011 35.4184 43.5 33.5 43.5H4.1C2.18158 43.5 0.5 42.0011 0.5 40V4Z" fill="#5AC9B4"/>
<path fill-rule="evenodd" clip-rule="evenodd" d="M6.89996 2C6.89996 1.17157 7.57154 0.5 8.39996 0.5H18C18.8284 0.5 19.5 1.17157 19.5 2V18C19.5 18.582 19.1633 19.1115 18.6362 19.3584C18.1091 19.6053 17.4868 19.5249 17.0397 19.1523L13.2 15.9526L9.36024 19.1523C8.91311 19.5249 8.29081 19.6053 7.76373 19.3584C7.23665 19.1115 6.89996 18.582 6.89996 18V2ZM9.89996 3.5V14.7974L12.2397 12.8477C12.796 12.3841 13.604 12.3841 14.1602 12.8477L16.5 14.7974V3.5H9.89996Z" fill="#5AC9B4"/>
<path fill-rule="evenodd" clip-rule="evenodd" d="M6.89996 26C6.89996 25.1716 7.57154 24.5 8.39996 24.5H19.4C20.2284 24.5 20.9 25.1716 20.9 26C20.9 26.8284 20.2284 27.5 19.4 27.5H8.39996C7.57154 27.5 6.89996 26.8284 6.89996 26ZM6.89996 32.4C6.89996 31.5716 7.57154 30.9 8.39996 30.9H26C26.8284 30.9 27.5 31.5716 27.5 32.4C27.5 33.2284 26.8284 33.9 26 33.9H8.39996C7.57154 33.9 6.89996 33.2284 6.89996 32.4Z" fill="#5AC9B4"/>
</svg>
