<svg width="25" height="24" viewBox="0 0 25 24" fill="none" xmlns="http://www.w3.org/2000/svg">
<path fill-rule="evenodd" clip-rule="evenodd" d="M9.75855 14.0856C9.88394 13.9601 10.0873 13.9601 10.2128 14.0855L11.2997 15.1717C11.4252 15.297 11.4253 15.5004 11.2999 15.6259C11.1745 15.7514 10.9711 15.7514 10.8456 15.626L9.7587 14.5398C9.63323 14.4145 9.63316 14.2111 9.75855 14.0856Z" fill="white" stroke="white" stroke-width="0.2" stroke-miterlimit="10" stroke-linecap="round" stroke-linejoin="round"/>
<path fill-rule="evenodd" clip-rule="evenodd" d="M13.0271 8.63157C13.1525 8.50609 13.3559 8.50602 13.4813 8.63141L15.6629 10.8115C15.7884 10.9369 15.7884 11.1403 15.663 11.2658C15.5377 11.3912 15.3343 11.3913 15.2088 11.2659L13.0273 9.0858C12.9018 8.96041 12.9017 8.75704 13.0271 8.63157Z" fill="white" stroke="white" stroke-width="0.2" stroke-miterlimit="10" stroke-linecap="round" stroke-linejoin="round"/>
<path fill-rule="evenodd" clip-rule="evenodd" d="M1 5.64623C1 4.18985 2.17697 3.01398 3.6338 3.01398H16.3531C16.5305 3.01398 16.6743 3.15778 16.6743 3.33517C16.6743 3.51256 16.5305 3.65637 16.3531 3.65637H3.6338C2.53135 3.65637 1.64239 4.54504 1.64239 5.64623V17.9719C1.64239 19.0731 2.53135 19.9618 3.6338 19.9618H16.7385C16.9159 19.9618 17.0597 20.1056 17.0597 20.283V22.51L19.1949 20.0714C19.2559 20.0017 19.344 19.9618 19.4366 19.9618H21.3637C22.4662 19.9618 23.3552 19.0731 23.3552 17.9719V7.57212C23.3552 7.39473 23.499 7.25092 23.6764 7.25092C23.8537 7.25092 23.9975 7.39473 23.9975 7.57212V17.9719C23.9975 19.4283 22.8206 20.6042 21.3637 20.6042H19.5823L16.9802 23.576C16.8921 23.6766 16.7508 23.7121 16.6255 23.665C16.5003 23.6179 16.4173 23.4982 16.4173 23.3644V20.6042H3.6338C2.17697 20.6042 1 19.4283 1 17.9719V5.64623Z" fill="white" stroke="white" stroke-width="0.2" stroke-miterlimit="10" stroke-linecap="round" stroke-linejoin="round"/>
<path fill-rule="evenodd" clip-rule="evenodd" d="M21.7455 1.00488C22.1715 0.579104 22.8681 0.579104 23.2942 1.00488C23.7204 1.43077 23.7204 2.12728 23.2942 2.55317L22.6929 3.15404C22.5674 3.27944 22.3641 3.27937 22.2387 3.15389C22.1133 3.02842 22.1134 2.82505 22.2388 2.69965L22.8401 2.09878C23.0152 1.92379 23.0152 1.63425 22.8401 1.45926C22.6649 1.28416 22.3748 1.28416 22.1996 1.45926L21.9763 1.23587L22.1996 1.45926L21.5983 2.06014C21.4728 2.18553 21.2694 2.18547 21.144 2.05999C21.0187 1.93451 21.0187 1.73114 21.1442 1.60575L21.7455 1.00488" fill="white" stroke="white" stroke-width="0.2" stroke-miterlimit="10" stroke-linecap="round" stroke-linejoin="round"/>
<path fill-rule="evenodd" clip-rule="evenodd" d="M21.4768 2.27685C21.1458 1.95266 20.6159 1.95571 20.2956 2.27583L9.16183 13.4022L7.86806 16.421L10.8893 15.1279L22.0231 4.00154C22.3433 3.68154 22.3464 3.15238 22.022 2.82172C22.0217 2.82143 22.0214 2.82113 22.0211 2.82083L21.4777 2.27776C21.4774 2.27746 21.4771 2.27715 21.4768 2.27685ZM19.8415 1.82144C20.4151 1.24824 21.3492 1.251 21.9279 1.81951L21.9299 1.82143L22.4791 2.37033C23.0481 2.94875 23.0509 3.88261 22.4772 4.45593L11.2996 15.6261C11.2707 15.655 11.2365 15.6781 11.1989 15.6942L7.38313 17.3273C7.26242 17.379 7.1224 17.352 7.02958 17.2591C6.93675 17.1662 6.9098 17.0262 6.96153 16.9055L8.59577 13.0922C8.61188 13.0546 8.63502 13.0205 8.66395 12.9916L19.8415 1.82144Z" fill="white" stroke="white" stroke-width="0.2" stroke-miterlimit="10" stroke-linecap="round" stroke-linejoin="round"/>
<path fill-rule="evenodd" clip-rule="evenodd" d="M21.7454 2.09891C21.8708 1.97344 22.0741 1.97337 22.1996 2.09876L23.5631 3.46139C24.1461 4.03523 24.1429 4.9713 23.564 5.54983L20.2956 8.81613C20.1701 8.94152 19.9667 8.94145 19.8413 8.81598C19.7159 8.6905 19.716 8.48713 19.8415 8.36174L23.1099 5.09544C23.4403 4.7653 23.4375 4.23847 23.1119 3.91861L23.1099 3.91668L23.1099 3.91668L21.7455 2.55315C21.62 2.42776 21.62 2.22439 21.7454 2.09891Z" fill="white" stroke="white" stroke-width="0.2" stroke-miterlimit="10" stroke-linecap="round" stroke-linejoin="round"/>
<path fill-rule="evenodd" clip-rule="evenodd" d="M7.95337 9.48257C7.95337 9.30518 8.09717 9.16138 8.27456 9.16138H10.1863C10.3637 9.16138 10.5075 9.30518 10.5075 9.48257C10.5075 9.65996 10.3637 9.80377 10.1863 9.80377H8.27456C8.09717 9.80377 7.95337 9.65996 7.95337 9.48257Z" fill="white" stroke="white" stroke-width="0.2" stroke-miterlimit="10" stroke-linecap="round" stroke-linejoin="round"/>
<path fill-rule="evenodd" clip-rule="evenodd" d="M10.2656 7.9418C10.2656 7.76441 10.4094 7.62061 10.5868 7.62061H11.7277C11.9051 7.62061 12.0489 7.76441 12.0489 7.9418C12.0489 8.11919 11.9051 8.263 11.7277 8.263H10.5868C10.4094 8.263 10.2656 8.11919 10.2656 7.9418Z" fill="white" stroke="white" stroke-width="0.2" stroke-miterlimit="10" stroke-linecap="round" stroke-linejoin="round"/>
<path fill-rule="evenodd" clip-rule="evenodd" d="M4.09912 9.48257C4.09912 9.30518 4.24292 9.16138 4.42032 9.16138H6.7175C6.89489 9.16138 7.0387 9.30518 7.0387 9.48257C7.0387 9.65996 6.89489 9.80377 6.7175 9.80377H4.42032C4.24292 9.80377 4.09912 9.65996 4.09912 9.48257Z" fill="white" stroke="white" stroke-width="0.2" stroke-miterlimit="10" stroke-linecap="round" stroke-linejoin="round"/>
<path fill-rule="evenodd" clip-rule="evenodd" d="M4.09912 7.9418C4.09912 7.76441 4.24292 7.62061 4.42032 7.62061H9.0301C9.20749 7.62061 9.3513 7.76441 9.3513 7.9418C9.3513 8.11919 9.20749 8.263 9.0301 8.263H4.42032C4.24292 8.263 4.09912 8.11919 4.09912 7.9418Z" fill="white" stroke="white" stroke-width="0.2" stroke-miterlimit="10" stroke-linecap="round" stroke-linejoin="round"/>
<path fill-rule="evenodd" clip-rule="evenodd" d="M4.86963 6.40115C4.86963 6.22376 5.01343 6.07996 5.19082 6.07996H7.48801C7.6654 6.07996 7.8092 6.22376 7.8092 6.40115C7.8092 6.57854 7.6654 6.72235 7.48801 6.72235H5.19082C5.01343 6.72235 4.86963 6.57854 4.86963 6.40115Z" fill="white" stroke="white" stroke-width="0.2" stroke-miterlimit="10" stroke-linecap="round" stroke-linejoin="round"/>
<path fill-rule="evenodd" clip-rule="evenodd" d="M8.72388 6.40115C8.72388 6.22376 8.86768 6.07996 9.04507 6.07996H13.2694C13.4468 6.07996 13.5906 6.22376 13.5906 6.40115C13.5906 6.57854 13.4468 6.72235 13.2694 6.72235H9.04507C8.86768 6.72235 8.72388 6.57854 8.72388 6.40115Z" fill="white" stroke="white" stroke-width="0.2" stroke-miterlimit="10" stroke-linecap="round" stroke-linejoin="round"/>
</svg>
