<svg width="30" height="30" viewBox="0 0 30 30" fill="none" xmlns="http://www.w3.org/2000/svg">
<path d="M15 0C6.72914 0 0 6.72869 0 15C0 23.2713 6.72869 30 15 30C23.2713 30 30 23.2713 30 15C30 6.72869 23.2709 0 15 0ZM2.74734 15C2.74734 8.24384 8.24384 2.74734 15 2.74734C18.044 2.74734 20.8308 3.86596 22.976 5.7108L5.7108 22.976C3.86596 20.8308 2.74734 18.044 2.74734 15ZM15 27.2527C12.2765 27.2527 9.75854 26.3584 7.72185 24.8497L24.8492 7.72231C26.3579 9.759 27.2522 12.2769 27.2522 15.0005C27.2527 21.7562 21.7562 27.2527 15 27.2527Z" fill="#FF7373"/>
</svg>
