<svg width="1186" height="376" viewBox="0 0 1186 376" fill="none" xmlns="http://www.w3.org/2000/svg">
<path fill-rule="evenodd" clip-rule="evenodd" d="M1 1L58.9549 140.121C59.8928 142.373 62.9826 142.623 64.2712 140.553L115.758 57.818C116.631 56.4148 118.475 55.9822 119.881 56.8506L169.544 87.5181C170.663 88.2089 172.101 88.0908 173.092 87.2266L234.5 33.6774C236.093 32.2884 238.584 32.938 239.296 34.928L289.63 175.62C290.423 177.836 293.344 178.318 294.806 176.472L344.559 113.681C345.461 112.544 347.048 112.215 348.327 112.9L407.244 144.463C408.394 145.079 409.811 144.881 410.748 143.973L464.37 92.0209C465.962 90.478 468.62 91.1362 469.309 93.244L512.396 225.153C513.084 227.26 515.741 227.919 517.334 226.377L571.64 173.813C572.532 172.95 573.862 172.725 574.988 173.246L629.824 198.648C630.986 199.187 632.361 198.928 633.249 198.005L687.612 141.419C689.004 139.97 691.399 140.272 692.387 142.021L739.962 226.18C740.955 227.937 743.364 228.232 744.752 226.766L794.749 173.962C795.642 173.019 797.041 172.758 798.214 173.315L851.196 198.474C852.506 199.096 854.074 198.692 854.92 197.514L913.657 115.74C914.972 113.91 917.761 114.129 918.773 116.143L978.723 235.373C979.579 237.076 981.785 237.559 983.275 236.37L1027.92 200.724C1028.82 200.005 1030.06 199.865 1031.1 200.364L1090.22 228.785C1091.38 229.341 1092.76 229.1 1093.66 228.184L1146.14 174.793C1147.4 173.51 1149.5 173.617 1150.62 175.023L1185.29 218.388V334H1V1Z" fill="url(#paint0_linear_462_3195)"/>
<path d="M1.00781 1L58.8169 140.106C59.7539 142.361 62.8482 142.612 64.136 140.537L115.485 57.8252C116.358 56.4189 118.205 55.9855 119.612 56.8567L169.138 87.5133C170.258 88.2066 171.699 88.0881 172.691 87.2211L233.933 33.6875C235.527 32.2949 238.022 32.9449 238.733 34.9378L288.937 175.607C289.73 177.826 292.655 178.308 294.116 176.459L343.734 113.688C344.636 112.547 346.226 112.217 347.507 112.905L406.265 144.458C407.416 145.077 408.836 144.878 409.774 143.967L463.249 92.0322C464.842 90.4856 467.504 91.1442 468.192 93.2548L511.168 225.142C511.855 227.253 514.516 227.911 516.109 226.366L570.268 173.818C571.16 172.952 572.493 172.726 573.621 173.25L628.309 198.644C629.472 199.185 630.85 198.925 631.738 197.999L685.956 141.429C687.348 139.977 689.747 140.279 690.735 142.031L738.183 226.17C739.176 227.93 741.589 228.225 742.977 226.756L792.839 173.968C793.733 173.022 795.134 172.76 796.309 173.319L849.146 198.469C850.458 199.093 852.028 198.688 852.874 197.508L911.456 115.753C912.77 113.919 915.564 114.138 916.576 116.156L976.37 235.364C977.226 237.07 979.436 237.554 980.926 236.361L1025.45 200.728C1026.35 200.007 1027.59 199.867 1028.63 200.368L1087.6 228.781C1088.76 229.339 1090.14 229.097 1091.04 228.179L1143.38 174.802C1144.64 173.515 1146.74 173.623 1147.87 175.031L1182.44 218.388" stroke="url(#paint1_linear_462_3195)" stroke-width="2"/>
<g clip-path="url(#clip0_462_3195)">
<g clip-path="url(#clip1_462_3195)">
<rect x="451.145" y="349" width="30.7778" height="26.6741" rx="4" fill="url(#paint2_linear_462_3195)"/>
<path d="M458.439 358.6V359.644H460.335V367H461.523V358.6H458.439ZM465.045 367H468.585C471.285 367 473.121 365.296 473.121 362.8C473.121 360.304 471.285 358.6 468.585 358.6H465.045V367ZM466.245 365.956V359.644H468.513C470.589 359.644 471.921 360.916 471.921 362.8C471.921 364.684 470.589 365.956 468.513 365.956H466.245Z" fill="white"/>
</g>
<path d="M597.704 358.6V359.644H599.6V367H600.788V358.6H597.704ZM613.25 367L613.238 358.6H612.254L608.798 364.504L605.294 358.6H604.31V367H605.462V360.916L608.498 365.98H609.05L612.086 360.88L612.098 367H613.25Z" fill="#8D9398"/>
<path d="M530.506 358.6V359.644H532.402V367H533.59V358.6H530.506ZM547.84 358.6L545.524 365.464L543.208 358.6H542.104L539.74 365.428L537.472 358.6H536.236L539.044 367H540.328L542.62 360.292L544.912 367H546.172L548.98 358.6H547.84Z" fill="#8D9398"/>
<path d="M664.696 358.6V359.644H666.592V367H667.78V358.6H664.696ZM677.853 358.6H676.665L673.965 363.028L671.277 358.6H669.993L673.329 364.072V367H674.517V364.096L677.853 358.6Z" fill="#8D9398"/>
<path d="M731.031 361.948H730.095L730.323 359.644H734.055V358.6H729.315L728.871 362.992H730.779C732.723 362.992 733.323 363.58 733.323 364.528C733.323 365.44 732.603 366.028 731.331 366.028C730.311 366.028 729.375 365.656 728.811 365.128L728.259 366.076C728.979 366.712 730.155 367.096 731.343 367.096C733.491 367.096 734.523 365.932 734.523 364.48C734.523 362.992 733.539 361.948 731.031 361.948ZM743.664 358.6H742.476L739.776 363.028L737.088 358.6H735.804L739.14 364.072V367H740.328V364.096L743.664 358.6Z" fill="#8D9398"/>
</g>
<defs>
<linearGradient id="paint0_linear_462_3195" x1="-591.144" y1="167.5" x2="-417.598" y2="784.702" gradientUnits="userSpaceOnUse">
<stop stop-color="#4FACFE" stop-opacity="0.0967548"/>
<stop offset="1" stop-color="#00F2FE" stop-opacity="0.095389"/>
</linearGradient>
<linearGradient id="paint1_linear_462_3195" x1="-589.709" y1="119.839" x2="-497.798" y2="576.704" gradientUnits="userSpaceOnUse">
<stop stop-color="#43C1A9"/>
<stop offset="1" stop-color="#00F2FE"/>
</linearGradient>
<linearGradient id="paint2_linear_462_3195" x1="435.756" y1="362.337" x2="462.159" y2="392.802" gradientUnits="userSpaceOnUse">
<stop stop-color="#43C1A9"/>
<stop offset="1" stop-color="#00F2FE"/>
</linearGradient>
<clipPath id="clip0_462_3195">
<rect width="293.415" height="26.6741" fill="white" transform="translate(451.145 349)"/>
</clipPath>
<clipPath id="clip1_462_3195">
<rect width="30.7778" height="26.6741" fill="white" transform="translate(451.145 349)"/>
</clipPath>
</defs>
</svg>
