<svg width="32" height="28" viewBox="0 0 32 28" fill="none" xmlns="http://www.w3.org/2000/svg">
<g clip-path="url(#clip0)">
<path d="M15.5761 8.10792L5.33334 16.4122V25.3749C5.33334 25.607 5.42699 25.8296 5.59369 25.9937C5.76039 26.1578 5.98648 26.2499 6.22223 26.2499L12.4478 26.2341C12.6828 26.2329 12.9077 26.1402 13.0735 25.9763C13.2392 25.8123 13.3322 25.5904 13.3322 25.3591V20.1249C13.3322 19.8929 13.4259 19.6703 13.5926 19.5062C13.7593 19.3421 13.9854 19.25 14.2211 19.25H17.7767C18.0124 19.25 18.2385 19.3421 18.4052 19.5062C18.5719 19.6703 18.6656 19.8929 18.6656 20.1249V25.3553C18.6652 25.4704 18.6879 25.5845 18.7324 25.6909C18.7769 25.7974 18.8424 25.8942 18.9249 25.9757C19.0075 26.0573 19.1056 26.122 19.2136 26.1661C19.3217 26.2103 19.4375 26.233 19.5545 26.233L25.7778 26.2499C26.0135 26.2499 26.2396 26.1578 26.4063 25.9937C26.573 25.8296 26.6667 25.607 26.6667 25.3749V16.4062L16.4261 8.10792C16.3057 8.01239 16.1558 7.9603 16.0011 7.9603C15.8465 7.9603 15.6965 8.01239 15.5761 8.10792ZM31.7556 13.7522L27.1111 9.9837V2.40894C27.1111 2.23489 27.0409 2.06797 26.9159 1.9449C26.7908 1.82183 26.6213 1.75269 26.4445 1.75269H23.3333C23.1565 1.75269 22.987 1.82183 22.8619 1.9449C22.7369 2.06797 22.6667 2.23489 22.6667 2.40894V6.37979L17.6928 2.35151C17.2155 1.96486 16.6165 1.75346 15.9983 1.75346C15.3802 1.75346 14.7812 1.96486 14.3039 2.35151L0.24112 13.7522C0.173613 13.8071 0.117762 13.8746 0.0767571 13.9508C0.0357526 14.027 0.0103987 14.1104 0.00214389 14.1962C-0.00611089 14.282 0.00289528 14.3686 0.0286478 14.451C0.0544003 14.5334 0.0963945 14.61 0.152231 14.6764L1.5689 16.3717C1.62458 16.4384 1.69307 16.4936 1.77045 16.5341C1.84783 16.5747 1.93258 16.5998 2.01984 16.6081C2.1071 16.6164 2.19516 16.6077 2.27899 16.5824C2.36281 16.5571 2.44075 16.5158 2.50834 16.4609L15.5761 5.86573C15.6965 5.77021 15.8465 5.71811 16.0011 5.71811C16.1558 5.71811 16.3057 5.77021 16.4261 5.86573L29.4945 16.4609C29.5619 16.5159 29.6397 16.5572 29.7234 16.5825C29.8072 16.6079 29.8951 16.6168 29.9823 16.6086C30.0695 16.6005 30.1542 16.5755 30.2316 16.5352C30.309 16.4948 30.3775 16.4398 30.4333 16.3734L31.85 14.6781C31.9058 14.6113 31.9476 14.5343 31.973 14.4515C31.9985 14.3688 32.0071 14.2819 31.9983 14.1958C31.9895 14.1098 31.9636 14.0263 31.9219 13.9502C31.8802 13.874 31.8237 13.8068 31.7556 13.7522Z" fill="white"/>
</g>
<defs>
<clipPath id="clip0">
<rect width="32" height="28" fill="white"/>
</clipPath>
</defs>
</svg>
