<svg width="34" height="34" viewBox="0 0 34 34" fill="none" xmlns="http://www.w3.org/2000/svg">
<path d="M17 31.3473C13.0549 31.3473 9.27139 29.806 6.48179 27.0626C3.69218 24.3192 2.125 20.5983 2.125 16.7185C2.125 12.8388 3.69218 9.11789 6.48179 6.37447C9.27139 3.63105 13.0549 2.08982 17 2.08982C20.9451 2.08982 24.7286 3.63105 27.5182 6.37447C30.3078 9.11789 31.875 12.8388 31.875 16.7185C31.875 20.5983 30.3078 24.3192 27.5182 27.0626C24.7286 29.806 20.9451 31.3473 17 31.3473ZM17 33.4371C21.5087 33.4371 25.8327 31.6757 29.0208 28.5403C32.2089 25.405 34 21.1526 34 16.7185C34 12.2845 32.2089 8.03208 29.0208 4.89675C25.8327 1.76141 21.5087 0 17 0C12.4913 0 8.1673 1.76141 4.97918 4.89675C1.79107 8.03208 0 12.2845 0 16.7185C0 21.1526 1.79107 25.405 4.97918 28.5403C8.1673 31.6757 12.4913 33.4371 17 33.4371V33.4371Z" fill="#5AC9B4"/>
<path d="M11.1671 12.0918C11.1642 12.1593 11.1753 12.2266 11.1999 12.2897C11.2244 12.3528 11.2618 12.4103 11.3098 12.4586C11.3578 12.507 11.4153 12.5452 11.4788 12.5709C11.5423 12.5965 11.6105 12.6092 11.6792 12.608H13.4323C13.7256 12.608 13.9593 12.3718 13.9976 12.0855C14.1888 10.7146 15.1451 9.71565 16.8493 9.71565C18.3071 9.71565 19.6416 10.4325 19.6416 12.1566C19.6416 13.4836 18.8468 14.0938 17.591 15.0217C16.1608 16.0436 15.0282 17.2369 15.109 19.1742L15.1153 19.6277C15.1176 19.7648 15.1745 19.8955 15.2739 19.9917C15.3733 20.0879 15.5071 20.1418 15.6466 20.1418H17.37C17.5108 20.1418 17.646 20.0867 17.7456 19.9887C17.8452 19.8908 17.9012 19.7579 17.9012 19.6193V19.3999C17.9012 17.8994 18.4813 17.4626 20.0475 16.2944C21.3416 15.3268 22.691 14.2526 22.691 11.9977C22.691 8.84002 19.9795 7.31445 17.0108 7.31445C14.3185 7.31445 11.369 8.54745 11.1671 12.0918V12.0918ZM14.4757 24.1354C14.4757 25.2493 15.3788 26.0727 16.622 26.0727C17.9161 26.0727 18.8065 25.2493 18.8065 24.1354C18.8065 22.9818 17.914 22.171 16.6198 22.171C15.3788 22.171 14.4757 22.9818 14.4757 24.1354Z" fill="#5AC9B4"/>
</svg>
