<svg width="21" height="23" viewBox="0 0 21 23" fill="none" xmlns="http://www.w3.org/2000/svg">
<path d="M12.2486 16.8077C13.0603 16.8077 13.7184 16.2136 13.7184 15.4807C13.7184 14.7479 13.0603 14.1538 12.2486 14.1538C11.4369 14.1538 10.7788 14.7479 10.7788 15.4807C10.7788 16.2136 11.4369 16.8077 12.2486 16.8077Z" fill="white"/>
<path d="M8.46978 16.8077C9.28152 16.8077 9.93956 16.2136 9.93956 15.4807C9.93956 14.7479 9.28152 14.1538 8.46978 14.1538C7.65804 14.1538 7 14.7479 7 15.4807C7 16.2136 7.65804 16.8077 8.46978 16.8077Z" fill="white"/>
<path d="M4.46978 16.8077C5.28152 16.8077 5.93956 16.2136 5.93956 15.4807C5.93956 14.7479 5.28152 14.1538 4.46978 14.1538C3.65804 14.1538 3 14.7479 3 15.4807C3 16.2136 3.65804 16.8077 4.46978 16.8077Z" fill="white"/>
<path d="M17.5509 8.44531H15.7334V4.75139C15.7334 2.13145 13.29 0 10.2866 0C7.28317 0 4.83976 2.13145 4.83976 4.75139V8.44531H3.02602C1.35747 8.44531 0 9.65443 0 11.1406V20.3047C0 21.7909 1.35747 23 3.02602 23H17.5509C19.2195 23 20.5769 21.7909 20.5769 20.3047V11.1406C20.5769 9.65443 19.2195 8.44531 17.5509 8.44531ZM6.85711 4.75139C6.85711 3.12225 8.39559 1.79688 10.2866 1.79688C12.1776 1.79688 13.7161 3.12225 13.7161 4.75139V8.44531H6.85711V4.75139V4.75139ZM18.5596 20.3047C18.5596 20.8001 18.1071 21.2031 17.5509 21.2031H3.02602C2.46984 21.2031 2.01735 20.8001 2.01735 20.3047V11.1406C2.01735 10.6452 2.46984 10.2422 3.02602 10.2422H17.5509C18.1071 10.2422 18.5596 10.6452 18.5596 11.1406V20.3047Z" fill="white"/>
<path d="M16.1675 16.8077C16.9793 16.8077 17.6373 16.2136 17.6373 15.4807C17.6373 14.7479 16.9793 14.1538 16.1675 14.1538C15.3558 14.1538 14.6978 14.7479 14.6978 15.4807C14.6978 16.2136 15.3558 16.8077 16.1675 16.8077Z" fill="white"/>
</svg>
