<svg width="21" height="22" viewBox="0 0 21 22" fill="none" xmlns="http://www.w3.org/2000/svg">
<path fill-rule="evenodd" clip-rule="evenodd" d="M16.7948 6.80268C16.745 6.66818 16.8145 6.52121 16.9501 6.47441L17.8186 6.17465C18.5546 5.92063 19.3546 6.34184 19.625 7.07221L19.7347 7.36858C20.0075 8.10545 19.6568 8.91649 18.927 9.16835L18.0585 9.46812C17.9229 9.51491 17.7726 9.44381 17.7228 9.30931C17.673 9.17481 17.7426 9.02785 17.8781 8.98105L18.7467 8.68129C19.1846 8.53014 19.4247 8.02687 19.2437 7.53804L19.134 7.24167C18.9543 6.7564 18.4403 6.50939 17.999 6.66172L17.1304 6.96148C16.9948 7.00828 16.8446 6.93718 16.7948 6.80268Z" fill="white" stroke="white" stroke-width="0.2" stroke-miterlimit="10" stroke-linecap="round" stroke-linejoin="round"/>
<path fill-rule="evenodd" clip-rule="evenodd" d="M5.98042 14.753C6.12559 14.662 6.31999 14.7056 6.41463 14.8503L9.86143 20.121C10.0632 20.431 10.4323 20.5548 10.7383 20.4491C11.1694 20.3002 11.3612 19.7514 11.0716 19.3073C11.0716 19.3072 11.0716 19.3073 11.0716 19.3073L9.41012 16.7661C9.07573 16.2525 9.01926 15.5757 9.17084 14.9923C9.32245 14.4087 9.70226 13.8488 10.3223 13.6346C10.485 13.5784 10.6653 13.6637 10.725 13.8251C10.7847 13.9865 10.7012 14.1629 10.5386 14.2191C10.1727 14.3455 9.89754 14.6986 9.77891 15.1553C9.66027 15.6119 9.71817 16.1023 9.93638 16.4377C9.93644 16.4378 9.93633 16.4376 9.93638 16.4377L11.5974 18.978C12.084 19.7239 11.8027 20.7406 10.9545 21.0337C10.3564 21.2403 9.68621 20.9885 9.33519 20.4496C9.33513 20.4495 9.33526 20.4497 9.33519 20.4496L5.88893 15.1797C5.79429 15.035 5.83525 14.8439 5.98042 14.753Z" fill="white"/>
<path d="M11.0716 19.3073C11.3612 19.7514 11.1694 20.3002 10.7383 20.4491C10.4323 20.5548 10.0632 20.431 9.86143 20.121L6.41463 14.8503C6.31999 14.7056 6.12559 14.662 5.98042 14.753C5.83525 14.8439 5.79429 15.035 5.88893 15.1797L9.33519 20.4496M11.0716 19.3073C11.0716 19.3073 11.0716 19.3072 11.0716 19.3073ZM11.0716 19.3073L9.41012 16.7661C9.07573 16.2525 9.01926 15.5757 9.17084 14.9923C9.32245 14.4087 9.70226 13.8488 10.3223 13.6346C10.485 13.5784 10.6653 13.6637 10.725 13.8251C10.7847 13.9865 10.7012 14.1629 10.5386 14.2191C10.1727 14.3455 9.89754 14.6986 9.77891 15.1553C9.66027 15.6119 9.71817 16.1023 9.93638 16.4377M9.93638 16.4377C9.93633 16.4376 9.93644 16.4378 9.93638 16.4377ZM9.93638 16.4377L11.5974 18.978C12.084 19.7239 11.8027 20.7406 10.9545 21.0337C10.3564 21.2403 9.68621 20.9885 9.33519 20.4496M9.33519 20.4496C9.33526 20.4497 9.33513 20.4495 9.33519 20.4496Z" stroke="white" stroke-width="0.2" stroke-miterlimit="10" stroke-linecap="round" stroke-linejoin="round"/>
<path fill-rule="evenodd" clip-rule="evenodd" d="M13.3569 2.21738C13.1878 2.27663 13.0759 2.48524 13.1572 2.70783L17.3828 14.2889C17.464 14.5114 17.6855 14.6033 17.8546 14.544L18.9497 14.1603C19.1202 14.1006 19.2301 13.891 19.1512 13.6748L14.9238 2.08884C14.8426 1.86625 14.6211 1.77443 14.452 1.83368L13.3569 2.21738ZM12.5691 2.91387C12.3821 2.40147 12.6168 1.81653 13.1433 1.63206L14.2384 1.24836C14.7649 1.06388 15.3249 1.37038 15.5119 1.88279L19.7393 13.4688C19.925 13.9777 19.6884 14.5616 19.1633 14.7456L18.0682 15.1293C17.5417 15.3138 16.9817 15.0073 16.7947 14.4949L12.5691 2.91387Z" fill="white" stroke="white" stroke-width="0.2" stroke-miterlimit="10" stroke-linecap="round" stroke-linejoin="round"/>
<path fill-rule="evenodd" clip-rule="evenodd" d="M12.7473 3.18151C12.8763 3.24764 12.9284 3.40349 12.8635 3.5296C12.283 4.65822 10.3169 7.63767 5.036 9.52914L6.8877 14.5295C12.3768 12.7122 16.2224 14.0071 17.0711 14.3485C17.2056 14.4026 17.272 14.5533 17.2194 14.685C17.1668 14.8167 17.0151 14.8796 16.8806 14.8255C16.1033 14.5128 12.2911 13.2126 6.82199 15.0998C6.6864 15.1466 6.53611 15.0754 6.48631 14.941L4.45533 9.45645C4.40552 9.32196 4.47506 9.175 4.61065 9.12821C9.935 7.29098 11.8581 4.3361 12.3961 3.29011C12.461 3.16399 12.6182 3.11537 12.7473 3.18151Z" fill="white" stroke="white" stroke-width="0.2" stroke-miterlimit="10" stroke-linecap="round" stroke-linejoin="round"/>
<path fill-rule="evenodd" clip-rule="evenodd" d="M1.46586 13.6864C0.855795 12.0379 1.63835 10.24 3.2495 9.68367L4.45383 9.26782C4.58941 9.22101 4.73967 9.2921 4.78944 9.4266C4.83922 9.56111 4.76967 9.7081 4.63409 9.75491L3.42976 10.1708C2.11199 10.6258 1.43796 12.1148 1.95683 13.5168C2.47569 14.9189 3.97419 15.6578 5.29197 15.2027L6.4963 14.7869C6.63187 14.7401 6.78213 14.8112 6.83191 14.9457C6.88169 15.0802 6.81213 15.2272 6.67655 15.274L5.47223 15.6898C3.86107 16.2461 2.07592 15.3349 1.46586 13.6864Z" fill="white" stroke="white" stroke-width="0.2" stroke-miterlimit="10" stroke-linecap="round" stroke-linejoin="round"/>
</svg>
