<svg width="40" height="35" viewBox="0 0 40 35" fill="none" xmlns="http://www.w3.org/2000/svg">
<path d="M7.5 9.23077C7.5 8.88103 7.6317 8.54562 7.86612 8.29832C8.10054 8.05102 8.41848 7.91209 8.75 7.91209H26.25C26.5815 7.91209 26.8995 8.05102 27.1339 8.29832C27.3683 8.54562 27.5 8.88103 27.5 9.23077C27.5 9.5805 27.3683 9.91592 27.1339 10.1632C26.8995 10.4105 26.5815 10.5494 26.25 10.5494H8.75C8.41848 10.5494 8.10054 10.4105 7.86612 10.1632C7.6317 9.91592 7.5 9.5805 7.5 9.23077ZM21.25 15.8242C20.9185 15.8242 20.6005 15.9631 20.3661 16.2104C20.1317 16.4577 20 16.7931 20 17.1429C20 17.4926 20.1317 17.828 20.3661 18.0753C20.6005 18.3226 20.9185 18.4615 21.25 18.4615H26.25C26.5815 18.4615 26.8995 18.3226 27.1339 18.0753C27.3683 17.828 27.5 17.4926 27.5 17.1429C27.5 16.7931 27.3683 16.4577 27.1339 16.2104C26.8995 15.9631 26.5815 15.8242 26.25 15.8242H21.25ZM20 25.0549C20 24.7052 20.1317 24.3698 20.3661 24.1225C20.6005 23.8752 20.9185 23.7363 21.25 23.7363H26.25C26.5815 23.7363 26.8995 23.8752 27.1339 24.1225C27.3683 24.3698 27.5 24.7052 27.5 25.0549C27.5 25.4047 27.3683 25.7401 27.1339 25.9874C26.8995 26.2347 26.5815 26.3736 26.25 26.3736H21.25C20.9185 26.3736 20.6005 26.2347 20.3661 25.9874C20.1317 25.7401 20 25.4047 20 25.0549ZM8.75 15.8242C8.41848 15.8242 8.10054 15.9631 7.86612 16.2104C7.6317 16.4577 7.5 16.7931 7.5 17.1429V25.0549C7.5 25.4047 7.6317 25.7401 7.86612 25.9874C8.10054 26.2347 8.41848 26.3736 8.75 26.3736H16.25C16.5815 26.3736 16.8995 26.2347 17.1339 25.9874C17.3683 25.7401 17.5 25.4047 17.5 25.0549V17.1429C17.5 16.7931 17.3683 16.4577 17.1339 16.2104C16.8995 15.9631 16.5815 15.8242 16.25 15.8242H8.75ZM10 23.7363V18.4615H15V23.7363H10ZM0 5.27472C0 3.87578 0.526784 2.53413 1.46447 1.54493C2.40215 0.555728 3.67392 0 5 0H30C31.3261 0 32.5979 0.555728 33.5355 1.54493C34.4732 2.53413 35 3.87578 35 5.27472V7.91209C36.3261 7.91209 37.5979 8.46782 38.5355 9.45702C39.4732 10.4462 40 11.7879 40 13.1868V27.6923C40 29.441 39.3415 31.118 38.1694 32.3545C36.9973 33.5911 35.4076 34.2857 33.75 34.2857H6.25C4.5924 34.2857 3.00269 33.5911 1.83058 32.3545C0.65848 31.118 0 29.441 0 27.6923V5.27472ZM32.5 5.27472C32.5 4.57525 32.2366 3.90443 31.7678 3.40983C31.2989 2.91523 30.663 2.63736 30 2.63736H5C4.33696 2.63736 3.70107 2.91523 3.23223 3.40983C2.76339 3.90443 2.5 4.57525 2.5 5.27472V27.6923C2.5 28.7415 2.89509 29.7477 3.59835 30.4897C4.30161 31.2316 5.25544 31.6483 6.25 31.6483H33.75C34.7446 31.6483 35.6984 31.2316 36.4016 30.4897C37.1049 29.7477 37.5 28.7415 37.5 27.6923V13.1868C37.5 12.4873 37.2366 11.8165 36.7678 11.3219C36.2989 10.8273 35.663 10.5494 35 10.5494V27.6923C35 28.042 34.8683 28.3775 34.6339 28.6248C34.3995 28.8721 34.0815 29.011 33.75 29.011C33.4185 29.011 33.1005 28.8721 32.8661 28.6248C32.6317 28.3775 32.5 28.042 32.5 27.6923V5.27472Z" fill="#5AC9B4"/>
</svg>
