<svg width="20" height="20" viewBox="0 0 20 20" fill="none" xmlns="http://www.w3.org/2000/svg">
<path fill-rule="evenodd" clip-rule="evenodd" d="M2.22222 18H6.88889V2H2.22222C2.16733 2 2.11333 2.02065 2.06699 2.06699C2.02065 2.11333 2 2.16733 2 2.22222V17.7778C2 17.8327 2.02065 17.8867 2.06699 17.933C2.11333 17.9794 2.16733 18 2.22222 18ZM13.1111 18H17.7778C17.8327 18 17.8867 17.9794 17.933 17.933C17.9794 17.8867 18 17.8327 18 17.7778V12H13.1111V18ZM11.1111 20V10H20V17.7778C20 19 19 20 17.7778 20H11.1111ZM18 5.77778V2.22222C18 2.16733 17.9794 2.11333 17.933 2.06699C17.8867 2.02065 17.8327 2 17.7778 2H13.1111V5.77778H18ZM20 2.22222C20 1 19 0 17.7778 0H11.1111V7.77778H20V2.22222ZM8.88889 20V0H2.22222C1 0 0 1 0 2.22222V17.7778C0 19 1 20 2.22222 20H8.88889Z" fill="#7A7676"/>
</svg>
