<svg width="24" height="24" viewBox="0 0 24 24" fill="none" xmlns="http://www.w3.org/2000/svg">
<path fill-rule="evenodd" clip-rule="evenodd" d="M10.9268 17.3971C10.9268 17.2337 11.0592 17.1013 11.2226 17.1013H13.5119C13.6753 17.1013 13.8078 17.2337 13.8078 17.3971C13.8078 17.5605 13.6753 17.6929 13.5119 17.6929H11.2226C11.0592 17.6929 10.9268 17.5605 10.9268 17.3971Z" fill="white"/>
<path fill-rule="evenodd" clip-rule="evenodd" d="M10.8181 17.3971C10.8181 17.1738 10.9991 16.9928 11.2224 16.9928H13.5118C13.7351 16.9928 13.9161 17.1738 13.9161 17.3971C13.9161 17.6204 13.7351 17.8014 13.5118 17.8014H11.2224C10.9991 17.8014 10.8181 17.6204 10.8181 17.3971ZM11.2224 17.2097C11.119 17.2097 11.0351 17.2936 11.0351 17.3971C11.0351 17.5006 11.119 17.5844 11.2224 17.5844H13.5118C13.6152 17.5844 13.6991 17.5006 13.6991 17.3971C13.6991 17.2936 13.6152 17.2097 13.5118 17.2097H11.2224Z" fill="white"/>
<path fill-rule="evenodd" clip-rule="evenodd" d="M14.1458 11.2871C14.2327 11.1488 14.4153 11.1072 14.5537 11.1941L16.6293 12.4991C16.7677 12.586 16.8093 12.7686 16.7223 12.907C16.6354 13.0453 16.4528 13.0869 16.3144 13L14.2388 11.695C14.1004 11.6081 14.0588 11.4254 14.1458 11.2871Z" fill="white"/>
<path fill-rule="evenodd" clip-rule="evenodd" d="M14.054 11.2294C14.1729 11.0404 14.4225 10.9835 14.6115 11.1023L16.6872 12.4072C16.8762 12.5261 16.9331 12.7757 16.8143 12.9647C16.6954 13.1538 16.4458 13.2107 16.2568 13.0918L14.1811 11.7869C13.9921 11.668 13.9352 11.4184 14.054 11.2294ZM14.496 11.286C14.4084 11.2309 14.2928 11.2573 14.2377 11.3449C14.1826 11.4325 14.209 11.5481 14.2966 11.6032L16.3723 12.9081C16.4599 12.9632 16.5755 12.9368 16.6306 12.8492C16.6857 12.7616 16.6593 12.646 16.5717 12.5909L14.496 11.286Z" fill="white"/>
<path fill-rule="evenodd" clip-rule="evenodd" d="M10.6178 11.2871C10.7048 11.4254 10.6632 11.608 10.5248 11.695L8.44917 12.9999C8.31085 13.0869 8.12823 13.0452 8.04127 12.9069C7.95431 12.7686 7.99595 12.586 8.13427 12.499L10.2099 11.1941C10.3483 11.1071 10.5309 11.1488 10.6178 11.2871Z" fill="white"/>
<path fill-rule="evenodd" clip-rule="evenodd" d="M10.1521 11.1023C10.3411 10.9834 10.5907 11.0403 10.7095 11.2294C10.8284 11.4184 10.7715 11.668 10.5824 11.7869L8.50677 13.0918C8.31773 13.2106 8.06813 13.1537 7.94928 12.9647C7.83044 12.7756 7.88734 12.526 8.07639 12.4072L10.1521 11.1023ZM10.5259 11.3449C10.4708 11.2573 10.3551 11.2309 10.2675 11.286L8.19187 12.5909C8.10428 12.646 8.07791 12.7616 8.13298 12.8492C8.18805 12.9368 8.30369 12.9632 8.39129 12.9081L10.467 11.6032C10.5546 11.5481 10.5809 11.4324 10.5259 11.3449Z" fill="white"/>
<path fill-rule="evenodd" clip-rule="evenodd" d="M11.4733 14.2054C11.5544 14.3472 11.5052 14.5279 11.3633 14.609L6.41071 17.4402C6.26887 17.5213 6.08815 17.472 6.00707 17.3302C5.92599 17.1883 5.97524 17.0076 6.11708 16.9265L11.0697 14.0954C11.2115 14.0143 11.3923 14.0635 11.4733 14.2054Z" fill="white"/>
<path fill-rule="evenodd" clip-rule="evenodd" d="M11.0157 14.0012C11.2096 13.8903 11.4566 13.9577 11.5674 14.1515C11.6782 14.3454 11.6109 14.5924 11.417 14.7032L6.46442 17.5343C6.27056 17.6452 6.02357 17.5778 5.91275 17.384C5.80193 17.1901 5.86925 16.9431 6.06311 16.8323L11.0157 14.0012ZM11.379 14.2592C11.3277 14.1694 11.2132 14.1382 11.1234 14.1895L6.17079 17.0207C6.08097 17.072 6.04978 17.1865 6.10112 17.2763C6.15247 17.3661 6.26691 17.3973 6.35674 17.346L11.3094 14.5148C11.3992 14.4635 11.4304 14.349 11.379 14.2592Z" fill="white"/>
<path fill-rule="evenodd" clip-rule="evenodd" d="M1.05346 14.2054C1.13454 14.0636 1.31526 14.0143 1.4571 14.0954L6.40972 16.9266C6.50187 16.9793 6.55873 17.0773 6.55873 17.1834V23.1204C6.55873 23.2838 6.42629 23.4163 6.2629 23.4163C6.09952 23.4163 5.96708 23.2838 5.96708 23.1204V17.355L1.16347 14.6091C1.02163 14.528 0.972373 14.3473 1.05346 14.2054Z" fill="white"/>
<path fill-rule="evenodd" clip-rule="evenodd" d="M0.959136 14.1516C1.06996 13.9577 1.31695 13.8904 1.51081 14.0012L6.46343 16.8324C6.58937 16.9044 6.66709 17.0383 6.66709 17.1834V23.1204C6.66709 23.3437 6.48607 23.5248 6.26277 23.5248C6.03947 23.5248 5.85845 23.3437 5.85845 23.1204V17.418L1.10949 14.7032C0.915634 14.5924 0.848316 14.3454 0.959136 14.1516ZM1.40312 14.1896C1.3133 14.1382 1.19886 14.1694 1.14751 14.2593C1.09616 14.3491 1.12735 14.4635 1.21718 14.5149L6.02078 17.2608C6.05458 17.2802 6.07543 17.3161 6.07543 17.355V23.1204C6.07543 23.2239 6.15931 23.3078 6.26277 23.3078C6.36623 23.3078 6.45011 23.2239 6.45011 23.1204V17.1834C6.45011 17.1162 6.4141 17.0541 6.35574 17.0208L1.40312 14.1896Z" fill="white"/>
<path fill-rule="evenodd" clip-rule="evenodd" d="M23.6848 14.2051C23.7659 14.3469 23.7166 14.5276 23.5748 14.6087L18.6221 17.4399C18.4803 17.5209 18.2996 17.4717 18.2185 17.3299C18.1374 17.188 18.1867 17.0073 18.3285 16.9262L23.2811 14.0951C23.423 14.014 23.6037 14.0632 23.6848 14.2051Z" fill="white"/>
<path fill-rule="evenodd" clip-rule="evenodd" d="M23.2272 14.0009C23.421 13.8901 23.668 13.9574 23.7788 14.1512C23.8896 14.3451 23.8223 14.5921 23.6285 14.7029L18.6758 17.5341C18.482 17.6449 18.235 17.5776 18.1242 17.3837C18.0134 17.1899 18.0807 16.9429 18.2745 16.832L23.2272 14.0009ZM23.5904 14.2589C23.5391 14.1691 23.4247 14.1379 23.3348 14.1893L18.3822 17.0204C18.2924 17.0718 18.2612 17.1862 18.3125 17.276C18.3639 17.3659 18.4783 17.397 18.5682 17.3457L23.5208 14.5145C23.6106 14.4632 23.6418 14.3487 23.5904 14.2589Z" fill="white"/>
<path fill-rule="evenodd" clip-rule="evenodd" d="M13.2644 14.2051C13.3455 14.0633 13.5262 14.014 13.668 14.0951L18.6207 16.9262C18.7128 16.9789 18.7697 17.0769 18.7697 17.1831V23.1201C18.7697 23.2835 18.6372 23.4159 18.4738 23.4159C18.3105 23.4159 18.178 23.2835 18.178 23.1201V17.3547L13.3744 14.6087C13.2326 14.5277 13.1833 14.3469 13.2644 14.2051Z" fill="white"/>
<path fill-rule="evenodd" clip-rule="evenodd" d="M13.1701 14.1512C13.2809 13.9574 13.5279 13.8901 13.7217 14.0009L18.6744 16.832C18.8003 16.904 18.878 17.038 18.878 17.1831V23.1201C18.878 23.3434 18.697 23.5244 18.4737 23.5244C18.2504 23.5244 18.0694 23.3434 18.0694 23.1201V17.4176L13.3204 14.7029C13.1266 14.5921 13.0593 14.3451 13.1701 14.1512ZM13.6141 14.1893C13.5242 14.1379 13.4098 14.1691 13.3584 14.2589C13.3071 14.3487 13.3383 14.4632 13.4281 14.5145L18.2317 17.2605C18.2655 17.2798 18.2864 17.3158 18.2864 17.3547V23.1201C18.2864 23.2236 18.3702 23.3074 18.4737 23.3074C18.5772 23.3074 18.661 23.2236 18.661 23.1201V17.1831C18.661 17.1158 18.625 17.0538 18.5667 17.0204L13.6141 14.1893Z" fill="white"/>
<path fill-rule="evenodd" clip-rule="evenodd" d="M12.2257 0.73124C12.3151 0.681628 12.4237 0.681628 12.513 0.73124L17.4732 3.48609C17.5672 3.53826 17.6254 3.63726 17.6254 3.74471V9.81148C17.6254 9.91887 17.5672 10.0178 17.4734 10.07L15.8403 10.9781C15.6975 11.0575 15.5174 11.0061 15.438 10.8634C15.3586 10.7206 15.41 10.5404 15.5528 10.461L17.0338 9.63749V3.9188L12.3694 1.32825L7.70494 3.9188V9.63632L9.20732 10.4602C9.35057 10.5388 9.40302 10.7186 9.32446 10.8618C9.2459 11.0051 9.06608 11.0575 8.92283 10.979L7.26687 10.0709C7.17215 10.0189 7.11328 9.9195 7.11328 9.81148V3.74471C7.11328 3.63726 7.17154 3.53826 7.26548 3.48609L12.2257 0.73124Z" fill="white"/>
<path fill-rule="evenodd" clip-rule="evenodd" d="M12.1729 0.636396C12.295 0.568589 12.4434 0.568589 12.5655 0.636396L17.5258 3.39124C17.6542 3.46255 17.7338 3.59785 17.7338 3.74471V9.81148C17.7338 9.95825 17.6542 10.0935 17.526 10.1648L15.8929 11.0729C15.6977 11.1815 15.4516 11.1112 15.343 10.9161C15.2345 10.7209 15.3047 10.4747 15.4999 10.3662L16.9251 9.57368V3.98265L12.3692 1.45235L7.81328 3.98265V9.57208L9.25933 10.3651C9.45512 10.4724 9.5268 10.7182 9.41943 10.914C9.31206 11.1098 9.0663 11.1815 8.87051 11.0741L7.21455 10.166C7.0851 10.095 7.00464 9.95911 7.00464 9.81148V3.74471C7.00464 3.59785 7.08427 3.46255 7.21265 3.39124L12.1729 0.636396ZM12.4602 0.826085C12.4036 0.794667 12.3348 0.794667 12.2783 0.826085L7.318 3.58093C7.25851 3.61397 7.22162 3.67666 7.22162 3.74471V9.81148C7.22162 9.87988 7.2589 9.94285 7.31888 9.97574L8.97484 10.8838C9.06556 10.9336 9.17943 10.9004 9.22918 10.8097C9.27893 10.7189 9.24572 10.6051 9.155 10.5553L7.65262 9.73144C7.61789 9.71239 7.5963 9.67593 7.5963 9.63631V3.9188C7.5963 3.87939 7.61766 3.84309 7.65211 3.82396L12.3165 1.23341C12.3493 1.21521 12.3891 1.21521 12.4219 1.23341L17.0863 3.82395C17.1208 3.84309 17.1421 3.87939 17.1421 3.9188V9.63749C17.1421 9.67687 17.1208 9.71317 17.0864 9.73231L15.6054 10.5559C15.5149 10.6061 15.4824 10.7202 15.5327 10.8106C15.583 10.9011 15.697 10.9336 15.7874 10.8833L17.4205 9.9752C17.4799 9.94215 17.5168 9.87948 17.5168 9.81148V3.74471C17.5168 3.67666 17.4799 3.61397 17.4204 3.58093L12.4602 0.826085Z" fill="white"/>
<path fill-rule="evenodd" clip-rule="evenodd" d="M14.6585 11.3014C14.7375 11.4444 14.6857 11.6244 14.5427 11.7034L12.5128 12.8252C12.4232 12.8747 12.3143 12.8744 12.225 12.8243L10.2256 11.7025C10.0831 11.6226 10.0324 11.4422 10.1123 11.2998C10.1923 11.1573 10.3726 11.1066 10.5151 11.1865L12.3708 12.2277L14.2565 11.1856C14.3995 11.1066 14.5795 11.1584 14.6585 11.3014Z" fill="white"/>
<path fill-rule="evenodd" clip-rule="evenodd" d="M14.2039 11.0906C14.3993 10.9826 14.6453 11.0535 14.7533 11.249C14.8613 11.4444 14.7905 11.6904 14.595 11.7984L12.5651 12.9202C12.4426 12.9879 12.2938 12.9874 12.1717 12.9189L10.1724 11.7971C9.97763 11.6879 9.90834 11.4414 10.0176 11.2467C10.1269 11.0519 10.3733 10.9827 10.568 11.0919L12.3711 12.1035L14.2039 11.0906ZM14.5634 11.3539C14.5134 11.2634 14.3994 11.2305 14.3088 11.2806L12.4231 12.3227C12.3903 12.3408 12.3503 12.3407 12.3176 12.3223L10.4619 11.2811C10.3716 11.2305 10.2575 11.2626 10.2068 11.3529C10.1562 11.4431 10.1883 11.5573 10.2785 11.6079L12.2779 12.7297C12.3345 12.7614 12.4034 12.7616 12.4602 12.7303L14.4901 11.6085C14.5806 11.5584 14.6135 11.4445 14.5634 11.3539Z" fill="white"/>
<path fill-rule="evenodd" clip-rule="evenodd" d="M15.3853 13.3653C15.4624 13.5094 15.4082 13.6886 15.2642 13.7658L13.8102 14.5445V15.8707C13.8102 16.034 13.6777 16.1665 13.5143 16.1665C13.351 16.1665 13.2185 16.034 13.2185 15.8707V14.3673C13.2185 14.2582 13.2785 14.158 13.3747 14.1065L14.9848 13.2442C15.1289 13.1671 15.3082 13.2213 15.3853 13.3653Z" fill="white"/>
<path fill-rule="evenodd" clip-rule="evenodd" d="M14.9335 13.1486C15.1303 13.0432 15.3754 13.1173 15.4808 13.3141C15.5862 13.511 15.5121 13.756 15.3152 13.8614L13.9185 14.6095V15.8707C13.9185 16.094 13.7375 16.275 13.5142 16.275C13.2909 16.275 13.1099 16.094 13.1099 15.8707V14.3673C13.1099 14.2183 13.1919 14.0813 13.3233 14.0109L14.9335 13.1486ZM15.2895 13.4166C15.2407 13.3254 15.1271 13.291 15.0359 13.3399L13.4257 14.2022C13.3649 14.2348 13.3268 14.2983 13.3268 14.3673V15.8707C13.3268 15.9741 13.4107 16.058 13.5142 16.058C13.6176 16.058 13.7015 15.9741 13.7015 15.8707V14.5445C13.7015 14.5045 13.7235 14.4677 13.7588 14.4488L15.2128 13.6702C15.304 13.6213 15.3383 13.5078 15.2895 13.4166Z" fill="white"/>
<path fill-rule="evenodd" clip-rule="evenodd" d="M18.3283 11.3552C18.4181 11.3042 18.528 11.3036 18.6182 11.3538L23.5785 14.1086C23.6724 14.1608 23.7307 14.2598 23.7307 14.3672V20.4264C23.7307 20.5338 23.6724 20.6328 23.5785 20.685L18.6182 23.4398C18.5289 23.4895 18.4203 23.4895 18.331 23.4398L13.3707 20.685C13.2768 20.6328 13.2185 20.5338 13.2185 20.4264V17.3968C13.2185 17.2334 13.351 17.101 13.5143 17.101C13.6777 17.101 13.8102 17.2334 13.8102 17.3968V20.2523L18.4746 22.8428L23.139 20.2523V14.5413L18.4763 11.9517L16.6215 13.0066C16.4794 13.0874 16.2988 13.0377 16.2181 12.8957C16.1373 12.7537 16.187 12.573 16.329 12.4923L18.3283 11.3552Z" fill="white"/>
<path fill-rule="evenodd" clip-rule="evenodd" d="M18.2746 11.2609C18.3972 11.1912 18.5474 11.1904 18.6707 11.2589L23.631 14.0138C23.7594 14.0851 23.839 14.2204 23.839 14.3672V20.4264C23.839 20.5732 23.7594 20.7085 23.631 20.7798L18.6707 23.5347C18.5487 23.6025 18.4002 23.6025 18.2781 23.5347L13.3179 20.7798C13.1895 20.7085 13.1099 20.5732 13.1099 20.4264V17.3968C13.1099 17.1735 13.2909 16.9925 13.5142 16.9925C13.7375 16.9925 13.9185 17.1735 13.9185 17.3968V20.1884L18.4744 22.7187L23.0304 20.1884V14.6052L18.4768 12.0762L16.6749 13.1009C16.4808 13.2113 16.234 13.1434 16.1236 12.9493C16.0132 12.7552 16.0811 12.5084 16.2752 12.398L18.2746 11.2609ZM18.5654 11.4486C18.5082 11.4169 18.4387 11.4172 18.3818 11.4495L16.3825 12.5866C16.2925 12.6377 16.2611 12.7521 16.3122 12.842C16.3634 12.932 16.4777 12.9634 16.5677 12.9123L18.4225 11.8574C18.4554 11.8387 18.4957 11.8385 18.5288 11.8569L23.1915 14.4465C23.226 14.4656 23.2473 14.5019 23.2473 14.5413V20.2523C23.2473 20.2917 23.226 20.328 23.1915 20.3471L18.5271 22.9377C18.4943 22.9559 18.4545 22.9559 18.4218 22.9377L13.7573 20.3471C13.7229 20.328 13.7015 20.2917 13.7015 20.2523V17.3968C13.7015 17.2933 13.6176 17.2095 13.5142 17.2095C13.4107 17.2095 13.3268 17.2933 13.3268 17.3968V20.4264C13.3268 20.4944 13.3637 20.5571 13.4232 20.5902L18.3835 23.345C18.44 23.3764 18.5088 23.3764 18.5654 23.345L23.5256 20.5902C23.5851 20.5571 23.622 20.4944 23.622 20.4264V14.3672C23.622 14.2992 23.5851 14.2365 23.5256 14.2035L18.5654 11.4486Z" fill="white"/>
<path fill-rule="evenodd" clip-rule="evenodd" d="M9.34637 13.3571C9.42375 13.2132 9.60313 13.1593 9.74703 13.2366L11.3648 14.1066C11.4607 14.1582 11.5206 14.2582 11.5206 14.3671V17.3967C11.5206 17.5601 11.3881 17.6925 11.2247 17.6925C11.0613 17.6925 10.9289 17.5601 10.9289 17.3967V14.5439L9.46682 13.7577C9.32292 13.6803 9.269 13.501 9.34637 13.3571Z" fill="white"/>
<path fill-rule="evenodd" clip-rule="evenodd" d="M9.25069 13.3057C9.35645 13.109 9.60161 13.0353 9.79828 13.1411L11.4161 14.0111C11.5472 14.0815 11.6289 14.2183 11.6289 14.3672V17.3967C11.6289 17.62 11.4479 17.801 11.2246 17.801C11.0013 17.801 10.8203 17.62 10.8203 17.3967V14.6088L9.4153 13.8533C9.21863 13.7475 9.14494 13.5024 9.25069 13.3057ZM9.69551 13.3322C9.60439 13.2832 9.4908 13.3174 9.44179 13.4085C9.39279 13.4996 9.42694 13.6132 9.51807 13.6622L10.9801 14.4484C11.0153 14.4673 11.0373 14.504 11.0373 14.544V17.3967C11.0373 17.5002 11.1211 17.5841 11.2246 17.5841C11.3281 17.5841 11.4119 17.5002 11.4119 17.3967V14.3672C11.4119 14.2982 11.3741 14.2348 11.3133 14.2022L9.69551 13.3322Z" fill="white"/>
<path fill-rule="evenodd" clip-rule="evenodd" d="M6.12099 11.3538C6.21066 11.304 6.31972 11.3042 6.4092 11.3543L8.43909 12.4913C8.58163 12.5712 8.63246 12.7515 8.55261 12.894C8.47277 13.0365 8.29248 13.0874 8.14994 13.0075L6.26401 11.9511L1.6002 14.5413V20.2523L6.26463 22.8428L10.9291 20.2523V18.923C10.9291 18.7597 11.0615 18.6272 11.2249 18.6272C11.3883 18.6272 11.5207 18.7597 11.5207 18.923V20.4264C11.5207 20.5338 11.4624 20.6328 11.3685 20.685L6.40826 23.4398C6.31893 23.4895 6.21032 23.4895 6.12099 23.4398L1.16074 20.685C1.06681 20.6328 1.00854 20.5338 1.00854 20.4264V14.3672C1.00854 14.2598 1.06681 14.1608 1.16074 14.1086L6.12099 11.3538Z" fill="white"/>
<path fill-rule="evenodd" clip-rule="evenodd" d="M6.06817 11.2589C6.19071 11.1909 6.33977 11.1911 6.46207 11.2596L8.49195 12.3967C8.68677 12.5058 8.75624 12.7522 8.64711 12.947C8.53798 13.1418 8.29159 13.2113 8.09677 13.1022L6.26363 12.0753L1.70854 14.6052V20.1884L6.26447 22.7187L10.8204 20.1884V18.923C10.8204 18.6997 11.0014 18.5187 11.2247 18.5187C11.448 18.5187 11.629 18.6997 11.629 18.923V20.4264C11.629 20.5732 11.5494 20.7085 11.421 20.7798L6.46078 23.5347C6.33869 23.6025 6.19026 23.6025 6.06817 23.5347L1.10791 20.7798C0.97953 20.7085 0.899902 20.5732 0.899902 20.4264V14.3672C0.899902 14.2204 0.97953 14.0851 1.10791 14.0138L6.06817 11.2589ZM6.35603 11.4489C6.29936 11.4172 6.2303 11.4171 6.17352 11.4486L1.21326 14.2035C1.15378 14.2365 1.11688 14.2992 1.11688 14.3672V20.4264C1.11688 20.4944 1.15378 20.5571 1.21326 20.5902L6.17352 23.345C6.23009 23.3764 6.29886 23.3764 6.35543 23.345L11.3157 20.5902C11.3752 20.5571 11.4121 20.4944 11.4121 20.4264V18.923C11.4121 18.8196 11.3282 18.7357 11.2247 18.7357C11.1213 18.7357 11.0374 18.8196 11.0374 18.923V20.2523C11.0374 20.2917 11.016 20.328 10.9816 20.3471L6.31715 22.9377C6.28439 22.9559 6.24456 22.9559 6.2118 22.9377L1.54737 20.3471C1.51293 20.328 1.49156 20.2917 1.49156 20.2523V14.5413C1.49156 14.5019 1.51293 14.4656 1.54737 14.4465L6.21118 11.8563C6.24407 11.838 6.28406 11.8381 6.31688 11.8565L8.20281 12.9129C8.29308 12.9634 8.40724 12.9313 8.45781 12.841C8.50837 12.7507 8.47618 12.6366 8.38592 12.586L6.35603 11.4489Z" fill="white"/>
<path fill-rule="evenodd" clip-rule="evenodd" d="M9.63574 6.71315C9.63574 6.46808 9.83441 6.26941 10.0795 6.26941H14.6582C14.9033 6.26941 15.1019 6.46808 15.1019 6.71315C15.1019 6.95822 14.9033 7.15689 14.6582 7.15689H10.0795C9.83441 7.15689 9.63574 6.95822 9.63574 6.71315Z" fill="white"/>
<path fill-rule="evenodd" clip-rule="evenodd" d="M9.52734 6.71318C9.52734 6.40819 9.77459 6.16095 10.0796 6.16095H14.6583C14.9633 6.16095 15.2105 6.40819 15.2105 6.71318C15.2105 7.01817 14.9633 7.26542 14.6583 7.26542H10.0796C9.77459 7.26542 9.52734 7.01817 9.52734 6.71318ZM10.0796 6.37793C9.89442 6.37793 9.74432 6.52803 9.74432 6.71318C9.74432 6.89834 9.89442 7.04844 10.0796 7.04844H14.6583C14.8434 7.04844 14.9935 6.89834 14.9935 6.71318C14.9935 6.52803 14.8434 6.37793 14.6583 6.37793H10.0796Z" fill="white"/>
<path fill-rule="evenodd" clip-rule="evenodd" d="M12.3695 3.98007C12.6146 3.98007 12.8133 4.17874 12.8133 4.42381V9.00251C12.8133 9.24758 12.6146 9.44625 12.3695 9.44625C12.1245 9.44625 11.9258 9.24758 11.9258 9.00251V4.42381C11.9258 4.17874 12.1245 3.98007 12.3695 3.98007Z" fill="white"/>
<path fill-rule="evenodd" clip-rule="evenodd" d="M11.8174 4.42382C11.8174 4.11883 12.0646 3.87158 12.3696 3.87158C12.6746 3.87158 12.9218 4.11883 12.9218 4.42382V9.00251C12.9218 9.3075 12.6746 9.55474 12.3696 9.55474C12.0646 9.55474 11.8174 9.3075 11.8174 9.00251V4.42382ZM12.3696 4.08856C12.1845 4.08856 12.0344 4.23866 12.0344 4.42382V9.00251C12.0344 9.18766 12.1845 9.33776 12.3696 9.33776C12.5548 9.33776 12.7049 9.18766 12.7049 9.00251V4.42382C12.7049 4.23866 12.5548 4.08856 12.3696 4.08856Z" fill="white"/>
</svg>
