<svg width="22" height="22" viewBox="0 0 22 22" fill="none" xmlns="http://www.w3.org/2000/svg">
<path fill-rule="evenodd" clip-rule="evenodd" d="M3.5 2C3.10217 2 2.72064 2.15804 2.43934 2.43934C2.15804 2.72064 2 3.10217 2 3.5V18.5C2 18.8978 2.15803 19.2794 2.43934 19.5607C2.72064 19.842 3.10218 20 3.5 20H18.5C18.8978 20 19.2794 19.842 19.5607 19.5607C19.842 19.2794 20 18.8978 20 18.5V3.5C20 3.10218 19.842 2.72064 19.5607 2.43934C19.2794 2.15803 18.8978 2 18.5 2H3.5ZM1.02513 1.02513C1.6815 0.368749 2.57174 0 3.5 0H18.5C19.4283 0 20.3185 0.368749 20.9749 1.02513C21.6313 1.6815 22 2.57174 22 3.5V18.5C22 19.4283 21.6313 20.3185 20.9749 20.9749C20.3185 21.6313 19.4283 22 18.5 22H3.5C2.57174 22 1.6815 21.6313 1.02513 20.9749C0.368749 20.3185 0 19.4283 0 18.5V3.5C0 2.57174 0.368749 1.6815 1.02513 1.02513Z" fill="#7A7676"/>
<path fill-rule="evenodd" clip-rule="evenodd" d="M14.0429 7.79289C14.4334 7.40237 15.0666 7.40237 15.4571 7.79289L17.9571 10.2929C18.3476 10.6834 18.3476 11.3166 17.9571 11.7071C17.5666 12.0976 16.9334 12.0976 16.5429 11.7071L14.75 9.91421L11.7071 12.9571C11.3166 13.3476 10.6834 13.3476 10.2929 12.9571L8.5 11.1642L5.45711 14.2071C5.06658 14.5976 4.43342 14.5976 4.04289 14.2071C3.65237 13.8166 3.65237 13.1834 4.04289 12.7929L7.79289 9.04289C8.18342 8.65237 8.81658 8.65237 9.20711 9.04289L11 10.8358L14.0429 7.79289Z" fill="#7A7676"/>
</svg>
