<svg width="21" height="24" viewBox="0 0 21 24" fill="none" xmlns="http://www.w3.org/2000/svg">
<path d="M19.8182 4.29091C18.1702 3.85106 16.5601 3.27953 15.0036 2.58182C13.4723 1.91754 11.9941 1.13708 10.5818 0.247273L10.1818 0L9.78909 0.254545C8.37684 1.14435 6.89859 1.92481 5.36727 2.58909C3.80821 3.28469 2.19574 3.85379 0.545455 4.29091L0 4.42909V10.4945C0 20.2327 9.84 23.8764 9.93454 23.9127L10.1818 24L10.4291 23.9127C10.5309 23.9127 20.3636 20.24 20.3636 10.4945V4.42909L19.8182 4.29091ZM16.4945 9.12727L8.37091 17.0182L3.77454 12.4145C3.58166 12.2217 3.4733 11.9601 3.4733 11.6873C3.4733 11.4145 3.58166 11.1529 3.77454 10.96C3.96743 10.7671 4.22904 10.6588 4.50182 10.6588C4.7746 10.6588 5.03621 10.7671 5.22909 10.96L8.39273 14.1818L15.0764 7.63636C15.1719 7.54086 15.2853 7.4651 15.41 7.41341C15.5348 7.36172 15.6686 7.33512 15.8036 7.33512C15.9387 7.33512 16.0724 7.36172 16.1972 7.41341C16.322 7.4651 16.4354 7.54086 16.5309 7.63636C16.6264 7.73187 16.7022 7.84525 16.7539 7.97004C16.8056 8.09483 16.8322 8.22857 16.8322 8.36364C16.8322 8.4987 16.8056 8.63245 16.7539 8.75723C16.7022 8.88202 16.6264 8.9954 16.5309 9.09091L16.4945 9.12727Z" fill="white"/>
</svg>
