<svg width="33" height="33" viewBox="0 0 33 33" fill="none" xmlns="http://www.w3.org/2000/svg">
<path d="M10.9082 32.9843C10.1034 32.9795 9.32201 32.7133 8.68177 32.2256L5.2679 29.6859C4.48008 29.0716 3.95736 28.179 3.80707 27.1914C3.65678 26.2038 3.89034 25.1962 4.45978 24.3754C4.76107 23.9305 4.95255 23.4205 5.01849 22.8873C5.08443 22.354 5.02295 21.8127 4.8391 21.3078L4.74015 21.044C4.61213 20.587 4.37816 20.1666 4.05722 19.817C3.73628 19.4674 3.33742 19.1985 2.89303 19.0319H2.62915C1.6658 18.708 0.869127 18.0171 0.412129 17.1093C-0.0448691 16.2015 -0.125295 15.15 0.188316 14.1832L1.54067 9.89529C1.66516 9.39848 1.89436 8.934 2.21292 8.53296C2.53147 8.13192 2.93204 7.80357 3.38779 7.56989C3.81222 7.35121 4.2766 7.22092 4.75284 7.1869C5.22908 7.15288 5.70727 7.21585 6.15847 7.37199C6.64975 7.53733 7.17397 7.58018 7.68557 7.49683C8.19718 7.41348 8.68069 7.20644 9.09407 6.89372L9.30847 6.72879C9.68267 6.43021 9.98509 6.05146 10.1935 5.62046C10.4018 5.18946 10.5108 4.7172 10.5124 4.23848V3.84267C10.508 2.83357 10.9024 1.86357 11.6097 1.14387C12.317 0.424165 13.2801 0.0130391 14.2891 0H18.4946C18.9855 0.00132299 19.4714 0.0996195 19.9242 0.289244C20.377 0.478869 20.7879 0.756086 21.1333 1.10497C21.8595 1.84348 22.2628 2.83999 22.2548 3.87565V4.33743C22.2464 4.79221 22.3451 5.24258 22.5427 5.65224C22.7404 6.06189 23.0316 6.41936 23.3928 6.69581L23.5742 6.82775C23.9443 7.10531 24.3761 7.28927 24.8327 7.36393C25.2893 7.43859 25.7571 7.40175 26.1964 7.25654L26.7572 7.07513C27.2322 6.91765 27.7342 6.85746 28.233 6.89816C28.7319 6.93886 29.2174 7.07961 29.6607 7.31202C30.1039 7.54443 30.4959 7.86374 30.813 8.25089C31.1302 8.63804 31.3662 9.08512 31.5069 9.56544L32.8098 13.7215C33.1112 14.6819 33.0288 15.7219 32.5799 16.6229C32.1309 17.5239 31.3503 18.216 30.4019 18.5537L30.0721 18.6691C29.5869 18.828 29.1482 19.1035 28.7945 19.4716C28.4408 19.8397 28.183 20.289 28.0435 20.7801C27.9123 21.2366 27.8811 21.7161 27.9523 22.1858C28.0235 22.6554 28.1952 23.1042 28.4558 23.5013L28.8846 24.128C29.4533 24.9533 29.6847 25.9649 29.5313 26.9554C29.378 27.9459 28.8516 28.8402 28.06 29.455L24.7451 32.0112C24.3446 32.3175 23.8857 32.5386 23.3966 32.6608C22.9074 32.783 22.3984 32.8039 21.901 32.722C21.4035 32.6401 20.928 32.4572 20.5039 32.1847C20.0797 31.9121 19.7158 31.5556 19.4346 31.1372L19.2367 30.8568C18.9666 30.4509 18.5981 30.12 18.1655 29.895C17.7329 29.6701 17.2504 29.5584 16.7629 29.5704C16.2978 29.5825 15.842 29.7037 15.4324 29.9242C15.0227 30.1448 14.6706 30.4586 14.4045 30.8403L14.0252 31.3845C13.7439 31.806 13.3793 32.1653 12.9539 32.4404C12.5284 32.7156 12.0511 32.9007 11.5514 32.9843C11.3375 33.0052 11.1221 33.0052 10.9082 32.9843ZM3.96502 15.8654C4.89631 16.1975 5.73664 16.7436 6.41839 17.4597C7.10013 18.1758 7.60424 19.042 7.89015 19.9885V20.1864C8.24627 21.1704 8.3632 22.2249 8.23129 23.263C8.09938 24.3011 7.72241 25.2929 7.13151 26.1565C7.02721 26.2718 6.96945 26.4217 6.96945 26.5771C6.96945 26.7325 7.02721 26.8824 7.13151 26.9976L10.6773 29.6859C10.7236 29.7222 10.7771 29.7482 10.8342 29.7622C10.8914 29.7761 10.9508 29.7777 11.0086 29.7667C11.0664 29.7558 11.1212 29.7326 11.1693 29.6988C11.2174 29.6649 11.2577 29.6211 11.2875 29.5704L11.6668 29.0262C12.2389 28.1995 13.0029 27.5239 13.8934 27.0573C14.7838 26.5907 15.7741 26.3469 16.7794 26.3469C17.7847 26.3469 18.775 26.5907 19.6654 27.0573C20.5559 27.5239 21.3199 28.1995 21.892 29.0262L22.0899 29.323C22.1608 29.4236 22.2666 29.4942 22.3867 29.5209C22.4418 29.5291 22.498 29.5259 22.5519 29.5118C22.6057 29.4976 22.6561 29.4727 22.7001 29.4385L26.0975 26.8657C26.2164 26.7713 26.2946 26.6349 26.3161 26.4846C26.3376 26.3343 26.3007 26.1815 26.2129 26.0576L25.7841 25.4309C25.2254 24.6162 24.8568 23.6864 24.7055 22.7102C24.5542 21.7339 24.6241 20.7362 24.91 19.7906C25.1999 18.7967 25.7241 17.887 26.4388 17.1379C27.1534 16.3889 28.0374 15.8224 29.0166 15.4861L29.3464 15.3707C29.4839 15.3156 29.594 15.2084 29.6527 15.0724C29.7114 14.9365 29.7139 14.7828 29.6598 14.645L28.3734 10.5385C28.3425 10.4666 28.2973 10.4018 28.2406 10.3479C28.1839 10.2941 28.1169 10.2523 28.0435 10.2251C27.995 10.2005 27.9413 10.1877 27.8869 10.1877C27.8324 10.1877 27.7787 10.2005 27.7302 10.2251L27.1695 10.4065C26.2209 10.7196 25.2105 10.7976 24.2252 10.6339C23.2398 10.4701 22.309 10.0695 21.5127 9.46649L21.4467 9.31806C20.6826 8.73939 20.063 7.99145 19.6366 7.133C19.2103 6.27454 18.9887 5.32893 18.9894 4.37042V3.85916C18.9923 3.7002 18.9332 3.54636 18.8244 3.43037C18.7296 3.34462 18.606 3.29754 18.4781 3.29843H14.2891C14.2219 3.30262 14.1562 3.32004 14.0958 3.34969C14.0353 3.37934 13.9814 3.42064 13.9369 3.4712C13.8925 3.52177 13.8585 3.58062 13.8368 3.64436C13.8152 3.70811 13.8064 3.7755 13.8108 3.84267V4.25497C13.8109 5.23962 13.585 6.21114 13.1503 7.09467C12.7157 7.97821 12.0841 8.75016 11.304 9.35104L11.0896 9.51597C10.2481 10.1567 9.26184 10.5806 8.21784 10.7503C7.17384 10.92 6.10412 10.8302 5.10297 10.489C5.02806 10.4639 4.94699 10.4639 4.87208 10.489C4.77901 10.5455 4.70891 10.6332 4.67418 10.7364L3.30533 15.0408C3.25761 15.1874 3.2688 15.3468 3.33651 15.4854C3.40422 15.6239 3.52316 15.7306 3.66816 15.783L3.96502 15.8654Z" fill="white"/>
<path d="M16.4989 22.2645C15.3572 22.2645 14.2412 21.9259 13.292 21.2917C12.3427 20.6574 11.6029 19.7559 11.166 18.7012C10.7291 17.6464 10.6148 16.4858 10.8375 15.3661C11.0603 14.2464 11.61 13.2179 12.4173 12.4106C13.2245 11.6034 14.2531 11.0536 15.3728 10.8309C16.4925 10.6082 17.6531 10.7225 18.7078 11.1594C19.7626 11.5962 20.6641 12.3361 21.2983 13.2853C21.9326 14.2346 22.2711 15.3506 22.2711 16.4922C22.2711 18.0231 21.663 19.4913 20.5805 20.5738C19.498 21.6563 18.0298 22.2645 16.4989 22.2645ZM16.4989 14.0184C16.0096 14.0184 15.5313 14.1635 15.1245 14.4353C14.7177 14.7071 14.4006 15.0935 14.2134 15.5455C14.0261 15.9976 13.9771 16.495 14.0726 16.9748C14.168 17.4547 14.4037 17.8955 14.7496 18.2415C15.0956 18.5874 15.5364 18.8231 16.0163 18.9185C16.4961 19.014 16.9935 18.965 17.4456 18.7777C17.8976 18.5905 18.284 18.2734 18.5558 17.8666C18.8276 17.4598 18.9727 16.9815 18.9727 16.4922C18.9727 15.8361 18.7121 15.2069 18.2481 14.743C17.7842 14.279 17.155 14.0184 16.4989 14.0184Z" fill="white"/>
</svg>
