<svg width="34" height="34" viewBox="0 0 34 34" fill="none" xmlns="http://www.w3.org/2000/svg">
<path d="M17 0C7.61205 0 0 7.61205 0 17C0 26.3879 7.61205 34 17 34C26.3879 34 34 26.3879 34 17C34 7.61205 26.3879 0 17 0ZM17 31.1161C9.2058 31.1161 2.88393 24.7942 2.88393 17C2.88393 9.2058 9.2058 2.88393 17 2.88393C24.7942 2.88393 31.1161 9.2058 31.1161 17C31.1161 24.7942 24.7942 31.1161 17 31.1161Z" fill="#4DBF9D"/>
<path d="M16 10.8214C16 11.3045 16.158 11.7678 16.4393 12.1094C16.7206 12.451 17.1022 12.6429 17.5 12.6429C17.8978 12.6429 18.2794 12.451 18.5607 12.1094C18.842 11.7678 19 11.3045 19 10.8214C19 10.3384 18.842 9.87507 18.5607 9.53348C18.2794 9.1919 17.8978 9 17.5 9C17.1022 9 16.7206 9.1919 16.4393 9.53348C16.158 9.87507 16 10.3384 16 10.8214ZM18.25 15.0714H16.75C16.6125 15.0714 16.5 15.208 16.5 15.375V25.6964C16.5 25.8634 16.6125 26 16.75 26H18.25C18.3875 26 18.5 25.8634 18.5 25.6964V15.375C18.5 15.208 18.3875 15.0714 18.25 15.0714Z" fill="#4DBF9D"/>
</svg>
