<svg width="30" height="30" viewBox="0 0 30 30" fill="none" xmlns="http://www.w3.org/2000/svg">
<path d="M21.2132 0H8.78684L0 8.78678V21.2132L8.78684 30H21.2132L30 21.2132V8.78678L21.2132 0ZM28.2422 20.4851L20.4851 28.2422H9.51492L1.75781 20.4851V9.51492L9.51492 1.75781H20.4851L28.2422 9.51492V20.4851Z" fill="#FF7373"/>
<path d="M6.59132 14.3222C6.18702 14.1703 5.8838 14.096 5.64022 14.0364C5.34954 13.9652 5.24184 13.9359 5.1018 13.8449C5.01391 13.7878 4.9688 13.6494 4.97102 13.5481C4.97307 13.4486 5.06688 13.2571 5.30952 13.1665C5.64403 13.0417 5.96073 13.0128 6.99778 13.7829L8.04585 12.3717C7.3412 11.8483 6.16176 10.9722 4.69499 11.5196C3.82721 11.8434 3.2319 12.6437 3.21356 13.5108C3.20137 14.0846 3.43938 14.8609 4.14391 15.3188C4.54118 15.577 4.88741 15.6618 5.22221 15.7437C5.44089 15.7973 5.66706 15.8527 5.97303 15.9677C6.44548 16.1452 6.40833 16.36 6.39426 16.4408C6.36257 16.6238 6.10176 16.8945 5.64251 16.8945C5.15829 16.8945 4.69428 16.7015 4.40137 16.3783L3.09883 17.5586C3.72872 18.2537 4.65585 18.6523 5.64251 18.6523C6.88985 18.6523 7.93446 17.8484 8.12635 16.7409C8.30835 15.6904 7.70583 14.741 6.59132 14.3222Z" fill="#FF7373"/>
<path d="M8.80837 13.1637H10.3018V18.5941H12.0596V13.1637H13.5652V11.4059H8.80837V13.1637Z" fill="#FF7373"/>
<path d="M23.9199 16.2291C23.9199 16.2291 24.5018 16.2286 24.553 16.2286C25.8992 16.2286 26.9944 15.1469 26.9944 13.8173C26.9944 12.4876 25.8992 11.4059 24.553 11.4059H22.1621V18.5941H23.9199V16.2291ZM24.553 13.1637C24.9235 13.1637 25.2366 13.463 25.2366 13.8173C25.2366 14.1715 24.9235 14.4708 24.553 14.4708C24.4009 14.4708 24.1656 14.4717 23.9257 14.4728C23.9245 14.2206 23.9231 13.4282 23.9224 13.1637H24.553Z" fill="#FF7373"/>
<path d="M17.493 11.4059C15.5112 11.4059 13.8989 13.0182 13.8989 15C13.8989 16.9817 15.5112 18.5941 17.493 18.5941C19.4748 18.5941 21.0871 16.9817 21.0871 15C21.0871 13.0182 19.4748 11.4059 17.493 11.4059ZM17.493 16.8362C16.4805 16.8362 15.6567 16.0125 15.6567 15C15.6567 13.9875 16.4805 13.1637 17.493 13.1637C18.5055 13.1637 19.3293 13.9875 19.3293 15C19.3293 16.0125 18.5055 16.8362 17.493 16.8362Z" fill="#FF7373"/>
</svg>
