<svg width="24" height="24" viewBox="0 0 24 24" fill="none" xmlns="http://www.w3.org/2000/svg">
<path fill-rule="evenodd" clip-rule="evenodd" d="M9.38457 1.40653C5.15132 1.40653 1.72098 4.83686 1.72098 9.07011C1.72098 11.5005 2.85178 13.6678 4.61841 15.0694C4.77438 15.1932 4.80051 15.4199 4.67676 15.5759C4.55302 15.7318 4.32627 15.758 4.1703 15.6342C2.23822 14.1013 1 11.7293 1 9.07011C1 4.43867 4.75313 0.685547 9.38457 0.685547C11.5409 0.685547 13.4979 1.50064 14.9824 2.83349C15.1306 2.9665 15.1428 3.19442 15.0098 3.34257C14.8768 3.49071 14.6489 3.50298 14.5008 3.36997C13.1424 2.1504 11.355 1.40653 9.38457 1.40653Z" fill="white" stroke="white" stroke-width="0.2" stroke-miterlimit="10" stroke-linecap="round" stroke-linejoin="round"/>
<path d="M1.92622 21.0573L1.92643 21.0571L1.92059 21.0521C1.53657 20.723 1.41686 20.1647 1.47366 19.6424C1.58971 19.1258 1.87429 18.679 2.37678 18.4557L2.3768 18.4557L2.37962 18.4543L7.48514 15.9917C7.98823 15.7688 8.59301 15.8834 8.92207 16.377L8.92203 16.377L8.9239 16.3796L9.82458 17.6405C9.82467 17.6407 9.82477 17.6408 9.82486 17.6409C10.264 18.268 10.9531 18.642 11.7611 18.7043C12.5098 18.7666 13.26 18.5168 13.8225 17.9543L18.3887 13.3881C18.9512 12.8256 19.201 12.0753 19.1386 11.3264C19.0761 10.5764 18.701 9.89082 18.08 9.39404L18.0801 9.39393L18.0757 9.39076L16.8159 8.4909C16.8155 8.49067 16.8152 8.49044 16.8149 8.49021C16.3714 8.15689 16.2064 7.54687 16.426 7.05079L18.8887 1.94524L18.8895 1.9456L18.8935 1.93342C18.9448 1.77948 19.0781 1.61455 19.2712 1.47146C19.4616 1.33045 19.7021 1.21683 19.9566 1.15944C20.4733 1.10323 20.9789 1.21937 21.3715 1.61202L22.453 2.69349C23.5149 3.75539 24.0425 5.16746 23.8665 6.57579L23.8663 6.57693C22.8505 15.5404 15.8606 22.4731 6.89641 23.5515H6.8954H6.894H6.89261H6.89123H6.88984H6.88846H6.88708H6.8857H6.88433H6.88296H6.88159H6.88022H6.87886H6.87749H6.87614H6.87478H6.87343H6.87208H6.87073H6.86938H6.86804H6.8667H6.86536H6.86402H6.86269H6.86136H6.86003H6.85871H6.85738H6.85606H6.85474H6.85343H6.85212H6.8508H6.8495H6.84819H6.84689H6.84559H6.84429H6.84299H6.8417H6.84041H6.83912H6.83783H6.83655H6.83526H6.83399H6.83271H6.83143H6.83016H6.82889H6.82762H6.82636H6.82509H6.82383H6.82257H6.82132H6.82006H6.81881H6.81756H6.81631H6.81507H6.81383H6.81258H6.81135H6.81011H6.80887H6.80764H6.80641H6.80518H6.80396H6.80274H6.80151H6.8003H6.79908H6.79786H6.79665H6.79544H6.79423H6.79302H6.79182H6.79062H6.78942H6.78822H6.78702H6.78583H6.78464H6.78345H6.78226H6.78107H6.77989H6.7787H6.77752H6.77635H6.77517H6.77399H6.77282H6.77165H6.77048H6.76932H6.76815H6.76699H6.76583H6.76467H6.76351H6.76236H6.7612H6.76005H6.7589H6.75775H6.75661H6.75546H6.75432H6.75318H6.75204H6.7509H6.74977H6.74864H6.7475H6.74637H6.74525H6.74412H6.74299H6.74187H6.74075H6.73963H6.73851H6.7374H6.73628H6.73517H6.73406H6.73295H6.73184H6.73073H6.72963H6.72853H6.72743H6.72633H6.72523H6.72413H6.72304H6.72194H6.72085H6.71976H6.71867H6.71759H6.7165H6.71542H6.71433H6.71325H6.71217H6.7111H6.71002H6.70894H6.70787H6.7068H6.70573H6.70466H6.70359H6.70253H6.70146H6.7004H6.69934H6.69828H6.69722H6.69616H6.6951H6.69405H6.69299H6.69194H6.69089H6.68984H6.68879H6.68775H6.6867H6.68566H6.68461H6.68357H6.68253H6.68149H6.68045H6.67942H6.67838H6.67735H6.67631H6.67528H6.67425H6.67322H6.6722H6.67117H6.67014H6.66912H6.6681H6.66707H6.66605H6.66503H6.66401H6.663H6.66198H6.66096H6.65995H6.65894H6.65792H6.65691H6.6559H6.6549H6.65389H6.65288H6.65188H6.65087H6.64987H6.64886H6.64786H6.64686H6.64586H6.64486H6.64387H6.64287H6.64187H6.64088H6.63989H6.63889H6.6379H6.63691H6.63592H6.63493H6.63394H6.63296H6.63197H6.63098H6.63H6.62901H6.62803H6.62705H6.62607H6.62509H6.62411H6.62313H6.62215H6.62117H6.6202H6.61922H6.61825H6.61727H6.6163H6.61532H6.61435H6.61338H6.61241H6.61144H6.61047H6.6095H6.60854H6.60757H6.6066H6.60564H6.60467H6.60371H6.60274H6.60178H6.60082H6.59986H6.59889H6.59793H6.59697H6.59601H6.59505H6.5941H6.59314H6.59218H6.59122H6.59027H6.58931H6.58836H6.5874H6.58645H6.58549H6.58454H6.58359H6.58264H6.58168H6.58073H6.57978H6.57883H6.57788H6.57693H6.57598H6.57503H6.57409H6.57314H6.57219H6.57124H6.5703H6.56935H6.5684H6.56746H6.56651H6.56557H6.56462H6.56368H6.56273H6.56179H6.56085H6.5599H6.55896H6.55802H6.55707H6.55613H6.55519H6.55425H6.55331H6.55236H6.55142H6.55048H6.54954H6.5486H6.54766H6.54672H6.54578H6.54484H6.5439H6.54296H6.54202H6.54108H6.54014H6.5392H6.53826H6.53732H6.53638H6.53544H6.53451H6.53357H6.53263H6.53169H6.53075H6.52981H6.52887H6.52793H6.52699H6.52606H6.52512H6.52418H6.52324H6.5223H6.52136H6.52042H6.51948H6.51854H6.5176H6.51667H6.51573H6.51479H6.51385H6.51291H6.51197H6.51103H6.51009H6.50915H6.50821H6.50726H6.50632H6.50538H6.50444H6.5035H6.50256H6.50162H6.50067H6.49973H6.49879H6.49785H6.4969H6.49596H6.49502H6.49407H6.49313H6.49218H6.49124H6.49029H6.48935H6.4884H6.48745H6.48651H6.48556H6.48461H6.48367H6.48272H6.48177H6.48082H6.47987H6.47892H6.47797H6.47702H6.47607H6.47512H6.47417H6.47321H6.47226H6.47131H6.47035H6.4694H6.46844H6.46749H6.46653H6.46558H6.46462H6.46366H6.4627H6.46174H6.46079H6.45983H6.45887H6.4579H6.45694H6.45598H6.45502H6.45405H6.45309H6.45213H6.45116H6.45019H6.44923H6.44826H6.44729H6.44632H6.44535H6.44438H6.44341H6.44244H6.44147H6.4405H6.43952H6.43855H6.43757H6.4366H6.43562H6.43464H6.43366H6.43269H6.43171H6.43072H6.42974H6.42876H6.42778H6.42679H6.42581H6.42482H6.42384H6.42285H6.42186H6.42087H6.41988H6.41889H6.4179H6.4169H6.41591H6.41491H6.41392H6.41292H6.41192H6.41092H6.40992H6.40892H6.40792H6.40692H6.40591H6.40491H6.4039H6.4029H6.40189H6.40088H6.39987H6.39886H6.39784H6.39683H6.39582H6.3948H6.39378H6.39277H6.39175H6.39073H6.38971H6.38868H6.38766H6.38663H6.38561H6.38458H6.38355H6.38252H6.38149H6.38046H6.37943H6.37839H6.37736H6.37632H6.37528H6.37424H6.3732H6.37216H6.37112H6.37007H6.36902H6.36798H6.36693H6.36588H6.36483H6.36377H6.36272H6.36166C5.12754 23.5515 3.89095 23.0221 3.0077 22.1388L1.92622 21.0573ZM2.47384 18.8145L2.47362 18.8141L2.46497 18.8193C2.15203 19.007 1.88384 19.2684 1.81696 19.6696C1.75162 20.0617 1.88191 20.4547 2.1453 20.7181L3.22677 21.7996C4.20965 22.7825 5.50098 23.2131 6.79172 23.0901L6.79172 23.0902L6.79388 23.0899C15.5518 22.0631 22.3773 15.2376 23.4041 6.47968L23.4043 6.47798C23.5274 5.24741 23.0969 3.89573 22.1138 2.91256L21.0323 1.83109C20.7689 1.5677 20.3759 1.43741 19.9838 1.50275C19.5893 1.56851 19.2658 1.8301 19.0734 2.15076L19.073 2.15054L19.0691 2.15876L16.6057 7.26573L16.6055 7.26563L16.6029 7.27204C16.4695 7.6056 16.5324 7.95755 16.816 8.17024L16.816 8.17033L16.8197 8.17287L18.1396 9.07282C18.8377 9.59717 19.3018 10.4115 19.3598 11.2812C19.4181 12.1561 19.1264 13.0284 18.4876 13.6672L13.9214 18.2335C13.2821 18.8727 12.4696 19.164 11.5352 19.1056C10.6655 19.0476 9.8518 18.5836 9.32782 17.8267L9.32753 17.8263L8.48766 16.6265C8.48744 16.6262 8.48722 16.6259 8.48701 16.6255C8.34319 16.4106 8.12679 16.3416 7.9238 16.3416H7.91916C7.86282 16.3416 7.81046 16.3416 7.75715 16.3505C7.70023 16.36 7.64586 16.3788 7.57977 16.4117C7.5794 16.4119 7.57904 16.4121 7.57867 16.4123L2.47384 18.8145Z" fill="white" stroke="white" stroke-width="0.2"/>
<path fill-rule="evenodd" clip-rule="evenodd" d="M20.5881 3.36559C20.7378 3.43717 20.8011 3.61654 20.7295 3.76621L18.2917 8.86341C18.2201 9.01309 18.0408 9.07639 17.8911 9.00481C17.7414 8.93323 17.6781 8.75386 17.7497 8.60419L20.1875 3.50699C20.2591 3.35731 20.4384 3.29401 20.5881 3.36559Z" fill="white" stroke="white" stroke-width="0.2" stroke-miterlimit="10" stroke-linecap="round" stroke-linejoin="round"/>
<path fill-rule="evenodd" clip-rule="evenodd" d="M9.31916 17.5756C9.39093 17.7252 9.32784 17.9047 9.17826 17.9764L4.08106 20.4219C3.93147 20.4936 3.75203 20.4305 3.68026 20.2809C3.6085 20.1314 3.67158 19.9519 3.82117 19.8802L8.91837 17.4347C9.06796 17.363 9.2474 17.426 9.31916 17.5756Z" fill="white" stroke="white" stroke-width="0.2" stroke-miterlimit="10" stroke-linecap="round" stroke-linejoin="round"/>
<path fill-rule="evenodd" clip-rule="evenodd" d="M12.4631 23.2077C12.4631 23.0086 12.6245 22.8472 12.8236 22.8472H12.9006C13.0997 22.8472 13.2611 23.0086 13.2611 23.2077C13.2611 23.4068 13.0997 23.5682 12.9006 23.5682H12.8236C12.6245 23.5682 12.4631 23.4068 12.4631 23.2077Z" fill="white" stroke="white" stroke-width="0.2" stroke-miterlimit="10" stroke-linecap="round" stroke-linejoin="round"/>
<path fill-rule="evenodd" clip-rule="evenodd" d="M14.0518 23.2078C14.0518 23.0419 14.1863 22.9074 14.3522 22.9074H15.4985C15.6644 22.9074 15.7989 23.0419 15.7989 23.2078C15.7989 23.3737 15.6644 23.5082 15.4985 23.5082H14.3522C14.1863 23.5082 14.0518 23.3737 14.0518 23.2078Z" fill="white" stroke="white" stroke-width="0.2" stroke-miterlimit="10" stroke-linecap="round" stroke-linejoin="round"/>
<path fill-rule="evenodd" clip-rule="evenodd" d="M21.2291 21.701C21.4282 21.701 21.5896 21.8624 21.5896 22.0615C21.5896 22.4967 21.9403 22.8473 22.3754 22.8473C22.8106 22.8473 23.1612 22.4967 23.1612 22.0615C23.1612 21.8624 23.3226 21.701 23.5217 21.701C23.7208 21.701 23.8822 21.8624 23.8822 22.0615C23.8822 22.8949 23.2088 23.5683 22.3754 23.5683C21.5421 23.5683 20.8687 22.8949 20.8687 22.0615C20.8687 21.8624 21.0301 21.701 21.2291 21.701Z" fill="white" stroke="white" stroke-width="0.2" stroke-miterlimit="10" stroke-linecap="round" stroke-linejoin="round"/>
<path fill-rule="evenodd" clip-rule="evenodd" d="M18.9374 21.701C19.1365 21.701 19.2979 21.8624 19.2979 22.0615C19.2979 22.4967 19.6485 22.8473 20.0837 22.8473C20.5189 22.8473 20.8695 22.4967 20.8695 22.0615C20.8695 21.8624 21.0309 21.701 21.23 21.701C21.4291 21.701 21.5905 21.8624 21.5905 22.0615C21.5905 22.8949 20.9171 23.5683 20.0837 23.5683C19.2503 23.5683 18.5769 22.8949 18.5769 22.0615C18.5769 21.8624 18.7383 21.701 18.9374 21.701Z" fill="white" stroke="white" stroke-width="0.2" stroke-miterlimit="10" stroke-linecap="round" stroke-linejoin="round"/>
<path fill-rule="evenodd" clip-rule="evenodd" d="M18.9372 21.701C19.1363 21.701 19.2977 21.8624 19.2977 22.0615C19.2977 22.8949 18.6243 23.5683 17.7909 23.5683C17.5918 23.5683 17.4304 23.4069 17.4304 23.2078C17.4304 23.0087 17.5918 22.8473 17.7909 22.8473C18.2261 22.8473 18.5767 22.4967 18.5767 22.0615C18.5767 21.8624 18.7381 21.701 18.9372 21.701Z" fill="white" stroke="white" stroke-width="0.2" stroke-miterlimit="10" stroke-linecap="round" stroke-linejoin="round"/>
<path fill-rule="evenodd" clip-rule="evenodd" d="M16.6442 21.701C16.8433 21.701 17.0047 21.8624 17.0047 22.0615C17.0047 22.8949 16.3313 23.5683 15.4979 23.5683C15.2988 23.5683 15.1375 23.4069 15.1375 23.2078C15.1375 23.0087 15.2988 22.8473 15.4979 22.8473C15.9331 22.8473 16.2837 22.4967 16.2837 22.0615C16.2837 21.8624 16.4451 21.701 16.6442 21.701Z" fill="white" stroke="white" stroke-width="0.2" stroke-miterlimit="10" stroke-linecap="round" stroke-linejoin="round"/>
<path fill-rule="evenodd" clip-rule="evenodd" d="M15.6676 3.89042C15.7849 3.7731 15.9751 3.7731 16.0924 3.89042L16.1388 3.93676C16.2561 4.05408 16.2561 4.24429 16.1388 4.36161C16.0214 4.47893 15.8312 4.47892 15.7139 4.36161L15.6676 4.31526C15.5503 4.19794 15.5503 4.00773 15.6676 3.89042Z" fill="white" stroke="white" stroke-width="0.2" stroke-miterlimit="10" stroke-linecap="round" stroke-linejoin="round"/>
<path fill-rule="evenodd" clip-rule="evenodd" d="M7.11279 7.92372C7.11279 7.72463 7.27419 7.56323 7.47329 7.56323H10.5301C10.7292 7.56323 10.8906 7.72463 10.8906 7.92372V12.9126H11.2943C11.4934 12.9126 11.6548 13.074 11.6548 13.2731C11.6548 13.4722 11.4934 13.6336 11.2943 13.6336H7.47329C7.27419 13.6336 7.11279 13.4722 7.11279 13.2731C7.11279 13.074 7.27419 12.9126 7.47329 12.9126H7.87699V8.28422H7.47329C7.27419 8.28422 7.11279 8.12282 7.11279 7.92372ZM8.59797 8.28422V12.9126H10.1696V8.28422H8.59797Z" fill="white" stroke="white" stroke-width="0.2" stroke-miterlimit="10" stroke-linecap="round" stroke-linejoin="round"/>
<path fill-rule="evenodd" clip-rule="evenodd" d="M9.38374 4.46323C8.94975 4.46323 8.59794 4.81505 8.59794 5.24904C8.59794 5.68303 8.94975 6.03484 9.38374 6.03484C9.81773 6.03484 10.1695 5.68303 10.1695 5.24904C10.1695 4.81505 9.81773 4.46323 9.38374 4.46323ZM7.87695 5.24904C7.87695 4.41686 8.55157 3.74225 9.38374 3.74225C10.2159 3.74225 10.8905 4.41686 10.8905 5.24904C10.8905 6.08121 10.2159 6.75583 9.38374 6.75583C8.55157 6.75583 7.87695 6.08121 7.87695 5.24904Z" fill="white" stroke="white" stroke-width="0.2" stroke-miterlimit="10" stroke-linecap="round" stroke-linejoin="round"/>
</svg>
