<svg width="585" height="151" viewBox="0 0 585 151" fill="none" xmlns="http://www.w3.org/2000/svg">
<g clip-path="url(#clip0_315_143)">
<path d="M75.4 150.8C117.042 150.8 150.8 117.042 150.8 75.4C150.8 33.7577 117.042 0 75.4 0C33.7577 0 0 33.7577 0 75.4C0 117.042 33.7577 150.8 75.4 150.8Z" fill="#51BE9B"/>
<path d="M129.3 76.4001C129.3 77.3001 128.9 78.1001 128.1 78.5001L59.9999 120C61.0999 118.3 61.9999 116.3 62.4999 114.2C63.4999 110.1 63.1999 103.9 56.1999 98.1001C55.9999 98.0001 40.6999 87.0001 41.6999 65.2001C41.6999 64.4001 42.2999 64.0001 42.4999 63.9001C42.5999 63.8001 42.8999 63.7001 43.1999 63.7001C43.3999 63.7001 43.6999 63.8001 43.9999 64.0001L66.6999 78.6001C74.5999 84.5001 80.9999 87.9001 81.6999 88.2001C82.3999 88.6001 83.2999 88.3001 83.6999 87.6001C84.0999 86.9001 83.8999 86.0001 83.1999 85.6001L69.4999 76.8001C56.9999 67.4001 39.7999 50.9001 37.2999 29.6001C37.1999 28.8001 37.6999 28.4001 37.8999 28.2001C38.3999 27.9001 38.8999 27.9001 39.3999 28.1001L128 74.4001C128.8 74.8001 129.3 75.5001 129.3 76.4001Z" fill="white"/>
<path d="M36.8 118.6L54.7 108C56.2 107.1 58.2 108 58.5 109.7C59.2 113.3 59 119 52.8 123C48.5 125.6 41.5 125.2 37.1 123.2C35.2 122.3 35.1 119.7 36.8 118.6Z" fill="white"/>
<path d="M212 60.7999L210.9 67.3999C209.6 66.3999 208 65.5999 206.2 64.9999C204.4 64.3999 202.9 64.0999 201.6 64.0999C200.1 64.0999 198.8 64.4999 197.8 65.2999C196.8 66.0999 196.3 67.0999 196.3 68.2999C196.3 68.9999 196.6 69.6999 197.1 70.4999C197.7 71.1999 199.5 72.4999 202.5 74.2999C205.5 76.0999 207.5 77.8999 208.6 79.5999C209.6 81.2999 210.2 83.0999 210.2 84.9999C210.2 88.2999 209.1 91.0999 206.8 93.2999C204.5 95.4999 201.4 96.5999 197.5 96.5999C192.6 96.5999 188.3 95.3999 184.7 92.9999L185.9 86.4999C187.5 87.5999 189.3 88.5999 191.3 89.2999C193.3 89.9999 195 90.3999 196.5 90.3999C198.1 90.3999 199.4 89.9999 200.4 89.2999C201.4 88.4999 201.9 87.4999 201.9 86.2999C201.9 85.3999 201.6 84.5999 200.9 83.6999C200.2 82.7999 198.4 81.3999 195.4 79.5999C192.4 77.6999 190.4 75.9999 189.4 74.3999C188.4 72.7999 188 71.1999 188 69.4999C188 66.2999 189.3 63.5999 191.8 61.3999C194.3 59.1999 197.5 58.0999 201.3 58.0999C205 57.8999 208.6 58.8999 212 60.7999Z" fill="white"/>
<path d="M282 70.8999L267.7 96.3999H263L260.3 83.3999L253.1 96.3999H248.4L242.1 70.8999H249.3L252.3 85.3999L259.8 70.8999H264.3L267 85.3999L274.3 70.8999H282Z" fill="white"/>
<path d="M320.6 70.9L317.1 95.9H309.6L313.1 70.9H320.6ZM313.9 64C313.9 62.9 314.3 61.9999 315 61.2999C315.8 60.4999 316.7 60.2 317.7 60.2C318.8 60.2 319.7 60.5999 320.4 61.2999C321.2 62.0999 321.5 63 321.5 64C321.5 65.1 321.1 65.9999 320.4 66.6999C319.6 67.4999 318.7 67.8 317.7 67.8C316.6 67.8 315.7 67.3999 315 66.6999C314.3 65.9999 313.9 65.1 313.9 64Z" fill="white"/>
<path d="M375.1 59.0999L374.3 65.0999C372.7 64.2999 371.3 63.8999 370.1 63.8999C366.8 63.8999 365 66.1999 364.7 70.8999H369.5L368.7 76.3999H363.8L359.5 106.9H352.1L356.4 76.3999H351.3L352.1 70.8999H357.2C357.7 66.5999 359 63.3999 361.1 61.1999C363.2 58.9999 365.9 57.8999 369.1 57.8999C371 57.8999 373 58.2999 375.1 59.0999Z" fill="white"/>
<path d="M411.2 65.7L410.2 71H415.7L414.7 76.5H409.2L407.7 84.6C407.6 85.3 407.5 85.9 407.5 86.5C407.5 88.7 408.2 89.8 409.7 89.8C410.6 89.8 412 89.3 414 88.3V94.9C411.8 96 409.7 96.5 407.6 96.5C405.2 96.5 403.3 95.7 401.9 94.2C400.5 92.7 399.8 90.7 399.8 88.2C399.8 87.4 399.9 86.7 400 86L401.8 76.5H396.7L397.6 71H402.7L403.6 65.7H411.2Z" fill="white"/>
<path d="M451.3 58.3999H463.3C467.4 58.3999 470.5 59.1999 472.6 60.8999C474.7 62.4999 475.8 64.7999 475.8 67.4999C475.8 71.1999 474 73.9999 470.3 75.8999C472.5 76.5999 474.2 77.6999 475.4 79.3999C476.6 81.0999 477.3 82.9999 477.3 85.0999C477.3 87.9999 476.1 90.4999 473.8 92.6999C471.5 94.8999 468.3 95.9999 464.4 95.9999H446L451.3 58.3999ZM456.4 79.1999L454.9 89.6999H462.5C464.7 89.6999 466.3 89.1999 467.5 88.1999C468.7 87.1999 469.2 85.8999 469.2 84.1999C469.2 82.5999 468.6 81.3999 467.3 80.4999C466 79.5999 464.3 79.1999 462.2 79.1999H456.4ZM458.5 64.6999L457.3 72.8999H462.7C464.4 72.8999 465.7 72.4999 466.6 71.6999C467.5 70.8999 468 69.7999 468 68.4999C468 65.9999 466.2 64.6999 462.7 64.6999H458.5Z" fill="white"/>
<path d="M522.6 70.5C526.2 70.5 529.2 71.6 531.5 73.8C533.8 76 535 78.8 535 82.3C535 86.3 533.6 89.6 530.9 92.4C528.2 95.1 524.8 96.5 520.8 96.5C517.2 96.5 514.3 95.3 511.8 93C509.4 90.7 508.2 87.8 508.2 84.4C508.2 80.6 509.6 77.4 512.5 74.6C515.2 71.9 518.6 70.5 522.6 70.5ZM520.8 90.4C522.7 90.4 524.2 89.5 525.4 87.8C526.6 86.1 527.2 84.2 527.2 82.1C527.2 80.5 526.7 79.1 525.8 78.1C524.9 77.1 523.7 76.6 522.2 76.6C520.2 76.6 518.6 77.5 517.5 79.3C516.4 81.1 515.8 82.9 515.8 84.9C515.8 86.6 516.3 87.9 517.3 88.9C518.4 89.9 519.5 90.4 520.8 90.4Z" fill="white"/>
<path d="M580.1 65.7L579.1 71H584.6L583.6 76.5H578.1L576.6 84.6C576.5 85.3 576.4 85.9 576.4 86.5C576.4 88.7 577.1 89.8 578.6 89.8C579.5 89.8 580.9 89.3 582.9 88.3V94.9C580.7 96 578.6 96.5 576.5 96.5C574.1 96.5 572.2 95.7 570.8 94.2C569.4 92.7 568.7 90.7 568.7 88.2C568.7 87.4 568.8 86.7 568.9 86L570.7 76.5H565.6L566.5 71H571.6L572.5 65.7H580.1Z" fill="white"/>
</g>
<defs>
<clipPath id="clip0_315_143">
<rect width="584.6" height="150.7" fill="white"/>
</clipPath>
</defs>
</svg>
