<svg width="55" height="55" viewBox="0 0 55 55" fill="none" xmlns="http://www.w3.org/2000/svg">
<path d="M27.5 0C20.2082 0 13.2086 2.8991 8.05664 8.05449C2.89937 13.2119 0.00142858 20.2064 0 27.5C0 34.7905 2.90039 41.7901 8.05664 46.9455C13.2086 52.1009 20.2082 55 27.5 55C34.7918 55 41.7914 52.1009 46.9434 46.9455C52.0996 41.7901 55 34.7905 55 27.5C55 20.2095 52.0996 13.2099 46.9434 8.05449C41.7914 2.8991 34.7918 0 27.5 0Z" fill="url(#paint0_linear_627_776)"/>
<path d="M12.4472 27.2096C20.4652 23.7171 25.8105 21.4144 28.4831 20.3019C36.123 17.1253 37.7085 16.5735 38.7441 16.5549C38.9718 16.5512 39.4788 16.6075 39.8097 16.875C40.0847 17.1006 40.162 17.4056 40.2007 17.6198C40.2351 17.8338 40.2824 18.3215 40.2437 18.7022C39.8312 23.0507 38.0394 33.6029 37.1285 38.4734C36.746 40.5342 35.9855 41.2251 35.2507 41.2926C33.6523 41.4396 32.4406 40.2373 30.8937 39.2237C28.4745 37.6368 27.1081 36.6494 24.7577 35.1012C22.0421 33.312 23.8038 32.3285 25.3507 30.7214C25.7546 30.3008 32.7929 23.9006 32.9261 23.3201C32.9433 23.2474 32.9605 22.9767 32.7972 22.8341C32.6382 22.691 32.4019 22.74 32.23 22.7787C31.9851 22.8337 28.1222 25.3894 20.6285 30.4456C19.5327 31.1992 18.5402 31.5666 17.6464 31.5473C16.6667 31.5262 14.7761 30.9921 13.371 30.5358C11.6523 29.9759 10.2816 29.6799 10.4019 28.729C10.462 28.234 11.1452 27.7274 12.4472 27.2096Z" fill="white"/>
<defs>
<linearGradient id="paint0_linear_627_776" x1="2750" y1="0" x2="2750" y2="5500" gradientUnits="userSpaceOnUse">
<stop stop-color="#2AABEE"/>
<stop offset="1" stop-color="#229ED9"/>
</linearGradient>
</defs>
</svg>
