<svg width="53" height="53" viewBox="0 0 53 53" fill="none" xmlns="http://www.w3.org/2000/svg">
<rect x="5.56836" y="37.583" width="4.45431" height="8.07343" fill="white"/>
<rect x="13.9199" y="28.6748" width="4.45431" height="16.1469" fill="white"/>
<rect x="22.2715" y="26.4473" width="4.45431" height="19.2092" fill="white"/>
<rect x="30.623" y="20.0444" width="4.45431" height="13.9197" fill="white"/>
<rect x="38.9756" y="14.7549" width="4.45431" height="17.8172" fill="white"/>
<path d="M44.4829 0C45.0942 0.270111 45.3075 0.73925 45.3075 1.3932C45.279 3.59674 45.2933 5.81449 45.2933 8.01802C45.2933 8.11754 45.2933 8.21705 45.2933 8.33078C45.2506 9.01317 44.8099 9.46809 44.2128 9.46809C43.6157 9.45387 43.175 8.98473 43.1608 8.30235C43.1466 6.96601 43.1608 5.62967 43.1608 4.29334C43.1608 4.12274 43.1608 3.96636 43.1608 3.69625C42.9618 3.88106 42.8196 3.99479 42.6917 4.12274C38.8532 7.96116 35.0148 11.7996 31.1764 15.638C30.3234 16.491 29.9254 16.491 29.0866 15.638C27.9635 14.5149 26.8404 13.3776 25.7173 12.2403C25.6036 12.1265 25.4757 12.0128 25.3193 11.8564C23.855 13.3207 22.4334 14.7708 20.9833 16.2066C15.9649 21.2392 10.9465 26.2718 5.91396 31.276C5.64385 31.5461 5.23158 31.7878 4.87617 31.802C4.57762 31.8162 4.19378 31.5319 3.98054 31.2618C3.72464 30.949 3.79572 30.5509 4.0374 30.2097C4.13692 30.0534 4.27908 29.9254 4.42124 29.7975C11.0461 23.1727 17.6709 16.5478 24.2815 9.93723C25.0918 9.1269 25.5894 9.1269 26.4139 9.93723C27.6223 11.1314 28.8165 12.3256 30.0249 13.5197C30.0533 13.5482 30.0818 13.5482 30.1244 13.5766C33.8917 9.76663 37.6591 5.94243 41.398 2.14667C41.1989 2.14667 40.872 2.14667 40.545 2.14667C39.4645 2.14667 38.3841 2.14667 37.3037 2.14667C36.4933 2.14667 36.0811 1.90499 35.9247 1.33634C35.7683 0.796116 36.01 0.398058 36.6781 0C39.2797 0 41.8813 0 44.4829 0Z" fill="white"/>
<path d="M36.081 31.7166C36.7918 31.6313 37.4315 31.546 38.1139 31.4607C38.1139 31.2474 38.1139 31.0342 38.1139 30.8352C38.1139 25.504 38.1139 20.1871 38.1139 14.856C38.1139 13.8324 38.4409 13.4912 39.4502 13.4912C40.6586 13.4912 41.8812 13.4912 43.1038 13.4912C44.0563 13.4912 44.3833 13.8324 44.3833 14.7991C44.3833 20.7558 44.3833 26.7124 44.3691 32.6691C44.3691 33.124 44.497 33.3941 44.8525 33.6926C48.3355 36.5644 49.7144 40.2606 48.6056 44.625C47.4967 49.0179 44.497 51.6763 40.0331 52.444C34.0338 53.4676 28.4752 49.0605 27.9066 43.0044C27.6791 40.5591 28.262 38.3414 29.5557 36.2658C29.6978 36.0383 29.7831 35.7256 29.7831 35.4555C29.7973 30.4513 29.7973 25.4614 29.7973 20.4572C29.7973 19.3341 30.1243 19.0214 31.2332 19.0072C32.4131 19.0072 33.5931 19.0072 34.7731 19.0072C35.7113 19.0072 36.0667 19.3768 36.081 20.3151C36.081 23.8976 36.081 27.4659 36.081 31.0484C36.081 31.2759 36.081 31.4749 36.081 31.7166ZM38.4267 50.4537C43.0896 50.4395 46.8427 46.6864 46.8427 42.0234C46.8427 37.3747 43.047 33.5931 38.3982 33.6073C33.7779 33.6216 29.9964 37.4173 29.9964 42.0803C29.9964 46.6864 33.8063 50.4679 38.4267 50.4537ZM42.2082 32.1431C42.2082 26.6413 42.2082 21.1538 42.2082 15.6663C41.54 15.6663 40.9145 15.6663 40.2464 15.6663C40.2464 15.908 40.2464 16.107 40.2464 16.306C40.2464 21.1254 40.2464 25.959 40.2464 30.7783C40.2464 30.9773 40.2179 31.1906 40.2606 31.3896C40.289 31.5033 40.4027 31.6597 40.5022 31.6881C41.0567 31.8587 41.6253 31.9867 42.2082 32.1431ZM31.9724 21.1823C31.9724 25.3619 31.9724 29.4846 31.9724 33.6358C32.5269 33.3088 33.0102 32.9676 33.5505 32.7117C33.8916 32.5553 33.9627 32.3421 33.9627 32.0009C33.9485 28.5605 33.9627 25.1344 33.9627 21.694C33.9627 21.5235 33.9627 21.3671 33.9627 21.1823C33.2661 21.1823 32.6406 21.1823 31.9724 21.1823Z" fill="white"/>
<path d="M27.7787 35.8109C27.7787 38.8959 27.7787 41.9808 27.7787 45.0516C27.7787 46.1462 27.4376 46.4874 26.3287 46.4874C25.1487 46.4874 23.9688 46.4874 22.7888 46.4874C21.8932 46.4874 21.4951 46.0893 21.4951 45.1937C21.4951 38.9243 21.4951 32.6691 21.4951 26.3997C21.4951 25.4899 21.8932 25.0918 22.8172 25.0918C24.0256 25.0918 25.2482 25.0918 26.4566 25.0918C27.3807 25.0918 27.7645 25.4756 27.7645 26.4139C27.793 29.5415 27.7787 32.6833 27.7787 35.8109ZM25.6321 44.3407C25.6321 38.6115 25.6321 32.9392 25.6321 27.2669C24.9497 27.2669 24.31 27.2669 23.6702 27.2669C23.6702 32.9819 23.6702 38.6542 23.6702 44.3407C24.3242 44.3407 24.9497 44.3407 25.6321 44.3407Z" fill="white"/>
<path d="M19.391 36.9909C19.391 39.6494 19.391 42.2936 19.391 44.9521C19.391 46.0325 19.0356 46.3879 17.941 46.3879C16.7752 46.3879 15.6095 46.3879 14.4438 46.3879C13.477 46.3879 13.1074 46.0183 13.1074 45.0516C13.1074 39.6636 13.1074 34.2756 13.1074 28.8876C13.1074 27.9209 13.477 27.5513 14.4438 27.5513C15.6379 27.5513 16.8463 27.5513 18.0405 27.5513C18.993 27.5513 19.391 27.9351 19.391 28.8876C19.391 31.5887 19.391 34.2898 19.391 36.9909ZM15.2541 29.6979C15.2541 34.6026 15.2541 39.4504 15.2541 44.3408C15.9223 44.3408 16.562 44.3408 17.2159 44.3408C17.2159 39.4504 17.2159 34.5884 17.2159 29.6979C16.562 29.6979 15.9223 29.6979 15.2541 29.6979Z" fill="white"/>
<path d="M4.70554 41.4975C4.70554 40.3033 4.70554 39.1091 4.70554 37.9007C4.70554 37.1046 5.1036 36.6924 5.89971 36.6781C7.1934 36.6639 8.5013 36.6639 9.79499 36.6781C10.5485 36.6924 10.9749 37.1046 10.9749 37.8723C10.9892 40.3175 10.9892 42.7627 10.9749 45.208C10.9749 45.9188 10.5769 46.3453 9.88029 46.3595C8.51552 46.3879 7.15075 46.3879 5.77176 46.3595C5.08938 46.3453 4.71975 45.933 4.70554 45.2364C4.69132 43.9996 4.70554 42.7485 4.70554 41.4975ZM8.79985 44.355C8.79985 42.4926 8.79985 40.6729 8.79985 38.8675C8.13168 38.8675 7.49194 38.8675 6.86642 38.8675C6.86642 40.7156 6.86642 42.5353 6.86642 44.355C7.53459 44.355 8.14589 44.355 8.79985 44.355Z" fill="white"/>
<path d="M37.5595 47.9945C36.2942 47.568 35.427 46.7577 35.0858 45.464C35.0148 45.1797 34.9863 44.8954 34.9863 44.5968C34.9863 44.0282 35.3844 43.6159 35.9246 43.559C36.4648 43.5164 36.9624 43.9002 37.0619 44.4547C37.1046 44.6679 37.1046 44.8954 37.1899 45.1086C37.4173 45.7199 38.0286 46.0327 38.6826 45.9189C39.2797 45.8052 39.7346 45.265 39.7488 44.6537C39.763 44.0139 39.3081 43.4453 38.6826 43.3316C38.3272 43.2605 37.9575 43.2747 37.6164 43.1894C36.1521 42.834 35.1143 41.6114 35.0148 40.1187C34.901 38.5833 35.7114 37.2043 37.133 36.6499C37.5311 36.4935 37.6306 36.2945 37.6164 35.8964C37.5879 35.1429 38.0286 34.6454 38.6541 34.6312C39.2939 34.6169 39.7488 35.1145 39.7204 35.868C39.7062 36.3656 39.8483 36.6357 40.3032 36.9058C41.27 37.4602 41.7675 38.3701 41.9097 39.4647C42.0092 40.2466 41.6254 40.8011 40.9856 40.8721C40.3317 40.9574 39.8767 40.5167 39.7772 39.7206C39.7062 39.1235 39.3223 38.6686 38.7963 38.5264C38.2419 38.3843 37.659 38.6117 37.3462 39.0667C37.0193 39.55 37.0335 40.1471 37.3747 40.602C37.6874 41.0285 38.1281 41.1422 38.6257 41.1849C39.9905 41.2702 40.9998 41.9241 41.5827 43.161C42.1656 44.3836 42.0234 45.592 41.2273 46.7008C41.0851 46.8999 40.943 47.0989 40.7439 47.2268C40.1611 47.6249 39.5924 47.9661 39.6066 48.8333C39.6209 49.2598 38.9953 49.5583 38.5262 49.5015C38.0571 49.4446 37.659 49.075 37.6021 48.6058C37.5737 48.421 37.5737 48.2078 37.5595 47.9945Z" fill="white"/>
</svg>
