<svg width="25" height="25" viewBox="0 0 25 25" fill="none" xmlns="http://www.w3.org/2000/svg">
<path d="M14.5805 5.6738H4.3485C4.01887 5.6738 3.75073 5.40566 3.75073 5.07604C3.75073 4.74641 4.01887 4.47827 4.3485 4.47827H14.5822C14.9118 4.47827 15.18 4.74641 15.18 5.07604C15.18 5.40566 14.9101 5.6738 14.5805 5.6738Z" fill="#7A7676"/>
<path d="M14.5805 10.5412H4.3485C4.01887 10.5412 3.75073 10.2731 3.75073 9.94347C3.75073 9.61384 4.01887 9.3457 4.3485 9.3457H14.5822C14.9118 9.3457 15.18 9.61384 15.18 9.94347C15.18 10.2731 14.9101 10.5412 14.5805 10.5412Z" fill="#7A7676"/>
<path d="M9.46364 16.0798H4.3485C4.01887 16.0798 3.75073 15.8117 3.75073 15.482C3.75073 15.1524 4.01887 14.8843 4.3485 14.8843H9.46535C9.79497 14.8843 10.0631 15.1524 10.0631 15.482C10.0631 15.8117 9.79497 16.0798 9.46364 16.0798Z" fill="#7A7676"/>
<path d="M18.9286 11.7008V2.13999C18.9286 0.959837 17.9688 0 16.7903 0H2.13829C0.959837 0 0 0.959837 0 2.13999V18.9423C0 20.1207 0.959837 21.0806 2.13829 21.0806H11.9228C13.0125 23.1198 15.1627 24.51 17.6323 24.51C21.2001 24.51 24.1035 21.6083 24.1035 18.0405C24.1035 14.9168 21.8781 12.3037 18.9286 11.7008ZM11.4309 19.885H2.13829C1.61908 19.885 1.19553 19.4615 1.19553 18.9423V2.13999C1.19553 1.61909 1.61908 1.19553 2.13829 1.19553H16.7903C17.3095 1.19553 17.7331 1.61909 17.7331 2.13999V11.5727C17.6989 11.571 17.6665 11.571 17.6323 11.571C14.0645 11.571 11.1628 14.4727 11.1628 18.0405C11.1628 18.681 11.2567 19.3009 11.4309 19.885ZM17.6323 23.3145C15.8544 23.3145 14.2797 22.4315 13.3233 21.0806C13.0637 20.7134 12.8502 20.312 12.6914 19.885C12.4762 19.3112 12.3583 18.6895 12.3583 18.0405C12.3583 15.132 14.7238 12.7665 17.6323 12.7665C17.6665 12.7665 17.6989 12.7665 17.7331 12.7682C18.1447 12.7751 18.546 12.8297 18.9286 12.9271C21.2121 13.506 22.908 15.5794 22.908 18.0405C22.908 20.949 20.5409 23.3145 17.6323 23.3145Z" fill="#7A7676"/>
<path d="M20.3649 19.236H17.3419C17.0123 19.236 16.7441 18.9679 16.7441 18.6382V15.482C16.7441 15.1524 17.0123 14.8843 17.3419 14.8843C17.6715 14.8843 17.9397 15.1524 17.9397 15.482V18.0405H20.3649C20.6945 18.0405 20.9626 18.3086 20.9626 18.6382C20.9626 18.9679 20.6962 19.236 20.3649 19.236Z" fill="#7A7676"/>
</svg>
