<svg width="55" height="55" viewBox="0 0 55 55" fill="none" xmlns="http://www.w3.org/2000/svg">
<path d="M38.0415 13.3375C36.475 11.5491 35.6117 9.25245 35.6124 6.875H28.5311V35.2917C28.4765 36.8294 27.8273 38.286 26.7202 39.3546C25.6131 40.4233 24.1344 41.0206 22.5957 41.0208C19.3415 41.0208 16.6374 38.3625 16.6374 35.0625C16.6374 31.1208 20.4415 28.1646 24.3603 29.3792V22.1375C16.454 21.0833 9.5332 27.225 9.5332 35.0625C9.5332 42.6938 15.8582 48.125 22.5728 48.125C29.7686 48.125 35.6124 42.2812 35.6124 35.0625V20.6479C38.4838 22.7101 41.9313 23.8165 45.4665 23.8104V16.7292C45.4665 16.7292 41.1582 16.9354 38.0415 13.3375Z" fill="black"/>
</svg>
