<svg width="68" height="55" viewBox="0 0 68 55" fill="none" xmlns="http://www.w3.org/2000/svg">
<path d="M60.7576 13.6919C60.7989 14.2889 60.7989 14.8854 60.7989 15.4877C60.7989 33.8372 46.8294 55 21.2865 55V54.9894C13.7405 55 6.35091 52.8386 0 48.7633C1.09727 48.8955 2.19983 48.9616 3.30503 48.9642C9.55927 48.9692 15.6336 46.8716 20.552 43.0083C17.6541 42.9535 14.8458 41.9946 12.5197 40.2655C10.1936 38.5364 8.46591 36.1236 7.57831 33.3645C9.66021 33.7664 11.805 33.6833 13.8484 33.1249C7.36943 31.8161 2.70854 26.1241 2.70854 19.5135V19.3374C4.6399 20.4133 6.80152 21.0095 9.01137 21.0756C2.90843 16.9974 1.02853 8.87972 4.71324 2.53353C8.1996 6.82355 12.5494 10.3322 17.4801 12.8316C22.4108 15.3311 27.8121 16.7653 33.3332 17.0413C32.7829 14.6716 32.8644 12.199 33.5695 9.87061C34.2745 7.54227 35.5786 5.43984 37.3511 3.77358C42.9443 -1.48433 51.741 -1.21464 56.9983 4.37589C60.1083 3.76181 63.0908 2.62156 65.8172 1.00423C64.7805 4.21973 62.6111 6.94925 59.7127 8.68512C62.4655 8.36056 65.1537 7.62343 67.6871 6.49851C65.8235 9.28935 63.4769 11.7253 60.7576 13.6919Z" fill="#1D9BF0"/>
</svg>
