<svg width="59" height="42" viewBox="0 0 59 42" fill="none" xmlns="http://www.w3.org/2000/svg">
<path d="M23.6 29.5L38.9105 20.65L23.6 11.8V29.5ZM57.702 6.4015C58.0855 7.788 58.351 9.6465 58.528 12.0065C58.7345 14.3665 58.823 16.402 58.823 18.172L59 20.65C59 27.1105 58.528 31.86 57.702 34.8985C56.9645 37.5535 55.2535 39.2645 52.5985 40.002C51.212 40.3855 48.675 40.651 44.781 40.828C40.946 41.0345 37.4355 41.123 34.1905 41.123L29.5 41.3C17.1395 41.3 9.44 40.828 6.4015 40.002C3.7465 39.2645 2.0355 37.5535 1.298 34.8985C0.9145 33.512 0.649 31.6535 0.472 29.2935C0.2655 26.9335 0.177 24.898 0.177 23.128L0 20.65C0 14.1895 0.472 9.44 1.298 6.4015C2.0355 3.7465 3.7465 2.0355 6.4015 1.298C7.788 0.9145 10.325 0.649 14.219 0.472C18.054 0.2655 21.5645 0.177 24.8095 0.177L29.5 0C41.8605 0 49.56 0.472 52.5985 1.298C55.2535 2.0355 56.9645 3.7465 57.702 6.4015Z" fill="#FE0002"/>
</svg>
