<svg width="30" height="30" viewBox="0 0 30 30" fill="none" xmlns="http://www.w3.org/2000/svg">
<path d="M15 30C23.2843 30 30 23.2843 30 15C30 6.71573 23.2843 0 15 0C6.71573 0 0 6.71573 0 15C0 23.2843 6.71573 30 15 30Z" fill="#00C48B"/>
<path d="M19.8815 9.87557C19.154 8.02682 17.3296 7.85994 15.2053 8.27244L14.4487 5.63525L12.8437 6.09557L13.5806 8.66432C13.1587 8.78432 12.7293 8.91744 12.3028 9.04869L11.5621 6.46307L9.95808 6.92244L10.7128 9.55963C10.3678 9.6665 10.0284 9.7715 9.69558 9.86713L9.69277 9.85775L7.47839 10.4924L7.97058 12.2081C7.97058 12.2081 9.14996 11.8443 9.13589 11.8724C9.78652 11.6859 10.1062 12.0028 10.2609 12.3112L11.1234 15.3149C11.1675 15.3028 11.2265 15.2878 11.2959 15.2774L11.1262 15.3262L12.3328 19.5356C12.3628 19.7484 12.3365 20.1093 11.8828 20.2406C11.9081 20.2528 10.7146 20.5743 10.7146 20.5743L10.9462 22.5834L13.035 21.9834C13.424 21.8737 13.8084 21.7706 14.1843 21.6646L14.9503 24.3318L16.5534 23.8724L15.7968 21.2334C16.2269 21.1193 16.6556 21.0005 17.0831 20.8771L17.835 23.5049L19.4409 23.0446L18.6778 20.3821C21.3318 19.4531 23.0259 18.2315 22.5337 15.629C22.1381 13.5346 20.9175 12.899 19.2796 12.9703C20.0746 12.2296 20.4168 11.2284 19.8815 9.8765V9.87557ZM19.2721 16.2224C19.844 18.2165 16.3659 18.9684 15.2784 19.2815L14.265 15.7471C15.3525 15.4349 18.675 14.144 19.2712 16.2234L19.2721 16.2224ZM17.0953 11.4506C17.6146 13.2646 14.7075 13.8693 13.8009 14.129L12.8821 10.9237C13.7878 10.664 16.5525 9.55963 17.0953 11.4515V11.4506Z" fill="white"/>
</svg>
