<svg width="30" height="30" viewBox="0 0 30 30" fill="none" xmlns="http://www.w3.org/2000/svg">
<circle cx="15" cy="15" r="15" fill="#F7931A"/>
<path d="M22.1635 13.1107C22.4574 11.0971 20.9411 10.0074 18.8489 9.28491L19.5306 6.54882L17.885 6.13426L17.2268 8.79929C16.7919 8.69268 16.3452 8.58608 15.8986 8.49133L16.5568 5.81446L14.9112 5.3999L14.2412 8.12415C13.8769 8.04123 13.5242 7.95832 13.1834 7.87541V7.86357L10.9031 7.29503L10.4682 9.07171C10.4682 9.07171 11.6906 9.35598 11.6671 9.36782C12.3371 9.53365 12.4546 9.98374 12.4311 10.3391L11.6553 13.4542C11.7024 13.466 11.7611 13.4779 11.8316 13.5134C11.7729 13.5016 11.7141 13.4897 11.6553 13.466L10.574 17.8248C10.4917 18.0262 10.2801 18.3341 9.8217 18.2157C9.83345 18.2394 8.62278 17.9196 8.62278 17.9196L7.79999 19.8266L9.95099 20.3714C10.3506 20.478 10.7385 20.5728 11.1264 20.6794L10.4447 23.4391L12.0902 23.8537L12.772 21.1176C13.2186 21.2361 13.6653 21.3545 14.0884 21.4611L13.4185 24.1853L15.064 24.5999L15.7458 21.8401C18.5668 22.3731 20.6825 22.1599 21.5641 19.5897C22.2811 17.5287 21.5288 16.3324 20.0478 15.5507C21.1409 15.3019 21.9519 14.5794 22.1635 13.1107V13.1107ZM18.3904 18.4407C17.885 20.5017 14.4293 19.3883 13.3127 19.104L14.2177 15.4441C15.3344 15.7283 18.9311 16.285 18.3904 18.4407ZM18.9076 13.0752C18.4375 14.9584 15.5695 13.999 14.6409 13.7621L15.4637 10.4457C16.3922 10.6826 19.3895 11.1208 18.9076 13.0752Z" fill="white"/>
</svg>
