<svg width="30" height="30" viewBox="0 0 30 30" fill="none" xmlns="http://www.w3.org/2000/svg">
<rect width="30" height="30" rx="15" fill="#F3BA2F"/>
<path d="M11.5043 13.5637L15 10.068L18.4974 13.5653L20.5314 11.5313L15 6L9.4704 11.5296L11.5043 13.5636L11.5043 13.5637ZM6 15L8.03407 12.9656L10.068 14.9996L8.03393 17.0336L6 15ZM11.5043 16.4365L15 19.932L18.4973 16.4348L20.5324 18.4677L20.5314 18.4688L15 24L9.4704 18.4704L9.46752 18.4675L11.5045 16.4363L11.5043 16.4365ZM19.932 15.0009L21.9661 12.9668L24 15.0007L21.966 17.0348L19.932 15.0009Z" fill="white"/>
<path d="M17.0626 14.9985H17.0634L14.9996 12.9346L13.4741 14.4596L13.2989 14.6349L12.9375 14.9964L12.9346 14.9992L12.9375 15.0022L14.9996 17.0646L17.0636 15.0007L17.0646 14.9995L17.0627 14.9985" fill="white"/>
</svg>
