<svg width="30" height="30" viewBox="0 0 30 30" fill="none" xmlns="http://www.w3.org/2000/svg">
<path d="M15 30C23.2843 30 30 23.2843 30 15C30 6.71573 23.2843 0 15 0C6.71573 0 0 6.71573 0 15C0 23.2843 6.71573 30 15 30Z" fill="#C3A634"/>
<path fill-rule="evenodd" clip-rule="evenodd" d="M12.42 13.6969H16.4644V15.84H12.42V20.3569H14.9709C15.9806 20.3569 16.8066 20.2209 17.4497 19.9472C18.0928 19.6744 18.5972 19.2966 18.9638 18.8128C19.3387 18.3098 19.5939 17.7278 19.71 17.1113C19.8454 16.4158 19.9114 15.7085 19.9069 15C19.9114 14.2915 19.8454 13.5842 19.71 12.8888C19.594 12.2722 19.3388 11.6902 18.9638 11.1872C18.5972 10.7034 18.0919 10.3256 17.4497 10.0528C16.8066 9.77906 15.9806 9.64313 14.9709 9.64313H12.42V13.6978V13.6969ZM9.82688 15.84H8.4375V13.6978H9.82688V7.5H15.9666C17.1009 7.5 18.0825 7.69687 18.9122 8.08781C19.7419 8.48062 20.4187 9.01594 20.9447 9.69563C21.4697 10.3744 21.8606 11.1694 22.1166 12.0797C22.3725 12.99 22.5 13.9641 22.5 15C22.5064 15.9865 22.3771 16.9691 22.1156 17.9203C21.8606 18.8297 21.4697 19.6256 20.9438 20.3044C20.4188 20.9841 19.7419 21.5194 18.9122 21.9122C18.0825 22.3041 17.1 22.5 15.9666 22.5H9.82688V15.84V15.84Z" fill="white"/>
</svg>
