<svg width="30" height="30" viewBox="0 0 30 30" fill="none" xmlns="http://www.w3.org/2000/svg">
<path d="M15 30C23.2843 30 30 23.2843 30 15C30 6.71573 23.2843 0 15 0C6.71573 0 0 6.71573 0 15C0 23.2843 6.71573 30 15 30Z" fill="#328332"/>
<path d="M14.9897 15.5184L8.68875 14.9775L14.9887 11.4131V15.5184H14.9897ZM14.9897 19.6997V26.2059C12.7988 22.7953 10.3837 19.0416 8.4375 16.0031C10.7344 17.2969 13.1325 18.6497 14.9897 19.7006V19.6997ZM14.9897 10.2609L8.4375 13.9172L14.9897 3.75V10.2609V10.2609Z" fill="white"/>
<path d="M21.2906 14.9775L14.9897 15.5184V11.4131L21.2897 14.9775H21.2906ZM14.9897 19.7006C16.8459 18.6506 19.2431 17.2969 21.5409 16.0031C19.5947 19.0425 17.1797 22.7962 14.9897 26.205V19.7006V19.7006ZM14.9897 10.2609V3.75L21.5409 13.9172L14.9897 10.2609V10.2609Z" fill="white" fill-opacity="0.601"/>
<path opacity="0.2" fill-rule="evenodd" clip-rule="evenodd" d="M14.9897 15.5185L21.2897 14.9775L14.9897 18.5166V15.5185Z" fill="white"/>
<path opacity="0.603" fill-rule="evenodd" clip-rule="evenodd" d="M14.9888 15.5185L8.68787 14.9775L14.9888 18.5166V15.5185Z" fill="white"/>
</svg>
