<svg width="31" height="31" viewBox="0 0 31 31" fill="none" xmlns="http://www.w3.org/2000/svg">
<path d="M15.5 30.5C23.7843 30.5 30.5 23.7843 30.5 15.5C30.5 7.21573 23.7843 0.5 15.5 0.5C7.21573 0.5 0.5 7.21573 0.5 15.5C0.5 23.7843 7.21573 30.5 15.5 30.5Z" fill="white" stroke="#EAEDF0"/>
<path d="M17.9242 11.0481C17.9242 8.25694 16.4632 5.85658 15.3518 5.07503C15.3473 5.07247 15.2667 5.03048 15.2735 5.142C15.2737 5.14351 15.2722 5.14396 15.2722 5.14531C15.1797 10.5346 12.2212 11.9952 10.5948 13.9629C6.84122 18.5035 10.3321 23.4818 13.8867 24.4019C15.8758 24.9167 13.4274 23.4909 13.112 20.4795C12.7308 16.8396 17.9242 14.0613 17.9242 11.0481Z" fill="#1C2143"/>
<path d="M19.8742 12.8829C19.85 12.8685 19.8155 12.8585 19.7916 12.893C19.7262 13.5716 18.9315 15.0226 17.9241 16.3552C14.5075 20.8752 16.4545 23.0538 17.5494 24.2241C18.185 24.9035 17.5494 24.2241 19.1382 23.5299C19.2629 23.4755 22.2385 22.0203 22.5608 18.7049C22.8728 15.4946 20.6614 13.4709 19.8742 12.8829Z" fill="#3C7AD2"/>
</svg>
