<svg width="30" height="30" viewBox="0 0 30 30" fill="none" xmlns="http://www.w3.org/2000/svg">
<path fill-rule="evenodd" clip-rule="evenodd" d="M29.8701 14.9351C29.8701 23.1833 23.1836 29.8701 14.9346 29.8701C6.68652 29.8701 0 23.1833 0 14.9351C0 6.68652 6.68652 0 14.9346 0C23.1836 0 29.8701 6.68652 29.8701 14.9351ZM23.9932 9.36108C23.9932 9.17896 23.8438 9.03052 23.6621 9.03052H21.9424C21.8047 9.03052 21.6797 9.11768 21.6318 9.24683L19.7715 14.302C19.4336 15.2576 19.1729 16.05 18.9648 16.7471C18.8516 16.3467 18.7217 15.9175 18.5713 15.447C18.457 15.0908 18.332 14.7112 18.1943 14.302L16.4131 9.25146C16.3662 9.11914 16.2412 9.03076 16.1016 9.03076H14.3809C14.1992 9.03076 14.0508 9.17871 14.0508 9.3606L14.0264 19.8042C14.0264 19.8936 14.0605 19.9763 14.123 20.0371C14.1855 20.1003 14.2686 20.1345 14.3574 20.1345L15.4229 20.1348V19.9766L15.4268 20.1345C15.6094 20.1345 15.7578 19.9866 15.7578 19.8042L15.7568 19.7771L15.751 19.7375L15.75 13.0344C15.9189 13.5837 16.1143 14.1877 16.3467 14.875L18.0439 19.8494C18.0625 19.9019 18.0928 19.9475 18.1318 19.9836C18.1914 20.0393 18.2715 20.0725 18.3564 20.0725H19.3799C19.5186 20.0725 19.6436 19.9849 19.6895 19.8547L21.5254 14.7893C21.793 14.0581 22.0312 13.376 22.2471 12.7271L22.2451 19.8042C22.2451 19.8928 22.2793 19.9756 22.3418 20.0378C22.4043 20.1003 22.4863 20.1345 22.5752 20.1345H23.6689C23.7578 20.1345 23.8408 20.1003 23.9023 20.0378C23.9658 19.9753 24 19.8928 24 19.8042L23.9932 9.36108ZM11.9033 12.061C11.9033 13.3433 11.5098 14.1614 10.457 15.0442L12.2754 19.9072C12.292 19.9524 12.2861 20.0037 12.2588 20.0432C12.2305 20.0828 12.1855 20.1069 12.1367 20.1069H10.7041C10.6416 20.1069 10.5859 20.0674 10.5654 20.009L8.91699 15.457H6.68066V19.9585C6.68066 20.0403 6.61426 20.1067 6.53223 20.1067H5.14844C5.06543 20.1067 5 20.0403 5 19.9585V9.15649C5 9.0752 5.06543 9.00879 5.14746 9.00854L7.80566 9C9.32422 9 10.3125 9.28223 11.0107 9.91382C11.5859 10.4211 11.9033 11.1838 11.9033 12.061ZM6.68066 14.1106H7.9502C9.33008 14.1106 10.2227 13.3691 10.2227 12.2207C10.2227 10.7061 8.96094 10.3743 7.90137 10.3625L6.68066 10.3638V14.1106Z" fill="black"/>
</svg>
