<svg width="30" height="30" viewBox="0 0 30 30" fill="none" xmlns="http://www.w3.org/2000/svg">
<path fill-rule="evenodd" clip-rule="evenodd" d="M29.8701 14.9351C29.8701 23.1833 23.1836 29.8701 14.9346 29.8701C6.68652 29.8701 0 23.1833 0 14.9351C0 6.68652 6.68652 0 14.9346 0C23.1836 0 29.8701 6.68652 29.8701 14.9351ZM21.125 8.75V8C21.125 7.44775 20.6777 7 20.125 7C19.5723 7 19.125 7.44775 19.125 8V8.7522C18.209 8.78369 17.3369 9.16138 16.6865 9.81177C16.0068 10.4915 15.625 11.4136 15.625 12.375C15.625 13.3364 16.0068 14.2585 16.6865 14.9382C17.3662 15.6182 18.2891 16 19.25 16H20.125C20.333 16 20.5381 16.04 20.7285 16.116C20.9307 16.1968 21.1172 16.3186 21.2744 16.4758C21.5791 16.7808 21.75 17.1941 21.75 17.625C21.75 18.0559 21.5791 18.4692 21.2744 18.7742C21.166 18.8828 21.0439 18.9746 20.9111 19.0476C20.7549 19.1338 20.584 19.1941 20.4082 19.2253L20.2812 19.2424L20.1875 19.2488L20.125 19.25H19.25H16.625C16.2305 19.25 15.8896 19.4785 15.7266 19.8105C15.6611 19.9431 15.625 20.0923 15.625 20.25C15.625 20.8022 16.0723 21.25 16.625 21.25H18.25V22C18.25 22.2498 18.3418 22.478 18.4932 22.6533C18.6758 22.8655 18.9473 23 19.25 23C19.5938 23 19.8965 22.8267 20.0771 22.563C20.1865 22.4026 20.25 22.2087 20.25 22V21.2478C20.709 21.2319 21.1572 21.1292 21.5713 20.9487C21.9844 20.7693 22.3643 20.5127 22.6885 20.1882C23.3682 19.5085 23.75 18.5864 23.75 17.625C23.75 17.1702 23.6641 16.7241 23.502 16.3083C23.3223 15.8452 23.0469 15.4199 22.6885 15.0618C22.0088 14.3818 21.0859 14 20.125 14H19.25C19.0723 14 18.8975 13.9709 18.7314 13.9153C18.6182 13.8772 18.5088 13.8267 18.4062 13.7644C18.2959 13.6973 18.1934 13.6169 18.1006 13.5242C17.7959 13.2192 17.625 12.8059 17.625 12.375C17.625 11.9441 17.7959 11.5308 18.1006 11.2258C18.4053 10.9211 18.8193 10.75 19.25 10.75H20.125H22.75C23.0156 10.75 23.2568 10.6465 23.4355 10.4778C23.6289 10.2954 23.75 10.0369 23.75 9.75C23.75 9.19775 23.3027 8.75 22.75 8.75H21.125ZM9.625 8.75C8.66406 8.75 7.74121 9.13184 7.06152 9.81177C6.7373 10.1365 6.48047 10.5164 6.30078 10.9294C6.10449 11.3813 6 11.8728 6 12.375C6 13.3364 6.38184 14.2585 7.06152 14.9382C7.74121 15.6182 8.66406 16 9.625 16H10.5C10.7305 16 10.957 16.0493 11.1641 16.1418C11.3428 16.2219 11.5078 16.3345 11.6494 16.4758C11.9541 16.7808 12.125 17.1941 12.125 17.625C12.125 18.0559 11.9541 18.4692 11.6494 18.7742C11.3447 19.0789 10.9307 19.25 10.5 19.25H7C6.44727 19.25 6 19.6978 6 20.25C6 20.8022 6.44727 21.25 7 21.25H10.5C10.7646 21.25 11.0264 21.2212 11.2803 21.165C11.6338 21.0872 11.9727 20.9568 12.2871 20.7788C12.5684 20.6191 12.8301 20.4211 13.0635 20.1882C13.7432 19.5085 14.125 18.5864 14.125 17.625C14.125 17.0427 13.9844 16.4746 13.7227 15.9663C13.5527 15.6355 13.3311 15.3298 13.0635 15.0618C12.3838 14.3818 11.4609 14 10.5 14H9.625C9.19434 14 8.78027 13.8289 8.47559 13.5242C8.1709 13.2192 8 12.8059 8 12.375C8 12.2202 8.02246 12.0679 8.06445 11.9219C8.13965 11.6614 8.28027 11.4214 8.47559 11.2258C8.78027 10.9211 9.19434 10.75 9.625 10.75H13.125C13.6777 10.75 14.125 10.3022 14.125 9.75C14.125 9.60376 14.0938 9.4646 14.0371 9.33936C13.9883 9.23242 13.9219 9.1355 13.8418 9.05249C13.6602 8.86597 13.4062 8.75 13.125 8.75H9.625Z" fill="black"/>
</svg>
