<svg width="30" height="31" viewBox="0 0 30 31" fill="none" xmlns="http://www.w3.org/2000/svg">
<path d="M13.4395 20.1616H13.3633C12.9875 20.1616 12.627 20.0123 12.3613 19.7465C12.0955 19.4808 11.9462 19.1203 11.9462 18.7445C11.9462 18.3484 11.7889 17.9686 11.5088 17.6886C11.2288 17.4085 10.849 17.2512 10.4529 17.2512C10.0569 17.2512 9.67705 17.4085 9.39701 17.6886C9.11697 17.9686 8.95964 18.3484 8.95964 18.7445C8.95964 19.9124 9.4236 21.0325 10.2494 21.8583C11.0753 22.6842 12.1954 23.1481 13.3633 23.1481H13.4395V24.6414C13.4395 25.0374 13.5968 25.4173 13.8768 25.6973C14.1569 25.9773 14.5367 26.1347 14.9327 26.1347C15.3288 26.1347 15.7086 25.9773 15.9886 25.6973C16.2687 25.4173 16.426 25.0374 16.426 24.6414V23.1481C17.6141 23.1481 18.7536 22.6761 19.5937 21.836C20.4339 20.9959 20.9058 19.8564 20.9058 18.6683C20.9058 17.4802 20.4339 16.3407 19.5937 15.5006C18.7536 14.6605 17.6141 14.1885 16.426 14.1885V11.2019H16.4589C17.2652 11.2019 17.9193 11.856 17.9193 12.6624C17.9193 13.0584 18.0766 13.4382 18.3567 13.7183C18.6367 13.9983 19.0165 14.1556 19.4126 14.1556C19.8086 14.1556 20.1884 13.9983 20.4685 13.7183C20.7485 13.4382 20.9058 13.0584 20.9058 12.6624C20.9058 11.483 20.4373 10.3518 19.6033 9.51788C18.7694 8.68391 17.6383 8.21539 16.4589 8.21539H16.426V6.72212C16.426 6.32608 16.2687 5.94626 15.9886 5.66621C15.7086 5.38617 15.3288 5.22884 14.9327 5.22884C14.5367 5.22884 14.1569 5.38617 13.8768 5.66621C13.5968 5.94626 13.4395 6.32608 13.4395 6.72212V8.21539C12.2513 8.21539 11.1119 8.68737 10.2717 9.5275C9.43162 10.3676 8.95964 11.5071 8.95964 12.6952C8.95964 13.8833 9.43162 15.0228 10.2717 15.8629C11.1119 16.7031 12.2513 17.175 13.4395 17.175V20.1616ZM16.426 20.1616V17.175C16.822 17.175 17.2019 17.3324 17.4819 17.6124C17.762 17.8924 17.9193 18.2723 17.9193 18.6683C17.9193 19.0643 17.762 19.4442 17.4819 19.7242C17.2019 20.0043 16.822 20.1616 16.426 20.1616ZM13.4395 11.2019V14.1885C13.0434 14.1885 12.6636 14.0312 12.3836 13.7511C12.1035 13.4711 11.9462 13.0913 11.9462 12.6952C11.9462 12.2992 12.1035 11.9194 12.3836 11.6393C12.6636 11.3593 13.0434 11.2019 13.4395 11.2019ZM14.9327 30.6145C6.68539 30.6145 0 23.9291 0 15.6818C0 7.43441 6.68539 0.749023 14.9327 0.749023C23.1801 0.749023 29.8655 7.43441 29.8655 15.6818C29.8655 23.9291 23.1801 30.6145 14.9327 30.6145Z" fill="black"/>
</svg>
