<svg width="30" height="30" viewBox="0 0 30 30" fill="none" xmlns="http://www.w3.org/2000/svg">
<path d="M15 30C23.2843 30 30 23.2843 30 15C30 6.71573 23.2843 0 15 0C6.71573 0 0 6.71573 0 15C0 23.2843 6.71573 30 15 30Z" fill="#2775C9"/>
<path d="M14.7656 25.7812C8.68125 25.7812 3.75 20.85 3.75 14.7656C3.75 8.68125 8.68125 3.75 14.7656 3.75C20.85 3.75 25.7812 8.68125 25.7812 14.7656C25.7812 17.6872 24.6207 20.489 22.5548 22.5548C20.489 24.6207 17.6872 25.7812 14.7656 25.7812V25.7812ZM14.1094 10.6781C13.5067 10.708 12.9369 10.9621 12.5119 11.3906C12.087 11.819 11.8375 12.3908 11.8125 12.9937C11.8125 14.1281 12.5062 14.8688 13.9781 15.1781L15.0094 15.4219C16.0125 15.6563 16.425 15.9938 16.425 16.5656C16.425 17.1375 15.7031 17.7 14.7656 17.7C14.4326 17.7305 14.0978 17.6667 13.7993 17.5158C13.5009 17.365 13.251 17.1331 13.0781 16.8469C13.0269 16.7383 12.9461 16.6463 12.8449 16.5816C12.7437 16.5169 12.6263 16.4821 12.5063 16.4812H11.9531C11.9106 16.4891 11.87 16.5053 11.8338 16.529C11.7975 16.5526 11.7663 16.5831 11.7419 16.6188C11.7175 16.6546 11.7004 16.6948 11.6916 16.7371C11.6828 16.7795 11.6825 16.8231 11.6906 16.8656C11.8254 17.4155 12.1386 17.9052 12.5814 18.2581C13.0241 18.6109 13.5714 18.807 14.1375 18.8156V19.6031C14.1375 19.7784 14.2071 19.9465 14.3311 20.0705C14.455 20.1944 14.6231 20.2641 14.7984 20.2641C14.9737 20.2641 15.1418 20.1944 15.2658 20.0705C15.3897 19.9465 15.4594 19.7784 15.4594 19.6031V18.8062C16.0995 18.799 16.7115 18.5421 17.165 18.0903C17.6185 17.6386 17.8778 17.0276 17.8875 16.3875C17.8875 15.1969 17.2031 14.5125 15.5813 14.1656L14.6437 13.9594C13.7062 13.725 13.2656 13.4156 13.2656 12.8906C13.2656 12.3656 13.8281 11.7844 14.7656 11.7844C15.0609 11.7535 15.3587 11.8088 15.6233 11.9436C15.8878 12.0783 16.1076 12.2868 16.2563 12.5438C16.3165 12.6721 16.4119 12.7807 16.5314 12.857C16.6508 12.9334 16.7895 12.9743 16.9312 12.975H17.3719C17.4721 12.9505 17.5586 12.8877 17.613 12.8C17.6673 12.7124 17.6851 12.6069 17.6625 12.5063C17.5355 11.9985 17.2514 11.5439 16.8507 11.2072C16.45 10.8705 15.9533 10.6689 15.4312 10.6313V9.98437C15.4312 9.80908 15.3616 9.64097 15.2377 9.51702C15.1137 9.39307 14.9456 9.32344 14.7703 9.32344C14.595 9.32344 14.4269 9.39307 14.303 9.51702C14.179 9.64097 14.1094 9.80908 14.1094 9.98437V10.6781V10.6781ZM6.50625 14.7656C6.50732 16.4926 7.05091 18.1755 8.06024 19.5768C9.06956 20.9781 10.4936 22.0269 12.1312 22.575H12.2625C12.3744 22.575 12.4817 22.5306 12.5608 22.4514C12.6399 22.3723 12.6844 22.265 12.6844 22.1531V21.9563C12.6847 21.7817 12.6332 21.6111 12.5364 21.4659C12.4396 21.3207 12.3018 21.2075 12.1406 21.1406C10.8653 20.6258 9.77282 19.7417 9.00355 18.6016C8.23427 17.4615 7.82326 16.1175 7.82326 14.7422C7.82326 13.3668 8.23427 12.0229 9.00355 10.8828C9.77282 9.74271 10.8653 8.85853 12.1406 8.34375C12.3011 8.27857 12.4385 8.16707 12.5353 8.02348C12.6322 7.87988 12.6841 7.7107 12.6844 7.5375V7.32187C12.685 7.25856 12.6703 7.19604 12.6416 7.13961C12.6129 7.08317 12.571 7.03449 12.5195 6.99769C12.468 6.96089 12.4084 6.93706 12.3457 6.92821C12.283 6.91937 12.2191 6.92577 12.1594 6.94687C10.515 7.49071 9.08371 8.53885 8.0689 9.94242C7.05409 11.346 6.50732 13.0336 6.50625 14.7656V14.7656ZM23.025 14.7656C23.022 13.0403 22.4775 11.3594 21.4683 9.96001C20.4591 8.56061 19.0361 7.51326 17.4 6.96562H17.2594C17.1425 6.96562 17.0304 7.01205 16.9478 7.09468C16.8652 7.17731 16.8188 7.28939 16.8188 7.40625V7.54688C16.8225 7.72769 16.8785 7.90355 16.98 8.05326C17.0815 8.20297 17.2241 8.32013 17.3906 8.39062C18.6631 8.90692 19.7526 9.79115 20.5196 10.9302C21.2867 12.0692 21.6964 13.4112 21.6964 14.7844C21.6964 16.1576 21.2867 17.4996 20.5196 18.6386C19.7526 19.7776 18.6631 20.6618 17.3906 21.1781C17.2273 21.2494 17.0876 21.3657 16.9879 21.5134C16.8883 21.6612 16.8329 21.8343 16.8281 22.0125V22.1719C16.8289 22.2414 16.8462 22.3097 16.8784 22.3713C16.9107 22.4328 16.957 22.4859 17.0137 22.5261C17.0704 22.5664 17.1358 22.5926 17.2046 22.6027C17.2733 22.6129 17.3435 22.6066 17.4094 22.5844C19.0468 22.0341 20.4699 20.9832 21.4776 19.5802C22.4852 18.1772 23.0265 16.493 23.025 14.7656V14.7656Z" fill="white"/>
</svg>
