<svg width="30" height="30" viewBox="0 0 30 30" fill="none" xmlns="http://www.w3.org/2000/svg">
<circle cx="14.935" cy="14.935" r="14.935" fill="white"/>
<path fill-rule="evenodd" clip-rule="evenodd" d="M14.935 29.87C6.68621 29.87 0 23.1838 0 14.935C0 6.68621 6.68621 0 14.935 0C23.1838 0 29.87 6.68621 29.87 14.935C29.87 23.1838 23.1838 29.87 14.935 29.87ZM16.7291 12.8749V10.6664H21.7827V7.29855H8.0229V10.6664H13.0765V12.874C8.9694 13.0625 5.88066 13.8765 5.88066 14.851C5.88066 15.8255 8.9694 16.6385 13.0765 16.828V23.9053H16.7291V16.8261C20.8297 16.6376 23.9109 15.8246 23.9109 14.851C23.9109 13.8774 20.8297 13.0644 16.7291 12.8749ZM16.7291 16.2259V16.2241C16.6264 16.2315 16.0971 16.2633 14.9163 16.2633C13.9736 16.2633 13.3099 16.2353 13.0765 16.2241V16.2269C9.44732 16.0673 6.73849 15.4353 6.73849 14.6792C6.73849 13.9241 9.44732 13.2922 13.0765 13.1297V15.5977C13.3136 15.6145 13.9932 15.6547 14.9322 15.6547C16.0589 15.6547 16.6236 15.608 16.7291 15.5987V13.1316C20.3508 13.2931 23.0531 13.925 23.0531 14.6792C23.0531 15.4353 20.3508 16.0654 16.7291 16.2259V16.2259Z" fill="#00A478"/>
</svg>
