<svg width="30" height="30" viewBox="0 0 30 30" fill="none" xmlns="http://www.w3.org/2000/svg">
<circle cx="15" cy="15" r="15" fill="#595959"/>
<path d="M17.75 9.54688H19.2656V16.1641C19.2656 17.3151 19.1354 18.2292 18.875 18.9062C18.6146 19.5833 18.1432 20.1354 17.4609 20.5625C16.7839 20.9844 15.8932 21.1953 14.7891 21.1953C13.7161 21.1953 12.8385 21.0104 12.1562 20.6406C11.474 20.2708 10.987 19.737 10.6953 19.0391C10.4036 18.3359 10.2578 17.3776 10.2578 16.1641V9.54688H11.7734V16.1562C11.7734 17.151 11.8646 17.8854 12.0469 18.3594C12.2344 18.8281 12.5521 19.1901 13 19.4453C13.4531 19.7005 14.0052 19.8281 14.6562 19.8281C15.7708 19.8281 16.5651 19.5755 17.0391 19.0703C17.513 18.5651 17.75 17.5938 17.75 16.1562V9.54688Z" fill="white"/>
</svg>
