<svg width="30" height="30" viewBox="0 0 30 30" fill="none" xmlns="http://www.w3.org/2000/svg">
<path d="M15 30C23.2843 30 30 23.2843 30 15C30 6.71573 23.2843 0 15 0C6.71573 0 0 6.71573 0 15C0 23.2843 6.71573 30 15 30Z" fill="#23292F"/>
<path d="M21.6281 7.5H24.3375L18.6984 13.0847C17.7125 14.0561 16.384 14.6006 15 14.6006C13.616 14.6006 12.2875 14.0561 11.3016 13.0847L5.65781 7.5H8.37188L12.6562 11.7403C13.2802 12.3561 14.1215 12.7014 14.9981 12.7014C15.8748 12.7014 16.7161 12.3561 17.34 11.7403L21.6281 7.5ZM8.33906 23.0278H5.625L11.3016 17.4094C12.2875 16.438 13.616 15.8935 15 15.8935C16.384 15.8935 17.7125 16.438 18.6984 17.4094L24.375 23.0269H21.6609L17.3438 18.75C16.7198 18.1342 15.8785 17.7889 15.0019 17.7889C14.1253 17.7889 13.2839 18.1342 12.66 18.75L8.33813 23.0278H8.33906Z" fill="white"/>
</svg>
