<svg width="30" height="27" viewBox="0 0 30 27" fill="none" xmlns="http://www.w3.org/2000/svg">
<path d="M6.78508 0C5.51253 0 4.36283 0.75427 3.85676 1.92118L0.262463 10.1826C-0.265718 11.3962 0.0194074 12.8312 0.97259 13.7525L12.7794 25.1659C13.4009 25.7677 14.1991 26.0674 15 26.0674C15.7984 26.0674 16.5966 25.7653 17.2206 25.1659L29.0274 13.7525C29.9806 12.8312 30.2657 11.3962 29.7375 10.1826L26.1456 1.92118C25.6371 0.75427 24.4875 0 23.2149 0H6.78508ZM6.78508 1.47399H23.2173C23.9027 1.47399 24.5218 1.87957 24.7945 2.50848L28.3864 10.7699C28.6689 11.4234 28.5164 12.1949 28.003 12.6911L16.1962 24.1045C15.5255 24.7531 14.4769 24.7531 13.8062 24.1045L1.997 12.6911C1.48356 12.1949 1.33105 11.4234 1.61602 10.7699L5.20792 2.50848C5.48061 1.87957 6.09967 1.47399 6.78508 1.47399ZM8.85836 4.91331C8.45056 4.91331 8.12136 5.2425 8.12136 5.65031C8.12136 6.05811 8.45056 6.38731 8.85836 6.38731H14.263V12.7674C10.3667 12.6986 7.98615 12.0891 7.286 11.6715C7.79945 11.3718 9.2933 10.8927 12.1086 10.6716C12.514 10.6396 12.8185 10.2862 12.7866 9.88084C12.7547 9.4755 12.4007 9.17093 11.9954 9.20286C7.79451 9.53206 5.66471 10.3622 5.66471 11.6691C5.66471 13.8506 11.8014 14.1923 14.263 14.2414V20.3902C14.263 20.7981 14.5922 21.1272 15 21.1272C15.4078 21.1272 15.737 20.7981 15.737 20.3902V14.2414C18.1986 14.1923 24.3353 13.8506 24.3353 11.6691C24.3353 10.3622 22.2055 9.53206 18.0046 9.20286C17.5968 9.16847 17.2429 9.4755 17.2134 9.88084C17.1815 10.2862 17.486 10.6421 17.8914 10.6716C20.7067 10.8927 22.2006 11.3693 22.714 11.6715C22.0139 12.0891 19.6357 12.6986 15.737 12.7674V6.38731H21.1416C21.5494 6.38731 21.8786 6.05811 21.8786 5.65031C21.8786 5.2425 21.5494 4.91331 21.1416 4.91331H8.85836Z" fill="white"/>
</svg>
