<svg width="30" height="30" viewBox="0 0 30 30" fill="none" xmlns="http://www.w3.org/2000/svg">
<path d="M7.96875 5.85938C6.03023 5.85938 4.45312 7.43648 4.45312 9.375V16.4062C4.45312 17.0535 4.97777 17.5781 5.625 17.5781C6.27223 17.5781 6.79688 17.0535 6.79688 16.4062V12.8906H9.14062V16.4062C9.14062 17.0535 9.66527 17.5781 10.3125 17.5781C10.9597 17.5781 11.4844 17.0535 11.4844 16.4062V9.375C11.4844 7.43648 9.90727 5.85938 7.96875 5.85938ZM6.79688 10.5469V9.375C6.79688 8.72883 7.32258 8.20312 7.96875 8.20312C8.61492 8.20312 9.14062 8.72883 9.14062 9.375V10.5469H6.79688Z" fill="white"/>
<path d="M17.3438 5.85938H15C14.3528 5.85938 13.8281 6.38402 13.8281 7.03125V16.4062C13.8281 17.0535 14.3528 17.5781 15 17.5781C15.6472 17.5781 16.1719 17.0535 16.1719 16.4062V12.8906H17.3438C19.2823 12.8906 20.8594 11.3135 20.8594 9.375C20.8594 7.43648 19.2823 5.85938 17.3438 5.85938ZM17.3438 10.5469H16.1719V8.20312H17.3438C17.9899 8.20312 18.5156 8.72883 18.5156 9.375C18.5156 10.0212 17.9899 10.5469 17.3438 10.5469Z" fill="white"/>
<path d="M24.375 5.85938C23.7278 5.85938 23.2031 6.38402 23.2031 7.03125V16.4062C23.2031 17.0535 23.7278 17.5781 24.375 17.5781C25.0222 17.5781 25.5469 17.0535 25.5469 16.4062V7.03125C25.5469 6.38402 25.0222 5.85938 24.375 5.85938Z" fill="white"/>
<path d="M26.4844 0H3.51562C1.57711 0 0 1.57711 0 3.51562V19.9219C0 21.8604 1.57711 23.4375 3.51562 23.4375H11.4844V27.6562H7.96875C7.32152 27.6562 6.79688 28.1809 6.79688 28.8281C6.79688 29.4754 7.32152 30 7.96875 30H22.0312C22.6785 30 23.2031 29.4754 23.2031 28.8281C23.2031 28.1809 22.6785 27.6562 22.0312 27.6562H18.5156V23.4375H26.4844C28.4229 23.4375 30 21.8604 30 19.9219V3.51562C30 1.57711 28.4229 0 26.4844 0ZM16.1719 27.6562H13.8281V23.4375H16.1719V27.6562ZM27.6562 19.9219C27.6562 20.568 27.1305 21.0938 26.4844 21.0938H3.51562C2.86945 21.0938 2.34375 20.568 2.34375 19.9219V3.51562C2.34375 2.86945 2.86945 2.34375 3.51562 2.34375H26.4844C27.1305 2.34375 27.6562 2.86945 27.6562 3.51562V19.9219Z" fill="white"/>
</svg>
