<svg width="72" height="66" viewBox="0 0 72 66" fill="none" xmlns="http://www.w3.org/2000/svg">
<rect width="72" height="66" rx="7" fill="#F2F2F2"/>
<path d="M28.6064 23.3281C26.5128 23.3281 24.8096 25.0314 24.8096 27.125V34.7188C24.8096 35.4178 25.3762 35.9844 26.0752 35.9844C26.7742 35.9844 27.3408 35.4178 27.3408 34.7188V30.9219H29.8721V34.7188C29.8721 35.4178 30.4387 35.9844 31.1377 35.9844C31.8367 35.9844 32.4033 35.4178 32.4033 34.7188V27.125C32.4033 25.0314 30.7 23.3281 28.6064 23.3281ZM27.3408 28.3906V27.125C27.3408 26.4271 27.9086 25.8594 28.6064 25.8594C29.3043 25.8594 29.8721 26.4271 29.8721 27.125V28.3906H27.3408Z" fill="#4DBF9D"/>
<path d="M38.7314 23.3281H36.2002C35.5012 23.3281 34.9346 23.8947 34.9346 24.5938V34.7188C34.9346 35.4178 35.5012 35.9844 36.2002 35.9844C36.8992 35.9844 37.4658 35.4178 37.4658 34.7188V30.9219H38.7314C40.825 30.9219 42.5283 29.2186 42.5283 27.125C42.5283 25.0314 40.825 23.3281 38.7314 23.3281ZM38.7314 28.3906H37.4658V25.8594H38.7314C39.4293 25.8594 39.9971 26.4271 39.9971 27.125C39.9971 27.8229 39.4293 28.3906 38.7314 28.3906Z" fill="#4DBF9D"/>
<path d="M46.3252 23.3281C45.6262 23.3281 45.0596 23.8947 45.0596 24.5938V34.7188C45.0596 35.4178 45.6262 35.9844 46.3252 35.9844C47.0242 35.9844 47.5908 35.4178 47.5908 34.7188V24.5938C47.5908 23.8947 47.0242 23.3281 46.3252 23.3281Z" fill="#4DBF9D"/>
<path d="M48.6031 17H23.7969C21.7033 17 20 18.7033 20 20.7969V38.5156C20 40.6092 21.7033 42.3125 23.7969 42.3125H32.4031V46.8688H28.6063C27.9072 46.8688 27.3406 47.4354 27.3406 48.1344C27.3406 48.8334 27.9072 49.4 28.6063 49.4H43.7938C44.4928 49.4 45.0594 48.8334 45.0594 48.1344C45.0594 47.4354 44.4928 46.8688 43.7938 46.8688H39.9969V42.3125H48.6031C50.6967 42.3125 52.4 40.6092 52.4 38.5156V20.7969C52.4 18.7033 50.6967 17 48.6031 17ZM37.4656 46.8688H34.9344V42.3125H37.4656V46.8688ZM49.8688 38.5156C49.8688 39.2135 49.301 39.7813 48.6031 39.7813H23.7969C23.099 39.7813 22.5313 39.2135 22.5313 38.5156V20.7969C22.5313 20.099 23.099 19.5313 23.7969 19.5313H48.6031C49.301 19.5313 49.8688 20.099 49.8688 20.7969V38.5156Z" fill="#4DBF9D"/>
</svg>
