<svg width="45" height="45" viewBox="0 0 45 45" fill="none" xmlns="http://www.w3.org/2000/svg">
<path fill-rule="evenodd" clip-rule="evenodd" d="M19.9805 5.5165C19.9805 5.18513 20.2491 4.9165 20.5805 4.9165H24.7298C25.0611 4.9165 25.3298 5.18513 25.3298 5.5165C25.3298 5.84787 25.0611 6.1165 24.7298 6.1165H20.5805C20.2491 6.1165 19.9805 5.84787 19.9805 5.5165Z" fill="#606060"/>
<path fill-rule="evenodd" clip-rule="evenodd" d="M12.2812 15.8313C12.6955 15.8313 13.0312 16.1671 13.0312 16.5813V40.094C13.0312 41.2012 13.9403 42.1102 15.0475 42.1102H30.2616C31.3687 42.1102 32.2778 41.2012 32.2778 40.094V16.5813C32.2778 16.1671 32.6135 15.8313 33.0278 15.8313C33.442 15.8313 33.7778 16.1671 33.7778 16.5813V40.094C33.7778 42.0296 32.1972 43.6102 30.2616 43.6102H15.0475C13.1118 43.6102 11.5312 42.0296 11.5312 40.094V16.5813C11.5312 16.1671 11.867 15.8313 12.2812 15.8313Z" fill="#4DBF9D"/>
<path fill-rule="evenodd" clip-rule="evenodd" d="M15.0475 3.5C13.9403 3.5 13.0312 4.409 13.0312 5.5162V20.7303C13.0312 21.1445 12.6955 21.4803 12.2812 21.4803C11.867 21.4803 11.5312 21.1445 11.5312 20.7303V5.5162C11.5312 3.58058 13.1118 2 15.0475 2H30.2616C32.1972 2 33.7778 3.58058 33.7778 5.5162V20.7303C33.7778 21.1445 33.442 21.4803 33.0278 21.4803C32.6135 21.4803 32.2778 21.1445 32.2778 20.7303V5.5162C32.2778 4.409 31.3687 3.5 30.2616 3.5H15.0475Z" fill="#4DBF9D"/>
<path fill-rule="evenodd" clip-rule="evenodd" d="M37.1801 7.68237C37.5114 7.68237 37.7801 7.951 37.7801 8.28237V8.42068C37.7801 8.75205 37.5114 9.02068 37.1801 9.02068C36.8487 9.02068 36.5801 8.75205 36.5801 8.42068V8.28237C36.5801 7.951 36.8487 7.68237 37.1801 7.68237Z" fill="#606060"/>
<path fill-rule="evenodd" clip-rule="evenodd" d="M37.1801 10.4485C37.5114 10.4485 37.7801 10.7171 37.7801 11.0485V11.1868C37.7801 11.5182 37.5114 11.7868 37.1801 11.7868C36.8487 11.7868 36.5801 11.5182 36.5801 11.1868V11.0485C36.5801 10.7171 36.8487 10.4485 37.1801 10.4485Z" fill="#606060"/>
<path fill-rule="evenodd" clip-rule="evenodd" d="M37.1801 13.2148C37.5114 13.2148 37.7801 13.4835 37.7801 13.8148V13.9532C37.7801 14.2845 37.5114 14.5532 37.1801 14.5532C36.8487 14.5532 36.5801 14.2845 36.5801 13.9532V13.8148C36.5801 13.4835 36.8487 13.2148 37.1801 13.2148Z" fill="#606060"/>
<path fill-rule="evenodd" clip-rule="evenodd" d="M8.1332 31.0566C8.46457 31.0566 8.7332 31.3253 8.7332 31.6566V31.795C8.7332 32.1263 8.46457 32.395 8.1332 32.395C7.80183 32.395 7.5332 32.1263 7.5332 31.795V31.6566C7.5332 31.3253 7.80183 31.0566 8.1332 31.0566Z" fill="#606060"/>
<path fill-rule="evenodd" clip-rule="evenodd" d="M8.1332 33.8232C8.46457 33.8232 8.7332 34.0919 8.7332 34.4232V34.5616C8.7332 34.8929 8.46457 35.1616 8.1332 35.1616C7.80183 35.1616 7.5332 34.8929 7.5332 34.5616V34.4232C7.5332 34.0919 7.80183 33.8232 8.1332 33.8232Z" fill="#606060"/>
<path fill-rule="evenodd" clip-rule="evenodd" d="M8.1332 36.5891C8.46457 36.5891 8.7332 36.8577 8.7332 37.1891V37.3274C8.7332 37.6588 8.46457 37.9274 8.1332 37.9274C7.80183 37.9274 7.5332 37.6588 7.5332 37.3274V37.1891C7.5332 36.8577 7.80183 36.5891 8.1332 36.5891Z" fill="#606060"/>
<path fill-rule="evenodd" clip-rule="evenodd" d="M33.1211 19.3471C33.1211 19.0157 33.3897 18.7471 33.7211 18.7471H34.8829C35.1655 18.7471 35.4098 18.9443 35.4694 19.2206L35.8486 20.9788C36.3987 21.1414 36.9229 21.3645 37.412 21.6326L38.9442 20.6534C39.1815 20.5017 39.4924 20.5355 39.6916 20.7347L41.3236 22.3667C41.5228 22.5659 41.5566 22.8768 41.405 23.1141L40.4257 24.6463C40.6942 25.1361 40.9176 25.6612 41.0803 26.2122L42.8414 26.6035C43.1159 26.6645 43.3112 26.908 43.3112 27.1892V29.4852C43.3112 29.7664 43.1159 30.0099 42.8414 30.0709L41.0803 30.4623C40.9177 31.0128 40.6946 31.5374 40.4264 32.0269L41.4038 33.5448C41.5562 33.7814 41.5236 34.0922 41.3254 34.2921L39.6934 35.938C39.4944 36.1387 39.1823 36.1733 38.9442 36.0211L37.412 35.0419C36.9229 35.3099 36.3987 35.5331 35.8486 35.6957L35.4694 37.4539C35.3995 37.7778 35.0803 37.9837 34.7564 37.9139C34.4325 37.844 34.2265 37.5248 34.2964 37.2009L34.7528 35.0847C34.8014 34.8594 34.9748 34.6818 35.1989 34.6279C35.88 34.4639 36.528 34.1852 37.1158 33.8274C37.3115 33.7083 37.5579 33.711 37.7509 33.8343L39.1823 34.7491L40.134 33.7893L39.2193 32.3688C39.0949 32.1756 39.0917 31.9283 39.2112 31.732C39.5691 31.1441 39.8478 30.4962 40.0118 29.815C40.0654 29.5922 40.2412 29.4194 40.4649 29.3697L42.1112 29.0039V27.6706L40.4649 27.3047C40.2412 27.255 40.0654 27.0822 40.0118 26.8594C39.8478 26.1783 39.5691 25.5303 39.2112 24.9425C39.0921 24.7468 39.0948 24.5004 39.2182 24.3074L40.1341 22.8742L39.1841 21.9242L37.7509 22.8401C37.5579 22.9635 37.3115 22.9662 37.1158 22.8471C36.528 22.4893 35.88 22.2105 35.1989 22.0465C34.9748 21.9926 34.8014 21.815 34.7528 21.5897L34.3985 19.9471H33.7211C33.3897 19.9471 33.1211 19.6784 33.1211 19.3471Z" fill="#606060"/>
<path fill-rule="evenodd" clip-rule="evenodd" d="M32.9173 24.359C33.1655 24.3124 33.4386 24.2795 33.7194 24.2795C35.9594 24.2795 37.7771 26.0972 37.7771 28.3373C37.7771 29.7494 37.0615 30.9834 35.9764 31.7122C35.7013 31.897 35.3286 31.8238 35.1438 31.5487C34.9591 31.2736 35.0323 30.9008 35.3074 30.7161C36.0756 30.2 36.5771 29.3318 36.5771 28.3373C36.5771 26.76 35.2967 25.4795 33.7194 25.4795C33.53 25.4795 33.3328 25.502 33.1384 25.5384C32.8127 25.5995 32.4992 25.385 32.4381 25.0593C32.3771 24.7336 32.5916 24.42 32.9173 24.359Z" fill="#606060"/>
<path fill-rule="evenodd" clip-rule="evenodd" d="M10.1807 14.0646C10.3636 14.3409 10.2878 14.7132 10.0114 14.8961C9.2318 15.412 8.73125 16.2789 8.73125 17.2726C8.73125 18.8499 10.0117 20.1303 11.589 20.1303C11.7762 20.1303 11.9589 20.1084 12.1561 20.0714C12.4818 20.0104 12.7954 20.2249 12.8564 20.5506C12.9175 20.8763 12.703 21.1898 12.3773 21.2509C12.132 21.2969 11.872 21.3303 11.589 21.3303C9.34895 21.3303 7.53125 19.5126 7.53125 17.2726C7.53125 15.8596 8.24782 14.6242 9.3492 13.8954C9.62554 13.7125 9.99781 13.7883 10.1807 14.0646Z" fill="#606060"/>
<path fill-rule="evenodd" clip-rule="evenodd" d="M10.5548 7.69599C10.8788 7.76585 11.0847 8.08508 11.0149 8.409L10.5584 10.5251C10.5098 10.7505 10.3365 10.928 10.1124 10.982C9.43121 11.146 8.78327 11.4247 8.19541 11.7825C7.99975 11.9016 7.75334 11.8989 7.56033 11.7756L6.12893 10.8608L5.17721 11.8205L6.09195 13.2411C6.21637 13.4343 6.2195 13.6816 6.10002 13.8779C5.74219 14.4658 5.46346 15.1137 5.29948 15.7949C5.24584 16.0176 5.07 16.1904 4.8463 16.2401L3.2 16.606V17.9393L4.8463 18.3052C5.07 18.3549 5.24584 18.5277 5.29948 18.7504C5.46346 19.4316 5.74219 20.0795 6.10002 20.6674C6.21911 20.8631 6.21642 21.1095 6.09307 21.3025L5.17714 22.7356L6.12717 23.6857L7.56033 22.7697C7.75334 22.6464 7.99975 22.6437 8.19541 22.7628C8.78327 23.1206 9.43121 23.3993 10.1124 23.5633C10.3365 23.6173 10.5098 23.7948 10.5584 24.0202L10.9127 25.6628H11.5901C11.9215 25.6628 12.1902 25.9314 12.1902 26.2628C12.1902 26.5942 11.9215 26.8628 11.5901 26.8628H10.4283C10.1457 26.8628 9.90142 26.6656 9.84183 26.3893L9.46261 24.6311C8.91256 24.4685 8.38831 24.2454 7.89923 23.9773L6.36703 24.9565C6.1297 25.1082 5.81882 25.0744 5.61965 24.8752L3.9876 23.2431C3.78844 23.044 3.75462 22.7331 3.90629 22.4958L4.88552 20.9636C4.61704 20.4737 4.39364 19.9487 4.23097 19.3977L2.46984 19.0063C2.19532 18.9453 2 18.7018 2 18.4206V16.1247C2 15.8435 2.19532 15.6 2.46984 15.539L4.23097 15.1476C4.3935 14.5971 4.61666 14.0724 4.88483 13.583L3.9074 12.0651C3.75501 11.8284 3.78762 11.5177 3.98581 11.3178L5.61787 9.67189C5.81686 9.47122 6.1289 9.4366 6.36703 9.58879L7.89923 10.568C8.38831 10.2999 8.91256 10.0768 9.46261 9.9142L9.84183 8.156C9.9117 7.83207 10.2309 7.62612 10.5548 7.69599Z" fill="#606060"/>
<path d="M16.2184 23.6867L15.6584 24.9587H14.6504L17.1144 19.3667H18.1224L20.5864 24.9587H19.5784L19.0184 23.6867H16.2184ZM18.6344 22.8147L17.6184 20.5107L16.6024 22.8147H18.6344Z" fill="#606060"/>
<path d="M24.2839 19.3667C25.1319 19.3667 25.7506 19.5294 26.1399 19.8547C26.5292 20.18 26.7239 20.6814 26.7239 21.3587C26.7239 22.036 26.5239 22.532 26.1239 22.8467C25.7292 23.1614 25.1212 23.3187 24.2999 23.3187H23.3079V24.9587H22.3639V19.3667H24.2839ZM24.4039 22.4627C24.9266 22.4627 25.2812 22.364 25.4679 22.1667C25.6599 21.964 25.7559 21.6707 25.7559 21.2867C25.7559 20.8974 25.6359 20.6227 25.3959 20.4627C25.1559 20.3027 24.7799 20.2227 24.2679 20.2227H23.3079V22.4627H24.4039Z" fill="#606060"/>
<path d="M28.8326 19.3667H29.7766V24.9587H28.8326V19.3667Z" fill="#606060"/>
</svg>
