<svg width="72" height="66" viewBox="0 0 72 66" fill="none" xmlns="http://www.w3.org/2000/svg">
<rect width="72" height="66" rx="7" fill="#F2F2F2"/>
<path d="M48.7119 30.3386C48.566 30.158 48.3845 30.0186 48.1897 29.8966C47.677 29.5757 47.116 29.3645 46.5423 29.1847C45.3542 28.8125 44.1346 28.5871 42.9044 28.4099C41.5155 28.2098 40.119 28.0944 38.7184 28.0246C38.6155 28.0196 38.5955 27.9872 38.5959 27.8918C38.5993 26.9267 38.5979 25.9616 38.5979 24.9965C38.5979 24.844 38.5981 24.8438 38.7478 24.8438C41.0738 24.8438 43.3998 24.8438 45.7258 24.8438C45.8614 24.8438 45.8616 24.8435 45.8616 24.7093C45.8617 23.1853 45.8617 21.6613 45.8616 20.1372C45.8616 20.0001 45.8614 20 45.7202 20C42.4708 20 39.2213 20 35.9719 20C32.7225 20 29.473 20 26.2236 20C26.0821 20 26.0819 20.0001 26.0819 20.1369C26.0818 21.661 26.0818 23.1849 26.0819 24.709C26.0819 24.8435 26.082 24.8438 26.2174 24.8438C27.5436 24.8438 28.8697 24.8438 30.1959 24.8438C31.2062 24.8438 32.2164 24.844 33.2267 24.8436C33.2909 24.8436 33.3461 24.8344 33.3458 24.9351C33.3424 25.9348 33.3433 26.9347 33.3446 27.9345C33.3447 27.9938 33.3314 28.0201 33.2649 28.0227C33.0256 28.0317 32.7866 28.0469 32.5475 28.0609C31.7749 28.1067 31.0038 28.1715 30.2346 28.2566C29.5485 28.3324 28.8643 28.4237 28.1836 28.5397C27.1674 28.7127 26.16 28.9238 25.1806 29.2506C24.64 29.4309 24.1115 29.6402 23.6355 29.9614C23.4387 30.0942 23.2586 30.2464 23.1297 30.4499C22.9562 30.7235 22.9573 30.9984 23.1298 31.2722C23.2026 31.3876 23.2945 31.4868 23.3973 31.5759C23.7215 31.8566 24.0996 32.0454 24.4907 32.2105C25.2992 32.5517 26.1444 32.7709 26.9994 32.9554C27.8134 33.1311 28.6351 33.2625 29.4606 33.3706C30.0351 33.4458 30.6112 33.5073 31.1883 33.559C31.859 33.6189 32.5308 33.662 33.2032 33.6977C33.3439 33.7052 33.3438 33.7084 33.3438 33.8519C33.3438 37.1464 33.3438 40.441 33.3439 43.7355C33.3439 43.8777 33.344 43.8779 33.4828 43.8779C35.1353 43.878 36.7877 43.8781 38.4403 43.8776C38.6116 43.8775 38.5954 43.8976 38.5954 43.7208C38.5957 40.4401 38.5956 37.1595 38.5956 33.8788C38.5956 33.8441 38.5977 33.8092 38.5954 33.7747C38.592 33.7235 38.6099 33.6973 38.6649 33.6968C38.7273 33.6963 38.7896 33.6889 38.852 33.6862C39.4173 33.6624 39.9816 33.6217 40.5452 33.574C41.3818 33.5032 42.2163 33.4113 43.0471 33.2888C44.0565 33.14 45.0586 32.9544 46.0426 32.6818C46.7253 32.4926 47.3965 32.2709 48.019 31.9239C48.2749 31.7812 48.5146 31.6161 48.7045 31.3887C48.9896 31.0471 48.9915 30.6846 48.7119 30.3386V30.3386ZM47.4104 31.1021C47.1188 31.358 46.768 31.5104 46.4102 31.6459C45.6027 31.9517 44.7627 32.1337 43.9161 32.2879C43.0043 32.454 42.0854 32.5689 41.1633 32.6578C40.3273 32.7384 39.4891 32.7883 38.6504 32.8337C37.5682 32.8924 36.4855 32.8937 35.4879 32.8922C34.1841 32.8785 32.9667 32.834 31.7515 32.7426C30.5368 32.6511 29.3264 32.5215 28.1262 32.3093C27.1797 32.1418 26.2404 31.9434 25.3446 31.5814C25.1062 31.485 24.8764 31.3712 24.664 31.225C24.5636 31.1558 24.4703 31.0783 24.3915 30.9847C24.1833 30.7374 24.1814 30.4891 24.3881 30.2417C24.5425 30.057 24.7437 29.9331 24.9537 29.8237C25.5114 29.5331 26.1101 29.3582 26.7165 29.2074C27.809 28.9358 28.9196 28.7691 30.0367 28.6411C31.0955 28.5197 32.1574 28.4398 33.2218 28.3888C33.3264 28.3838 33.3482 28.4136 33.348 28.5126C33.3447 29.6095 33.3472 30.7064 33.3438 31.8034C33.3435 31.904 33.3657 31.935 33.4728 31.9415C34.9816 32.0317 36.4908 32.0354 38.0004 31.9729C38.1633 31.9661 38.3257 31.945 38.4886 31.9423C38.5803 31.9407 38.5946 31.9031 38.5925 31.8231C38.5873 31.6254 38.5908 31.4274 38.5908 31.2296C38.5908 30.3271 38.5908 29.4245 38.5908 28.522C38.5908 28.3893 38.5911 28.3874 38.7277 28.3936C39.6501 28.435 40.5704 28.5025 41.4888 28.5982C42.5865 28.7126 43.6784 28.8647 44.757 29.1023C45.445 29.2538 46.1254 29.4327 46.7695 29.7264C46.9974 29.8302 47.217 29.9491 47.4068 30.1155C47.7756 30.439 47.7792 30.7787 47.4104 31.1021V31.1021Z" fill="#43C1A9"/>
<path d="M43.4414 46.7433H28.4778C28.214 46.7433 28.0002 46.5295 28.0002 46.2658C28.0002 46.002 28.214 45.7882 28.4778 45.7882H43.4414C43.7052 45.7882 43.919 46.002 43.919 46.2658C43.919 46.5295 43.7052 46.7433 43.4414 46.7433Z" fill="#43C1A9"/>
</svg>
