<svg width="45" height="45" viewBox="0 0 45 45" fill="none" xmlns="http://www.w3.org/2000/svg">
<path fill-rule="evenodd" clip-rule="evenodd" d="M27.7754 26.4769C27.7754 23.8873 29.8812 21.7815 32.4708 21.7815H39.0636C39.999 21.7815 40.7623 22.5448 40.7623 23.4802V29.4736C40.7623 30.409 39.999 31.1723 39.0636 31.1723H32.4708C29.8812 31.1723 27.7754 29.0665 27.7754 26.4769ZM32.4708 22.7815C30.4335 22.7815 28.7754 24.4396 28.7754 26.4769C28.7754 28.5142 30.4335 30.1723 32.4708 30.1723H39.0636C39.4467 30.1723 39.7623 29.8567 39.7623 29.4736V23.4802C39.7623 23.097 39.4467 22.7815 39.0636 22.7815H32.4708Z" fill="#606060"/>
<path fill-rule="evenodd" clip-rule="evenodd" d="M32.4719 25.1792C31.755 25.1792 31.1738 25.7603 31.1738 26.4772C31.1738 27.1941 31.755 27.7753 32.4719 27.7753C33.1887 27.7753 33.7699 27.1941 33.7699 26.4772C33.7699 25.7603 33.1887 25.1792 32.4719 25.1792ZM30.1738 26.4772C30.1738 25.2081 31.2027 24.1792 32.4719 24.1792C33.741 24.1792 34.7699 25.2081 34.7699 26.4772C34.7699 27.7464 33.741 28.7753 32.4719 28.7753C31.2027 28.7753 30.1738 27.7464 30.1738 26.4772Z" fill="#606060"/>
<path fill-rule="evenodd" clip-rule="evenodd" d="M5 15.6889C5 14.4178 6.02698 13.3909 7.29803 13.3909H10.8941C11.1702 13.3909 11.3941 13.6147 11.3941 13.8909C11.3941 14.167 11.1702 14.3909 10.8941 14.3909H7.29803C6.57926 14.3909 6 14.9701 6 15.6889V39.0633C6 39.3394 5.77614 39.5633 5.5 39.5633C5.22386 39.5633 5 39.3394 5 39.0633V15.6889Z" fill="#606060"/>
<path fill-rule="evenodd" clip-rule="evenodd" d="M30.7734 13.8909C30.7734 13.6147 30.9973 13.3909 31.2734 13.3909H37.2669C38.5379 13.3909 39.5649 14.4178 39.5649 15.6889V19.8843C39.5649 20.1604 39.341 20.3843 39.0649 20.3843C38.7888 20.3843 38.5649 20.1604 38.5649 19.8843V15.6889C38.5649 14.9701 37.9856 14.3909 37.2669 14.3909H31.2734C30.9973 14.3909 30.7734 14.167 30.7734 13.8909Z" fill="#606060"/>
<path fill-rule="evenodd" clip-rule="evenodd" d="M16.3906 10.2947C16.3906 10.0185 16.6145 9.79468 16.8906 9.79468H21.3258C22.5968 9.79468 23.6238 10.8217 23.6238 12.0927C23.6238 13.3638 22.5968 14.3907 21.3258 14.3907H19.288C19.0119 14.3907 18.788 14.1669 18.788 13.8907C18.788 13.6146 19.0119 13.3907 19.288 13.3907H21.3258C22.0445 13.3907 22.6238 12.8115 22.6238 12.0927C22.6238 11.3739 22.0445 10.7947 21.3258 10.7947H16.8906C16.6145 10.7947 16.3906 10.5708 16.3906 10.2947Z" fill="#4DBF9D"/>
<path fill-rule="evenodd" clip-rule="evenodd" d="M18.788 13.8909C18.788 13.6147 19.0119 13.3909 19.288 13.3909H21.4456C23.0403 13.3909 24.343 14.6935 24.343 16.2882C24.343 17.8829 23.0403 19.1856 21.4456 19.1856H16.8906C16.6145 19.1856 16.3906 18.9618 16.3906 18.6856C16.3906 18.4095 16.6145 18.1856 16.8906 18.1856H21.4456C22.488 18.1856 23.343 17.3307 23.343 16.2882C23.343 15.2458 22.488 14.3909 21.4456 14.3909H19.288C19.0119 14.3909 18.788 14.167 18.788 13.8909Z" fill="#4DBF9D"/>
<path fill-rule="evenodd" clip-rule="evenodd" d="M21.0859 18.1853C21.3621 18.1853 21.5859 18.4092 21.5859 18.6853V19.884C21.5859 20.1601 21.3621 20.384 21.0859 20.384C20.8098 20.384 20.5859 20.1601 20.5859 19.884V18.6853C20.5859 18.4092 20.8098 18.1853 21.0859 18.1853Z" fill="#4DBF9D"/>
<path fill-rule="evenodd" clip-rule="evenodd" d="M21.0859 8.59595C21.3621 8.59595 21.5859 8.8198 21.5859 9.09595V10.2946C21.5859 10.5708 21.3621 10.7946 21.0859 10.7946C20.8098 10.7946 20.5859 10.5708 20.5859 10.2946V9.09595C20.5859 8.8198 20.8098 8.59595 21.0859 8.59595Z" fill="#4DBF9D"/>
<path fill-rule="evenodd" clip-rule="evenodd" d="M18.6895 18.1853C18.9656 18.1853 19.1895 18.4092 19.1895 18.6853V19.884C19.1895 20.1601 18.9656 20.384 18.6895 20.384C18.4133 20.384 18.1895 20.1601 18.1895 19.884V18.6853C18.1895 18.4092 18.4133 18.1853 18.6895 18.1853Z" fill="#4DBF9D"/>
<path fill-rule="evenodd" clip-rule="evenodd" d="M18.6895 8.59595C18.9656 8.59595 19.1895 8.8198 19.1895 9.09595V10.2946C19.1895 10.5708 18.9656 10.7946 18.6895 10.7946C18.4133 10.7946 18.1895 10.5708 18.1895 10.2946V9.09595C18.1895 8.8198 18.4133 8.59595 18.6895 8.59595Z" fill="#4DBF9D"/>
<path fill-rule="evenodd" clip-rule="evenodd" d="M17.4883 9.79468C17.7644 9.79468 17.9883 10.0185 17.9883 10.2947V18.6855C17.9883 18.9616 17.7644 19.1855 17.4883 19.1855C17.2121 19.1855 16.9883 18.9616 16.9883 18.6855V10.2947C16.9883 10.0185 17.2121 9.79468 17.4883 9.79468Z" fill="#4DBF9D"/>
<path fill-rule="evenodd" clip-rule="evenodd" d="M19.8847 6C16.1958 6 13.0476 8.36513 11.8813 11.6603C11.7892 11.9206 11.5034 12.0569 11.2431 11.9648C10.9828 11.8726 10.8465 11.5869 10.9386 11.3266C12.2416 7.64538 15.7582 5 19.8847 5C25.1234 5 29.3748 9.25144 29.3748 14.4901C29.3748 19.7289 25.1234 23.9803 19.8847 23.9803C14.646 23.9803 10.3945 19.7289 10.3945 14.4901C10.3945 14.2819 10.4061 14.086 10.4173 13.897C10.418 13.8851 10.4187 13.8733 10.4194 13.8614C10.4356 13.5858 10.6722 13.3755 10.9479 13.3917C11.2235 13.4079 11.4339 13.6445 11.4176 13.9202L11.416 13.9479C11.4045 14.1436 11.3945 14.3123 11.3945 14.4901C11.3945 19.1766 15.1983 22.9803 19.8847 22.9803C24.5711 22.9803 28.3748 19.1766 28.3748 14.4901C28.3748 9.80373 24.5711 6 19.8847 6Z" fill="#606060"/>
<path fill-rule="evenodd" clip-rule="evenodd" d="M39.0632 30.1724C39.3394 30.1724 39.5632 30.3962 39.5632 30.6724V36.0665C39.5632 37.3375 38.5362 38.3645 37.2652 38.3645H6.69869C6.31555 38.3645 6 38.68 6 39.0632C6 39.4463 6.31555 39.7619 6.69869 39.7619H38.4639C38.74 39.7619 38.9639 39.9857 38.9639 40.2619C38.9639 40.538 38.74 40.7619 38.4639 40.7619H6.69869C5.76327 40.7619 5 39.9986 5 39.0632C5 38.1277 5.76327 37.3645 6.69869 37.3645H37.2652C37.984 37.3645 38.5632 36.7852 38.5632 36.0665V30.6724C38.5632 30.3962 38.7871 30.1724 39.0632 30.1724Z" fill="#606060"/>
</svg>
