<svg width="20" height="20" viewBox="0 0 20 20" fill="none" xmlns="http://www.w3.org/2000/svg">
<path d="M10 20C15.5228 20 20 15.5228 20 10C20 4.47715 15.5228 0 10 0C4.47715 0 0 4.47715 0 10C0 15.5228 4.47715 20 10 20Z" fill="#F1D33D"/>
<path d="M10 20C12.6522 20 15.1957 18.9464 17.0711 17.0711C18.9464 15.1957 20 12.6522 20 10H0C0 12.6522 1.05357 15.1957 2.92893 17.0711C3.85752 17.9997 4.95991 18.7362 6.17317 19.2388C7.38642 19.7413 8.68678 20 10 20V20Z" fill="#E7A324"/>
<path d="M9.99998 19.347C15.0909 19.347 19.218 15.22 19.218 10.129C19.218 5.03805 15.0909 0.911011 9.99998 0.911011C4.90902 0.911011 0.781982 5.03805 0.781982 10.129C0.781982 15.22 4.90902 19.347 9.99998 19.347Z" fill="url(#paint0_linear_80_4)"/>
<path d="M9.99991 19.344C7.56845 19.3435 5.23568 18.3822 3.50983 16.6694C1.78398 14.9567 0.804907 12.6313 0.785911 10.2V10.277C0.767261 12.7407 1.72706 15.1112 3.45458 16.868C5.18211 18.6248 7.53616 19.6242 9.99991 19.647C12.4642 19.6253 14.8191 18.6264 16.5475 16.8698C18.2758 15.1131 19.2363 12.7423 19.2179 10.278C19.2179 10.252 19.2179 10.227 19.2179 10.201C19.1986 12.6329 18.2189 14.9586 16.4922 16.6712C14.7655 18.3838 12.4319 19.3446 9.99991 19.344V19.344Z" fill="#D38E26"/>
<path d="M9.9999 17.6C14.1973 17.6 17.5999 14.1974 17.5999 10C17.5999 5.80266 14.1973 2.40002 9.9999 2.40002C5.80254 2.40002 2.3999 5.80266 2.3999 10C2.3999 14.1974 5.80254 17.6 9.9999 17.6Z" fill="#F9EE60"/>
<path d="M9.9999 2.40002C7.98426 2.40002 6.05117 3.20074 4.62589 4.62601C3.20061 6.05129 2.3999 7.98438 2.3999 10H17.5999C17.5999 7.98438 16.7992 6.05129 15.3739 4.62601C13.9486 3.20074 12.0155 2.40002 9.9999 2.40002V2.40002Z" fill="#E3A22C"/>
<path d="M10 17C13.866 17 17 13.866 17 10C17 6.13401 13.866 3 10 3C6.13401 3 3 6.13401 3 10C3 13.866 6.13401 17 10 17Z" fill="url(#paint1_linear_80_4)"/>
<path d="M6.148 8.91506L5 10.0111L6.148 11.1111L7.3 10.0121L6.148 8.91506ZM9.989 12.5831L8.075 10.7551L6.909 11.8281L9.989 14.7681L13.069 11.8281L11.9 10.7551L9.989 12.5831ZM9.989 7.41706L11.9 9.24506L13.065 8.17206L9.985 5.23206L6.905 8.17206L8.071 9.24506L9.989 7.41706ZM13.852 8.92506L12.7 10.0201L13.848 11.1201L15 10.0211L13.852 8.92506ZM10.016 11.1001L11.164 10.0001L10.016 8.90006L8.868 10.0001L10.016 11.1001Z" fill="white"/>
<defs>
<linearGradient id="paint0_linear_80_4" x1="9.99998" y1="0.833011" x2="9.99998" y2="19.374" gradientUnits="userSpaceOnUse">
<stop stop-color="#FAEE5E"/>
<stop offset="1" stop-color="#EDC12D"/>
</linearGradient>
<linearGradient id="paint1_linear_80_4" x1="10" y1="2.926" x2="10" y2="16.952" gradientUnits="userSpaceOnUse">
<stop stop-color="#EFC938"/>
<stop offset="1" stop-color="#F1B62E"/>
</linearGradient>
</defs>
</svg>
