<svg width="45" height="40" viewBox="0 0 45 40" fill="none" xmlns="http://www.w3.org/2000/svg">
<path d="M4.72449 40H40.2755C43.9109 40 46.1771 36.0723 44.3594 32.9443L26.5839 2.34602C24.7662 -0.782008 20.2338 -0.782008 18.4161 2.34602L0.640606 32.9443C-1.17708 36.0723 1.08912 40 4.72449 40ZM22.5 23.5367C21.2017 23.5367 20.1394 22.4783 20.1394 21.1848V16.481C20.1394 15.1874 21.2017 14.1291 22.5 14.1291C23.7983 14.1291 24.8606 15.1874 24.8606 16.481V21.1848C24.8606 22.4783 23.7983 23.5367 22.5 23.5367ZM24.8606 32.9443H20.1394V28.2405H24.8606V32.9443Z" fill="white"/>
</svg>
