<svg width="40" height="40" viewBox="0 0 40 40" fill="none" xmlns="http://www.w3.org/2000/svg">
<rect width="40" height="40" rx="14" fill="white"/>
<path d="M25.769 23.6586C25.8422 23.7316 25.9003 23.8183 25.94 23.9138C25.9796 24.0093 26 24.1117 26 24.2151C26 24.3185 25.9796 24.4209 25.94 24.5164C25.9003 24.6119 25.8422 24.6986 25.769 24.7716C25.6208 24.9179 25.4209 25 25.2126 25C25.0044 25 24.8045 24.9179 24.6563 24.7716L20.5 20.6141L16.3437 24.7716C16.1955 24.9179 15.9956 25 15.7874 25C15.5791 25 15.3792 24.9179 15.231 24.7716C15.1578 24.6986 15.0997 24.6119 15.06 24.5164C15.0204 24.4209 15 24.3185 15 24.2151C15 24.1117 15.0204 24.0093 15.06 23.9138C15.0997 23.8183 15.1578 23.7316 15.231 23.6586L19.3873 19.5011L15.231 15.3436C15.0835 15.196 15.0006 14.9958 15.0006 14.787C15.0006 14.6837 15.0209 14.5813 15.0605 14.4858C15.1 14.3904 15.158 14.3036 15.231 14.2305C15.3041 14.1574 15.3908 14.0995 15.4863 14.0599C15.5817 14.0204 15.684 14 15.7874 14C15.996 14 16.1962 14.0829 16.3437 14.2305L20.5 18.388L24.6563 14.2305C24.8038 14.0829 25.004 14 25.2126 14C25.4213 14 25.6214 14.0829 25.769 14.2305C25.9165 14.3781 25.9994 14.5783 25.9994 14.787C25.9994 14.9958 25.9165 15.196 25.769 15.3436L21.6127 19.5011L25.769 23.6586Z" fill="black"/>
</svg>
