<svg width="24" height="24" viewBox="0 0 24 24" fill="none" xmlns="http://www.w3.org/2000/svg">
<path fill-rule="evenodd" clip-rule="evenodd" d="M3.33333 20H8.33333V3H3.33333C3.15457 3 3 3.15457 3 3.33333V19.6667C3 19.8454 3.15457 20 3.33333 20ZM14.6667 20H19.6667C19.8454 20 20 19.8454 20 19.6667V13.5H14.6667V20ZM12.6667 22V11.5H22V19.6667C22 20.95 20.95 22 19.6667 22H12.6667ZM20 7.16667V3.33333C20 3.15457 19.8454 3 19.6667 3H14.6667V7.16667H20ZM22 3.33333C22 2.05 20.95 1 19.6667 1H12.6667V9.16667H22V3.33333ZM10.3333 22V1H3.33333C2.05 1 1 2.05 1 3.33333V19.6667C1 20.95 2.05 22 3.33333 22H10.3333Z" fill="#C2C2C2"/>
</svg>
