<svg width="72" height="66" viewBox="0 0 72 66" fill="none" xmlns="http://www.w3.org/2000/svg">
<rect width="72" height="66" rx="7" fill="#F2F2F2"/>
<path d="M24.123 50C23.8952 50 23.7812 49.8779 23.7812 49.6338V43.3643C23.7812 43.1201 23.8952 42.998 24.123 42.998H25.8271C27.3245 42.998 28.3369 43.3008 28.8643 43.9062C29.3949 44.5117 29.6602 45.3727 29.6602 46.4893C29.6602 47.6058 29.3949 48.4701 28.8643 49.082C28.3369 49.694 27.3245 50 25.8271 50H24.123ZM25.207 48.7891H25.7344C26.7435 48.7891 27.3962 48.6019 27.6924 48.2275C27.9886 47.8499 28.1367 47.2705 28.1367 46.4893C28.1367 45.708 27.9886 45.1318 27.6924 44.7607C27.3962 44.3864 26.7435 44.1992 25.7344 44.1992H25.207V48.7891Z" fill="#4DBF9D"/>
<path d="M31.2031 50C30.9753 50 30.8613 49.8779 30.8613 49.6338V43.3643C30.8613 43.1201 30.9753 42.998 31.2031 42.998H35.3926C35.6367 42.998 35.7588 43.1038 35.7588 43.3154V43.8916C35.7588 44.1032 35.6367 44.209 35.3926 44.209H32.2871V45.7617H35.1338C35.3779 45.7617 35.5 45.8675 35.5 46.0791V46.6553C35.5 46.8669 35.3779 46.9727 35.1338 46.9727H32.2871V48.7891H35.5488C35.793 48.7891 35.915 48.8949 35.915 49.1064V49.6826C35.915 49.8942 35.793 50 35.5488 50H31.2031Z" fill="#4DBF9D"/>
<path d="M37.4531 50C37.2253 50 37.1113 49.8779 37.1113 49.6338V43.3643C37.1113 43.1201 37.2253 42.998 37.4531 42.998H38.8691C39.0579 42.998 39.193 43.1283 39.2744 43.3887L40.5977 47.6709C40.6562 47.8564 40.6969 48.0094 40.7197 48.1299C40.7425 48.2471 40.762 48.387 40.7783 48.5498H40.8076C40.8239 48.387 40.8434 48.2471 40.8662 48.1299C40.889 48.0094 40.9297 47.8564 40.9883 47.6709L42.3115 43.3887C42.3929 43.1283 42.528 42.998 42.7168 42.998H44.1328C44.3607 42.998 44.4746 43.1201 44.4746 43.3643V49.6338C44.4746 49.8779 44.3607 50 44.1328 50H43.3906C43.1628 50 43.0488 49.8779 43.0488 49.6338V45.6006C43.0488 45.4053 43.057 45.21 43.0732 45.0146H43.0391L41.6279 49.6045C41.5465 49.8682 41.4066 50 41.208 50H40.3779C40.1794 50 40.0394 49.8682 39.958 49.6045L38.5469 45.0146H38.5127C38.529 45.21 38.5371 45.4053 38.5371 45.6006V49.6338C38.5371 49.8779 38.4232 50 38.1953 50H37.4531Z" fill="#4DBF9D"/>
<path d="M45.6758 46.499C45.6758 45.376 45.9655 44.484 46.5449 43.8232C47.1243 43.1624 47.9512 42.832 49.0254 42.832C50.0996 42.832 50.9264 43.1624 51.5059 43.8232C52.0853 44.484 52.375 45.376 52.375 46.499C52.375 47.6221 52.0853 48.514 51.5059 49.1748C50.9264 49.8356 50.0996 50.166 49.0254 50.166C47.9512 50.166 47.1243 49.8356 46.5449 49.1748C45.9655 48.514 45.6758 47.6221 45.6758 46.499ZM47.1992 46.499C47.1992 47.3128 47.3441 47.9362 47.6338 48.3691C47.9268 48.7988 48.3906 49.0137 49.0254 49.0137C49.6602 49.0137 50.1224 48.7988 50.4121 48.3691C50.7051 47.9362 50.8516 47.3128 50.8516 46.499C50.8516 45.6852 50.7051 45.0635 50.4121 44.6338C50.1224 44.2008 49.6602 43.9844 49.0254 43.9844C48.3906 43.9844 47.9268 44.2008 47.6338 44.6338C47.3441 45.0635 47.1992 45.6852 47.1992 46.499Z" fill="#4DBF9D"/>
<path d="M24 37H51V40H24V37ZM28.5 32.5C30.15 32.5 31.5 31.15 31.5 29.5C31.5 28.75 31.2 28 30.75 27.55L32.7 23.5H33C33.75 23.5 34.5 23.2 34.95 22.75L39 24.85V25C39 26.65 40.35 28 42 28C43.65 28 45 26.65 45 25C45 24.25 44.7 23.65 44.25 23.05L46.2 19H46.5C48.15 19 49.5 17.65 49.5 16C49.5 14.35 48.15 13 46.5 13C44.85 13 43.5 14.35 43.5 16C43.5 16.75 43.8 17.5 44.25 17.95L42.3 22H42C41.25 22 40.5 22.3 40.05 22.75L36 20.8V20.5C36 18.85 34.65 17.5 33 17.5C31.35 17.5 30 18.85 30 20.5C30 21.25 30.3 22 30.75 22.45L28.8 26.5H28.5C26.85 26.5 25.5 27.85 25.5 29.5C25.5 31.15 26.85 32.5 28.5 32.5Z" fill="#4DBF9D"/>
</svg>
