<svg width="45" height="45" viewBox="0 0 45 45" fill="none" xmlns="http://www.w3.org/2000/svg">
<path fill-rule="evenodd" clip-rule="evenodd" d="M24.6996 31.3999C25.031 31.3999 25.2996 31.6685 25.2996 31.9999V34.3999C25.2996 34.7313 25.031 34.9999 24.6996 34.9999C24.3682 34.9999 24.0996 34.7313 24.0996 34.3999V31.9999C24.0996 31.6685 24.3682 31.3999 24.6996 31.3999Z" fill="#4DBF9D"/>
<path fill-rule="evenodd" clip-rule="evenodd" d="M24.6996 20.6001C25.031 20.6001 25.2996 20.8687 25.2996 21.2001V26.0001C25.2996 26.3315 25.031 26.6001 24.6996 26.6001C24.3682 26.6001 24.0996 26.3315 24.0996 26.0001V21.2001C24.0996 20.8687 24.3682 20.6001 24.6996 20.6001Z" fill="#4DBF9D"/>
<path fill-rule="evenodd" clip-rule="evenodd" d="M22.9004 25.9999C22.9004 25.6685 23.169 25.3999 23.5004 25.3999H25.9004C26.2318 25.3999 26.5004 25.6685 26.5004 25.9999V31.9999C26.5004 32.3313 26.2318 32.5999 25.9004 32.5999H23.5004C23.169 32.5999 22.9004 32.3313 22.9004 31.9999V25.9999ZM24.1004 26.5999V31.3999H25.3004V26.5999H24.1004Z" fill="#4DBF9D"/>
<path fill-rule="evenodd" clip-rule="evenodd" d="M19.9008 26.6001C20.2322 26.6001 20.5008 26.8687 20.5008 27.2001V29.6001C20.5008 29.9315 20.2322 30.2001 19.9008 30.2001C19.5694 30.2001 19.3008 29.9315 19.3008 29.6001V27.2001C19.3008 26.8687 19.5694 26.6001 19.9008 26.6001Z" fill="#4DBF9D"/>
<path fill-rule="evenodd" clip-rule="evenodd" d="M19.9008 9.80005C20.2322 9.80005 20.5008 10.0687 20.5008 10.4V14C20.5008 14.3314 20.2322 14.6 19.9008 14.6C19.5694 14.6 19.3008 14.3314 19.3008 14V10.4C19.3008 10.0687 19.5694 9.80005 19.9008 9.80005Z" fill="#4DBF9D"/>
<path fill-rule="evenodd" clip-rule="evenodd" d="M18.0996 13.9999C18.0996 13.6685 18.3682 13.3999 18.6996 13.3999H21.0996C21.431 13.3999 21.6996 13.6685 21.6996 13.9999V27.1999C21.6996 27.5313 21.431 27.7999 21.0996 27.7999H18.6996C18.3682 27.7999 18.0996 27.5313 18.0996 27.1999V13.9999ZM19.2996 14.5999V26.5999H20.4996V14.5999H19.2996Z" fill="#4DBF9D"/>
<path fill-rule="evenodd" clip-rule="evenodd" d="M29.5004 29C29.8318 29 30.1004 29.2686 30.1004 29.6V32C30.1004 32.3314 29.8318 32.6 29.5004 32.6C29.169 32.6 28.9004 32.3314 28.9004 32V29.6C28.9004 29.2686 29.169 29 29.5004 29Z" fill="#4DBF9D"/>
<path fill-rule="evenodd" clip-rule="evenodd" d="M29.5004 13.3999C29.8318 13.3999 30.1004 13.6685 30.1004 13.9999V16.3999C30.1004 16.7313 29.8318 16.9999 29.5004 16.9999C29.169 16.9999 28.9004 16.7313 28.9004 16.3999V13.9999C28.9004 13.6685 29.169 13.3999 29.5004 13.3999Z" fill="#4DBF9D"/>
<path fill-rule="evenodd" clip-rule="evenodd" d="M27.6992 16.4C27.6992 16.0687 27.9678 15.8 28.2992 15.8H30.6992C31.0306 15.8 31.2992 16.0687 31.2992 16.4V29.6C31.2992 29.9314 31.0306 30.2 30.6992 30.2H28.2992C27.9678 30.2 27.6992 29.9314 27.6992 29.6V16.4ZM28.8992 17V29H30.0992V17H28.8992Z" fill="#4DBF9D"/>
<path fill-rule="evenodd" clip-rule="evenodd" d="M15.1 17C15.4314 17 15.7 17.2686 15.7 17.6V21.2C15.7 21.5314 15.4314 21.8 15.1 21.8C14.7686 21.8 14.5 21.5314 14.5 21.2V17.6C14.5 17.2686 14.7686 17 15.1 17Z" fill="#4DBF9D"/>
<path fill-rule="evenodd" clip-rule="evenodd" d="M15.1 5C15.4314 5 15.7 5.26863 15.7 5.6V8C15.7 8.33137 15.4314 8.6 15.1 8.6C14.7686 8.6 14.5 8.33137 14.5 8V5.6C14.5 5.26863 14.7686 5 15.1 5Z" fill="#4DBF9D"/>
<path fill-rule="evenodd" clip-rule="evenodd" d="M13.3008 7.9999C13.3008 7.66853 13.5694 7.3999 13.9008 7.3999H16.3008C16.6322 7.3999 16.9008 7.66853 16.9008 7.9999V17.5999C16.9008 17.9313 16.6322 18.1999 16.3008 18.1999H13.9008C13.5694 18.1999 13.3008 17.9313 13.3008 17.5999V7.9999ZM14.5008 8.5999V16.9999H15.7008V8.5999H14.5008Z" fill="#4DBF9D"/>
<path fill-rule="evenodd" clip-rule="evenodd" d="M10.3008 22.8501C10.715 22.8501 11.0508 23.1859 11.0508 23.6001V27.2001C11.0508 27.6143 10.715 27.9501 10.3008 27.9501C9.88657 27.9501 9.55078 27.6143 9.55078 27.2001V23.6001C9.55078 23.1859 9.88657 22.8501 10.3008 22.8501Z" fill="#4DBF9D"/>
<path fill-rule="evenodd" clip-rule="evenodd" d="M10.3008 12.05C10.715 12.05 11.0508 12.3858 11.0508 12.8V15.2C11.0508 15.6143 10.715 15.95 10.3008 15.95C9.88657 15.95 9.55078 15.6143 9.55078 15.2V12.8C9.55078 12.3858 9.88657 12.05 10.3008 12.05Z" fill="#4DBF9D"/>
<path fill-rule="evenodd" clip-rule="evenodd" d="M8.34961 15.2C8.34961 14.7857 8.6854 14.45 9.09961 14.45H11.4996C11.9138 14.45 12.2496 14.7857 12.2496 15.2V23.6C12.2496 24.0142 11.9138 24.35 11.4996 24.35H9.09961C8.6854 24.35 8.34961 24.0142 8.34961 23.6V15.2ZM9.84961 15.95V22.85H10.7496V15.95H9.84961Z" fill="#4DBF9D"/>
<path fill-rule="evenodd" clip-rule="evenodd" d="M39.1 27.8C39.4314 27.8 39.7 28.0687 39.7 28.4V30.8C39.7 31.1314 39.4314 31.4 39.1 31.4C38.7686 31.4 38.5 31.1314 38.5 30.8V28.4C38.5 28.0687 38.7686 27.8 39.1 27.8Z" fill="#4DBF9D"/>
<path fill-rule="evenodd" clip-rule="evenodd" d="M39.1 14.6001C39.4314 14.6001 39.7 14.8687 39.7 15.2001V17.6001C39.7 17.9315 39.4314 18.2001 39.1 18.2001C38.7686 18.2001 38.5 17.9315 38.5 17.6001V15.2001C38.5 14.8687 38.7686 14.6001 39.1 14.6001Z" fill="#4DBF9D"/>
<path fill-rule="evenodd" clip-rule="evenodd" d="M37.3008 17.6C37.3008 17.2686 37.5694 17 37.9008 17H40.3008C40.6322 17 40.9008 17.2686 40.9008 17.6V28.4C40.9008 28.7314 40.6322 29 40.3008 29H37.9008C37.5694 29 37.3008 28.7314 37.3008 28.4V17.6ZM38.5008 18.2V27.8H39.7008V18.2H38.5008Z" fill="#4DBF9D"/>
<path fill-rule="evenodd" clip-rule="evenodd" d="M34.2992 18.2C34.6306 18.2 34.8992 18.4686 34.8992 18.8V24.8C34.8992 25.1313 34.6306 25.4 34.2992 25.4C33.9678 25.4 33.6992 25.1313 33.6992 24.8V18.8C33.6992 18.4686 33.9678 18.2 34.2992 18.2Z" fill="#4DBF9D"/>
<path fill-rule="evenodd" clip-rule="evenodd" d="M34.2992 8.6001C34.6306 8.6001 34.8992 8.86873 34.8992 9.2001V11.6001C34.8992 11.9315 34.6306 12.2001 34.2992 12.2001C33.9678 12.2001 33.6992 11.9315 33.6992 11.6001V9.2001C33.6992 8.86873 33.9678 8.6001 34.2992 8.6001Z" fill="#4DBF9D"/>
<path fill-rule="evenodd" clip-rule="evenodd" d="M32.5 11.6C32.5 11.2686 32.7686 11 33.1 11H35.5C35.8314 11 36.1 11.2686 36.1 11.6V18.8C36.1 19.1314 35.8314 19.4 35.5 19.4H33.1C32.7686 19.4 32.5 19.1314 32.5 18.8V11.6ZM33.7 12.2V18.2H34.9V12.2H33.7Z" fill="#4DBF9D"/>
<path fill-rule="evenodd" clip-rule="evenodd" d="M6.69922 5.1001C6.97536 5.1001 7.19922 5.32396 7.19922 5.6001V40.4001C7.19922 40.6762 6.97536 40.9001 6.69922 40.9001C6.42308 40.9001 6.19922 40.6762 6.19922 40.4001V5.6001C6.19922 5.32396 6.42308 5.1001 6.69922 5.1001Z" fill="#606060"/>
<path fill-rule="evenodd" clip-rule="evenodd" d="M5 38C5 37.7239 5.22386 37.5 5.5 37.5H40.3C40.5761 37.5 40.8 37.7239 40.8 38C40.8 38.2761 40.5761 38.5 40.3 38.5H5.5C5.22386 38.5 5 38.2761 5 38Z" fill="#606060"/>
</svg>
