<svg width="45" height="45" viewBox="0 0 45 45" fill="none" xmlns="http://www.w3.org/2000/svg">
<path fill-rule="evenodd" clip-rule="evenodd" d="M18.6346 25.8597C18.8298 25.6644 19.1464 25.6643 19.3417 25.8595L21.0337 27.5503C21.229 27.7455 21.2291 28.0621 21.034 28.2574C20.8388 28.4528 20.5222 28.4529 20.3268 28.2577L18.6348 26.5668C18.4395 26.3716 18.4394 26.055 18.6346 25.8597Z" fill="#4DBF9D"/>
<path fill-rule="evenodd" clip-rule="evenodd" d="M23.7225 17.3695C23.9177 17.1741 24.2343 17.174 24.4296 17.3692L27.8256 20.763C28.0209 20.9582 28.021 21.2747 27.8258 21.4701C27.6306 21.6654 27.3141 21.6655 27.1187 21.4703L23.7227 18.0766C23.5274 17.8814 23.5273 17.5648 23.7225 17.3695Z" fill="#4DBF9D"/>
<path fill-rule="evenodd" clip-rule="evenodd" d="M5 12.7221C5 10.455 6.83217 8.62451 9.1 8.62451H28.9C29.1761 8.62451 29.4 8.84837 29.4 9.12451C29.4 9.40065 29.1761 9.62451 28.9 9.62451H9.1C7.38383 9.62451 6 11.0079 6 12.7221V31.9093C6 33.6235 7.38383 35.0069 9.1 35.0069H29.5C29.7761 35.0069 30 35.2308 30 35.5069V38.9737L33.3238 35.1775C33.4188 35.0691 33.5559 35.0069 33.7 35.0069H36.7C38.4162 35.0069 39.8 33.6235 39.8 31.9093V15.7201C39.8 15.444 40.0239 15.2201 40.3 15.2201C40.5761 15.2201 40.8 15.444 40.8 15.7201V31.9093C40.8 34.1765 38.9678 36.0069 36.7 36.0069H33.9268L29.8762 40.6331C29.739 40.7898 29.519 40.845 29.3241 40.7717C29.1291 40.6985 29 40.512 29 40.3037V36.0069H9.1C6.83217 36.0069 5 34.1765 5 31.9093V12.7221Z" fill="#606060"/>
<path fill-rule="evenodd" clip-rule="evenodd" d="M37.2955 5.49709C37.9587 4.8343 39.0431 4.8343 39.7063 5.49709C40.3697 6.16007 40.3697 7.24432 39.7063 7.9073L38.7703 8.84268C38.575 9.03788 38.2584 9.03777 38.0632 8.84244C37.868 8.64712 37.8681 8.33053 38.0635 8.13534L38.9995 7.19996C39.272 6.92756 39.272 6.47684 38.9995 6.20444C38.7267 5.93185 38.2751 5.93185 38.0023 6.20444L37.6548 5.85668L38.0023 6.20444L37.0663 7.13981C36.871 7.33501 36.5544 7.33491 36.3592 7.13958C36.164 6.94425 36.1641 6.62767 36.3595 6.43247L37.2955 5.49709" fill="#4DBF9D"/>
<path fill-rule="evenodd" clip-rule="evenodd" d="M36.8764 7.47726C36.3612 6.97259 35.5363 6.97735 35.0377 7.47567L17.7059 24.7959L15.6919 29.4953L20.395 27.4824L37.7268 10.1621C38.2253 9.66391 38.23 8.84018 37.7252 8.32546C37.7247 8.32499 37.7243 8.32453 37.7238 8.32406L36.8779 7.47867C36.8774 7.4782 36.8769 7.47773 36.8764 7.47726ZM34.3308 6.76832C35.2237 5.87603 36.6778 5.88033 37.5787 6.76532L37.5817 6.76831L38.4367 7.62278C39.3225 8.5232 39.3268 9.97693 38.4337 10.8694L21.0337 28.2578C20.9887 28.3028 20.9355 28.3388 20.877 28.3638L14.937 30.9061C14.7491 30.9865 14.5311 30.9445 14.3866 30.7999C14.2421 30.6553 14.2002 30.4374 14.2807 30.2495L16.8247 24.3134C16.8498 24.2549 16.8858 24.2017 16.9308 24.1567L34.3308 6.76832Z" fill="#4DBF9D"/>
<path fill-rule="evenodd" clip-rule="evenodd" d="M37.2939 7.20028C37.4891 7.00495 37.8057 7.00484 38.001 7.20004L40.1236 9.32122C41.0311 10.2145 41.0262 11.6717 40.125 12.5723L35.037 17.6569C34.8417 17.8521 34.5251 17.852 34.3299 17.6566C34.1347 17.4613 34.1348 17.1447 34.3302 16.9495L39.4182 11.8649C39.9324 11.351 39.928 10.5309 39.4212 10.033L39.4181 10.03L39.4182 10.03L37.2942 7.90738C37.0988 7.71218 37.0987 7.3956 37.2939 7.20028Z" fill="#4DBF9D"/>
<path fill-rule="evenodd" clip-rule="evenodd" d="M15.8242 18.6941C15.8242 18.4179 16.0481 18.1941 16.3242 18.1941H19.3002C19.5764 18.1941 19.8002 18.4179 19.8002 18.6941C19.8002 18.9702 19.5764 19.1941 19.3002 19.1941H16.3242C16.0481 19.1941 15.8242 18.9702 15.8242 18.6941Z" fill="#606060"/>
<path fill-rule="evenodd" clip-rule="evenodd" d="M19.4238 16.2959C19.4238 16.0198 19.6477 15.7959 19.9238 15.7959H21.6998C21.976 15.7959 22.1998 16.0198 22.1998 16.2959C22.1998 16.572 21.976 16.7959 21.6998 16.7959H19.9238C19.6477 16.7959 19.4238 16.572 19.4238 16.2959Z" fill="#606060"/>
<path fill-rule="evenodd" clip-rule="evenodd" d="M9.82422 18.6941C9.82422 18.4179 10.0481 18.1941 10.3242 18.1941H13.9002C14.1764 18.1941 14.4002 18.4179 14.4002 18.6941C14.4002 18.9702 14.1764 19.1941 13.9002 19.1941H10.3242C10.0481 19.1941 9.82422 18.9702 9.82422 18.6941Z" fill="#606060"/>
<path fill-rule="evenodd" clip-rule="evenodd" d="M9.82422 16.2959C9.82422 16.0198 10.0481 15.7959 10.3242 15.7959H17.5002C17.7764 15.7959 18.0002 16.0198 18.0002 16.2959C18.0002 16.572 17.7764 16.7959 17.5002 16.7959H10.3242C10.0481 16.7959 9.82422 16.572 9.82422 16.2959Z" fill="#606060"/>
<path fill-rule="evenodd" clip-rule="evenodd" d="M11.0234 13.8975C11.0234 13.6213 11.2473 13.3975 11.5234 13.3975H15.0994C15.3756 13.3975 15.5994 13.6213 15.5994 13.8975C15.5994 14.1736 15.3756 14.3975 15.0994 14.3975H11.5234C11.2473 14.3975 11.0234 14.1736 11.0234 13.8975Z" fill="#606060"/>
<path fill-rule="evenodd" clip-rule="evenodd" d="M17.0234 13.8975C17.0234 13.6213 17.2473 13.3975 17.5234 13.3975H24.0994C24.3756 13.3975 24.5994 13.6213 24.5994 13.8975C24.5994 14.1736 24.3756 14.3975 24.0994 14.3975H17.5234C17.2473 14.3975 17.0234 14.1736 17.0234 13.8975Z" fill="#606060"/>
</svg>
