<svg width="50" height="50" viewBox="0 0 50 50" fill="none" xmlns="http://www.w3.org/2000/svg">
<path d="M49.6997 24.8499C49.6997 11.1254 38.5744 0 24.8499 0C11.1254 0 0 11.1254 0 24.8499C0 37.2527 9.08585 47.535 20.9659 49.3979V32.0324H14.6559V24.8499H20.9659V19.3719C20.9659 13.1428 24.6768 9.70434 30.3537 9.70434C33.0743 9.70434 35.9163 10.1903 35.9163 10.1903V16.3052H32.7834C29.6947 16.3052 28.7338 18.2196 28.7338 20.1855V24.8462H35.6255L34.5211 32.0324H28.7338V49.3979C40.6139 47.5314 49.6997 37.2527 49.6997 24.8499Z" fill="#4676ED"/>
<path d="M34.5204 32.0324L35.6212 24.8499H28.7332V20.1855C28.7332 18.2196 29.694 16.3052 32.7828 16.3052H35.9157V10.1903C35.9157 10.1903 33.0736 9.70435 30.353 9.70435C24.6762 9.70435 20.9653 13.1428 20.9653 19.3719V24.8462H14.6553V32.0324H20.9653V49.3979C22.2317 49.5967 23.5276 49.6997 24.8492 49.6997C26.1709 49.6997 27.4668 49.5967 28.7332 49.3979V32.0324H34.5204Z" fill="white"/>
</svg>
