<svg width="430" height="280" viewBox="0 0 430 280" fill="none" xmlns="http://www.w3.org/2000/svg">
<path fill-rule="evenodd" clip-rule="evenodd" d="M1 1L20.4367 92.8735C21.0749 95.8904 25.303 96.0969 26.2323 93.1566L41.46 44.9735C42.1774 42.7038 45.1256 42.1335 46.6376 43.972L59.9722 60.1859C61.2997 61.8002 63.8298 61.5962 64.8816 59.7901L82.6602 29.2628C84.063 26.8541 87.706 27.4937 88.2043 30.2363L104.316 118.913C104.853 121.873 108.927 122.287 110.05 119.497L124.223 84.2775C125.039 82.2499 127.679 81.7473 129.183 83.3335L145.914 100.983C147.33 102.476 149.794 102.134 150.749 100.312L165.883 71.4393C167.219 68.8907 171.029 69.5025 171.5 72.3411L185.254 155.258C185.725 158.096 189.534 158.708 190.87 156.16L206.36 126.639C207.273 124.898 209.586 124.491 211.038 125.816L226.441 139.866C227.92 141.215 230.281 140.765 231.159 138.965L247.21 106.067C248.415 103.597 252.032 103.913 252.79 106.555L267.13 156.505C267.89 159.155 271.522 159.462 272.717 156.977L287.191 126.877C288.068 125.052 290.464 124.602 291.943 125.985L306.364 139.469C307.935 140.937 310.495 140.326 311.231 138.306L329.197 89.0558C330.208 86.2845 334.192 86.4834 334.922 89.3417L353.921 163.747C354.572 166.293 357.949 166.833 359.359 164.615L371.433 145.635C372.445 144.044 374.657 143.77 376.026 145.067L393.172 161.294C394.635 162.679 397.019 162.257 397.918 160.455L413.55 129.138C414.703 126.828 418.042 126.957 419.014 129.349L429.833 156V238.433H1V1Z" fill="url(#paint0_linear_81_108)"/>
<path d="M1.00293 1L20.3869 92.8455C21.024 95.8645 25.2556 96.0708 26.1834 93.1281L41.3614 44.9865C42.0779 42.7138 45.0304 42.1434 46.5419 43.9857L59.8238 60.1748C61.1513 61.7928 63.6858 61.5886 64.7371 59.779L82.4546 29.2831C83.856 26.871 87.5029 27.5101 88.0005 30.2551L104.065 118.888C104.602 121.85 108.68 122.264 109.801 119.47L123.924 84.2887C124.739 82.2579 127.384 81.7551 128.888 83.345L145.558 100.972C146.974 102.469 149.442 102.127 150.396 100.301L165.477 71.4616C166.811 68.9098 170.625 69.521 171.095 72.3619L184.81 155.237C185.28 158.077 189.092 158.689 190.427 156.138L205.863 126.648C206.776 124.904 209.092 124.497 210.545 125.825L225.89 139.856C227.37 141.209 229.735 140.758 230.612 138.955L246.61 106.087C247.814 103.614 251.434 103.93 252.192 106.574L266.486 156.485C267.245 159.138 270.881 159.445 272.075 156.957L286.499 126.886C287.376 125.058 289.777 124.609 291.256 125.995L305.62 139.458C307.19 140.93 309.754 140.318 310.491 138.295L328.4 89.0803C329.41 86.3062 333.398 86.505 334.126 89.3657L353.07 163.731C353.719 166.28 357.101 166.819 358.51 164.598L370.537 145.645C371.549 144.05 373.765 143.776 375.135 145.076L392.219 161.285C393.682 162.673 396.071 162.251 396.97 160.445L412.55 129.155C413.702 126.841 417.046 126.971 418.016 129.366L428.803 156" stroke="url(#paint1_linear_81_108)" stroke-width="2"/>
<g clip-path="url(#clip0_81_108)">
<g clip-path="url(#clip1_81_108)">
<rect x="69.2002" y="253.133" width="31" height="26.8667" rx="4" fill="url(#paint2_linear_81_108)"/>
<path d="M79.3712 270.133H80.6837V261.678H79.3712L77.1446 263.26V264.549L79.2715 263.032H79.3712V270.133ZM84.2266 270.133H87.2794C89.7989 270.133 91.2579 268.575 91.2579 265.891V265.88C91.2579 263.225 89.7872 261.678 87.2794 261.678H84.2266V270.133ZM85.5391 269.003V262.809H87.1329C88.8848 262.809 89.9219 263.952 89.9219 265.897V265.909C89.9219 267.872 88.9024 269.003 87.1329 269.003H85.5391Z" fill="white"/>
</g>
<path d="M219.513 270.133H220.825V261.678H219.513L217.286 263.26V264.549L219.413 263.032H219.513V270.133ZM224.368 270.133H225.564V263.928H225.657L228.136 270.133H229.109L231.593 263.928H231.681V270.133H232.876V261.678H231.364L228.669 268.422H228.575L225.88 261.678H224.368V270.133Z" fill="#8D9398"/>
<path d="M152.277 270.133H153.59V261.678H152.277L150.051 263.26V264.549L152.178 263.032H152.277V270.133ZM158.873 270.133H160.115L161.926 263.811H162.008L163.824 270.133H165.06L167.345 261.678H165.98L164.433 268.253H164.351L162.576 261.678H161.357L159.594 268.253H159.511L157.959 261.678H156.594L158.873 270.133Z" fill="#8D9398"/>
<path d="M286.395 270.133H287.708V261.678H286.395L284.168 263.26V264.549L286.295 263.032H286.395V270.133ZM293.577 270.133H294.889V266.671L297.872 261.678H296.413L294.286 265.364H294.186L292.059 261.678H290.6L293.577 266.671V270.133Z" fill="#8D9398"/>
<path d="M351.466 270.339C353.247 270.339 354.501 269.143 354.501 267.409V267.397C354.501 265.774 353.364 264.59 351.776 264.59C350.997 264.59 350.335 264.919 349.978 265.487H349.878L350.136 262.792H354.021V261.678H349.105L348.683 266.589H349.814C349.913 266.395 350.048 266.231 350.2 266.096C350.534 265.792 350.974 265.639 351.489 265.639C352.509 265.639 353.247 266.378 353.247 267.421V267.432C353.247 268.493 352.521 269.237 351.478 269.237C350.552 269.237 349.878 268.645 349.767 267.901L349.761 267.854H348.53L348.536 267.93C348.653 269.301 349.802 270.339 351.466 270.339ZM359.568 270.133H360.88V266.671L363.862 261.678H362.403L360.276 265.364H360.177L358.05 261.678H356.591L359.568 266.671V270.133Z" fill="#8D9398"/>
</g>
<defs>
<linearGradient id="paint0_linear_81_108" x1="-213.417" y1="119.716" x2="-12.1854" y2="483.165" gradientUnits="userSpaceOnUse">
<stop stop-color="#4FACFE" stop-opacity="0.0967548"/>
<stop offset="1" stop-color="#00F2FE" stop-opacity="0.095389"/>
</linearGradient>
<linearGradient id="paint1_linear_81_108" x1="-212.897" y1="85.7333" x2="-96.8449" y2="378.694" gradientUnits="userSpaceOnUse">
<stop stop-color="#013648"/>
<stop offset="1" stop-color="#00F2FE"/>
</linearGradient>
<linearGradient id="paint2_linear_81_108" x1="53.7002" y1="266.567" x2="80.2941" y2="297.252" gradientUnits="userSpaceOnUse">
<stop stop-color="#013648"/>
<stop offset="1" stop-color="#00F2FE"/>
</linearGradient>
<clipPath id="clip0_81_108">
<rect width="295.533" height="26.8667" fill="white" transform="translate(69.2002 253.133)"/>
</clipPath>
<clipPath id="clip1_81_108">
<rect width="31" height="26.8667" fill="white" transform="translate(69.2002 253.133)"/>
</clipPath>
</defs>
</svg>
