<svg width="427" height="278" viewBox="0 0 427 278" fill="none" xmlns="http://www.w3.org/2000/svg">
<path fill-rule="evenodd" clip-rule="evenodd" d="M1 1L20.2804 92.1349C20.9187 95.1518 25.1468 95.3583 26.076 92.418L41.1581 44.6961C41.8754 42.4263 44.8237 41.856 46.3357 43.6945L59.5298 59.7378C60.8574 61.352 63.3874 61.1481 64.4393 59.342L82.0455 29.1106C83.4483 26.7018 87.0913 27.3415 87.5895 30.0841L103.562 117.994C104.099 120.954 108.174 121.369 109.297 118.578L123.327 83.7116C124.143 81.684 126.783 81.1814 128.287 82.7676L144.855 100.244C146.27 101.737 148.734 101.395 149.689 99.5733L164.671 70.9911C166.007 68.4426 169.817 69.0543 170.288 71.893L183.923 154.089C184.394 156.927 188.202 157.539 189.539 154.991L204.875 125.763C205.788 124.022 208.101 123.615 209.553 124.94L224.804 138.851C226.283 140.201 228.644 139.75 229.522 137.95L245.421 105.364C246.626 102.894 250.242 103.21 251 105.852L265.206 155.336C265.967 157.986 269.599 158.293 270.793 155.808L285.127 126.001C286.004 124.176 288.4 123.726 289.879 125.109L304.151 138.454C305.722 139.923 308.282 139.311 309.019 137.291L326.82 88.4899C327.831 85.7186 331.816 85.9175 332.546 88.7758L351.379 162.532C352.029 165.079 355.407 165.618 356.817 163.4L368.763 144.621C369.776 143.029 371.987 142.756 373.357 144.052L390.339 160.125C391.802 161.51 394.186 161.088 395.086 159.286L410.571 128.262C411.724 125.952 415.064 126.081 416.035 128.473L426.759 154.889V236.73H1V1Z" fill="url(#paint0_linear_75_1774)"/>
<path d="M1.00293 1L20.231 92.1069C20.8682 95.126 25.0997 95.3322 26.0275 92.3895L41.0601 44.709C41.7766 42.4364 44.7292 41.866 46.2406 43.7083L59.3825 59.7266C60.71 61.3446 63.2444 61.1405 64.2958 59.3308L81.8413 29.1308C83.2427 26.7187 86.8897 27.3579 87.3872 30.1029L103.313 117.969C103.85 120.931 107.928 121.346 109.049 118.552L123.031 83.7228C123.846 81.692 126.491 81.1892 127.994 82.7791L144.501 100.234C145.917 101.731 148.385 101.388 149.339 99.5628L164.268 71.0134C165.603 68.4617 169.416 69.0729 169.886 71.9138L183.482 154.068C183.952 156.908 187.764 157.52 189.099 154.969L204.381 125.772C205.294 124.028 207.611 123.621 209.064 124.949L224.257 138.842C225.736 140.194 228.101 139.743 228.979 137.941L244.825 105.384C246.029 102.911 249.649 103.227 250.406 105.871L264.567 155.316C265.327 157.969 268.963 158.276 270.156 155.788L284.44 126.01C285.317 124.182 287.717 123.733 289.197 125.119L303.412 138.443C304.983 139.916 307.547 139.303 308.283 137.281L326.029 88.5144C327.039 85.7403 331.027 85.9391 331.756 88.7998L350.534 162.516C351.183 165.065 354.565 165.604 355.974 163.383L367.874 144.63C368.886 143.035 371.102 142.761 372.472 144.061L389.394 160.116C390.857 161.504 393.245 161.082 394.144 159.276L409.579 128.279C410.731 125.965 414.075 126.095 415.045 128.49L425.736 154.889" stroke="url(#paint1_linear_75_1774)" stroke-width="2"/>
<g clip-path="url(#clip0_75_1774)">
<g clip-path="url(#clip1_75_1774)">
<rect x="68.7109" y="251.326" width="30.7778" height="26.6741" rx="4" fill="url(#paint2_linear_75_1774)"/>
<path d="M78.7743 268.326H80.0868V259.871H78.7743L76.5477 261.453V262.742L78.6747 261.224H78.7743V268.326ZM83.6298 268.326H86.6825C89.202 268.326 90.661 266.767 90.661 264.084V264.072C90.661 261.418 89.1903 259.871 86.6825 259.871H83.6298V268.326ZM84.9423 267.195V261.002H86.536C88.288 261.002 89.3251 262.144 89.3251 264.09V264.101C89.3251 266.064 88.3055 267.195 86.536 267.195H84.9423Z" fill="white"/>
</g>
<path d="M217.905 268.326H219.218V259.871H217.905L215.679 261.453V262.742L217.806 261.224H217.905V268.326ZM222.761 268.326H223.956V262.121H224.05L226.528 268.326H227.501L229.985 262.121H230.073V268.326H231.268V259.871H229.757L227.061 266.615H226.968L224.272 259.871H222.761V268.326Z" fill="#8D9398"/>
<path d="M151.147 268.326H152.459V259.871H151.147L148.92 261.453V262.742L151.047 261.224H151.147V268.326ZM157.742 268.326H158.985L160.795 262.004H160.877L162.694 268.326H163.93L166.215 259.871H164.85L163.303 266.445H163.221L161.446 259.871H160.227L158.463 266.445H158.381L156.828 259.871H155.463L157.742 268.326Z" fill="#8D9398"/>
<path d="M284.317 268.326H285.63V259.871H284.317L282.09 261.453V262.742L284.217 261.224H284.317V268.326ZM291.499 268.326H292.811V264.863L295.794 259.871H294.335L292.208 263.556H292.108L289.981 259.871H288.522L291.499 264.863V268.326Z" fill="#8D9398"/>
<path d="M348.921 268.531C350.702 268.531 351.956 267.336 351.956 265.601V265.59C351.956 263.967 350.819 262.783 349.232 262.783C348.452 262.783 347.79 263.111 347.433 263.679H347.333L347.591 260.984H351.476V259.871H346.56L346.138 264.781H347.269C347.368 264.588 347.503 264.424 347.655 264.289C347.989 263.984 348.429 263.832 348.944 263.832C349.964 263.832 350.702 264.57 350.702 265.613V265.625C350.702 266.685 349.976 267.429 348.933 267.429C348.007 267.429 347.333 266.838 347.222 266.094L347.216 266.047H345.986L345.991 266.123C346.109 267.494 347.257 268.531 348.921 268.531ZM357.023 268.326H358.335V264.863L361.318 259.871H359.859L357.732 263.556H357.632L355.505 259.871H354.046L357.023 264.863V268.326Z" fill="#8D9398"/>
</g>
<defs>
<linearGradient id="paint0_linear_75_1774" x1="-211.88" y1="118.865" x2="-12.0909" y2="479.709" gradientUnits="userSpaceOnUse">
<stop stop-color="#4FACFE" stop-opacity="0.0967548"/>
<stop offset="1" stop-color="#00F2FE" stop-opacity="0.095389"/>
</linearGradient>
<linearGradient id="paint1_linear_75_1774" x1="-211.364" y1="85.1259" x2="-96.1435" y2="375.987" gradientUnits="userSpaceOnUse">
<stop stop-color="#43C1A9"/>
<stop offset="1" stop-color="#00F2FE"/>
</linearGradient>
<linearGradient id="paint2_linear_75_1774" x1="53.3221" y1="264.663" x2="79.7253" y2="295.128" gradientUnits="userSpaceOnUse">
<stop stop-color="#43C1A9"/>
<stop offset="1" stop-color="#00F2FE"/>
</linearGradient>
<clipPath id="clip0_75_1774">
<rect width="293.415" height="26.6741" fill="white" transform="translate(68.7109 251.326)"/>
</clipPath>
<clipPath id="clip1_75_1774">
<rect width="30.7778" height="26.6741" fill="white" transform="translate(68.7109 251.326)"/>
</clipPath>
</defs>
</svg>
