<svg width="24" height="24" viewBox="0 0 24 24" fill="none" xmlns="http://www.w3.org/2000/svg">
<path d="M4.13643 8.84243L4.13725 8.84076C4.22834 8.65525 4.34721 8.51383 4.49742 8.40193L4.49745 8.40198L4.50604 8.39543L11.2495 3.25757C11.3772 3.16394 11.4997 3.10137 11.6176 3.06145C11.7366 3.02116 11.8624 3 12 3C12.1376 3 12.2634 3.02116 12.3824 3.06145C12.5003 3.10137 12.6228 3.16394 12.7505 3.25756L19.494 8.39543L19.4939 8.39548L19.5026 8.40193C19.6529 8.51394 19.7724 8.65562 19.8642 8.84149C19.9554 9.02744 20 9.21924 20 9.42857V19.7143C20 20.0806 19.8829 20.3669 19.627 20.6276C19.3709 20.8871 19.0963 21 18.75 21H15.25V14V13H14.25H9.75H8.75V14V21H5.25C4.90346 21 4.62945 20.887 4.37415 20.6276C4.11727 20.3667 4 20.0803 4 19.7143V9.42857C4 9.21974 4.04473 9.02831 4.13643 8.84243Z" stroke="#C2C2C2" stroke-width="2"/>
</svg>
