<svg width="11" height="11" viewBox="0 0 11 11" fill="none" xmlns="http://www.w3.org/2000/svg">
<path d="M4.95 8.25H6.05V4.95H4.95V8.25ZM5.5 3.85C5.65583 3.85 5.78655 3.7972 5.89215 3.6916C5.99738 3.58637 6.05 3.45583 6.05 3.3C6.05 3.14417 5.99738 3.01345 5.89215 2.90785C5.78655 2.80262 5.65583 2.75 5.5 2.75C5.34417 2.75 5.21363 2.80262 5.1084 2.90785C5.0028 3.01345 4.95 3.14417 4.95 3.3C4.95 3.45583 5.0028 3.58637 5.1084 3.6916C5.21363 3.7972 5.34417 3.85 5.5 3.85ZM5.5 11C4.73917 11 4.02417 10.8555 3.355 10.5666C2.68583 10.278 2.10375 9.88625 1.60875 9.39125C1.11375 8.89625 0.721967 8.31417 0.4334 7.645C0.144467 6.97583 0 6.26083 0 5.5C0 4.73917 0.144467 4.02417 0.4334 3.355C0.721967 2.68583 1.11375 2.10375 1.60875 1.60875C2.10375 1.11375 2.68583 0.721783 3.355 0.43285C4.02417 0.144283 4.73917 0 5.5 0C6.26083 0 6.97583 0.144283 7.645 0.43285C8.31417 0.721783 8.89625 1.11375 9.39125 1.60875C9.88625 2.10375 10.278 2.68583 10.5666 3.355C10.8555 4.02417 11 4.73917 11 5.5C11 6.26083 10.8555 6.97583 10.5666 7.645C10.278 8.31417 9.88625 8.89625 9.39125 9.39125C8.89625 9.88625 8.31417 10.278 7.645 10.5666C6.97583 10.8555 6.26083 11 5.5 11ZM5.5 9.9C6.72833 9.9 7.76875 9.47375 8.62125 8.62125C9.47375 7.76875 9.9 6.72833 9.9 5.5C9.9 4.27167 9.47375 3.23125 8.62125 2.37875C7.76875 1.52625 6.72833 1.1 5.5 1.1C4.27167 1.1 3.23125 1.52625 2.37875 2.37875C1.52625 3.23125 1.1 4.27167 1.1 5.5C1.1 6.72833 1.52625 7.76875 2.37875 8.62125C3.23125 9.47375 4.27167 9.9 5.5 9.9Z" fill="#575757"/>
</svg>
