<svg width="45" height="45" viewBox="0 0 45 45" fill="none" xmlns="http://www.w3.org/2000/svg">
<path fill-rule="evenodd" clip-rule="evenodd" d="M8.47 3.5C7.39167 3.5 6.5 4.39075 6.5 5.48333V39.65C6.5 40.7426 7.39167 41.6333 8.47 41.6333H23.43C24.5083 41.6333 25.4 40.7426 25.4 39.65V35.55C25.4 35.1358 25.7358 34.8 26.15 34.8C26.5642 34.8 26.9 35.1358 26.9 35.55V39.65C26.9 41.5641 25.3437 43.1333 23.43 43.1333H8.47C6.55633 43.1333 5 41.5641 5 39.65V5.48333C5 3.56925 6.55633 2 8.47 2H23.43C25.3437 2 26.9 3.56925 26.9 5.48333V8.21667C26.9 8.63088 26.5642 8.96667 26.15 8.96667C25.7358 8.96667 25.4 8.63088 25.4 8.21667V5.48333C25.4 4.39075 24.5083 3.5 23.43 3.5H8.47Z" fill="#606060"/>
<path fill-rule="evenodd" clip-rule="evenodd" d="M13.1602 5.4834C13.1602 5.06918 13.4959 4.7334 13.9102 4.7334H17.9902C18.4044 4.7334 18.7402 5.06918 18.7402 5.4834C18.7402 5.89761 18.4044 6.2334 17.9902 6.2334H13.9102C13.4959 6.2334 13.1602 5.89761 13.1602 5.4834Z" fill="#4DBF9D"/>
<path fill-rule="evenodd" clip-rule="evenodd" d="M19.3509 11.7C18.2725 11.7 17.3809 12.5907 17.3809 13.6833V25.9833C17.3809 27.0759 18.2725 27.9666 19.3509 27.9666H24.1109C24.5251 27.9666 24.8609 28.3024 24.8609 28.7166C24.8609 29.1308 24.5251 29.4666 24.1109 29.4666H19.3509C17.4372 29.4666 15.8809 27.8974 15.8809 25.9833V13.6833C15.8809 11.7692 17.4372 10.2 19.3509 10.2H32.9509C34.8645 10.2 36.4209 11.7692 36.4209 13.6833V25.9833C36.4209 27.8974 34.8645 29.4666 32.9509 29.4666H28.5933L26.0958 33.2312C25.8668 33.5764 25.4014 33.6706 25.0562 33.4416C24.7111 33.2126 24.6169 32.7472 24.8459 32.402L27.5659 28.302C27.7048 28.0925 27.9395 27.9666 28.1909 27.9666H32.9509C34.0292 27.9666 34.9209 27.0759 34.9209 25.9833V13.6833C34.9209 12.5907 34.0292 11.7 32.9509 11.7H19.3509Z" fill="#4DBF9D"/>
<path fill-rule="evenodd" clip-rule="evenodd" d="M22.6797 17.7834C22.6797 15.8693 24.236 14.3 26.1497 14.3C28.0634 14.3 29.6197 15.8693 29.6197 17.7834V18.3027C29.6197 19.532 28.9273 20.6349 27.8508 21.1847C27.2681 21.4822 26.8997 22.074 26.8997 22.7307V23.25C26.8997 23.6643 26.5639 24 26.1497 24C25.7355 24 25.3997 23.6643 25.3997 23.25V22.7307C25.3997 21.5014 26.0921 20.3985 27.1686 19.8488C27.7513 19.5512 28.1197 18.9594 28.1197 18.3027V17.7834C28.1197 16.6908 27.228 15.8 26.1497 15.8C25.0714 15.8 24.1797 16.6908 24.1797 17.7834C24.1797 18.1976 23.8439 18.5334 23.4297 18.5334C23.0155 18.5334 22.6797 18.1976 22.6797 17.7834Z" fill="#4DBF9D"/>
<path fill-rule="evenodd" clip-rule="evenodd" d="M38.3906 19.6299C38.8048 19.6299 39.1406 19.9657 39.1406 20.3799V20.5166C39.1406 20.9308 38.8048 21.2666 38.3906 21.2666C37.9764 21.2666 37.6406 20.9308 37.6406 20.5166V20.3799C37.6406 19.9657 37.9764 19.6299 38.3906 19.6299Z" fill="#606060"/>
<path fill-rule="evenodd" clip-rule="evenodd" d="M18.4648 35.55C18.4648 35.1358 18.8006 34.8 19.2148 34.8H19.3508C19.7651 34.8 20.1008 35.1358 20.1008 35.55C20.1008 35.9643 19.7651 36.3 19.3508 36.3H19.2148C18.8006 36.3 18.4648 35.9643 18.4648 35.55Z" fill="#4DBF9D"/>
<path fill-rule="evenodd" clip-rule="evenodd" d="M15.0645 35.55C15.0645 35.1358 15.4002 34.8 15.8145 34.8H15.9505C16.3647 34.8 16.7005 35.1358 16.7005 35.55C16.7005 35.9643 16.3647 36.3 15.9505 36.3H15.8145C15.4002 36.3 15.0645 35.9643 15.0645 35.55Z" fill="#4DBF9D"/>
<path fill-rule="evenodd" clip-rule="evenodd" d="M11.6641 35.55C11.6641 35.1358 11.9998 34.8 12.4141 34.8H12.5501C12.9643 34.8 13.3001 35.1358 13.3001 35.55C13.3001 35.9643 12.9643 36.3 12.5501 36.3H12.4141C11.9998 36.3 11.6641 35.9643 11.6641 35.55Z" fill="#4DBF9D"/>
<path fill-rule="evenodd" clip-rule="evenodd" d="M38.3898 22.5C38.8041 22.5 39.1398 22.8358 39.1398 23.25V25.9833C39.1398 29.4144 36.3731 32.2 32.9498 32.2H31.5898C31.1756 32.2 30.8398 31.8642 30.8398 31.45C30.8398 31.0358 31.1756 30.7 31.5898 30.7H32.9498C35.5378 30.7 37.6398 28.5929 37.6398 25.9833V23.25C37.6398 22.8358 37.9756 22.5 38.3898 22.5Z" fill="#606060"/>
<path fill-rule="evenodd" clip-rule="evenodd" d="M26.1504 25.0557C26.5646 25.0557 26.9004 25.3915 26.9004 25.8057V25.9833C26.9004 26.3975 26.5646 26.7333 26.1504 26.7333C25.7362 26.7333 25.4004 26.3975 25.4004 25.9833V25.8057C25.4004 25.3915 25.7362 25.0557 26.1504 25.0557Z" fill="#4DBF9D"/>
</svg>
