<svg width="72" height="66" viewBox="0 0 72 66" fill="none" xmlns="http://www.w3.org/2000/svg">
<rect width="72" height="66" rx="7" fill="#F2F2F2"/>
<path d="M36 15C26.6121 15 19 22.6121 19 32C19 41.3879 26.6121 49 36 49C45.3879 49 53 41.3879 53 32C53 22.6121 45.3879 15 36 15ZM36 46.1161C28.2058 46.1161 21.8839 39.7942 21.8839 32C21.8839 24.2058 28.2058 17.8839 36 17.8839C43.7942 17.8839 50.1161 24.2058 50.1161 32C50.1161 39.7942 43.7942 46.1161 36 46.1161Z" fill="#4DBF9D"/>
<path d="M35 25.8214C35 26.3045 35.158 26.7678 35.4393 27.1094C35.7206 27.451 36.1022 27.6429 36.5 27.6429C36.8978 27.6429 37.2794 27.451 37.5607 27.1094C37.842 26.7678 38 26.3045 38 25.8214C38 25.3384 37.842 24.8751 37.5607 24.5335C37.2794 24.1919 36.8978 24 36.5 24C36.1022 24 35.7206 24.1919 35.4393 24.5335C35.158 24.8751 35 25.3384 35 25.8214V25.8214ZM37.25 30.0714H35.75C35.6125 30.0714 35.5 30.208 35.5 30.375V40.6964C35.5 40.8634 35.6125 41 35.75 41H37.25C37.3875 41 37.5 40.8634 37.5 40.6964V30.375C37.5 30.208 37.3875 30.0714 37.25 30.0714Z" fill="#4DBF9D"/>
</svg>
