<svg width="52" height="52" viewBox="0 0 52 52" fill="none" xmlns="http://www.w3.org/2000/svg">
<circle cx="26" cy="26" r="26" fill="url(#paint0_radial_605_5)"/>
<circle cx="26" cy="26" r="26" fill="url(#paint1_radial_605_5)"/>
<path d="M26.5014 10C22.2919 10 21.7635 10.0184 20.1103 10.0936C18.4602 10.1693 17.3338 10.4304 16.3483 10.8137C15.3287 11.2096 14.4639 11.7392 13.6025 12.601C12.7402 13.4627 12.2106 14.3274 11.8134 15.3465C11.429 16.3323 11.1676 17.4591 11.0933 19.1085C11.0194 20.7619 11 21.2904 11 25.5C11 29.7096 11.0186 30.2363 11.0936 31.8895C11.1696 33.5396 11.4307 34.666 11.8138 35.6515C12.2099 36.671 12.7396 37.5358 13.6014 38.3973C14.4627 39.2595 15.3274 39.7904 16.3463 40.1863C17.3325 40.5696 18.4591 40.8307 20.1089 40.9064C21.7623 40.9816 22.2902 41 26.4995 41C30.7095 41 31.2362 40.9816 32.8894 40.9064C34.5395 40.8307 35.6672 40.5696 36.6534 40.1863C37.6726 39.7904 38.5361 39.2595 39.3972 38.3973C40.2595 37.5358 40.789 36.671 41.1863 35.6519C41.5672 34.666 41.8289 33.5393 41.9064 31.8898C41.9806 30.2366 42 29.7096 42 25.5C42 21.2904 41.9806 20.7622 41.9064 19.1088C41.8289 17.4587 41.5672 16.3325 41.1863 15.347C40.789 14.3274 40.2595 13.4627 39.3972 12.601C38.5351 11.7389 37.6729 11.2093 36.6525 10.8139C35.6644 10.4304 34.5374 10.1691 32.8872 10.0936C31.2339 10.0184 30.7075 10 26.4966 10H26.5014ZM25.1109 12.7932C25.5237 12.7926 25.9842 12.7932 26.5014 12.7932C30.6401 12.7932 31.1305 12.8081 32.7648 12.8824C34.276 12.9515 35.0963 13.204 35.6427 13.4162C36.3661 13.697 36.8817 14.0329 37.4239 14.5756C37.9664 15.118 38.3022 15.6347 38.5838 16.358C38.796 16.9036 39.0488 17.7239 39.1176 19.2351C39.1919 20.8691 39.208 21.3598 39.208 25.4964C39.208 29.633 39.1919 30.1239 39.1176 31.7578C39.0485 33.269 38.796 34.0892 38.5838 34.635C38.3029 35.3584 37.9664 35.8734 37.4239 36.4156C36.8814 36.9581 36.3664 37.2938 35.6427 37.5748C35.0969 37.788 34.276 38.0398 32.7648 38.109C31.1308 38.1832 30.6401 38.1993 26.5014 38.1993C22.3626 38.1993 21.872 38.1832 20.2382 38.109C18.7269 38.0392 17.9066 37.7867 17.3598 37.5745C16.6366 37.2935 16.1198 36.9578 15.5773 36.4153C15.0348 35.8728 14.6991 35.3574 14.4174 34.6337C14.2052 34.088 13.9524 33.2677 13.8836 31.7565C13.8094 30.1225 13.7945 29.6318 13.7945 25.4926C13.7945 21.3535 13.8094 20.8652 13.8836 19.2312C13.9528 17.72 14.2052 16.8998 14.4174 16.3534C14.6985 15.63 15.0348 15.1134 15.5775 14.5709C16.12 14.0284 16.6366 13.6925 17.36 13.4111C17.9063 13.1979 18.7269 12.9461 20.2382 12.8766C21.668 12.812 22.2222 12.7926 25.1109 12.7894V12.7932ZM34.7753 15.3668C33.7484 15.3668 32.9153 16.1992 32.9153 17.2262C32.9153 18.253 33.7484 19.0862 34.7753 19.0862C35.8022 19.0862 36.6353 18.253 36.6353 17.2262C36.6353 16.1993 35.8022 15.3662 34.7753 15.3662V15.3668ZM26.5014 17.5401C22.1056 17.5401 18.5415 21.1041 18.5415 25.5C18.5415 29.8959 22.1056 33.4582 26.5014 33.4582C30.8974 33.4582 34.4602 29.8959 34.4602 25.5C34.4602 21.1042 30.897 17.5401 26.5011 17.5401H26.5014ZM26.5014 20.3333C29.3548 20.3333 31.6682 22.6463 31.6682 25.5C31.6682 28.3534 29.3548 30.6667 26.5014 30.6667C23.6478 30.6667 21.3348 28.3534 21.3348 25.5C21.3348 22.6463 23.6478 20.3333 26.5014 20.3333Z" fill="white"/>
<defs>
<radialGradient id="paint0_radial_605_5" cx="0" cy="0" r="1" gradientUnits="userSpaceOnUse" gradientTransform="translate(13.8125 56.005) rotate(-90) scale(51.5359 47.9324)">
<stop stop-color="#FFDD55"/>
<stop offset="0.1" stop-color="#FFDD55"/>
<stop offset="0.5" stop-color="#FF543E"/>
<stop offset="1" stop-color="#C837AB"/>
</radialGradient>
<radialGradient id="paint1_radial_605_5" cx="0" cy="0" r="1" gradientUnits="userSpaceOnUse" gradientTransform="translate(-8.7102 3.74583) rotate(78.681) scale(23.0368 94.9585)">
<stop stop-color="#3771C8"/>
<stop offset="0.128" stop-color="#3771C8"/>
<stop offset="1" stop-color="#6600FF" stop-opacity="0"/>
</radialGradient>
</defs>
</svg>
