<svg width="19" height="20" viewBox="0 0 19 20" fill="none" xmlns="http://www.w3.org/2000/svg">
<path d="M11.6923 0H7.30769C6.53244 0 5.78895 0.30102 5.24076 0.836838C4.69258 1.37266 4.38462 2.09938 4.38462 2.85714V6.00714C6.21164 5.49907 8.1637 5.63982 9.89468 6.40443C11.6257 7.16905 13.0237 8.50812 13.8409 10.1842C14.6581 11.8603 14.8416 13.7651 14.3589 15.5608C13.8763 17.3566 12.7586 18.9272 11.2042 19.9943H16.0769C16.8522 19.9943 17.5957 19.6933 18.1439 19.1574C18.692 18.6216 19 17.8949 19 17.1371V7.14429H13.8846C13.5966 7.14429 13.3114 7.08881 13.0453 6.98103C12.7792 6.87326 12.5375 6.71529 12.3339 6.51615C12.1303 6.31702 11.9689 6.08062 11.8588 5.82047C11.7487 5.56033 11.6921 5.28152 11.6923 5V0ZM18.9956 5.71429H13.8832C13.6893 5.71429 13.5035 5.63903 13.3664 5.50508C13.2294 5.37112 13.1524 5.18944 13.1524 5V0H13.167L18.9956 5.71429ZM13.1538 13.5714C13.1538 15.2764 12.4609 16.9115 11.2275 18.1171C9.9941 19.3227 8.32123 20 6.57692 20C4.83261 20 3.15975 19.3227 1.92634 18.1171C0.692924 16.9115 0 15.2764 0 13.5714C0 11.8665 0.692924 10.2313 1.92634 9.02574C3.15975 7.82015 4.83261 7.14286 6.57692 7.14286C8.32123 7.14286 9.9941 7.82015 11.2275 9.02574C12.4609 10.2313 13.1538 11.8665 13.1538 13.5714ZM6.05954 16.9329L6.06392 16.9371C6.19955 17.0679 6.38205 17.1417 6.57254 17.1429H6.58131C6.77322 17.1417 6.95697 17.0668 7.09285 16.9343L10.0159 14.0771C10.0839 14.0108 10.1378 13.9321 10.1746 13.8454C10.2114 13.7587 10.2304 13.6658 10.2304 13.5719C10.2305 13.4781 10.2117 13.3851 10.175 13.2984C10.1383 13.2117 10.0845 13.1328 10.0167 13.0664C9.94881 13 9.86824 12.9473 9.77956 12.9113C9.69087 12.8754 9.59581 12.8568 9.49979 12.8567C9.40377 12.8567 9.30867 12.8751 9.21994 12.911C9.1312 12.9468 9.05056 12.9994 8.98262 13.0657L7.30769 14.7043V10.7143C7.30769 10.5248 7.2307 10.3432 7.09365 10.2092C6.95661 10.0753 6.77073 10 6.57692 10C6.38311 10 6.19724 10.0753 6.06019 10.2092C5.92315 10.3432 5.84615 10.5248 5.84615 10.7143V14.7043L4.17123 13.0657C4.03401 12.9316 3.8479 12.8562 3.65385 12.8562C3.45979 12.8562 3.27368 12.9316 3.13646 13.0657C2.99924 13.1998 2.92215 13.3817 2.92215 13.5714C2.92215 13.7611 2.99924 13.943 3.13646 14.0771L6.05954 16.9343V16.9329Z" fill="white"/>
</svg>
