<svg width="24" height="24" viewBox="0 0 24 24" fill="none" xmlns="http://www.w3.org/2000/svg">
<path fill-rule="evenodd" clip-rule="evenodd" d="M4.5 3C4.10217 3 3.72064 3.15804 3.43934 3.43934C3.15804 3.72064 3 4.10217 3 4.5V19.5C3 19.8978 3.15803 20.2794 3.43934 20.5607C3.72064 20.842 4.10218 21 4.5 21H19.5C19.8978 21 20.2794 20.842 20.5607 20.5607C20.842 20.2794 21 19.8978 21 19.5V4.5C21 4.10218 20.842 3.72064 20.5607 3.43934C20.2794 3.15803 19.8978 3 19.5 3H4.5ZM2.02513 2.02513C2.6815 1.36875 3.57174 1 4.5 1H19.5C20.4283 1 21.3185 1.36875 21.9749 2.02513C22.6313 2.6815 23 3.57174 23 4.5V19.5C23 20.4283 22.6313 21.3185 21.9749 21.9749C21.3185 22.6313 20.4283 23 19.5 23H4.5C3.57174 23 2.6815 22.6313 2.02513 21.9749C1.36875 21.3185 1 20.4283 1 19.5V4.5C1 3.57174 1.36875 2.6815 2.02513 2.02513Z" fill="#C2C2C2"/>
<path fill-rule="evenodd" clip-rule="evenodd" d="M15.0429 8.79289C15.4334 8.40237 16.0666 8.40237 16.4571 8.79289L18.9571 11.2929C19.3476 11.6834 19.3476 12.3166 18.9571 12.7071C18.5666 13.0976 17.9334 13.0976 17.5429 12.7071L15.75 10.9142L12.7071 13.9571C12.3166 14.3476 11.6834 14.3476 11.2929 13.9571L9.5 12.1642L6.45711 15.2071C6.06658 15.5976 5.43342 15.5976 5.04289 15.2071C4.65237 14.8166 4.65237 14.1834 5.04289 13.7929L8.79289 10.0429C9.18342 9.65237 9.81658 9.65237 10.2071 10.0429L12 11.8358L15.0429 8.79289Z" fill="#C2C2C2"/>
</svg>
