<svg width="45" height="45" viewBox="0 0 45 45" fill="none" xmlns="http://www.w3.org/2000/svg">
<path fill-rule="evenodd" clip-rule="evenodd" d="M34.6128 13.3033C34.5171 13.0446 34.6508 12.762 34.9115 12.672L36.5817 12.0956C37.997 11.6071 39.5353 12.4171 40.0553 13.8216L40.2663 14.3915C40.7909 15.8084 40.1163 17.368 38.7131 17.8523L37.0429 18.4288C36.7822 18.5188 36.4932 18.382 36.3974 18.1234C36.3017 17.8648 36.4354 17.5822 36.6961 17.4922L38.3663 16.9157C39.2084 16.6251 39.6701 15.6573 39.3221 14.7173L39.1111 14.1474C38.7656 13.2143 37.7771 12.7393 36.9285 13.0322L35.2583 13.6086C34.9976 13.6986 34.7086 13.5619 34.6128 13.3033Z" fill="#606060"/>
<path fill-rule="evenodd" clip-rule="evenodd" d="M13.818 28.591C14.0972 28.4162 14.471 28.5 14.653 28.7783L21.281 38.9136C21.669 39.5096 22.3788 39.7477 22.9672 39.5444C23.7962 39.258 24.1651 38.2028 23.6081 37.3487C23.608 37.3486 23.6082 37.3488 23.6081 37.3487L20.4132 32.4623C19.7701 31.4745 19.6615 30.1731 19.953 29.0512C20.2446 27.9291 20.9749 26.8524 22.1673 26.4404C22.4801 26.3324 22.8268 26.4964 22.9416 26.8068C23.0564 27.1172 22.8959 27.4564 22.5831 27.5645C21.8795 27.8075 21.3504 28.4866 21.1223 29.3646C20.8942 30.2427 21.0055 31.1857 21.4251 31.8306C21.4252 31.8308 21.425 31.8305 21.4251 31.8306L24.6191 36.7156C25.5549 38.1499 25.0139 40.105 23.3829 40.6685C22.2327 41.0658 20.9441 40.5817 20.2691 39.5453C20.269 39.5451 20.2692 39.5455 20.2691 39.5453L13.6421 29.4116C13.4601 29.1333 13.5389 28.7659 13.818 28.591Z" fill="#4DBF9D"/>
<path fill-rule="evenodd" clip-rule="evenodd" d="M28.0036 4.48577C27.6784 4.59971 27.4633 5.00086 27.6195 5.42887L35.7452 27.6986C35.9014 28.1266 36.3273 28.3032 36.6524 28.1892L38.7583 27.4514C39.0861 27.3365 39.2975 26.9335 39.1458 26.5179L31.0166 4.23858C30.8605 3.81057 30.4346 3.634 30.1094 3.74794L28.0036 4.48577ZM26.4887 5.82509C26.1291 4.83976 26.5805 3.71496 27.5929 3.36022L29.6987 2.62238C30.7112 2.26765 31.788 2.85704 32.1475 3.84237L40.2767 26.1216C40.6337 27.1002 40.1787 28.2232 39.1689 28.577L37.0631 29.3148C36.0507 29.6695 34.9739 29.0801 34.6144 28.0948L26.4887 5.82509Z" fill="#4DBF9D"/>
<path fill-rule="evenodd" clip-rule="evenodd" d="M26.831 6.33976C27.0792 6.46694 27.1793 6.76663 27.0546 7.00914C25.9383 9.17941 22.1576 14.9087 12.0027 18.5459L15.5634 28.1614C26.1187 24.6667 33.5136 27.1568 35.1455 27.8133C35.4042 27.9174 35.5319 28.2071 35.4308 28.4604C35.3297 28.7137 35.038 28.8346 34.7793 28.7305C33.2846 28.1292 25.9538 25.629 15.437 29.258C15.1763 29.3479 14.8873 29.2112 14.7915 28.9526L10.8861 18.4062C10.7903 18.1475 10.924 17.8649 11.1847 17.775C21.4232 14.2421 25.1212 8.56 26.1558 6.5486C26.2806 6.30609 26.5829 6.21259 26.831 6.33976Z" fill="#606060"/>
<path fill-rule="evenodd" clip-rule="evenodd" d="M5.1371 26.5399C3.96398 23.37 5.46879 19.9127 8.56695 18.8429L10.8828 18.0433C11.1435 17.9532 11.4325 18.0899 11.5282 18.3486C11.6239 18.6072 11.4902 18.8899 11.2294 18.9799L8.91358 19.7796C6.37957 20.6545 5.08346 23.5178 6.08121 26.2139C7.07896 28.91 9.9605 30.3308 12.4945 29.4558L14.8104 28.6562C15.0711 28.5661 15.36 28.7028 15.4558 28.9615C15.5515 29.2201 15.4177 29.5028 15.157 29.5928L12.8411 30.3925C9.74298 31.4622 6.31021 29.7099 5.1371 26.5399Z" fill="#606060"/>
</svg>
