<svg width="72" height="66" viewBox="0 0 72 66" fill="none" xmlns="http://www.w3.org/2000/svg">
<rect width="72" height="66" rx="7" fill="#F2F2F2"/>
<path d="M24.5625 26.0769C24.5625 25.7709 24.6777 25.4774 24.8829 25.261C25.088 25.0446 25.3662 24.9231 25.6562 24.9231H40.9688C41.2588 24.9231 41.537 25.0446 41.7421 25.261C41.9473 25.4774 42.0625 25.7709 42.0625 26.0769C42.0625 26.3829 41.9473 26.6764 41.7421 26.8928C41.537 27.1092 41.2588 27.2308 40.9688 27.2308H25.6562C25.3662 27.2308 25.088 27.1092 24.8829 26.8928C24.6777 26.6764 24.5625 26.3829 24.5625 26.0769ZM36.5938 31.8462C36.3037 31.8462 36.0255 31.9677 35.8204 32.1841C35.6152 32.4005 35.5 32.694 35.5 33C35.5 33.306 35.6152 33.5995 35.8204 33.8159C36.0255 34.0323 36.3037 34.1538 36.5938 34.1538H40.9688C41.2588 34.1538 41.537 34.0323 41.7421 33.8159C41.9473 33.5995 42.0625 33.306 42.0625 33C42.0625 32.694 41.9473 32.4005 41.7421 32.1841C41.537 31.9677 41.2588 31.8462 40.9688 31.8462H36.5938ZM35.5 39.9231C35.5 39.6171 35.6152 39.3236 35.8204 39.1072C36.0255 38.8908 36.3037 38.7692 36.5938 38.7692H40.9688C41.2588 38.7692 41.537 38.8908 41.7421 39.1072C41.9473 39.3236 42.0625 39.6171 42.0625 39.9231C42.0625 40.2291 41.9473 40.5226 41.7421 40.739C41.537 40.9554 41.2588 41.0769 40.9688 41.0769H36.5938C36.3037 41.0769 36.0255 40.9554 35.8204 40.739C35.6152 40.5226 35.5 40.2291 35.5 39.9231ZM25.6562 31.8462C25.3662 31.8462 25.088 31.9677 24.8829 32.1841C24.6777 32.4005 24.5625 32.694 24.5625 33V39.9231C24.5625 40.2291 24.6777 40.5226 24.8829 40.739C25.088 40.9554 25.3662 41.0769 25.6562 41.0769H32.2188C32.5088 41.0769 32.787 40.9554 32.9921 40.739C33.1973 40.5226 33.3125 40.2291 33.3125 39.9231V33C33.3125 32.694 33.1973 32.4005 32.9921 32.1841C32.787 31.9677 32.5088 31.8462 32.2188 31.8462H25.6562ZM26.75 38.7692V34.1538H31.125V38.7692H26.75ZM18 22.6154C18 21.3913 18.4609 20.2174 19.2814 19.3518C20.1019 18.4863 21.2147 18 22.375 18H44.25C45.4103 18 46.5231 18.4863 47.3436 19.3518C48.1641 20.2174 48.625 21.3913 48.625 22.6154V24.9231C49.7853 24.9231 50.8981 25.4093 51.7186 26.2749C52.5391 27.1404 53 28.3144 53 29.5385V42.2308C53 43.7609 52.4238 45.2283 51.3982 46.3102C50.3727 47.3922 48.9817 48 47.5312 48H23.4688C22.0183 48 20.6273 47.3922 19.6018 46.3102C18.5762 45.2283 18 43.7609 18 42.2308V22.6154ZM46.4375 22.6154C46.4375 22.0033 46.207 21.4164 45.7968 20.9836C45.3866 20.5508 44.8302 20.3077 44.25 20.3077H22.375C21.7948 20.3077 21.2384 20.5508 20.8282 20.9836C20.418 21.4164 20.1875 22.0033 20.1875 22.6154V42.2308C20.1875 43.1488 20.5332 44.0293 21.1486 44.6784C21.7639 45.3276 22.5985 45.6923 23.4688 45.6923H47.5312C48.4015 45.6923 49.2361 45.3276 49.8514 44.6784C50.4668 44.0293 50.8125 43.1488 50.8125 42.2308V29.5385C50.8125 28.9264 50.582 28.3395 50.1718 27.9067C49.7616 27.4739 49.2052 27.2308 48.625 27.2308V42.2308C48.625 42.5368 48.5098 42.8303 48.3046 43.0467C48.0995 43.2631 47.8213 43.3846 47.5312 43.3846C47.2412 43.3846 46.963 43.2631 46.7579 43.0467C46.5527 42.8303 46.4375 42.5368 46.4375 42.2308V22.6154Z" fill="#5AC9B4"/>
</svg>
