<svg width="64" height="64" viewBox="0 0 64 64" fill="none" xmlns="http://www.w3.org/2000/svg">
<path d="M42.6667 8C44.0122 7.99957 45.3082 8.50775 46.2948 9.42266C47.2814 10.3376 47.8858 11.5916 47.9867 12.9333L48 13.3333V26.6667H52C52.9944 26.6667 53.953 27.0371 54.6891 27.7056C55.4252 28.3742 55.8859 29.2929 55.9813 30.2827L56 30.6667V50.6667C56.0001 52.7072 55.2205 54.6707 53.8206 56.1554C52.4207 57.64 50.5064 58.5336 48.4693 58.6533L48 58.6667H13.3333C11.9878 58.6671 10.6918 58.1589 9.70521 57.244C8.71859 56.3291 8.11425 55.0751 8.01333 53.7333L8 53.3333V13.3333C7.99957 11.9878 8.50775 10.6918 9.42266 9.70521C10.3376 8.71859 11.5916 8.11425 12.9333 8.01333L13.3333 8H42.6667ZM50.6667 32H48V53.3333C48.7072 53.3333 49.3855 53.0524 49.8856 52.5523C50.3857 52.0522 50.6667 51.3739 50.6667 50.6667V32ZM42.6667 13.3333H13.3333V53.3333H42.6667V13.3333ZM29.3333 34.6667C30.013 34.6674 30.6668 34.9277 31.161 35.3943C31.6552 35.8608 31.9526 36.4985 31.9925 37.1771C32.0323 37.8556 31.8115 38.5237 31.3753 39.0449C30.9391 39.5661 30.3203 39.9011 29.6453 39.9813L29.3333 40H21.3333C20.6537 39.9992 19.9999 39.739 19.5057 39.2724C19.0115 38.8058 18.714 38.1681 18.6742 37.4896C18.6344 36.8111 18.8551 36.143 19.2914 35.6218C19.7276 35.1006 20.3464 34.7656 21.0213 34.6853L21.3333 34.6667H29.3333ZM34.6667 21.3333C35.3739 21.3333 36.0522 21.6143 36.5523 22.1144C37.0524 22.6145 37.3333 23.2928 37.3333 24C37.3333 24.7072 37.0524 25.3855 36.5523 25.8856C36.0522 26.3857 35.3739 26.6667 34.6667 26.6667H21.3333C20.6261 26.6667 19.9478 26.3857 19.4477 25.8856C18.9476 25.3855 18.6667 24.7072 18.6667 24C18.6667 23.2928 18.9476 22.6145 19.4477 22.1144C19.9478 21.6143 20.6261 21.3333 21.3333 21.3333H34.6667Z" fill="#43C1A9"/>
</svg>
