<svg width="48" height="34" viewBox="0 0 48 34" fill="none" xmlns="http://www.w3.org/2000/svg">
<path fill-rule="evenodd" clip-rule="evenodd" d="M34 19C37.03 21.0306 39.1532 23.7817 39.1532 27.4498V34H48V27.4498C48 22.69 40.1043 19.8734 34 19Z" fill="black"/>
<path d="M17.5 17C22.1944 17 26 13.1944 26 8.5C26 3.80558 22.1944 0 17.5 0C12.8056 0 9 3.80558 9 8.5C9 13.1944 12.8056 17 17.5 17Z" fill="black"/>
<path fill-rule="evenodd" clip-rule="evenodd" d="M30.3333 17C35.1217 17 39 13.1963 39 8.5C39 3.80375 35.1217 0 30.3333 0C29.315 0 28.3617 0.2125 27.4517 0.51C29.3161 2.77146 30.3333 5.59173 30.3333 8.5C30.3333 11.4083 29.3161 14.2285 27.4517 16.49C28.3617 16.7875 29.315 17 30.3333 17ZM17.3333 19.125C11.5483 19.125 0 21.9725 0 27.625V34H34.6667V27.625C34.6667 21.9725 23.1183 19.125 17.3333 19.125Z" fill="black"/>
</svg>
