<svg width="24" height="24" viewBox="0 0 24 24" fill="none" xmlns="http://www.w3.org/2000/svg">
<g clip-path="url(#clip0_39_8075)">
<path d="M13.913 5.41403H4.14941C3.83488 5.41403 3.57901 5.15817 3.57901 4.84364C3.57901 4.5291 3.83488 4.27324 4.14941 4.27324H13.9146C14.2291 4.27324 14.485 4.5291 14.485 4.84364C14.485 5.15817 14.2275 5.41403 13.913 5.41403Z" fill="#C2C2C2"/>
<path d="M13.913 10.0585H4.14941C3.83488 10.0585 3.57901 9.80265 3.57901 9.48812C3.57901 9.17359 3.83488 8.91772 4.14941 8.91772H13.9146C14.2291 8.91772 14.485 9.17359 14.485 9.48812C14.485 9.80265 14.2275 10.0585 13.913 10.0585Z" fill="#C2C2C2"/>
<path d="M9.03037 15.3436H4.14941C3.83488 15.3436 3.57901 15.0878 3.57901 14.7732C3.57901 14.4587 3.83488 14.2028 4.14941 14.2028H9.032C9.34653 14.2028 9.6024 14.4587 9.6024 14.7732C9.6024 15.0878 9.34653 15.3436 9.03037 15.3436Z" fill="#C2C2C2"/>
<path d="M18.062 11.1651V2.04202C18.062 0.915893 17.1461 0 16.0216 0H2.04039C0.915893 0 0 0.915893 0 2.04202V18.075C0 19.1995 0.915893 20.1154 2.04039 20.1154H11.377C12.4167 22.0613 14.4685 23.3879 16.8251 23.3879C20.2295 23.3879 23 20.619 23 17.2146C23 14.2338 20.8765 11.7404 18.062 11.1651ZM10.9076 18.9746H2.04039C1.54496 18.9746 1.14079 18.5705 1.14079 18.075V2.04202C1.14079 1.54496 1.54496 1.14079 2.04039 1.14079H16.0216C16.517 1.14079 16.9212 1.54496 16.9212 2.04202V11.0429C16.8886 11.0412 16.8576 11.0412 16.8251 11.0412C13.4206 11.0412 10.6517 13.8101 10.6517 17.2146C10.6517 17.8257 10.7414 18.4173 10.9076 18.9746ZM16.8251 22.2471C15.1285 22.2471 13.6259 21.4045 12.7133 20.1154C12.4656 19.765 12.2619 19.3821 12.1103 18.9746C11.905 18.4271 11.7925 17.8338 11.7925 17.2146C11.7925 14.4392 14.0497 12.182 16.8251 12.182C16.8576 12.182 16.8886 12.182 16.9212 12.1837C17.314 12.1902 17.6969 12.2423 18.062 12.3352C20.2409 12.8877 21.8592 14.8662 21.8592 17.2146C21.8592 19.9899 19.6004 22.2471 16.8251 22.2471Z" fill="#C2C2C2" stroke="#C2C2C2"/>
<path d="M19.4325 18.3553H16.5479C16.2334 18.3553 15.9775 18.0995 15.9775 17.7849V14.7732C15.9775 14.4587 16.2334 14.2028 16.5479 14.2028C16.8625 14.2028 17.1183 14.4587 17.1183 14.7732V17.2145H19.4325C19.747 17.2145 20.0029 17.4704 20.0029 17.7849C20.0029 18.0995 19.7487 18.3553 19.4325 18.3553Z" fill="#C2C2C2"/>
</g>
<defs>
<clipPath id="clip0_39_8075">
<rect width="24" height="24" fill="white"/>
</clipPath>
</defs>
</svg>
