<svg width="72" height="66" viewBox="0 0 72 66" fill="none" xmlns="http://www.w3.org/2000/svg">
<rect width="72" height="66" rx="7" fill="#F2F2F2"/>
<path d="M39.2344 53.0004H51.5288C51.5288 50.9148 51.5288 51.7011 51.5288 50.0667H39.2344V53.0004Z" fill="#5AC9B4"/>
<path d="M43.7051 44.9336V47.8673H55.9995C55.9995 45.7818 55.9995 46.5681 55.9995 44.9336H43.7051Z" fill="#5AC9B4"/>
<path d="M41.4707 39.801V42.7347H53.7651C53.7651 40.6492 53.7651 41.4355 53.7651 39.801C53.4265 39.801 41.8458 39.801 41.4707 39.801Z" fill="#5AC9B4"/>
<path d="M18.9809 43.4113C17.673 44.6986 17.673 46.7921 18.9809 48.0793C20.2889 49.3666 22.416 49.3666 23.7239 48.0793L27.964 43.9063L23.223 39.2383L18.9809 43.4113Z" fill="#5AC9B4"/>
<path d="M38.5695 42.399C35.4264 42.399 32.3969 41.3533 29.9393 39.4134L27.9622 41.3593L25.8087 39.2398L27.7817 37.298C24.4805 33.3385 23.8215 27.946 26.0784 23.1324C28.3921 18.1929 33.1857 15.1594 38.5715 15.1994C38.61 15.1994 38.6465 15.1994 38.6851 15.1994C44.1094 15.1994 48.8746 18.2967 51.1356 23.302C53.4108 28.3392 52.5368 33.9212 48.8544 37.8688L48.7347 37.9985H39.6402V42.3631L39.2549 42.3811C39.0257 42.395 38.7966 42.399 38.5695 42.399ZM29.8886 38.3338L30.1745 38.5712C32.6017 40.5929 35.6677 41.6606 38.829 41.6007V37.2022H48.3758C51.7358 33.5001 52.5104 28.3152 50.3934 23.6273C48.2663 18.9134 43.7829 15.9977 38.679 15.9977C38.6425 15.9977 38.608 15.9977 38.5735 15.9977C38.537 15.9977 38.4985 15.9977 38.462 15.9977C33.4291 15.9977 28.9761 18.8495 26.8145 23.4636C24.6387 28.1057 25.3383 33.3145 28.6395 37.0565L28.8869 37.3379L26.9564 39.2378L27.9642 40.2297L29.8886 38.3338Z" fill="#5AC9B4"/>
<path d="M38.5694 42.5988C35.4587 42.5988 32.4069 41.563 29.9554 39.6791L27.9621 41.6409L25.5206 39.238L27.5078 37.2822C24.2634 33.2828 23.6429 27.8465 25.8917 23.0467C28.2236 18.0754 33.0335 15 38.4659 15C38.5024 15 38.5369 15 38.5734 15H38.6849C44.1904 15 49.0306 18.1512 51.322 23.2224C53.6296 28.3334 52.7415 33.9993 49.0043 38.0067L48.8238 38.2002H39.8428V42.5549L39.2649 42.5829C39.0357 42.5948 38.8005 42.5988 38.5694 42.5988ZM29.9229 39.1462L30.0649 39.258C32.4698 41.1559 35.4892 42.1997 38.5694 42.1997C38.7944 42.1997 39.0216 42.1937 39.2446 42.1837L39.4372 42.1737V37.7991H48.6454L48.7062 37.7352C52.3319 33.8456 53.1916 28.3474 50.951 23.384C48.7265 18.4586 44.0261 15.3991 38.6849 15.3991H38.5734C38.5389 15.3991 38.5045 15.3991 38.47 15.3991C33.1937 15.3991 28.5238 18.3847 26.2608 23.2144C24.0485 27.9303 24.6913 33.2788 27.9377 37.1705L28.0533 37.3102L26.0925 39.24L27.96 41.0781L29.9229 39.1462ZM38.5775 41.8005C35.4527 41.8005 32.4313 40.7129 30.0426 38.7231L29.9006 38.6034L27.9621 40.5113L26.6683 39.238L28.6089 37.3281L28.4852 37.1884C25.1313 33.3846 24.4216 28.0939 26.6298 23.38C28.8218 18.7041 33.3559 15.7983 38.4599 15.7983H38.5734H38.6789C43.8619 15.7983 48.4223 18.7679 50.5819 23.5457C52.7253 28.2935 51.9385 33.5762 48.5298 37.3341L48.469 37.4H39.0337V41.7945L38.835 41.7985C38.7478 41.8005 38.6626 41.8005 38.5775 41.8005ZM29.8783 38.0625L30.3062 38.4178C32.6199 40.3476 35.55 41.4014 38.5795 41.4014C38.5957 41.4014 38.6119 41.4014 38.6282 41.4014V37.0008H48.2865C51.537 33.3666 52.2751 28.2815 50.2108 23.7073C48.1182 19.0753 43.6996 16.1974 38.6789 16.1974H38.5734H38.4599C33.5161 16.1974 29.124 19.0134 26.9989 23.5477C24.8575 28.1179 25.5429 33.2429 28.7914 36.927L29.1625 37.3481L27.2422 39.238L27.9621 39.9465L29.8783 38.0625Z" fill="#5AC9B4"/>
<path d="M41.8106 27.3873C42.8468 25.5832 41.987 23.2682 39.9734 22.5657V21.2505H37.6942V22.3721H34.2754V24.6153H35.415C35.415 25.2798 35.415 30.6863 35.415 31.3428H34.2754V33.586C35.2487 33.586 36.4451 33.586 37.6942 33.586V34.7076H39.9734V33.586C43.3902 33.5701 44.6535 29.1735 41.8106 27.3873ZM37.6942 24.6153H38.8338C39.4624 24.6153 39.9734 25.1182 39.9734 25.7369C39.9734 26.3555 39.4624 26.8585 38.8338 26.8585H37.6942V24.6153ZM39.9734 31.3428H37.6942V29.0997C38.4911 29.0997 39.1765 29.0997 39.9734 29.0997C40.6021 29.0997 41.113 29.6026 41.113 30.2213C41.113 30.8399 40.6021 31.3428 39.9734 31.3428Z" fill="#5AC9B4"/>
</svg>
