<svg width="45" height="45" viewBox="0 0 45 45" fill="none" xmlns="http://www.w3.org/2000/svg">
<path fill-rule="evenodd" clip-rule="evenodd" d="M19.7637 31.231C19.7637 30.9548 19.9875 30.731 20.2637 30.731H24.1331C24.4092 30.731 24.6331 30.9548 24.6331 31.231C24.6331 31.5071 24.4092 31.731 24.1331 31.731H20.2637C19.9875 31.731 19.7637 31.5071 19.7637 31.231Z" fill="#606060"/>
<path fill-rule="evenodd" clip-rule="evenodd" d="M25.2057 20.9041C25.3526 20.6703 25.6613 20.6 25.8951 20.7469L29.4033 22.9525C29.6371 23.0995 29.7075 23.4081 29.5605 23.6419C29.4135 23.8757 29.1049 23.9461 28.8711 23.7991L25.3629 21.5935C25.1291 21.4466 25.0587 21.1379 25.2057 20.9041Z" fill="#606060"/>
<path fill-rule="evenodd" clip-rule="evenodd" d="M19.2422 20.9041C19.3891 21.1379 19.3188 21.4466 19.085 21.5935L15.5767 23.7991C15.3429 23.9461 15.0343 23.8757 14.8873 23.6419C14.7403 23.4081 14.8107 23.0995 15.0445 22.9525L18.5527 20.7469C18.7865 20.6 19.0952 20.6703 19.2422 20.9041Z" fill="#606060"/>
<path fill-rule="evenodd" clip-rule="evenodd" d="M20.6877 25.8367C20.8248 26.0764 20.7415 26.3818 20.5018 26.5189L12.131 31.304C11.8913 31.4411 11.5859 31.3578 11.4488 31.1181C11.3118 30.8783 11.395 30.5729 11.6348 30.4359L20.0055 25.6507C20.2453 25.5137 20.5507 25.5969 20.6877 25.8367Z" fill="#606060"/>
<path fill-rule="evenodd" clip-rule="evenodd" d="M3.07577 25.8367C3.21282 25.5969 3.51826 25.5137 3.75799 25.6507L12.1288 30.4359C12.2845 30.5249 12.3806 30.6905 12.3806 30.8699V40.9045C12.3806 41.1807 12.1568 41.4045 11.8806 41.4045C11.6045 41.4045 11.3806 41.1807 11.3806 40.9045V31.16L3.26171 26.5189C3.02197 26.3818 2.93873 26.0764 3.07577 25.8367Z" fill="#606060"/>
<path fill-rule="evenodd" clip-rule="evenodd" d="M41.3264 25.8359C41.4635 26.0757 41.3802 26.3811 41.1405 26.5182L32.7697 31.3033C32.53 31.4403 32.2245 31.3571 32.0875 31.1173C31.9504 30.8776 32.0337 30.5722 32.2734 30.4351L40.6442 25.65C40.8839 25.5129 41.1894 25.5962 41.3264 25.8359Z" fill="#606060"/>
<path fill-rule="evenodd" clip-rule="evenodd" d="M23.7144 25.8359C23.8515 25.5962 24.1569 25.5129 24.3967 25.65L32.7674 30.4351C32.9232 30.5242 33.0193 30.6898 33.0193 30.8692V40.9038C33.0193 41.1799 32.7954 41.4038 32.5193 41.4038C32.2431 41.4038 32.0193 41.1799 32.0193 40.9038V31.1593L23.9004 26.5182C23.6606 26.3811 23.5774 26.0757 23.7144 25.8359Z" fill="#606060"/>
<path fill-rule="evenodd" clip-rule="evenodd" d="M21.9593 3.06289C22.1102 2.97904 22.2938 2.97904 22.4448 3.06289L30.8284 7.71905C30.9872 7.80722 31.0857 7.97455 31.0857 8.15616V18.41C31.0857 18.5915 30.9873 18.7588 30.8287 18.847L28.0685 20.3819C27.8272 20.5161 27.5227 20.4292 27.3885 20.1879C27.2543 19.9465 27.3412 19.6421 27.5825 19.5079L30.0857 18.1159V8.4504L22.202 4.07194L14.3184 8.4504V18.114L16.8576 19.5065C17.0998 19.6392 17.1884 19.9432 17.0556 20.1853C16.9228 20.4274 16.6189 20.5161 16.3768 20.3833L13.5779 18.8484C13.4179 18.7606 13.3184 18.5926 13.3184 18.41V8.15616C13.3184 7.97455 13.4168 7.80722 13.5756 7.71905L21.9593 3.06289Z" fill="#606060"/>
<path fill-rule="evenodd" clip-rule="evenodd" d="M26.0701 20.9282C26.2037 21.1699 26.116 21.4741 25.8743 21.6076L22.4435 23.5036C22.292 23.5874 22.1079 23.5868 21.957 23.5021L18.5777 21.6061C18.3369 21.4709 18.2512 21.1662 18.3863 20.9254C18.5214 20.6845 18.8262 20.5988 19.067 20.734L22.2035 22.4937L25.3906 20.7324C25.6323 20.5988 25.9365 20.6865 26.0701 20.9282Z" fill="#606060"/>
<path fill-rule="evenodd" clip-rule="evenodd" d="M27.299 24.4166C27.4293 24.6601 27.3377 24.9631 27.0942 25.0935L24.6367 26.4096V28.651C24.6367 28.9272 24.4129 29.151 24.1367 29.151C23.8606 29.151 23.6367 28.9272 23.6367 28.651V26.1102C23.6367 25.9258 23.7382 25.7564 23.9007 25.6694L26.6221 24.2119C26.8656 24.0815 27.1686 24.1732 27.299 24.4166Z" fill="#606060"/>
<path fill-rule="evenodd" clip-rule="evenodd" d="M32.2732 21.0192C32.4249 20.933 32.6106 20.932 32.7631 21.0167L41.1468 25.6729C41.3056 25.7611 41.404 25.9284 41.404 26.11V36.351C41.404 36.5326 41.3056 36.6999 41.1468 36.7881L32.7631 41.4442C32.6122 41.5281 32.4286 41.5281 32.2776 41.4442L23.894 36.7881C23.7352 36.6999 23.6367 36.5326 23.6367 36.351V31.2305C23.6367 30.9544 23.8606 30.7305 24.1367 30.7305C24.4129 30.7305 24.6367 30.9544 24.6367 31.2305V36.0567L32.5204 40.4352L40.404 36.0567V26.4043L32.5233 22.0274L29.3883 23.8103C29.1483 23.9468 28.843 23.8629 28.7065 23.6228C28.57 23.3828 28.6539 23.0775 28.8939 22.941L32.2732 21.0192Z" fill="#606060"/>
<path fill-rule="evenodd" clip-rule="evenodd" d="M17.0929 24.4027C17.2237 24.1595 17.5269 24.0684 17.7701 24.1991L20.5045 25.6695C20.6666 25.7567 20.7677 25.9258 20.7677 26.1099V31.2304C20.7677 31.5065 20.5438 31.7304 20.2677 31.7304C19.9915 31.7304 19.7677 31.5065 19.7677 31.2304V26.4087L17.2965 25.0799C17.0533 24.9491 16.9621 24.6459 17.0929 24.4027Z" fill="#606060"/>
<path fill-rule="evenodd" clip-rule="evenodd" d="M11.6409 21.0167C11.7924 20.9326 11.9768 20.9329 12.128 21.0176L15.5589 22.9394C15.7998 23.0744 15.8857 23.3791 15.7507 23.62C15.6158 23.8609 15.3111 23.9468 15.0702 23.8119L11.8826 22.0264L4 26.4043V36.0567L11.8837 40.4352L19.7673 36.0567V33.8101C19.7673 33.5339 19.9912 33.3101 20.2673 33.3101C20.5435 33.3101 20.7673 33.5339 20.7673 33.8101V36.351C20.7673 36.5326 20.6689 36.6999 20.5101 36.7881L12.1264 41.4442C11.9754 41.5281 11.7919 41.5281 11.6409 41.4442L3.25724 36.7881C3.09847 36.6999 3 36.5326 3 36.351V26.11C3 25.9284 3.09847 25.7611 3.25724 25.6729L11.6409 21.0167Z" fill="#606060"/>
<path fill-rule="evenodd" clip-rule="evenodd" d="M17.582 13.1733C17.582 12.7591 17.9178 12.4233 18.332 12.4233H26.0708C26.485 12.4233 26.8208 12.7591 26.8208 13.1733C26.8208 13.5876 26.485 13.9233 26.0708 13.9233H18.332C17.9178 13.9233 17.582 13.5876 17.582 13.1733Z" fill="#4DBF9D"/>
<path fill-rule="evenodd" clip-rule="evenodd" d="M22.2012 8.55396C22.6154 8.55396 22.9512 8.88974 22.9512 9.30396V17.0427C22.9512 17.4569 22.6154 17.7927 22.2012 17.7927C21.787 17.7927 21.4512 17.4569 21.4512 17.0427V9.30396C21.4512 8.88974 21.787 8.55396 22.2012 8.55396Z" fill="#4DBF9D"/>
</svg>
