<svg width="188" height="188" viewBox="0 0 188 188" fill="none" xmlns="http://www.w3.org/2000/svg">
<path d="M93.83 0C42.01 0 0 42.01 0 93.83V93.93C0.05 145.71 42.04 187.65 93.83 187.65C145.65 187.65 187.66 145.65 187.66 93.83C187.66 42.01 145.65 0 93.83 0ZM93.83 168.39C52.68 168.39 19.3 135.05 19.26 93.9V93.82C19.26 52.63 52.65 19.25 93.83 19.25C135.02 19.25 168.41 52.63 168.41 93.82C168.4 135.01 135.01 168.39 93.83 168.39Z" fill="#1A1A1A" fill-opacity="0.13"/>
<path d="M187.65 95.1702C186.94 145.69 145.72 186.92 95.1995 187.64C46.3995 188.34 5.99955 151.78 0.609547 104.59C-0.040453 98.9002 4.44955 93.9202 10.1795 93.9102C15.0995 93.9002 19.1895 97.6102 19.7595 102.49C24.0995 139.95 56.1995 168.95 94.9495 168.38C135.1 167.79 167.85 135.01 168.4 94.8502C168.92 56.1102 139.9 24.0402 102.42 19.7402C97.5395 19.1802 93.8296 15.0902 93.8296 10.1702C93.8296 4.44016 98.8095 -0.0498407 104.5 0.590159C151.73 5.95016 188.33 46.3602 187.65 95.1702Z" fill="url(#paint0_linear_693_18)"/>
<defs>
<linearGradient id="paint0_linear_693_18" x1="94.1029" y1="0.529297" x2="94.1029" y2="187.65" gradientUnits="userSpaceOnUse">
<stop stop-color="#43C1A9"/>
<stop offset="1" stop-color="#24917C"/>
</linearGradient>
</defs>
</svg>
