<svg width="72" height="66" viewBox="0 0 72 66" fill="none" xmlns="http://www.w3.org/2000/svg">
<rect width="72" height="66" rx="7" fill="#F2F2F2"/>
<path fill-rule="evenodd" clip-rule="evenodd" d="M26.5625 21C26.2053 21 26 21.2639 26 21.4881V48.2738C26 48.498 26.2053 48.7619 26.5625 48.7619H48.4375C48.7947 48.7619 49 48.498 49 48.2738V21.4881C49 21.2639 48.7947 21 48.4375 21H26.5625ZM24 21.4881C24 20.0685 25.1938 19 26.5625 19H48.4375C49.8062 19 51 20.0685 51 21.4881V48.2738C51 49.6934 49.8062 50.7619 48.4375 50.7619H26.5625C25.1938 50.7619 24 49.6934 24 48.2738V21.4881Z" fill="#5AC9B4"/>
<path fill-rule="evenodd" clip-rule="evenodd" d="M28.7619 20C28.7619 19.4477 29.2096 19 29.7619 19H36.9048C37.457 19 37.9048 19.4477 37.9048 20V31.9048C37.9048 32.2928 37.6803 32.6458 37.3289 32.8104C36.9775 32.9749 36.5627 32.9214 36.2646 32.673L33.3333 30.2303L30.4021 32.673C30.104 32.9214 29.6891 32.9749 29.3377 32.8104C28.9864 32.6458 28.7619 32.2928 28.7619 31.9048V20ZM30.7619 21V29.7697L32.6931 28.1604C33.064 27.8513 33.6027 27.8513 33.9735 28.1604L35.9048 29.7697V21H30.7619Z" fill="#5AC9B4"/>
<path fill-rule="evenodd" clip-rule="evenodd" d="M28.7619 37.8572C28.7619 37.3049 29.2096 36.8572 29.7619 36.8572H37.9464C38.4987 36.8572 38.9464 37.3049 38.9464 37.8572C38.9464 38.4095 38.4987 38.8572 37.9464 38.8572H29.7619C29.2096 38.8572 28.7619 38.4095 28.7619 37.8572ZM28.7619 42.6191C28.7619 42.0668 29.2096 41.6191 29.7619 41.6191H42.8571C43.4094 41.6191 43.8571 42.0668 43.8571 42.6191C43.8571 43.1714 43.4094 43.6191 42.8571 43.6191H29.7619C29.2096 43.6191 28.7619 43.1714 28.7619 42.6191Z" fill="#5AC9B4"/>
</svg>
