<svg width="72" height="66" viewBox="0 0 72 66" fill="none" xmlns="http://www.w3.org/2000/svg">
<rect width="72" height="66" rx="7" fill="#F2F2F2"/>
<path d="M22.4125 52.1696C22.4125 52.1696 22.0786 51.4303 21.7701 50.5218C21.4608 49.6141 19.4965 43.53 19.4965 43.53C19.4965 43.53 18.9034 41.6749 17.89 41.9211C16.8395 42.2061 15.0479 42.4013 14.1086 40.4296C13.5031 39.0547 12.2799 35.3187 12.2799 35.3187C12.2799 35.3187 10.8963 32.1276 14.2813 30.5576C16.1847 29.8572 17.4827 29.4289 17.4827 29.4289C17.4827 29.4289 19.299 28.573 19.8304 30.2977C20.3618 32.0232 22.586 38.9373 22.586 38.9373C22.586 38.9373 23.0681 40.079 22.7341 42.3494C22.6107 43.3227 22.3755 43.4134 23.3025 45.0863C24.2296 46.7599 24.5874 47.9534 24.2666 48.5372C25.2676 49.3413 25.9224 51.1186 24.7856 51.9234C23.982 52.4973 22.5853 52.7534 22.4125 52.1696Z" fill="#4DBF9D"/>
<path d="M34.6092 24.901C33.9167 26.0427 32.8169 27.8718 29.5059 28.9487C28.5048 29.3633 27.9981 29.1171 27.776 28.6629C27.776 28.6629 27.4544 27.8047 28.5789 27.4427C29.7033 27.0807 32.4466 26.25 33.5464 22.9941C33.6205 22.6961 33.6945 21.9172 34.4604 22.0735C35.1028 22.2289 35.6095 23.1367 34.6092 24.901Z" fill="#4DBF9D"/>
<path d="M44.0617 38.8856L41.4418 30.6613C41.4418 30.6613 42.9742 28.7933 42.0966 26.4711C41.0715 23.6687 39.0324 23.3189 39.0324 23.3189C39.0324 23.3189 36.215 14.536 36.0423 14.1733C35.3504 13.1352 33.8427 13.213 33.4478 15.0032C32.9904 17.0137 31.8536 18.8688 31.0253 20.1659C28.5789 23.5392 25.0451 25.148 22.4629 26.2371C19.88 27.327 20.9675 29.2986 20.9675 29.2986C20.9675 29.2986 22.6974 34.9163 23.5496 37.2637C24.4026 39.6119 25.6011 39.2361 26.6639 38.9115C27.8994 38.4443 31.3346 37.8864 32.5592 37.8346C38.1213 37.6014 41.2196 40.4037 41.2196 40.4037C42.9002 41.5843 43.4933 41.5317 43.9136 41.1171C44.8645 40.3252 44.0617 38.8856 44.0617 38.8856ZM25.6258 37.0823L22.8455 28.3909C33.4354 24.4598 34.9918 17.1433 34.9918 17.1433L41.6029 38.0426C34.745 33.5277 25.6258 37.0823 25.6258 37.0823Z" fill="#4DBF9D"/>
<path d="M34.6092 24.901C33.9167 26.0427 32.8169 27.8718 29.5059 28.9487C28.5048 29.3633 27.9981 29.1171 27.776 28.6629C27.776 28.6629 27.4544 27.8047 28.5789 27.4427C29.7033 27.0807 32.4466 26.25 33.5464 22.9941C33.6205 22.6961 33.6945 21.9172 34.4604 22.0735C35.1028 22.2289 35.6095 23.1367 34.6092 24.901Z" fill="#4DBF9D"/>
<path d="M34.6092 24.901C33.9167 26.0427 32.8169 27.8718 29.5059 28.9487C28.5048 29.3633 27.9981 29.1171 27.776 28.6629C27.776 28.6629 27.4544 27.8047 28.5789 27.4427C29.7033 27.0807 32.4466 26.25 33.5464 22.9941C33.6205 22.6961 33.6945 21.9172 34.4604 22.0735C35.1028 22.2289 35.6095 23.1367 34.6092 24.901Z" fill="#4DBF9D"/>
<path fill-rule="evenodd" clip-rule="evenodd" d="M47.9371 13.3288C48.584 13.8463 48.6889 14.7902 48.1714 15.4371L44.1714 20.4371C43.6538 21.084 42.7099 21.1889 42.063 20.6714C41.4161 20.1538 41.3112 19.2099 41.8288 18.563L45.8288 13.563C46.3463 12.9161 47.2902 12.8112 47.9371 13.3288Z" fill="#4DBF9D"/>
<path fill-rule="evenodd" clip-rule="evenodd" d="M59.6743 21.1766C59.9427 21.9604 59.525 22.8133 58.7413 23.0818L46.9502 27.1211C46.1665 27.3896 45.3135 26.9719 45.045 26.1882C44.7766 25.4044 45.1942 24.5515 45.978 24.283L57.7691 20.2437C58.5528 19.9752 59.4058 20.3929 59.6743 21.1766Z" fill="#4DBF9D"/>
<path fill-rule="evenodd" clip-rule="evenodd" d="M56.106 33.7058C55.9667 34.5224 55.1917 35.0715 54.3751 34.9322L47.1188 33.6943C46.3022 33.555 45.7531 32.78 45.8924 31.9634C46.0317 31.1468 46.8067 30.5977 47.6233 30.737L54.8796 31.9749C55.6962 32.1142 56.2453 32.8891 56.106 33.7058Z" fill="#4DBF9D"/>
</svg>
