<svg width="239" height="67" viewBox="0 0 239 67" fill="none" xmlns="http://www.w3.org/2000/svg">
<path d="M12.463 52.3397C14.463 52.3397 15.433 51.3397 15.433 50.1697C15.433 47.5997 11.363 48.4897 11.363 47.1997C11.363 46.7597 11.733 46.3997 12.693 46.3997C13.313 46.3997 13.983 46.5797 14.633 46.9497L15.133 45.7197C14.483 45.3097 13.583 45.0997 12.703 45.0997C10.713 45.0997 9.75303 46.0897 9.75303 47.2797C9.75303 49.8797 13.823 48.9797 13.823 50.2897C13.823 50.7197 13.433 51.0397 12.473 51.0397C11.633 51.0397 10.753 50.7397 10.163 50.3097L9.61302 51.5297C10.233 52.0097 11.353 52.3397 12.463 52.3397Z" fill="white"/>
<path d="M21.7 49.5497C21.7 47.8197 20.48 46.7597 18.9 46.7597C17.26 46.7597 16.03 47.9197 16.03 49.5297C16.03 51.1297 17.24 52.2997 19.1 52.2997C20.07 52.2997 20.82 51.9997 21.32 51.4297L20.49 50.5297C20.12 50.8797 19.71 51.0497 19.14 51.0497C18.32 51.0497 17.75 50.6397 17.6 49.9697H21.67C21.68 49.8397 21.7 49.6697 21.7 49.5497ZM18.91 47.9397C19.61 47.9397 20.12 48.3797 20.23 49.0597H17.58C17.69 48.3697 18.2 47.9397 18.91 47.9397Z" fill="white"/>
<path d="M22.7386 52.2197H24.2986V44.7997H22.7386V52.2197Z" fill="white"/>
<path d="M31.0164 49.5497C31.0164 47.8197 29.7964 46.7597 28.2164 46.7597C26.5764 46.7597 25.3464 47.9197 25.3464 49.5297C25.3464 51.1297 26.5564 52.2997 28.4164 52.2997C29.3864 52.2997 30.1364 51.9997 30.6364 51.4297L29.8064 50.5297C29.4364 50.8797 29.0264 51.0497 28.4564 51.0497C27.6364 51.0497 27.0664 50.6397 26.9164 49.9697H30.9864C30.9964 49.8397 31.0164 49.6697 31.0164 49.5497ZM28.2264 47.9397C28.9264 47.9397 29.4364 48.3797 29.5464 49.0597H26.8964C27.0064 48.3697 27.5164 47.9397 28.2264 47.9397Z" fill="white"/>
<path d="M34.655 52.2997C35.785 52.2997 36.675 51.7997 37.065 50.9397L35.855 50.2797C35.565 50.7997 35.135 51.0197 34.645 51.0197C33.855 51.0197 33.235 50.4697 33.235 49.5297C33.235 48.5897 33.855 48.0397 34.645 48.0397C35.135 48.0397 35.565 48.2697 35.855 48.7797L37.065 48.1297C36.675 47.2497 35.785 46.7597 34.655 46.7597C32.905 46.7597 31.655 47.9097 31.655 49.5297C31.655 51.1497 32.905 52.2997 34.655 52.2997Z" fill="white"/>
<path d="M41.0913 50.8597C40.9213 50.9897 40.6913 51.0597 40.4613 51.0597C40.0413 51.0597 39.7913 50.8097 39.7913 50.3497V48.1597H41.1313V46.9597H39.7913V45.6497H38.2313V46.9597H37.4013V48.1597H38.2313V50.3697C38.2313 51.6497 38.9713 52.2997 40.2413 52.2997C40.7213 52.2997 41.1913 52.1897 41.5113 51.9597L41.0913 50.8597Z" fill="white"/>
<path d="M0.0067749 64.2197H5.13678V62.8997H1.62677V57.2197H0.0067749V64.2197Z" fill="white"/>
<path d="M8.16053 58.7597C7.30053 58.7597 6.43053 58.9897 5.84053 59.4097L6.40053 60.4997C6.79053 60.1897 7.38053 59.9997 7.95053 59.9997C8.79053 59.9997 9.19053 60.3897 9.19053 61.0597H7.95053C6.31053 61.0597 5.64052 61.7197 5.64052 62.6697C5.64052 63.5997 6.39053 64.2997 7.65053 64.2997C8.44053 64.2997 9.00053 64.0397 9.29053 63.5497V64.2197H10.7505V61.1497C10.7505 59.5197 9.80053 58.7597 8.16053 58.7597ZM8.04053 63.2497C7.49053 63.2497 7.16053 62.9897 7.16053 62.5997C7.16053 62.2397 7.39053 61.9697 8.12053 61.9697H9.19053V62.5197C9.01052 63.0097 8.56053 63.2497 8.04053 63.2497Z" fill="white"/>
<path d="M15.4324 58.7597C14.7024 58.7597 14.0724 59.0097 13.6524 59.4697V58.8397H12.1624V64.2197H13.7224V61.5597C13.7224 60.5697 14.2624 60.1097 15.0124 60.1097C15.7024 60.1097 16.1024 60.5097 16.1024 61.3797V64.2197H17.6624V61.1397C17.6624 59.4997 16.7024 58.7597 15.4324 58.7597Z" fill="white"/>
<path d="M23.2051 58.8397V59.5297C22.7951 59.0097 22.1751 58.7597 21.4251 58.7597C19.9351 58.7597 18.7351 59.7897 18.7351 61.3597C18.7351 62.9297 19.9351 63.9597 21.4251 63.9597C22.1251 63.9597 22.7151 63.7397 23.1251 63.2897V63.5197C23.1251 64.4897 22.6451 64.9897 21.5451 64.9897C20.8551 64.9897 20.1051 64.7497 19.6451 64.3797L19.0251 65.4997C19.6551 65.9897 20.6451 66.2397 21.6651 66.2397C23.6051 66.2397 24.6851 65.3197 24.6851 63.3197V58.8397H23.2051ZM21.7351 62.6797C20.9151 62.6797 20.3151 62.1497 20.3151 61.3597C20.3151 60.5697 20.9151 60.0397 21.7351 60.0397C22.5551 60.0397 23.1451 60.5697 23.1451 61.3597C23.1451 62.1497 22.5551 62.6797 21.7351 62.6797Z" fill="white"/>
<path d="M29.997 58.8397V61.4997C29.997 62.4897 29.477 62.9497 28.757 62.9497C28.067 62.9497 27.667 62.5497 27.667 61.6497V58.8397H26.107V61.8797C26.107 63.5397 27.057 64.2997 28.407 64.2997C29.067 64.2997 29.667 64.0497 30.077 63.5797V64.2197H31.557V58.8397H29.997Z" fill="white"/>
<path d="M35.1722 58.7597C34.3122 58.7597 33.4422 58.9897 32.8522 59.4097L33.4122 60.4997C33.8022 60.1897 34.3922 59.9997 34.9622 59.9997C35.8022 59.9997 36.2022 60.3897 36.2022 61.0597H34.9622C33.3222 61.0597 32.6522 61.7197 32.6522 62.6697C32.6522 63.5997 33.4022 64.2997 34.6622 64.2997C35.4522 64.2997 36.0122 64.0397 36.3022 63.5497V64.2197H37.7622V61.1497C37.7622 59.5197 36.8122 58.7597 35.1722 58.7597ZM35.0522 63.2497C34.5022 63.2497 34.1722 62.9897 34.1722 62.5997C34.1722 62.2397 34.4022 61.9697 35.1322 61.9697H36.2022V62.5197C36.0222 63.0097 35.5722 63.2497 35.0522 63.2497Z" fill="white"/>
<path d="M43.3027 58.8397V59.5297C42.8927 59.0097 42.2727 58.7597 41.5227 58.7597C40.0327 58.7597 38.8327 59.7897 38.8327 61.3597C38.8327 62.9297 40.0327 63.9597 41.5227 63.9597C42.2227 63.9597 42.8127 63.7397 43.2227 63.2897V63.5197C43.2227 64.4897 42.7427 64.9897 41.6427 64.9897C40.9527 64.9897 40.2027 64.7497 39.7427 64.3797L39.1227 65.4997C39.7527 65.9897 40.7427 66.2397 41.7627 66.2397C43.7027 66.2397 44.7827 65.3197 44.7827 63.3197V58.8397H43.3027ZM41.8327 62.6797C41.0127 62.6797 40.4127 62.1497 40.4127 61.3597C40.4127 60.5697 41.0127 60.0397 41.8327 60.0397C42.6527 60.0397 43.2427 60.5697 43.2427 61.3597C43.2427 62.1497 42.6527 62.6797 41.8327 62.6797Z" fill="white"/>
<path d="M51.5047 61.5497C51.5047 59.8197 50.2847 58.7597 48.7047 58.7597C47.0647 58.7597 45.8347 59.9197 45.8347 61.5297C45.8347 63.1297 47.0447 64.2997 48.9047 64.2997C49.8747 64.2997 50.6247 63.9997 51.1247 63.4297L50.2947 62.5297C49.9247 62.8797 49.5147 63.0497 48.9447 63.0497C48.1247 63.0497 47.5547 62.6397 47.4047 61.9697H51.4747C51.4847 61.8397 51.5047 61.6697 51.5047 61.5497ZM48.7147 59.9397C49.4147 59.9397 49.9247 60.3797 50.0347 61.0597H47.3847C47.4947 60.3697 48.0047 59.9397 48.7147 59.9397Z" fill="white"/>
<path d="M115.95 46.2197L113.79 51.2197L111.66 46.2197H109.91L112.93 53.2197H114.53L117.56 46.2197H115.95Z" fill="white"/>
<path d="M118.912 47.0897C119.492 47.0897 119.882 46.7097 119.882 46.1897C119.882 45.7097 119.492 45.3497 118.912 45.3497C118.332 45.3497 117.942 45.7297 117.942 46.2197C117.942 46.7097 118.332 47.0897 118.912 47.0897ZM118.132 53.2197H119.692V47.8397H118.132V53.2197Z" fill="white"/>
<path d="M125.06 45.7997V48.4097C124.67 47.9697 124.11 47.7597 123.45 47.7597C121.93 47.7597 120.76 48.8397 120.76 50.5297C120.76 52.2197 121.93 53.2997 123.45 53.2997C124.17 53.2997 124.74 53.0697 125.13 52.5997V53.2197H126.62V45.7997H125.06ZM123.72 52.0197C122.94 52.0197 122.34 51.4597 122.34 50.5297C122.34 49.5997 122.94 49.0397 123.72 49.0397C124.49 49.0397 125.09 49.5997 125.09 50.5297C125.09 51.4597 124.49 52.0197 123.72 52.0197Z" fill="white"/>
<path d="M133.334 50.5497C133.334 48.8197 132.114 47.7597 130.534 47.7597C128.894 47.7597 127.664 48.9197 127.664 50.5297C127.664 52.1297 128.874 53.2997 130.734 53.2997C131.704 53.2997 132.454 52.9997 132.954 52.4297L132.124 51.5297C131.754 51.8797 131.344 52.0497 130.774 52.0497C129.954 52.0497 129.384 51.6397 129.234 50.9697H133.304C133.314 50.8397 133.334 50.6697 133.334 50.5497ZM130.544 48.9397C131.244 48.9397 131.754 49.3797 131.864 50.0597H129.214C129.324 49.3697 129.834 48.9397 130.544 48.9397Z" fill="white"/>
<path d="M136.932 53.2997C138.642 53.2997 139.882 52.1497 139.882 50.5297C139.882 48.9097 138.642 47.7597 136.932 47.7597C135.222 47.7597 133.972 48.9097 133.972 50.5297C133.972 52.1497 135.222 53.2997 136.932 53.2997ZM136.932 52.0197C136.152 52.0197 135.552 51.4597 135.552 50.5297C135.552 49.5997 136.152 49.0397 136.932 49.0397C137.712 49.0397 138.302 49.5997 138.302 50.5297C138.302 51.4597 137.712 52.0197 136.932 52.0197Z" fill="white"/>
<path d="M213.12 47.5197V46.2197H207.83V53.2197H209.45V50.6697H212.69V49.3697H209.45V47.5197H213.12Z" fill="white"/>
<path d="M214.789 47.0897C215.369 47.0897 215.759 46.7097 215.759 46.1897C215.759 45.7097 215.369 45.3497 214.789 45.3497C214.209 45.3497 213.819 45.7297 213.819 46.2197C213.819 46.7097 214.209 47.0897 214.789 47.0897ZM214.009 53.2197H215.569V47.8397H214.009V53.2197Z" fill="white"/>
<path d="M220.287 47.7597C219.557 47.7597 218.927 48.0097 218.507 48.4697V47.8397H217.017V53.2197H218.577V50.5597C218.577 49.5697 219.117 49.1097 219.867 49.1097C220.557 49.1097 220.957 49.5097 220.957 50.3797V53.2197H222.517V50.1397C222.517 48.4997 221.557 47.7597 220.287 47.7597Z" fill="white"/>
<path d="M224.711 47.0897C225.291 47.0897 225.681 46.7097 225.681 46.1897C225.681 45.7097 225.291 45.3497 224.711 45.3497C224.131 45.3497 223.741 45.7297 223.741 46.2197C223.741 46.7097 224.131 47.0897 224.711 47.0897ZM223.931 53.2197H225.491V47.8397H223.931V53.2197Z" fill="white"/>
<path d="M228.749 53.2997C230.359 53.2997 231.289 52.5897 231.289 51.5897C231.289 49.4697 228.039 50.3597 228.039 49.4397C228.039 49.1597 228.339 48.9397 229.039 48.9397C229.529 48.9397 230.059 49.0397 230.589 49.3397L231.109 48.2297C230.599 47.9297 229.779 47.7597 229.039 47.7597C227.469 47.7597 226.549 48.4797 226.549 49.4997C226.549 51.6497 229.799 50.7497 229.799 51.6297C229.799 51.9297 229.529 52.1197 228.809 52.1197C228.149 52.1197 227.419 51.9097 226.939 51.5997L226.419 52.7197C226.919 53.0497 227.839 53.2997 228.749 53.2997Z" fill="white"/>
<path d="M235.521 47.7597C234.831 47.7597 234.231 47.9797 233.811 48.3997V45.7997H232.251V53.2197H233.811V50.5597C233.811 49.5697 234.351 49.1097 235.101 49.1097C235.791 49.1097 236.191 49.5097 236.191 50.3797V53.2197H237.751V50.1397C237.751 48.4997 236.791 47.7597 235.521 47.7597Z" fill="white"/>
<path fill-rule="evenodd" clip-rule="evenodd" d="M213 16.2197H27V14.2197H213V16.2197Z" fill="#D1D1D1"/>
<path fill-rule="evenodd" clip-rule="evenodd" d="M154 16.2197H27V14.2197H154V16.2197Z" fill="#FEBB02"/>
<path d="M39 15.2197C39 23.504 32.2843 30.2197 24 30.2197C15.7157 30.2197 9 23.504 9 15.2197C9 6.93546 15.7157 0.219727 24 0.219727C32.2843 0.219727 39 6.93546 39 15.2197Z" fill="#18A398"/>
<path fill-rule="evenodd" clip-rule="evenodd" d="M30.7179 10.5236C31.1024 10.9201 31.0926 11.5532 30.6961 11.9376L22.4461 19.9376C22.0583 20.3138 21.4417 20.3138 21.0539 19.9376L17.3039 16.3013C16.9074 15.9168 16.8976 15.2837 17.2821 14.8872C17.6666 14.4907 18.2997 14.481 18.6961 14.8655L21.75 17.8268L29.3039 10.5018C29.7003 10.1174 30.3334 10.1271 30.7179 10.5236Z" fill="white"/>
<path d="M79 15.2197C79 17.9812 76.7614 20.2197 74 20.2197C71.2386 20.2197 69 17.9812 69 15.2197C69 12.4583 71.2386 10.2197 74 10.2197C76.7614 10.2197 79 12.4583 79 15.2197Z" fill="#FEBB02"/>
<path d="M139 15.2197C139 23.504 132.284 30.2197 124 30.2197C115.716 30.2197 109 23.504 109 15.2197C109 6.93546 115.716 0.219727 124 0.219727C132.284 0.219727 139 6.93546 139 15.2197Z" fill="#FEBB02"/>
<path d="M121.239 20.2197H127.884V18.9141H123.324V18.7773L125.416 16.6924C127.207 14.915 127.727 14.0537 127.727 12.9326V12.9121C127.727 11.2852 126.373 10.1162 124.534 10.1162C122.552 10.1162 121.157 11.3877 121.15 13.1924L121.164 13.2061H122.6L122.606 13.1855C122.606 12.1055 123.345 11.3809 124.452 11.3809C125.532 11.3809 126.195 12.0918 126.195 13.0557V13.0762C126.195 13.876 125.819 14.3818 124.514 15.7422L121.239 19.1807V20.2197Z" fill="white"/>
<path d="M239 15.2197C239 23.504 232.284 30.2197 224 30.2197C215.716 30.2197 209 23.504 209 15.2197C209 6.93546 215.716 0.219727 224 0.219727C232.284 0.219727 239 6.93546 239 15.2197Z" fill="#D1D1D1"/>
<path d="M224.541 20.4043C226.633 20.4043 228.116 19.1875 228.116 17.4922V17.4785C228.116 16.0977 227.146 15.2227 225.696 15.0928V15.0586C226.899 14.8057 227.774 13.9854 227.774 12.7617V12.748C227.774 11.2236 226.489 10.1709 224.527 10.1709C222.6 10.1709 221.287 11.2715 221.137 12.9326L221.13 13.0078H222.565L222.572 12.9395C222.668 12.0098 223.434 11.4287 224.527 11.4287C225.642 11.4287 226.284 11.9893 226.284 12.9463V12.96C226.284 13.876 225.519 14.5391 224.391 14.5391H223.235V15.7285H224.438C225.751 15.7285 226.558 16.3506 226.558 17.4648V17.4785C226.558 18.4492 225.744 19.126 224.541 19.126C223.317 19.126 222.49 18.4971 222.395 17.6016L222.388 17.5332H220.925L220.932 17.6152C221.062 19.249 222.436 20.4043 224.541 20.4043Z" fill="#9D9D9E"/>
<path d="M179 15.2197C179 17.9812 176.761 20.2197 174 20.2197C171.239 20.2197 169 17.9812 169 15.2197C169 12.4583 171.239 10.2197 174 10.2197C176.761 10.2197 179 12.4583 179 15.2197Z" fill="#D1D1D1"/>
</svg>
