<svg width="30" height="27" viewBox="0 0 30 27" fill="none" xmlns="http://www.w3.org/2000/svg">
<path d="M29.7029 13.9709C29.3392 13.6496 28.7837 13.6841 28.4624 14.0478L28.4482 14.0639V13.4479C28.4482 9.85587 27.0493 6.47872 24.5092 3.9386C21.9693 1.3987 18.5921 0 15 0C12.8302 0 10.6742 0.529174 8.76461 1.53007C6.91707 2.49847 5.29545 3.90724 4.07505 5.6044C3.79169 5.9983 3.88142 6.54762 4.27555 6.83097C4.66968 7.11456 5.219 7.02484 5.50236 6.6307C6.56391 5.15442 7.97428 3.92898 9.5808 3.08693C11.2395 2.21741 13.1134 1.75781 15 1.75781C21.446 1.75781 26.6904 7.00218 26.6904 13.4482V14.0641L26.676 14.0481C26.3546 13.6841 25.7991 13.6498 25.4354 13.9712C25.0715 14.2925 25.0372 14.848 25.3585 15.2117L26.9103 16.9686C27.0772 17.1574 27.3171 17.2655 27.5691 17.2655C27.8211 17.2655 28.0609 17.1574 28.2278 16.9686L29.7796 15.2117C30.1012 14.8478 30.0669 14.2923 29.7029 13.9709Z" fill="white"/>
<path d="M25.7245 20.0622C25.3304 19.7788 24.7813 19.8683 24.4977 20.2624C23.4361 21.7385 22.0258 22.9639 20.4193 23.8062C18.7605 24.6757 16.8865 25.1353 15 25.1353C8.55403 25.1353 3.30966 19.891 3.30966 13.445V12.829L3.32408 12.8453C3.64543 13.209 4.20093 13.2435 4.56462 12.922C4.92854 12.6006 4.96287 12.0451 4.64152 11.6814L3.08971 9.92453C2.92262 9.7357 2.68298 9.62744 2.43098 9.62744C2.17899 9.62744 1.93889 9.7357 1.77226 9.92453L0.220216 11.6814C-0.101134 12.0453 -0.0668018 12.6006 0.29712 12.922C0.464204 13.0698 0.671799 13.1424 0.878708 13.1424C1.12178 13.1424 1.36394 13.0419 1.53766 12.8453L1.55185 12.829V13.445C1.55185 17.0373 2.95077 20.4142 5.4909 22.9543C8.0308 25.4944 11.408 26.8931 15 26.8931C17.1696 26.8931 19.3259 26.364 21.2354 25.3631C23.0828 24.3947 24.7044 22.9857 25.9248 21.2887C26.2081 20.8946 26.1186 20.3455 25.7245 20.0622Z" fill="white"/>
<path d="M15 16.9606C16.9384 16.9606 18.5156 15.3836 18.5156 13.4449C18.5156 11.5065 16.9384 9.92932 15 9.92932C13.0613 9.92932 11.4843 11.5065 11.4843 13.4449C11.4843 15.3836 13.0613 16.9606 15 16.9606ZM15 11.6871C15.9693 11.6871 16.7578 12.4756 16.7578 13.4449C16.7578 14.4143 15.9693 15.2028 15 15.2028C14.0306 15.2028 13.2421 14.4143 13.2421 13.4449C13.2421 12.4756 14.0306 11.6871 15 11.6871Z" fill="white"/>
<path d="M6.33098 15.6966C6.27056 15.9216 6.30214 16.1615 6.41887 16.3633L8.17668 19.4081C8.29318 19.61 8.48522 19.7572 8.71021 19.8176C8.93543 19.8778 9.17529 19.8465 9.37717 19.7297L10.6697 18.9836C11.1858 19.3869 11.7578 19.7178 12.3634 19.9636V21.4539C12.3634 21.9391 12.7568 22.3328 13.2423 22.3328H16.7579C17.2431 22.3328 17.6368 21.9391 17.6368 21.4539V19.9636C18.2424 19.7178 18.8144 19.3869 19.3305 18.9836L20.623 19.7297C20.8247 19.8462 21.0648 19.8778 21.2898 19.8176C21.515 19.7572 21.707 19.61 21.8235 19.4081L23.5813 16.3633C23.6978 16.1615 23.7294 15.9216 23.6692 15.6966C23.6088 15.4714 23.4614 15.2794 23.2598 15.1629L21.9645 14.4151C22.0089 14.0942 22.0313 13.7694 22.0313 13.4446C22.0313 13.116 22.0085 12.788 21.9629 12.4634L23.2598 11.7147C23.4616 11.5982 23.6088 11.4062 23.6692 11.181C23.7294 10.9558 23.6978 10.7159 23.5813 10.514L21.8235 7.46945C21.5809 7.04922 21.0433 6.90526 20.623 7.14787L19.3221 7.89906C18.808 7.49875 18.239 7.17007 17.6368 6.92563V5.42371C17.6368 4.93848 17.2434 4.5448 16.7579 4.5448H13.2423C12.7568 4.5448 12.3634 4.93848 12.3634 5.42371V6.92563C11.7614 7.17007 11.1922 7.49875 10.6784 7.89906L9.37717 7.14787C8.95694 6.90503 8.4193 7.04922 8.17668 7.46945L6.41887 10.514C6.30237 10.7159 6.27079 10.956 6.33098 11.181C6.39141 11.4062 6.53858 11.5982 6.74045 11.7147L8.03729 12.4634C7.99175 12.788 7.96886 13.116 7.96886 13.4446C7.96886 13.7694 7.99129 14.094 8.03569 14.4151L6.74068 15.1629C6.53858 15.2794 6.39141 15.4714 6.33098 15.6966ZM9.86835 14.6634C9.77428 14.2659 9.72667 13.8557 9.72667 13.4446C9.72667 13.0306 9.77496 12.6177 9.87041 12.2171C9.96059 11.839 9.79167 11.4465 9.45499 11.2522L8.38062 10.6319L9.25952 9.10962L10.3376 9.73217C10.674 9.92627 11.0981 9.8766 11.3806 9.60995C11.9786 9.04507 12.709 8.62324 13.4929 8.39001C13.8655 8.27901 14.1212 7.93637 14.1212 7.5475V6.30261H15.879V7.5475C15.879 7.93637 16.1344 8.27901 16.5071 8.39001C17.2912 8.62324 18.0216 9.0453 18.6196 9.60995C18.9021 9.8766 19.3262 9.92627 19.6624 9.73217L20.7407 9.10962L21.6196 10.6319L20.5452 11.2522C20.2085 11.4465 20.0396 11.839 20.1296 12.2171C20.225 12.6177 20.2735 13.0306 20.2735 13.4446C20.2735 13.8557 20.2257 14.2659 20.1319 14.6634C20.0426 15.0413 20.2115 15.4327 20.5477 15.6268L21.6196 16.2457L20.7407 17.768L19.6704 17.15C19.3335 16.9555 18.9087 17.0056 18.6263 17.2731C18.0271 17.841 17.2942 18.2651 16.5073 18.4995C16.1344 18.6103 15.879 18.9529 15.879 19.3418V20.575H14.1212V19.3418C14.1212 18.9529 13.8658 18.6103 13.4931 18.4995C12.706 18.2651 11.9731 17.8412 11.3739 17.2731C11.0915 17.0056 10.6669 16.9557 10.33 17.15L9.25952 17.768L8.38062 16.2457L9.45247 15.6268C9.78847 15.4327 9.95761 15.0413 9.86835 14.6634Z" fill="white"/>
</svg>
