<svg width="45" height="45" viewBox="0 0 45 45" fill="none" xmlns="http://www.w3.org/2000/svg">
<path fill-rule="evenodd" clip-rule="evenodd" d="M16.9552 4.2C9.90941 4.2 4.2 9.90941 4.2 16.9552C4.2 21.0003 6.08209 24.6075 9.02246 26.9404C9.28205 27.1463 9.32553 27.5237 9.11957 27.7833C8.91361 28.0429 8.53621 28.0864 8.27662 27.8805C5.06088 25.3291 3 21.3811 3 16.9552C3 9.24667 9.24667 3 16.9552 3C20.5441 3 23.8015 4.35663 26.2722 6.57502C26.5188 6.7964 26.5392 7.17575 26.3178 7.42232C26.0965 7.66889 25.7171 7.68931 25.4705 7.46793C23.2098 5.43809 20.2347 4.2 16.9552 4.2Z" fill="#4DBF9D"/>
<path d="M11.9238 41.2242C9.82375 41.2242 7.72375 40.3242 6.22375 38.8242L4.42375 37.0242C3.72375 36.4242 3.52375 35.4242 3.62375 34.5242C3.82375 33.6242 4.32375 32.8242 5.22375 32.4242L13.7238 28.3242C14.6238 27.9242 15.7238 28.1242 16.3238 29.0242L17.8238 31.1242C18.5238 32.1242 19.6238 32.7242 20.9238 32.8242C22.1238 32.9242 23.3238 32.5242 24.2238 31.6242L31.8238 24.0242C32.7238 23.1242 33.1238 21.9242 33.0238 20.7242C32.9238 19.5242 32.3238 18.4242 31.3238 17.6242L29.2238 16.1242C28.4238 15.5242 28.1238 14.4242 28.5238 13.5242L32.6238 5.02424C32.8238 4.42424 33.6238 3.82424 34.5238 3.62424C35.4238 3.52424 36.3238 3.72424 37.0238 4.42424L38.8238 6.22424C40.6238 8.02424 41.5238 10.4242 41.2238 12.8242C39.5238 27.8242 27.8238 39.4242 12.8238 41.2242C12.4238 41.2242 12.2238 41.2242 11.9238 41.2242ZM14.5238 29.2242C14.3238 29.2242 14.2238 29.2242 14.0238 29.3242L5.52375 33.3242C5.02375 33.6242 4.62375 34.0242 4.52375 34.6242C4.42375 35.2242 4.62375 35.8242 5.02375 36.2242L6.82375 38.0242C8.42375 39.6242 10.5238 40.3242 12.6238 40.1242C27.1238 38.4242 38.4238 27.1242 40.1238 12.6242C40.3238 10.6242 39.6238 8.42424 38.0238 6.82424L36.2238 5.02424C35.8238 4.62424 35.2238 4.42424 34.6238 4.52424C34.0238 4.62424 33.5238 5.02424 33.2238 5.52424L29.1238 14.0242C28.9238 14.5242 29.0238 15.0242 29.4238 15.3242L31.6238 16.8242C32.8238 17.7242 33.6238 19.1242 33.7238 20.6242C33.8238 22.1242 33.3238 23.6242 32.2238 24.7242L24.6238 32.3242C23.5238 33.4242 22.1238 33.9242 20.5238 33.8242C19.0238 33.7242 17.6238 32.9242 16.7238 31.6242L15.3238 29.6242C15.1238 29.3242 14.8238 29.2242 14.5238 29.2242Z" fill="#606060"/>
<path fill-rule="evenodd" clip-rule="evenodd" d="M35.6034 7.46067C35.8525 7.57981 35.9578 7.87835 35.8387 8.12746L31.7813 16.6112C31.6621 16.8603 31.3636 16.9657 31.1145 16.8465C30.8653 16.7274 30.76 16.4289 30.8791 16.1797L34.9366 7.69601C35.0557 7.44689 35.3542 7.34153 35.6034 7.46067Z" fill="#606060"/>
<path fill-rule="evenodd" clip-rule="evenodd" d="M16.8468 31.1117C16.9662 31.3607 16.8612 31.6594 16.6122 31.7788L8.1285 35.849C7.87953 35.9684 7.58087 35.8634 7.46142 35.6144C7.34197 35.3655 7.44698 35.0668 7.69595 34.9474L16.1797 30.8772C16.4287 30.7577 16.7273 30.8627 16.8468 31.1117Z" fill="#606060"/>
<path fill-rule="evenodd" clip-rule="evenodd" d="M22.0781 40.4857C22.0781 40.1544 22.3468 39.8857 22.6781 39.8857H22.8062C23.1376 39.8857 23.4062 40.1544 23.4062 40.4857C23.4062 40.8171 23.1376 41.0857 22.8062 41.0857H22.6781C22.3468 41.0857 22.0781 40.8171 22.0781 40.4857Z" fill="#4DBF9D"/>
<path fill-rule="evenodd" clip-rule="evenodd" d="M24.7227 40.4858C24.7227 40.2097 24.9465 39.9858 25.2227 39.9858H27.1305C27.4067 39.9858 27.6305 40.2097 27.6305 40.4858C27.6305 40.762 27.4067 40.9858 27.1305 40.9858H25.2227C24.9465 40.9858 24.7227 40.762 24.7227 40.4858Z" fill="#4DBF9D"/>
<path fill-rule="evenodd" clip-rule="evenodd" d="M36.6684 37.978C36.9997 37.978 37.2684 38.2467 37.2684 38.578C37.2684 39.3024 37.8519 39.8859 38.5762 39.8859C39.3006 39.8859 39.8841 39.3024 39.8841 38.578C39.8841 38.2467 40.1528 37.978 40.4841 37.978C40.8155 37.978 41.0841 38.2467 41.0841 38.578C41.0841 39.9651 39.9633 41.0859 38.5762 41.0859C37.1892 41.0859 36.0684 39.9651 36.0684 38.578C36.0684 38.2467 36.337 37.978 36.6684 37.978Z" fill="#4DBF9D"/>
<path fill-rule="evenodd" clip-rule="evenodd" d="M32.8539 37.978C33.1853 37.978 33.4539 38.2467 33.4539 38.578C33.4539 39.3024 34.0375 39.8859 34.7618 39.8859C35.4861 39.8859 36.0697 39.3024 36.0697 38.578C36.0697 38.2467 36.3383 37.978 36.6697 37.978C37.001 37.978 37.2697 38.2467 37.2697 38.578C37.2697 39.9651 36.1489 41.0859 34.7618 41.0859C33.3747 41.0859 32.2539 39.9651 32.2539 38.578C32.2539 38.2467 32.5225 37.978 32.8539 37.978Z" fill="#4DBF9D"/>
<path fill-rule="evenodd" clip-rule="evenodd" d="M32.8536 37.978C33.185 37.978 33.4536 38.2467 33.4536 38.578C33.4536 39.9651 32.3328 41.0859 30.9457 41.0859C30.6143 41.0859 30.3457 40.8173 30.3457 40.4859C30.3457 40.1545 30.6143 39.8859 30.9457 39.8859C31.67 39.8859 32.2536 39.3024 32.2536 38.578C32.2536 38.2467 32.5222 37.978 32.8536 37.978Z" fill="#4DBF9D"/>
<path fill-rule="evenodd" clip-rule="evenodd" d="M29.0372 37.978C29.3686 37.978 29.6372 38.2467 29.6372 38.578C29.6372 39.9651 28.5164 41.0859 27.1293 41.0859C26.7979 41.0859 26.5293 40.8173 26.5293 40.4859C26.5293 40.1545 26.7979 39.8859 27.1293 39.8859C27.8536 39.8859 28.4372 39.3024 28.4372 38.578C28.4372 38.2467 28.7058 37.978 29.0372 37.978Z" fill="#4DBF9D"/>
<path d="M27.7656 8.68774L27.8428 8.76488" stroke="#4DBF9D" stroke-miterlimit="10" stroke-linecap="round" stroke-linejoin="round"/>
<path fill-rule="evenodd" clip-rule="evenodd" d="M13.1758 15.0473C13.1758 14.7159 13.4444 14.4473 13.7758 14.4473H18.8635C19.1948 14.4473 19.4635 14.7159 19.4635 15.0473V23.3507H20.1354C20.4668 23.3507 20.7354 23.6194 20.7354 23.9507C20.7354 24.2821 20.4668 24.5507 20.1354 24.5507H13.7758C13.4444 24.5507 13.1758 24.2821 13.1758 23.9507C13.1758 23.6194 13.4444 23.3507 13.7758 23.3507H14.4477V15.6473H13.7758C13.4444 15.6473 13.1758 15.3786 13.1758 15.0473ZM15.6477 15.6473V23.3507H18.2635V15.6473H15.6477Z" fill="#4DBF9D"/>
<path fill-rule="evenodd" clip-rule="evenodd" d="M16.9552 9.28765C16.2328 9.28765 15.6473 9.87321 15.6473 10.5955C15.6473 11.3179 16.2328 11.9034 16.9552 11.9034C17.6775 11.9034 18.263 11.3179 18.263 10.5955C18.263 9.87321 17.6775 9.28765 16.9552 9.28765ZM14.4473 10.5955C14.4473 9.21047 15.5701 8.08765 16.9552 8.08765C18.3402 8.08765 19.463 9.21047 19.463 10.5955C19.463 11.9806 18.3402 13.1034 16.9552 13.1034C15.5701 13.1034 14.4473 11.9806 14.4473 10.5955Z" fill="#4DBF9D"/>
</svg>
