<svg width="72" height="66" viewBox="0 0 72 66" fill="none" xmlns="http://www.w3.org/2000/svg">
<rect width="72" height="66" rx="7" fill="#F2F2F2"/>
<path d="M50.7273 26.4533C51.5953 26.4533 52.4277 26.7982 53.0414 27.412C53.6552 28.0257 54 28.8582 54 29.7262V36.272C54 37.14 53.6552 37.9725 53.0414 38.5863C52.4277 39.2001 51.5953 39.5449 50.7273 39.5449H48.9895C48.5905 42.7086 47.0508 45.618 44.6592 47.7271C42.2676 49.8362 39.1886 50.9999 36 51V47.7271C38.6039 47.7271 41.1012 46.6926 42.9425 44.8513C44.7838 43.0099 45.8182 40.5125 45.8182 37.9084V28.0898C45.8182 25.4857 44.7838 22.9883 42.9425 21.1469C41.1012 19.3056 38.6039 18.2711 36 18.2711C33.3961 18.2711 30.8988 19.3056 29.0575 21.1469C27.2162 22.9883 26.1818 25.4857 26.1818 28.0898V39.5449H21.2727C20.4047 39.5449 19.5723 39.2001 18.9586 38.5863C18.3448 37.9725 18 37.14 18 36.272V29.7262C18 28.8582 18.3448 28.0257 18.9586 27.412C19.5723 26.7982 20.4047 26.4533 21.2727 26.4533H23.0105C23.4099 23.2899 24.9498 20.3809 27.3413 18.2722C29.7328 16.1635 32.8116 15 36 15C39.1884 15 42.2672 16.1635 44.6587 18.2722C47.0502 20.3809 48.5901 23.2899 48.9895 26.4533H50.7273ZM29.0618 39.1931L30.7964 36.4176C32.3559 37.3947 34.1597 37.9114 36 37.9084C37.8403 37.9114 39.6441 37.3947 41.2036 36.4176L42.9382 39.1931C40.8588 40.4959 38.4538 41.1851 36 41.1813C33.5462 41.1851 31.1412 40.4959 29.0618 39.1931Z" fill="#5AC9B4"/>
</svg>
