<svg width="50" height="50" viewBox="0 0 50 50" fill="none" xmlns="http://www.w3.org/2000/svg">
<path d="M24.8499 49.6997C38.5741 49.6997 49.6997 38.5741 49.6997 24.8499C49.6997 11.1257 38.5741 0 24.8499 0C11.1257 0 0 11.1257 0 24.8499C0 38.5741 11.1257 49.6997 24.8499 49.6997Z" fill="url(#paint0_linear_560_828)"/>
<path d="M16.8213 26.6648L19.7701 34.8266C19.7701 34.8266 20.1383 35.5886 20.5322 35.5886C20.9261 35.5886 26.7981 29.4811 26.7981 29.4811L33.3253 16.8721L16.9281 24.559L16.8213 26.6648Z" fill="#C8DAEA"/>
<path d="M20.7301 28.7595L20.1631 34.775C20.1631 34.775 19.9275 36.6194 21.7682 34.775C23.6126 32.9306 25.3761 31.5096 25.3761 31.5096L20.7301 28.7595Z" fill="#A9C6D8"/>
<path d="M16.8774 26.9557L10.8141 24.9788C10.8141 24.9788 10.0888 24.6843 10.3244 24.0179C10.3723 23.8817 10.468 23.7639 10.7588 23.5614C12.1026 22.6263 35.6308 14.1663 35.6308 14.1663C35.6308 14.1663 36.2935 13.9418 36.6874 14.0927C36.8678 14.159 36.9819 14.2363 37.0776 14.5198C37.1144 14.6228 37.1328 14.84 37.1292 15.0536C37.1255 15.2082 37.1071 15.3554 37.0923 15.58C36.9488 17.892 32.6599 35.147 32.6599 35.147C32.6599 35.147 32.4022 36.1557 31.4855 36.1925C31.1505 36.2036 30.7418 36.1373 30.2559 35.7176C28.452 34.164 22.2156 29.9745 20.8387 29.0542C20.7614 29.0026 20.7393 28.9364 20.7246 28.8701C20.7062 28.7744 20.8092 28.6529 20.8092 28.6529C20.8092 28.6529 31.6659 19.0038 31.953 17.9914C31.9751 17.9141 31.8904 17.8736 31.7763 17.9067C31.0547 18.1718 18.5562 26.0648 17.1756 26.9373C17.102 26.9889 16.8774 26.9557 16.8774 26.9557Z" fill="white"/>
<defs>
<linearGradient id="paint0_linear_560_828" x1="24.8499" y1="49.6997" x2="24.8499" y2="0" gradientUnits="userSpaceOnUse">
<stop stop-color="#1D93D2"/>
<stop offset="1" stop-color="#38B0E3"/>
</linearGradient>
</defs>
</svg>
