<svg width="50" height="50" viewBox="0 0 50 50" fill="none" xmlns="http://www.w3.org/2000/svg">
<path d="M24.8499 49.6997C38.5741 49.6997 49.6997 38.5741 49.6997 24.8499C49.6997 11.1257 38.5741 0 24.8499 0C11.1257 0 0 11.1257 0 24.8499C0 38.5741 11.1257 49.6997 24.8499 49.6997Z" fill="#010201"/>
<path d="M18.2163 34.8262C18.2458 34.8519 18.2752 34.8814 18.3047 34.9072C18.5808 35.1023 18.7796 35.3821 19.041 35.5919C19.8583 36.2472 20.7786 36.6043 21.8315 36.6706C24.3276 36.8252 26.5033 34.9477 26.7868 32.4774C26.8015 32.3559 26.7941 32.2344 26.7941 32.1129C26.7941 24.6801 26.7941 17.2472 26.7941 9.81064C26.7941 9.30996 26.7941 9.30996 27.2948 9.30996C28.425 9.30996 29.5552 9.30996 30.6854 9.30996C30.7922 9.30996 30.9027 9.29156 30.9984 9.35783C31.0057 9.36519 31.0094 9.36887 31.0168 9.37255C31.072 9.42777 31.0867 9.5014 31.1014 9.57135C31.5359 11.5741 32.5888 13.1718 34.2417 14.3793C34.3448 14.453 34.4332 14.5487 34.5289 14.6297C34.6025 14.6923 34.6725 14.7512 34.7461 14.8137C35.0112 14.9647 35.2026 15.2077 35.4345 15.4028C36.3475 16.1648 37.382 16.6913 38.5343 16.9858C38.6374 17.0116 38.7515 17.0116 38.8252 17.1073C38.8288 17.1147 38.8362 17.1183 38.8436 17.122C38.9098 17.192 38.8988 17.284 38.8988 17.3687C38.8988 18.6793 38.9025 19.9899 38.8988 21.3005C38.8988 21.5987 38.8583 21.6171 38.5564 21.6171C37.5955 21.6171 36.6531 21.4882 35.7217 21.2747C34.1166 20.9066 32.6366 20.255 31.2634 19.353C31.1935 19.3051 31.1162 19.2057 31.0389 19.2389C30.9432 19.283 30.991 19.4082 30.991 19.4966C30.9873 23.1854 31.0057 26.8742 30.9836 30.5667C30.9689 33.1474 30.148 35.452 28.4582 37.4179C26.6653 39.5053 24.3865 40.7165 21.6511 41.0515C19.5417 41.3092 17.5426 40.9264 15.643 39.9913C15.3374 39.8403 15.0429 39.6636 14.7668 39.4575C14.6821 39.3801 14.5938 39.3028 14.5054 39.2255C13.8501 38.6844 13.3973 37.9849 12.9702 37.2707C12.3149 36.1662 11.8916 34.9734 11.6854 33.707C11.5676 32.9818 11.505 32.2528 11.5455 31.5202C11.6744 29.1567 12.4696 27.0509 13.9937 25.2286C15.2712 23.7008 16.8689 22.6332 18.7501 21.9889C19.5343 21.7202 20.3442 21.5545 21.1762 21.4956C21.3309 21.4846 21.4818 21.4477 21.6364 21.4588C21.71 21.4625 21.7837 21.4551 21.8499 21.5066C21.8573 21.514 21.8647 21.5177 21.872 21.5214C21.9162 21.595 21.9052 21.6797 21.9052 21.757C21.9052 23.086 21.9052 24.4187 21.9052 25.7477C21.9052 25.7955 21.9052 25.8434 21.9015 25.8876C21.8941 26.0201 21.8278 26.0643 21.7027 26.0312C21.3382 25.9281 20.9664 25.8802 20.5909 25.8618C20.0092 25.8324 19.4349 25.9134 18.8864 26.1158C17.0567 26.7895 15.9485 28.1001 15.7166 30.0292C15.4884 31.9289 16.2394 33.4493 17.8187 34.5464C17.955 34.6347 18.0912 34.7194 18.2163 34.8262Z" fill="white"/>
<path d="M14.7744 39.4612C14.8444 39.4428 14.8849 39.498 14.9327 39.5274C16.1218 40.2527 17.403 40.7276 18.7798 40.9485C19.472 41.0589 20.1678 41.1068 20.8672 41.07C23.205 40.9485 25.2997 40.1717 27.111 38.6733C28.8523 37.2339 30.012 35.4152 30.59 33.2321C30.7741 32.5437 30.8735 31.8405 30.9103 31.1263C30.9324 30.7177 30.9287 30.3054 30.9287 29.8967C30.9287 26.3809 30.9287 22.8651 30.9287 19.3493C30.9287 19.2683 30.9287 19.191 30.9287 19.11C31.0207 19.0843 31.0612 19.1542 31.1127 19.1874C32.3644 20.0451 33.7192 20.6783 35.1844 21.0833C35.987 21.3042 36.8043 21.4514 37.6363 21.5251C37.986 21.5545 38.3358 21.5509 38.6818 21.5766C38.8328 21.5877 38.8365 21.5803 38.8401 21.422C38.8438 21.2527 38.8401 21.087 38.8401 20.9176C38.8401 19.7285 38.8401 18.5394 38.8401 17.3466C38.8401 17.273 38.8438 17.1994 38.8475 17.1257C39.1604 17.1625 39.4697 17.2288 39.7863 17.2509C39.9814 17.2656 40.1765 17.284 40.3716 17.2767C40.4673 17.273 40.5078 17.3061 40.4968 17.4055C40.4931 17.446 40.4968 17.4865 40.4968 17.527C40.4968 19.2463 40.4968 20.9692 40.4968 22.6884C40.4968 22.7216 40.4968 22.7547 40.4968 22.7878C40.4931 22.9388 40.4931 22.9424 40.3348 22.9388C39.7973 22.9388 39.2598 22.902 38.726 22.832C37.6363 22.6884 36.576 22.4234 35.5526 22.0221C34.5733 21.6392 33.6493 21.1532 32.7804 20.5569C32.7252 20.52 32.67 20.4869 32.589 20.4317C32.589 20.5311 32.589 20.601 32.589 20.6747C32.589 24.4334 32.5927 28.1922 32.589 31.9473C32.5853 33.95 32.0699 35.8128 30.9986 37.51C29.7064 39.5606 27.9172 41 25.6421 41.8283C24.2615 42.329 22.8295 42.5241 21.3606 42.4137C18.8829 42.2296 16.7403 41.2835 14.9143 39.6047C14.8591 39.5642 14.8186 39.509 14.7744 39.4612Z" fill="#CB1C54"/>
<path d="M30.9986 9.35787C30.925 9.36155 30.8513 9.36891 30.7777 9.36891C29.5665 9.36891 28.3553 9.36891 27.1478 9.36891C26.868 9.36891 26.868 9.36891 26.868 9.64134C26.868 17.0374 26.868 24.4298 26.8717 31.8258C26.8717 32.3412 26.8349 32.8456 26.6729 33.3352C26.1059 35.0655 24.9426 36.2068 23.1681 36.6117C21.2648 37.0461 19.6487 36.4645 18.3601 34.9882C18.3381 34.9624 18.3233 34.933 18.3086 34.9035C18.6767 35.0508 19.0449 35.1981 19.4351 35.2754C20.6758 35.522 21.8465 35.3306 22.9215 34.6679C24.1658 33.9022 24.8984 32.7793 25.1561 31.3472C25.204 31.0748 25.2113 30.7987 25.2113 30.5226C25.2113 23.1155 25.2113 15.7047 25.2113 8.29761C25.2113 7.95155 25.1635 7.99572 25.5059 7.99572C27.2141 7.99572 28.9223 7.99572 30.6304 7.99572C30.6709 7.99572 30.7114 7.99572 30.7519 7.99572C30.9287 7.99941 30.9286 7.99941 30.9286 8.17612C30.925 8.57003 30.9213 8.96763 30.9986 9.35787Z" fill="#6ABAC5"/>
<path d="M21.8538 21.5066C20.8119 21.5398 19.7885 21.7054 18.7981 22.0368C17.3661 22.5117 16.0923 23.259 14.9805 24.2825C13.5226 25.6262 12.5286 27.2534 11.9838 29.1567C11.7886 29.8341 11.6782 30.5299 11.6267 31.2331C11.5972 31.6564 11.5862 32.0798 11.6119 32.4995C11.6745 33.6739 11.9175 34.8078 12.3629 35.8975C12.8599 37.116 13.5594 38.2058 14.4687 39.1593C14.4871 39.1777 14.4982 39.2034 14.5129 39.2255C14.3068 39.1372 14.1411 38.9862 13.9681 38.85C12.2746 37.5063 11.0781 35.8128 10.4228 33.7475C10.1946 33.0296 10.051 32.2933 9.98104 31.5423C9.9295 30.9974 9.92582 30.4526 9.95895 29.9114C10.0399 28.6597 10.3381 27.4596 10.8535 26.3146C11.3947 25.1182 12.131 24.0579 13.0661 23.1412C14.1558 22.0736 15.4186 21.2747 16.858 20.7556C17.76 20.4317 18.6877 20.2329 19.6449 20.1629C20.337 20.1114 21.0254 20.1261 21.7175 20.2108C21.8096 20.2218 21.8648 20.2402 21.8648 20.3507C21.8574 20.7409 21.8574 21.1238 21.8538 21.5066Z" fill="#6ABAC5"/>
<path d="M18.217 34.8262C17.7973 34.6348 17.4329 34.3623 17.1015 34.0457C16.2732 33.2469 15.7799 32.2749 15.651 31.13C15.3823 28.7297 16.8954 26.6607 18.9975 26.0201C19.8958 25.7477 20.7941 25.7367 21.696 25.9797C21.7476 25.9944 21.7954 26.0165 21.8506 26.0017C21.8801 25.9281 21.8654 25.8545 21.8654 25.7808C21.8654 24.4371 21.8654 23.0934 21.8654 21.7497C21.8654 21.676 21.8727 21.6024 21.8764 21.5288C22.3955 21.4919 22.9109 21.5398 23.4263 21.5987C23.5073 21.6061 23.5294 21.6466 23.5257 21.7165C23.5257 21.757 23.5257 21.7975 23.5257 21.838C23.5257 23.6198 23.5257 25.4017 23.5257 27.1798C23.5257 27.2461 23.5441 27.3123 23.4999 27.386C23.2643 27.3418 23.0361 27.2718 22.7968 27.2387C21.4199 27.0473 20.1792 27.3676 19.0895 28.2253C18.1324 28.98 17.5433 29.9704 17.3445 31.1705C17.1347 32.4443 17.3998 33.626 18.1324 34.6973C18.1618 34.7342 18.1876 34.7783 18.217 34.8262Z" fill="#CB1C54"/>
<path d="M34.536 14.6336C34.0169 14.328 33.5641 13.9415 33.1481 13.5107C32.0289 12.3584 31.3221 10.9926 31.0202 9.41326C31.0165 9.39853 31.0202 9.38749 31.0202 9.37276C31.5025 9.34699 31.9884 9.36908 32.4707 9.36172C32.5554 9.36172 32.5959 9.39485 32.5848 9.47952C32.5811 9.51266 32.5848 9.54579 32.5848 9.57892C32.559 10.9337 32.9603 12.1707 33.623 13.334C33.8586 13.75 34.1421 14.1329 34.4476 14.501C34.4808 14.5415 34.5286 14.5747 34.536 14.6336Z" fill="#CB1C54"/>
<path d="M38.8252 17.1073C37.4483 16.8128 36.2371 16.1907 35.1842 15.2556C35.0296 15.1194 34.8713 14.9831 34.7461 14.8138C34.7976 14.8101 34.8345 14.8396 34.8749 14.8617C35.7106 15.3402 36.6016 15.6532 37.5514 15.8078C37.9195 15.8704 38.295 15.9072 38.6705 15.9035C38.8288 15.9035 38.8325 15.9072 38.8325 16.0581C38.8362 16.4115 38.8288 16.7613 38.8252 17.1073Z" fill="#6ABAC5"/>
</svg>
