<svg width="72" height="66" viewBox="0 0 72 66" fill="none" xmlns="http://www.w3.org/2000/svg">
<rect width="72" height="66" rx="7" fill="#F2F2F2"/>
<path d="M38 49.3473C34.0549 49.3473 30.2714 47.806 27.4818 45.0626C24.6922 42.3192 23.125 38.5983 23.125 34.7185C23.125 30.8388 24.6922 27.1179 27.4818 24.3745C30.2714 21.6311 34.0549 20.0898 38 20.0898C41.9451 20.0898 45.7286 21.6311 48.5182 24.3745C51.3078 27.1179 52.875 30.8388 52.875 34.7185C52.875 38.5983 51.3078 42.3192 48.5182 45.0626C45.7286 47.806 41.9451 49.3473 38 49.3473ZM38 51.4371C42.5087 51.4371 46.8327 49.6757 50.0208 46.5403C53.2089 43.405 55 39.1526 55 34.7185C55 30.2845 53.2089 26.0321 50.0208 22.8967C46.8327 19.7614 42.5087 18 38 18C33.4913 18 29.1673 19.7614 25.9792 22.8967C22.7911 26.0321 21 30.2845 21 34.7185C21 39.1526 22.7911 43.405 25.9792 46.5403C29.1673 49.6757 33.4913 51.4371 38 51.4371V51.4371Z" fill="#5AC9B4"/>
<path d="M32.1671 30.0917C32.1642 30.1592 32.1753 30.2266 32.1999 30.2897C32.2244 30.3527 32.2618 30.4102 32.3098 30.4586C32.3578 30.5069 32.4153 30.5451 32.4788 30.5708C32.5423 30.5965 32.6105 30.6091 32.6792 30.6079H34.4323C34.7256 30.6079 34.9593 30.3718 34.9976 30.0854C35.1888 28.7145 36.1451 27.7156 37.8493 27.7156C39.3071 27.7156 40.6416 28.4324 40.6416 30.1565C40.6416 31.4835 39.8468 32.0938 38.591 33.0216C37.1608 34.0436 36.0282 35.2368 36.109 37.1741L36.1153 37.6276C36.1176 37.7647 36.1745 37.8955 36.2739 37.9916C36.3733 38.0878 36.5071 38.1417 36.6466 38.1417H38.37C38.5108 38.1417 38.646 38.0867 38.7456 37.9887C38.8452 37.8907 38.9012 37.7578 38.9012 37.6192V37.3998C38.9012 35.8993 39.4813 35.4625 41.0475 34.2943C42.3416 33.3268 43.691 32.2526 43.691 29.9977C43.691 26.84 40.9795 25.3144 38.0108 25.3144C35.3185 25.3144 32.369 26.5474 32.1671 30.0917V30.0917ZM35.4757 42.1353C35.4757 43.2492 36.3788 44.0726 37.622 44.0726C38.9161 44.0726 39.8065 43.2492 39.8065 42.1353C39.8065 40.9818 38.914 40.1709 37.6198 40.1709C36.3788 40.1709 35.4757 40.9818 35.4757 42.1353Z" fill="#5AC9B4"/>
</svg>
