<svg width="64" height="64" viewBox="0 0 64 64" fill="none" xmlns="http://www.w3.org/2000/svg">
<path d="M8.9 56C7.2775 56 5.88903 55.4252 4.7346 54.2757C3.5782 53.1242 3 51.7406 3 50.125V14.875C3 13.2594 3.5782 11.8768 4.7346 10.7272C5.88903 9.57575 7.2775 9 8.9 9H44.3C45.9225 9 47.312 9.57575 48.4684 10.7272C49.6228 11.8768 50.2 13.2594 50.2 14.875V28.0938L59.4925 18.8406C59.935 18.4 60.464 18.2894 61.0796 18.5087C61.6932 18.73 62 19.1833 62 19.8687V45.1312C62 45.8167 61.6932 46.269 61.0796 46.4884C60.464 46.7097 59.935 46.6 59.4925 46.1594L50.2 36.9062V50.125C50.2 51.7406 49.6228 53.1242 48.4684 54.2757C47.312 55.4252 45.9225 56 44.3 56H8.9ZM14.8738 44.25H38.3263C38.9654 44.25 39.4207 43.9807 39.6921 43.4422C39.9615 42.9036 39.8996 42.3896 39.5063 41.9L32.3525 32.5734C32.0575 32.1818 31.6642 31.9859 31.1725 31.9859C30.6808 31.9859 30.2875 32.1818 29.9925 32.5734L24.3875 39.8438L20.995 35.4375C20.7 35.0458 20.3067 34.85 19.815 34.85C19.3233 34.85 18.93 35.0458 18.635 35.4375L13.6938 41.9C13.3004 42.3896 13.2385 42.9036 13.5079 43.4422C13.7793 43.9807 14.2346 44.25 14.8738 44.25V44.25Z" fill="#43C1A9"/>
</svg>
