<svg width="25" height="25" viewBox="0 0 25 25" fill="none" xmlns="http://www.w3.org/2000/svg">
<path d="M12.5 0C5.60722 0 0 5.60722 0 12.5C0 19.3928 5.60722 25 12.5 25C19.3928 25 25 19.3928 25 12.5C25 5.60722 19.3928 0 12.5 0ZM18.8354 9.85107L12.0646 16.6218C11.8614 16.8249 11.5948 16.9271 11.3281 16.9271C11.0615 16.9271 10.7948 16.8249 10.5917 16.6218L7.20634 13.2364C6.79893 12.8292 6.79893 12.1708 7.20634 11.7636C7.61356 11.3562 8.27179 11.3562 8.6792 11.7636L11.3281 14.4125L17.3626 8.37822C17.7698 7.97081 18.428 7.97081 18.8354 8.37822C19.2427 8.78544 19.2427 9.44366 18.8354 9.85107V9.85107Z" fill="#00FF19"/>
</svg>
