<svg width="50" height="50" viewBox="0 0 50 50" fill="none" xmlns="http://www.w3.org/2000/svg">
<path d="M24.8499 49.6997C38.5741 49.6997 49.6998 38.5741 49.6998 24.8499C49.6998 11.1257 38.5741 0 24.8499 0C11.1257 0 0 11.1257 0 24.8499C0 38.5741 11.1257 49.6997 24.8499 49.6997Z" fill="#DA0000"/>
<path d="M40.7243 16.8757C40.3451 15.451 39.2222 14.3282 37.7938 13.9453C35.2094 13.2532 24.8498 13.2532 24.8498 13.2532C24.8498 13.2532 14.4902 13.2532 11.9058 13.9453C10.481 14.3282 9.35819 15.4473 8.97532 16.8757C8.2832 19.4601 8.2832 24.8498 8.2832 24.8498C8.2832 24.8498 8.2832 30.2394 8.97532 32.8238C9.35819 34.2486 10.4774 35.3714 11.9058 35.7543C14.4902 36.4464 24.8498 36.4464 24.8498 36.4464C24.8498 36.4464 35.2094 36.4464 37.7938 35.7543C39.2185 35.3714 40.3414 34.2522 40.7243 32.8238C41.4164 30.2394 41.4164 24.8498 41.4164 24.8498C41.4164 24.8498 41.4164 19.4601 40.7243 16.8757ZM21.5365 29.8198V19.8798L30.1437 24.8498L21.5365 29.8198Z" fill="white"/>
</svg>
