<svg width="25" height="25" viewBox="0 0 25 25" fill="none" xmlns="http://www.w3.org/2000/svg">
<path d="M7.64482 10.5052L12.4998 5.65038L17.3574 10.5078L20.1824 7.68278L12.4998 0L4.81982 7.68022L7.64482 10.5052Z" fill="#F3BA2F"/>
<path d="M5.65014 12.4997L2.8252 9.6748L0.000113015 12.4999L2.82506 15.3248L5.65014 12.4997Z" fill="#F3BA2F"/>
<path d="M7.64506 14.4946L12.5001 19.3494L17.3575 14.4922L20.1841 17.3156L20.1827 17.3172L12.5001 24.9998L4.81987 17.3197L4.81592 17.3158L7.64506 14.4946Z" fill="#F3BA2F"/>
<path d="M22.1754 15.3261L25.0005 12.501L22.1755 9.67603L19.3505 12.5011L22.1754 15.3261Z" fill="#F3BA2F"/>
<path d="M15.3653 12.4985H15.3665L12.4999 9.63184L10.3814 11.7503H10.3812L10.1379 11.9938L9.63579 12.4959L9.63184 12.4999L9.63579 12.504L12.4999 15.3681L15.3665 12.5015L15.3679 12.4999L15.3653 12.4985Z" fill="#F3BA2F"/>
</svg>
