<svg width="28" height="25" viewBox="0 0 28 25" fill="none" xmlns="http://www.w3.org/2000/svg">
<path d="M11.5697 15.0196H10.0072C9.06964 15.0196 12.2641 19.4988 14.5732 20.0023C15.094 20.1064 15.3545 20.3669 15.3545 20.8703V24.1516C15.3371 24.7767 14.9725 25.0718 14.3649 24.985C9.95507 24.2558 6.74322 21.8947 4.74666 17.8842C4.45152 17.3113 4.22582 16.721 4.0522 16.096C3.72234 15.0716 3.68762 15.0196 2.59385 14.9848C1.23966 14.9501 0.354231 14.2557 0.0590878 13.023C-0.270778 11.6341 0.822988 10.1757 2.28134 10.0889C2.48968 10.0716 2.68066 10.0716 2.88899 10.0889C3.514 10.141 3.84387 9.79379 4.00012 9.23822C4.38207 7.84931 4.98972 6.52985 5.8057 5.34927C6.4828 4.35968 6.83002 4.32495 7.68073 5.14094C8.3231 5.76595 8.94811 6.42568 9.59048 7.05069C10.0072 7.45 10.1113 7.88403 9.74674 8.37015C9.55576 8.63057 9.39951 8.90836 9.26062 9.2035C8.96547 9.81115 9.12173 10.0716 9.79882 10.0716C10.9794 10.0889 12.1426 10.0716 13.3405 10.0716C14.5906 10.0889 15.5107 10.8528 15.8059 12.1029C16.0316 13.1098 15.476 14.3425 14.3996 14.7418C13.7746 14.9848 13.028 14.9501 12.3336 15.0022C12.0905 15.0369 11.8301 15.0196 11.5697 15.0196Z" fill="#007EA4"/>
<path d="M16.778 0.00213781C20.8579 0.175752 24.4517 2.18967 26.9171 6.13071C27.7678 7.50225 27.5247 8.76963 26.3094 9.51617C25.0073 10.3495 23.549 10.0023 22.733 8.68283C21.5003 6.68627 19.7642 5.41889 17.4551 4.98485C15.6148 4.65499 13.7051 5.00221 12.1078 5.99181C11.3786 6.44321 11.1529 6.39113 10.5453 5.78348L8.60081 3.839C8.04524 3.24872 8.0626 2.84941 8.72234 2.36329C10.7883 0.852847 13.6182 -0.0499463 16.778 0.00213781ZM16.9516 22.5025V20.8358C16.9169 20.4538 17.1773 20.124 17.5593 20.0719C19.8857 19.5858 21.6045 18.2837 22.8198 16.2698C23.358 15.367 24.2087 15.0197 25.2156 15.176C26.1358 15.3149 26.8476 15.7836 27.2469 16.6517C27.5073 17.2246 27.4726 17.8844 27.1775 18.4399C25.3198 21.9643 21.8996 24.3775 17.9586 24.9504C17.2815 25.0372 16.969 24.7942 16.9516 24.1171C16.9343 23.5963 16.9516 23.058 16.9516 22.5025Z" fill="#1AA64A"/>
</svg>
